<?xml version="1.0" encoding="UTF-8" standalone="no"?>
<!DOCTYPE svg PUBLIC "-//W3C//DTD SVG 1.1//EN"
 "http://www.w3.org/Graphics/SVG/1.1/DTD/svg11.dtd">
<!-- Generated by graphviz version 2.43.0 (0)
 -->
<!-- Title: rvdpdgraph Pages: 1 -->
<svg width="522pt" height="265pt"
 viewBox="0.00 0.00 522.00 265.00" xmlns="http://www.w3.org/2000/svg" xmlns:xlink="http://www.w3.org/1999/xlink">
<g id="graph0" class="graph" transform="scale(1 1) rotate(0) translate(4 261)">
<title>rvdpdgraph</title>
<polygon fill="white" stroke="transparent" points="-4,4 -4,-261 518,-261 518,4 -4,4"/>
<g id="clust1" class="cluster">
<title>cluster_VLSM</title>
<polygon fill="#ffffc3" stroke="black" points="8.32,-8 8.32,-249 505.68,-249 505.68,-8 8.32,-8"/>
<text text-anchor="middle" x="35.82" y="-233.8" font-family="Times,serif" font-size="14.00">VLSM</text>
</g>
<g id="clust2" class="cluster">
<title>cluster_VLSM_Lib</title>
<polygon fill="#ffffa3" stroke="black" points="16.65,-16 16.65,-218 497.35,-218 497.35,-16 16.65,-16"/>
<text text-anchor="middle" x="34.15" y="-202.8" font-family="Times,serif" font-size="14.00">Lib</text>
</g>
<g id="clust3" class="cluster">
<title>cluster_VLSM_Lib_FinFunExtras</title>
<polygon fill="#ffff83" stroke="black" points="24.97,-24 24.97,-187 489.03,-187 489.03,-24 24.97,-24"/>
<text text-anchor="middle" x="69.97" y="-171.8" font-family="Times,serif" font-size="14.00">FinFunExtras</text>
</g>
<!-- VLSM_Lib_FinFunExtras_right_finite -->
<g id="node1" class="node">
<title>VLSM_Lib_FinFunExtras_right_finite</title>
<g id="a_node1"><a xlink:href="VLSM.Lib.FinFunExtras.html#right_finite" xlink:title="right_finite" target="_top">
<ellipse fill="#7fffd4" stroke="black" cx="420.15" cy="-130" rx="50.08" ry="18"/>
<ellipse fill="none" stroke="black" cx="420.15" cy="-130" rx="54.09" ry="22"/>
<ellipse fill="none" stroke="black" cx="420.15" cy="-130" rx="58.09" ry="26"/>
<text text-anchor="middle" x="420.15" y="-126.3" font-family="Times,serif" font-size="14.00">right_finite</text>
</a>
</g>
</g>
<!-- VLSM_Lib_FinFunExtras_right_listing -->
<g id="node3" class="node">
<title>VLSM_Lib_FinFunExtras_right_listing</title>
<g id="a_node3"><a xlink:href="VLSM.Lib.FinFunExtras.html#right_listing" xlink:title="right_listing" target="_top">
<ellipse fill="#f070d1" stroke="black" cx="424.15" cy="-50" rx="53.89" ry="18"/>
<text text-anchor="middle" x="424.15" y="-46.3" font-family="Times,serif" font-size="14.00">right_listing</text>
</a>
</g>
</g>
<!-- VLSM_Lib_FinFunExtras_right_finite&#45;&gt;VLSM_Lib_FinFunExtras_right_listing -->
<g id="edge1" class="edge">
<title>VLSM_Lib_FinFunExtras_right_finite&#45;&gt;VLSM_Lib_FinFunExtras_right_listing</title>
<path fill="none" stroke="black" d="M421.44,-103.89C421.85,-95.84 422.31,-86.88 422.73,-78.66"/>
<polygon fill="black" stroke="black" points="426.24,-78.58 423.26,-68.41 419.25,-78.22 426.24,-78.58"/>
</g>
<!-- VLSM_Lib_FinFunExtras_map_option_listing -->
<g id="node5" class="node">
<title>VLSM_Lib_FinFunExtras_map_option_listing</title>
<g id="a_node5"><a xlink:href="VLSM.Lib.FinFunExtras.html#map_option_listing" xlink:title="map_option_listing" target="_top">
<ellipse fill="#7fffd4" stroke="black" cx="267.15" cy="-50" rx="79.09" ry="18"/>
<text text-anchor="middle" x="267.15" y="-46.3" font-family="Times,serif" font-size="14.00">map_option_listing</text>
</a>
</g>
</g>
<!-- VLSM_Lib_FinFunExtras_right_finite&#45;&gt;VLSM_Lib_FinFunExtras_map_option_listing -->
<g id="edge2" class="edge">
<title>VLSM_Lib_FinFunExtras_right_finite&#45;&gt;VLSM_Lib_FinFunExtras_map_option_listing</title>
<path fill="none" stroke="black" d="M382.72,-109.92C359.68,-98.17 330.18,-83.13 306.75,-71.19"/>
<polygon fill="black" stroke="black" points="308.27,-68.03 297.77,-66.61 305.09,-74.27 308.27,-68.03"/>
</g>
<!-- VLSM_Lib_FinFunExtras_left_finite -->
<g id="node2" class="node">
<title>VLSM_Lib_FinFunExtras_left_finite</title>
<g id="a_node2"><a xlink:href="VLSM.Lib.FinFunExtras.html#left_finite" xlink:title="left_finite" target="_top">
<ellipse fill="#7fffd4" stroke="black" cx="285.15" cy="-130" rx="45.49" ry="18"/>
<ellipse fill="none" stroke="black" cx="285.15" cy="-130" rx="49.49" ry="22"/>
<ellipse fill="none" stroke="black" cx="285.15" cy="-130" rx="53.49" ry="26"/>
<text text-anchor="middle" x="285.15" y="-126.3" font-family="Times,serif" font-size="14.00">left_finite</text>
</a>
</g>
</g>
<!-- VLSM_Lib_FinFunExtras_left_listing -->
<g id="node4" class="node">
<title>VLSM_Lib_FinFunExtras_left_listing</title>
<g id="a_node4"><a xlink:href="VLSM.Lib.FinFunExtras.html#left_listing" xlink:title="left_listing" target="_top">
<ellipse fill="#f070d1" stroke="black" cx="115.15" cy="-50" rx="48.99" ry="18"/>
<text text-anchor="middle" x="115.15" y="-46.3" font-family="Times,serif" font-size="14.00">left_listing</text>
</a>
</g>
</g>
<!-- VLSM_Lib_FinFunExtras_left_finite&#45;&gt;VLSM_Lib_FinFunExtras_left_listing -->
<g id="edge3" class="edge">
<title>VLSM_Lib_FinFunExtras_left_finite&#45;&gt;VLSM_Lib_FinFunExtras_left_listing</title>
<path fill="none" stroke="black" d="M247,-111.5C219.24,-98.76 181.79,-81.57 153.89,-68.77"/>
<polygon fill="black" stroke="black" points="155,-65.43 144.45,-64.45 152.08,-71.8 155,-65.43"/>
</g>
<!-- VLSM_Lib_FinFunExtras_left_finite&#45;&gt;VLSM_Lib_FinFunExtras_map_option_listing -->
<g id="edge4" class="edge">
<title>VLSM_Lib_FinFunExtras_left_finite&#45;&gt;VLSM_Lib_FinFunExtras_map_option_listing</title>
<path fill="none" stroke="black" d="M279.36,-103.89C277.48,-95.75 275.38,-86.68 273.47,-78.38"/>
<polygon fill="black" stroke="black" points="276.83,-77.37 271.17,-68.41 270.01,-78.94 276.83,-77.37"/>
</g>
<!-- VLSM_Lib_FinFunExtras_listing_from_finite -->
<g id="node6" class="node">
<title>VLSM_Lib_FinFunExtras_listing_from_finite</title>
<g id="a_node6"><a xlink:href="VLSM.Lib.FinFunExtras.html#listing_from_finite" xlink:title="listing_from_finite" target="_top">
<ellipse fill="#7fffd4" stroke="black" cx="122.15" cy="-130" rx="77.2" ry="18"/>
<ellipse fill="none" stroke="black" cx="122.15" cy="-130" rx="81.19" ry="22"/>
<ellipse fill="none" stroke="black" cx="122.15" cy="-130" rx="85.19" ry="26"/>
<text text-anchor="middle" x="122.15" y="-126.3" font-family="Times,serif" font-size="14.00">listing_from_finite</text>
</a>
</g>
</g>
</g>
</svg>
