<?xml version="1.0" encoding="UTF-8" standalone="no"?>
<!DOCTYPE svg PUBLIC "-//W3C//DTD SVG 1.1//EN"
 "http://www.w3.org/Graphics/SVG/1.1/DTD/svg11.dtd">
<!-- Generated by graphviz version 2.43.0 (0)
 -->
<!-- Title: rvdpdgraph Pages: 1 -->
<svg width="1658pt" height="833pt"
 viewBox="0.00 0.00 1658.00 833.00" xmlns="http://www.w3.org/2000/svg" xmlns:xlink="http://www.w3.org/1999/xlink">
<g id="graph0" class="graph" transform="scale(1 1) rotate(0) translate(4 829)">
<title>rvdpdgraph</title>
<polygon fill="white" stroke="transparent" points="-4,4 -4,-829 1654,-829 1654,4 -4,4"/>
<g id="clust1" class="cluster">
<title>cluster_VLSM</title>
<polygon fill="#ffffc3" stroke="black" points="9.84,-8 9.84,-817 1640.16,-817 1640.16,-8 9.84,-8"/>
<text text-anchor="middle" x="37.34" y="-801.8" font-family="Times,serif" font-size="14.00">VLSM</text>
</g>
<g id="clust2" class="cluster">
<title>cluster_VLSM_Lib</title>
<polygon fill="#ffffa3" stroke="black" points="19.69,-16 19.69,-786 1630.31,-786 1630.31,-16 19.69,-16"/>
<text text-anchor="middle" x="37.19" y="-770.8" font-family="Times,serif" font-size="14.00">Lib</text>
</g>
<g id="clust3" class="cluster">
<title>cluster_VLSM_Lib_TopSort</title>
<polygon fill="#ffff83" stroke="black" points="29.53,-24 29.53,-755 1620.47,-755 1620.47,-24 29.53,-24"/>
<text text-anchor="middle" x="60.03" y="-739.8" font-family="Times,serif" font-size="14.00">TopSort</text>
</g>
<!-- VLSM_Lib_TopSort_get_maximal_element_some -->
<g id="node1" class="node">
<title>VLSM_Lib_TopSort_get_maximal_element_some</title>
<g id="a_node1"><a xlink:href="VLSM.Lib.TopSort.html#get_maximal_element_some" xlink:title="get_maximal_element_some" target="_top">
<ellipse fill="#7fffd4" stroke="black" cx="1460.41" cy="-610" rx="113.96" ry="18"/>
<ellipse fill="none" stroke="black" cx="1460.41" cy="-610" rx="117.97" ry="22"/>
<ellipse fill="none" stroke="black" cx="1460.41" cy="-610" rx="121.98" ry="26"/>
<text text-anchor="middle" x="1460.41" y="-606.3" font-family="Times,serif" font-size="14.00">get_maximal_element_some</text>
</a>
</g>
</g>
<!-- VLSM_Lib_TopSort_get_maximal_element -->
<g id="node4" class="node">
<title>VLSM_Lib_TopSort_get_maximal_element</title>
<g id="a_node4"><a xlink:href="VLSM.Lib.TopSort.html#get_maximal_element" xlink:title="get_maximal_element" target="_top">
<ellipse fill="#f070d1" stroke="black" cx="1460.41" cy="-522" rx="90.18" ry="18"/>
<text text-anchor="middle" x="1460.41" y="-518.3" font-family="Times,serif" font-size="14.00">get_maximal_element</text>
</a>
</g>
</g>
<!-- VLSM_Lib_TopSort_get_maximal_element_some&#45;&gt;VLSM_Lib_TopSort_get_maximal_element -->
<g id="edge1" class="edge">
<title>VLSM_Lib_TopSort_get_maximal_element_some&#45;&gt;VLSM_Lib_TopSort_get_maximal_element</title>
<path fill="none" stroke="black" d="M1460.41,-583.66C1460.41,-573.11 1460.41,-560.84 1460.41,-550.1"/>
<polygon fill="black" stroke="black" points="1463.91,-550 1460.41,-540 1456.91,-550 1463.91,-550"/>
</g>
<!-- VLSM_Lib_TopSort_get_maximal_element_correct -->
<g id="node2" class="node">
<title>VLSM_Lib_TopSort_get_maximal_element_correct</title>
<g id="a_node2"><a xlink:href="VLSM.Lib.TopSort.html#get_maximal_element_correct" xlink:title="get_maximal_element_correct" target="_top">
<ellipse fill="#7fffd4" stroke="black" cx="1182.41" cy="-698" rx="118.88" ry="18"/>
<ellipse fill="none" stroke="black" cx="1182.41" cy="-698" rx="122.88" ry="22"/>
<ellipse fill="none" stroke="black" cx="1182.41" cy="-698" rx="126.88" ry="26"/>
<text text-anchor="middle" x="1182.41" y="-694.3" font-family="Times,serif" font-size="14.00">get_maximal_element_correct</text>
</a>
</g>
</g>
<!-- VLSM_Lib_TopSort_maximal_element_in -->
<g id="node3" class="node">
<title>VLSM_Lib_TopSort_maximal_element_in</title>
<g id="a_node3"><a xlink:href="VLSM.Lib.TopSort.html#maximal_element_in" xlink:title="maximal_element_in" target="_top">
<ellipse fill="#7fffd4" stroke="black" cx="1182.41" cy="-610" rx="86.38" ry="18"/>
<text text-anchor="middle" x="1182.41" y="-606.3" font-family="Times,serif" font-size="14.00">maximal_element_in</text>
</a>
</g>
</g>
<!-- VLSM_Lib_TopSort_get_maximal_element_correct&#45;&gt;VLSM_Lib_TopSort_maximal_element_in -->
<g id="edge2" class="edge">
<title>VLSM_Lib_TopSort_get_maximal_element_correct&#45;&gt;VLSM_Lib_TopSort_maximal_element_in</title>
<path fill="none" stroke="black" d="M1182.41,-671.66C1182.41,-661.11 1182.41,-648.84 1182.41,-638.1"/>
<polygon fill="black" stroke="black" points="1185.91,-638 1182.41,-628 1178.91,-638 1185.91,-638"/>
</g>
<!-- VLSM_Lib_TopSort_maximal_element_in&#45;&gt;VLSM_Lib_TopSort_get_maximal_element -->
<g id="edge3" class="edge">
<title>VLSM_Lib_TopSort_maximal_element_in&#45;&gt;VLSM_Lib_TopSort_get_maximal_element</title>
<path fill="none" stroke="black" d="M1228.63,-594.7C1276.78,-579.81 1352.28,-556.45 1403.94,-540.47"/>
<polygon fill="black" stroke="black" points="1405.1,-543.77 1413.61,-537.48 1403.03,-537.09 1405.1,-543.77"/>
</g>
<!-- VLSM_Lib_TopSort_top_sort_correct -->
<g id="node5" class="node">
<title>VLSM_Lib_TopSort_top_sort_correct</title>
<g id="a_node5"><a xlink:href="VLSM.Lib.TopSort.html#top_sort_correct" xlink:title="top_sort_correct" target="_top">
<ellipse fill="#7fffd4" stroke="black" cx="1182.41" cy="-522" rx="68.49" ry="18"/>
<text text-anchor="middle" x="1182.41" y="-518.3" font-family="Times,serif" font-size="14.00">top_sort_correct</text>
</a>
</g>
</g>
<!-- VLSM_Lib_TopSort_maximal_element_in&#45;&gt;VLSM_Lib_TopSort_top_sort_correct -->
<g id="edge4" class="edge">
<title>VLSM_Lib_TopSort_maximal_element_in&#45;&gt;VLSM_Lib_TopSort_top_sort_correct</title>
<path fill="none" stroke="black" d="M1182.41,-591.6C1182.41,-579.75 1182.41,-563.82 1182.41,-550.29"/>
<polygon fill="black" stroke="black" points="1185.91,-550.08 1182.41,-540.08 1178.91,-550.08 1185.91,-550.08"/>
</g>
<!-- VLSM_Lib_TopSort_top_sort -->
<g id="node10" class="node">
<title>VLSM_Lib_TopSort_top_sort</title>
<g id="a_node10"><a xlink:href="VLSM.Lib.TopSort.html#top_sort" xlink:title="top_sort" target="_top">
<ellipse fill="#f070d1" stroke="black" cx="1561.41" cy="-282" rx="39.79" ry="18"/>
<text text-anchor="middle" x="1561.41" y="-278.3" font-family="Times,serif" font-size="14.00">top_sort</text>
</a>
</g>
</g>
<!-- VLSM_Lib_TopSort_get_maximal_element&#45;&gt;VLSM_Lib_TopSort_top_sort -->
<g id="edge5" class="edge">
<title>VLSM_Lib_TopSort_get_maximal_element&#45;&gt;VLSM_Lib_TopSort_top_sort</title>
<path fill="none" stroke="black" d="M1513.67,-507.31C1537.86,-498.15 1564.2,-483.34 1578.41,-460 1606.95,-413.12 1587.65,-345.99 1573.19,-309.34"/>
<polygon fill="black" stroke="black" points="1576.33,-307.77 1569.28,-299.86 1569.86,-310.44 1576.33,-307.77"/>
</g>
<!-- VLSM_Lib_TopSort_topological_sorting -->
<g id="node6" class="node">
<title>VLSM_Lib_TopSort_topological_sorting</title>
<g id="a_node6"><a xlink:href="VLSM.Lib.TopSort.html#topological_sorting" xlink:title="topological_sorting" target="_top">
<ellipse fill="#f070d1" stroke="black" cx="1101.41" cy="-434" rx="79.09" ry="18"/>
<text text-anchor="middle" x="1101.41" y="-430.3" font-family="Times,serif" font-size="14.00">topological_sorting</text>
</a>
</g>
</g>
<!-- VLSM_Lib_TopSort_top_sort_correct&#45;&gt;VLSM_Lib_TopSort_topological_sorting -->
<g id="edge6" class="edge">
<title>VLSM_Lib_TopSort_top_sort_correct&#45;&gt;VLSM_Lib_TopSort_topological_sorting</title>
<path fill="none" stroke="black" d="M1166.79,-504.42C1154.76,-491.65 1137.96,-473.81 1124.4,-459.41"/>
<polygon fill="black" stroke="black" points="1126.66,-456.7 1117.25,-451.82 1121.56,-461.5 1126.66,-456.7"/>
</g>
<!-- VLSM_Lib_TopSort_top_sort_sorted -->
<g id="node7" class="node">
<title>VLSM_Lib_TopSort_top_sort_sorted</title>
<g id="a_node7"><a xlink:href="VLSM.Lib.TopSort.html#top_sort_sorted" xlink:title="top_sort_sorted" target="_top">
<ellipse fill="#7fffd4" stroke="black" cx="1301.41" cy="-434" rx="65.79" ry="18"/>
<text text-anchor="middle" x="1301.41" y="-430.3" font-family="Times,serif" font-size="14.00">top_sort_sorted</text>
</a>
</g>
</g>
<!-- VLSM_Lib_TopSort_top_sort_correct&#45;&gt;VLSM_Lib_TopSort_top_sort_sorted -->
<g id="edge7" class="edge">
<title>VLSM_Lib_TopSort_top_sort_correct&#45;&gt;VLSM_Lib_TopSort_top_sort_sorted</title>
<path fill="none" stroke="black" d="M1204.79,-504.82C1223.49,-491.31 1250.33,-471.91 1270.98,-456.99"/>
<polygon fill="black" stroke="black" points="1273.07,-459.8 1279.12,-451.1 1268.97,-454.12 1273.07,-459.8"/>
</g>
<!-- VLSM_Lib_TopSort_topologically_sorted -->
<g id="node19" class="node">
<title>VLSM_Lib_TopSort_topologically_sorted</title>
<g id="a_node19"><a xlink:href="VLSM.Lib.TopSort.html#topologically_sorted" xlink:title="topologically_sorted" target="_top">
<ellipse fill="#f070d1" stroke="black" cx="836.41" cy="-354" rx="83.39" ry="18"/>
<text text-anchor="middle" x="836.41" y="-350.3" font-family="Times,serif" font-size="14.00">topologically_sorted</text>
</a>
</g>
</g>
<!-- VLSM_Lib_TopSort_topological_sorting&#45;&gt;VLSM_Lib_TopSort_topologically_sorted -->
<g id="edge8" class="edge">
<title>VLSM_Lib_TopSort_topological_sorting&#45;&gt;VLSM_Lib_TopSort_topologically_sorted</title>
<path fill="none" stroke="black" d="M1054.94,-419.32C1009.95,-406.08 941.64,-385.97 893.38,-371.77"/>
<polygon fill="black" stroke="black" points="894.29,-368.39 883.71,-368.92 892.31,-375.1 894.29,-368.39"/>
</g>
<!-- VLSM_Lib_TopSort_top_sort_set_eq -->
<g id="node9" class="node">
<title>VLSM_Lib_TopSort_top_sort_set_eq</title>
<g id="a_node9"><a xlink:href="VLSM.Lib.TopSort.html#top_sort_set_eq" xlink:title="top_sort_set_eq" target="_top">
<ellipse fill="#7fffd4" stroke="black" cx="1439.41" cy="-354" rx="66.09" ry="18"/>
<text text-anchor="middle" x="1439.41" y="-350.3" font-family="Times,serif" font-size="14.00">top_sort_set_eq</text>
</a>
</g>
</g>
<!-- VLSM_Lib_TopSort_top_sort_sorted&#45;&gt;VLSM_Lib_TopSort_top_sort_set_eq -->
<g id="edge9" class="edge">
<title>VLSM_Lib_TopSort_top_sort_sorted&#45;&gt;VLSM_Lib_TopSort_top_sort_set_eq</title>
<path fill="none" stroke="black" d="M1328.67,-417.59C1349.89,-405.6 1379.55,-388.83 1402.83,-375.68"/>
<polygon fill="black" stroke="black" points="1404.74,-378.61 1411.73,-370.65 1401.3,-372.52 1404.74,-378.61"/>
</g>
<!-- VLSM_Lib_TopSort_top_sort_sorted&#45;&gt;VLSM_Lib_TopSort_topologically_sorted -->
<g id="edge10" class="edge">
<title>VLSM_Lib_TopSort_top_sort_sorted&#45;&gt;VLSM_Lib_TopSort_topologically_sorted</title>
<path fill="none" stroke="black" d="M1253.6,-421.55C1233.8,-417.01 1210.56,-411.94 1189.41,-408 1096.07,-390.6 988.01,-375.04 916.29,-365.35"/>
<polygon fill="black" stroke="black" points="916.35,-361.83 905.97,-363.97 915.42,-368.77 916.35,-361.83"/>
</g>
<!-- VLSM_Lib_TopSort_min_predecessors_zero -->
<g id="node20" class="node">
<title>VLSM_Lib_TopSort_min_predecessors_zero</title>
<g id="a_node20"><a xlink:href="VLSM.Lib.TopSort.html#min_predecessors_zero" xlink:title="min_predecessors_zero" target="_top">
<ellipse fill="#7fffd4" stroke="black" cx="1132.41" cy="-354" rx="93.68" ry="18"/>
<text text-anchor="middle" x="1132.41" y="-350.3" font-family="Times,serif" font-size="14.00">min_predecessors_zero</text>
</a>
</g>
</g>
<!-- VLSM_Lib_TopSort_top_sort_sorted&#45;&gt;VLSM_Lib_TopSort_min_predecessors_zero -->
<g id="edge11" class="edge">
<title>VLSM_Lib_TopSort_top_sort_sorted&#45;&gt;VLSM_Lib_TopSort_min_predecessors_zero</title>
<path fill="none" stroke="black" d="M1269.22,-418.15C1242.78,-405.94 1205.07,-388.53 1175.93,-375.09"/>
<polygon fill="black" stroke="black" points="1177.34,-371.88 1166.8,-370.87 1174.41,-378.24 1177.34,-371.88"/>
</g>
<!-- VLSM_Lib_TopSort_zero_predecessors -->
<g id="node29" class="node">
<title>VLSM_Lib_TopSort_zero_predecessors</title>
<g id="a_node29"><a xlink:href="VLSM.Lib.TopSort.html#zero_predecessors" xlink:title="zero_predecessors" target="_top">
<ellipse fill="#7fffd4" stroke="black" cx="1027.41" cy="-122" rx="75.29" ry="18"/>
<text text-anchor="middle" x="1027.41" y="-118.3" font-family="Times,serif" font-size="14.00">zero_predecessors</text>
</a>
</g>
</g>
<!-- VLSM_Lib_TopSort_top_sort_sorted&#45;&gt;VLSM_Lib_TopSort_zero_predecessors -->
<g id="edge12" class="edge">
<title>VLSM_Lib_TopSort_top_sort_sorted&#45;&gt;VLSM_Lib_TopSort_zero_predecessors</title>
<path fill="none" stroke="black" d="M1252.2,-422.01C1173.9,-404.52 1029.64,-372.26 1029.41,-372 973.4,-310.32 1000.58,-200.39 1017.45,-149.81"/>
<polygon fill="black" stroke="black" points="1020.8,-150.84 1020.75,-140.24 1014.18,-148.55 1020.8,-150.84"/>
</g>
<!-- VLSM_Lib_TopSort_top_sort_nodup -->
<g id="node8" class="node">
<title>VLSM_Lib_TopSort_top_sort_nodup</title>
<g id="a_node8"><a xlink:href="VLSM.Lib.TopSort.html#top_sort_nodup" xlink:title="top_sort_nodup" target="_top">
<ellipse fill="#7fffd4" stroke="black" cx="1495.41" cy="-434" rx="65.77" ry="18"/>
<ellipse fill="none" stroke="black" cx="1495.41" cy="-434" rx="69.78" ry="22"/>
<ellipse fill="none" stroke="black" cx="1495.41" cy="-434" rx="73.79" ry="26"/>
<text text-anchor="middle" x="1495.41" y="-430.3" font-family="Times,serif" font-size="14.00">top_sort_nodup</text>
</a>
</g>
</g>
<!-- VLSM_Lib_TopSort_top_sort_nodup&#45;&gt;VLSM_Lib_TopSort_top_sort_set_eq -->
<g id="edge13" class="edge">
<title>VLSM_Lib_TopSort_top_sort_nodup&#45;&gt;VLSM_Lib_TopSort_top_sort_set_eq</title>
<path fill="none" stroke="black" d="M1477.69,-408.32C1471.28,-399.39 1464.03,-389.3 1457.58,-380.32"/>
<polygon fill="black" stroke="black" points="1460.37,-378.2 1451.7,-372.12 1454.69,-382.28 1460.37,-378.2"/>
</g>
<!-- VLSM_Lib_TopSort_top_sort_set_eq&#45;&gt;VLSM_Lib_TopSort_top_sort -->
<g id="edge14" class="edge">
<title>VLSM_Lib_TopSort_top_sort_set_eq&#45;&gt;VLSM_Lib_TopSort_top_sort</title>
<path fill="none" stroke="black" d="M1466.48,-337.46C1484.91,-326.89 1509.38,-312.85 1528.87,-301.67"/>
<polygon fill="black" stroke="black" points="1530.77,-304.61 1537.7,-296.6 1527.29,-298.54 1530.77,-304.61"/>
</g>
<!-- VLSM_Lib_TopSort_min_predecessors_in -->
<g id="node27" class="node">
<title>VLSM_Lib_TopSort_min_predecessors_in</title>
<g id="a_node27"><a xlink:href="VLSM.Lib.TopSort.html#min_predecessors_in" xlink:title="min_predecessors_in" target="_top">
<ellipse fill="#7fffd4" stroke="black" cx="1385.41" cy="-282" rx="85.29" ry="18"/>
<text text-anchor="middle" x="1385.41" y="-278.3" font-family="Times,serif" font-size="14.00">min_predecessors_in</text>
</a>
</g>
</g>
<!-- VLSM_Lib_TopSort_top_sort_set_eq&#45;&gt;VLSM_Lib_TopSort_min_predecessors_in -->
<g id="edge15" class="edge">
<title>VLSM_Lib_TopSort_top_sort_set_eq&#45;&gt;VLSM_Lib_TopSort_min_predecessors_in</title>
<path fill="none" stroke="black" d="M1426.34,-336.05C1419.93,-327.75 1412.09,-317.58 1404.98,-308.38"/>
<polygon fill="black" stroke="black" points="1407.61,-306.06 1398.73,-300.28 1402.07,-310.33 1407.61,-306.06"/>
</g>
<!-- VLSM_Lib_TopSort_top_sort_n -->
<g id="node11" class="node">
<title>VLSM_Lib_TopSort_top_sort_n</title>
<g id="a_node11"><a xlink:href="VLSM.Lib.TopSort.html#top_sort_n" xlink:title="top_sort_n" target="_top">
<ellipse fill="#f070d1" stroke="black" cx="1482.41" cy="-202" rx="48.19" ry="18"/>
<text text-anchor="middle" x="1482.41" y="-198.3" font-family="Times,serif" font-size="14.00">top_sort_n</text>
</a>
</g>
</g>
<!-- VLSM_Lib_TopSort_top_sort&#45;&gt;VLSM_Lib_TopSort_top_sort_n -->
<g id="edge16" class="edge">
<title>VLSM_Lib_TopSort_top_sort&#45;&gt;VLSM_Lib_TopSort_top_sort_n</title>
<path fill="none" stroke="black" d="M1545.42,-265.22C1534.04,-253.98 1518.56,-238.7 1505.79,-226.09"/>
<polygon fill="black" stroke="black" points="1508.22,-223.56 1498.64,-219.03 1503.3,-228.55 1508.22,-223.56"/>
</g>
<!-- VLSM_Lib_TopSort_min_predecessors -->
<g id="node28" class="node">
<title>VLSM_Lib_TopSort_min_predecessors</title>
<g id="a_node28"><a xlink:href="VLSM.Lib.TopSort.html#min_predecessors" xlink:title="min_predecessors" target="_top">
<ellipse fill="#f070d1" stroke="black" cx="1331.41" cy="-122" rx="74.19" ry="18"/>
<text text-anchor="middle" x="1331.41" y="-118.3" font-family="Times,serif" font-size="14.00">min_predecessors</text>
</a>
</g>
</g>
<!-- VLSM_Lib_TopSort_top_sort_n&#45;&gt;VLSM_Lib_TopSort_min_predecessors -->
<g id="edge17" class="edge">
<title>VLSM_Lib_TopSort_top_sort_n&#45;&gt;VLSM_Lib_TopSort_min_predecessors</title>
<path fill="none" stroke="black" d="M1455.41,-187.06C1431.81,-174.86 1397.25,-157.01 1370.6,-143.25"/>
<polygon fill="black" stroke="black" points="1372.03,-140.04 1361.54,-138.56 1368.82,-146.26 1372.03,-140.04"/>
</g>
<!-- VLSM_Lib_TopSort_topologically_sorted_preceeds_closed_remove_last -->
<g id="node12" class="node">
<title>VLSM_Lib_TopSort_topologically_sorted_preceeds_closed_remove_last</title>
<g id="a_node12"><a xlink:href="VLSM.Lib.TopSort.html#topologically_sorted_preceeds_closed_remove_last" xlink:title="topologically_sorted_preceeds_closed_remove_last" target="_top">
<ellipse fill="#7fffd4" stroke="black" cx="519.41" cy="-522" rx="192.27" ry="18"/>
<ellipse fill="none" stroke="black" cx="519.41" cy="-522" rx="196.27" ry="22"/>
<ellipse fill="none" stroke="black" cx="519.41" cy="-522" rx="200.27" ry="26"/>
<text text-anchor="middle" x="519.41" y="-518.3" font-family="Times,serif" font-size="14.00">topologically_sorted_preceeds_closed_remove_last</text>
</a>
</g>
</g>
<!-- VLSM_Lib_TopSort_preceeds_closed -->
<g id="node14" class="node">
<title>VLSM_Lib_TopSort_preceeds_closed</title>
<g id="a_node14"><a xlink:href="VLSM.Lib.TopSort.html#preceeds_closed" xlink:title="preceeds_closed" target="_top">
<ellipse fill="#f070d1" stroke="black" cx="546.41" cy="-434" rx="68.49" ry="18"/>
<text text-anchor="middle" x="546.41" y="-430.3" font-family="Times,serif" font-size="14.00">preceeds_closed</text>
</a>
</g>
</g>
<!-- VLSM_Lib_TopSort_topologically_sorted_preceeds_closed_remove_last&#45;&gt;VLSM_Lib_TopSort_preceeds_closed -->
<g id="edge18" class="edge">
<title>VLSM_Lib_TopSort_topologically_sorted_preceeds_closed_remove_last&#45;&gt;VLSM_Lib_TopSort_preceeds_closed</title>
<path fill="none" stroke="black" d="M527.36,-495.66C530.71,-485 534.61,-472.58 538,-461.77"/>
<polygon fill="black" stroke="black" points="541.41,-462.59 541.07,-452 534.73,-460.5 541.41,-462.59"/>
</g>
<!-- VLSM_Lib_TopSort_topologically_sorted_occurrences_ordering -->
<g id="node18" class="node">
<title>VLSM_Lib_TopSort_topologically_sorted_occurrences_ordering</title>
<g id="a_node18"><a xlink:href="VLSM.Lib.TopSort.html#topologically_sorted_occurrences_ordering" xlink:title="topologically_sorted_occurrences_ordering" target="_top">
<ellipse fill="#7fffd4" stroke="black" cx="240.41" cy="-434" rx="163.27" ry="18"/>
<text text-anchor="middle" x="240.41" y="-430.3" font-family="Times,serif" font-size="14.00">topologically_sorted_occurrences_ordering</text>
</a>
</g>
</g>
<!-- VLSM_Lib_TopSort_topologically_sorted_preceeds_closed_remove_last&#45;&gt;VLSM_Lib_TopSort_topologically_sorted_occurrences_ordering -->
<g id="edge19" class="edge">
<title>VLSM_Lib_TopSort_topologically_sorted_preceeds_closed_remove_last&#45;&gt;VLSM_Lib_TopSort_topologically_sorted_occurrences_ordering</title>
<path fill="none" stroke="black" d="M444.27,-497.84C399.9,-484.16 344.39,-467.05 302.5,-454.14"/>
<polygon fill="black" stroke="black" points="303.29,-450.72 292.7,-451.12 301.23,-457.41 303.29,-450.72"/>
</g>
<!-- VLSM_Lib_TopSort_preceeds_closed_set_eq -->
<g id="node13" class="node">
<title>VLSM_Lib_TopSort_preceeds_closed_set_eq</title>
<g id="a_node13"><a xlink:href="VLSM.Lib.TopSort.html#preceeds_closed_set_eq" xlink:title="preceeds_closed_set_eq" target="_top">
<ellipse fill="#7fffd4" stroke="black" cx="914.41" cy="-522" rx="94.79" ry="18"/>
<ellipse fill="none" stroke="black" cx="914.41" cy="-522" rx="98.79" ry="22"/>
<ellipse fill="none" stroke="black" cx="914.41" cy="-522" rx="102.78" ry="26"/>
<text text-anchor="middle" x="914.41" y="-518.3" font-family="Times,serif" font-size="14.00">preceeds_closed_set_eq</text>
</a>
</g>
</g>
<!-- VLSM_Lib_TopSort_preceeds_closed_set_eq&#45;&gt;VLSM_Lib_TopSort_preceeds_closed -->
<g id="edge20" class="edge">
<title>VLSM_Lib_TopSort_preceeds_closed_set_eq&#45;&gt;VLSM_Lib_TopSort_preceeds_closed</title>
<path fill="none" stroke="black" d="M840.82,-503.8C771.73,-487.66 669.69,-463.81 605.69,-448.85"/>
<polygon fill="black" stroke="black" points="606.29,-445.4 595.75,-446.53 604.69,-452.22 606.29,-445.4"/>
</g>
<!-- VLSM_Lib_TopSort_toplogically_sorted_remove_last -->
<g id="node15" class="node">
<title>VLSM_Lib_TopSort_toplogically_sorted_remove_last</title>
<g id="a_node15"><a xlink:href="VLSM.Lib.TopSort.html#toplogically_sorted_remove_last" xlink:title="toplogically_sorted_remove_last" target="_top">
<ellipse fill="#7fffd4" stroke="black" cx="817.41" cy="-434" rx="126.17" ry="18"/>
<ellipse fill="none" stroke="black" cx="817.41" cy="-434" rx="130.18" ry="22"/>
<ellipse fill="none" stroke="black" cx="817.41" cy="-434" rx="134.18" ry="26"/>
<text text-anchor="middle" x="817.41" y="-430.3" font-family="Times,serif" font-size="14.00">toplogically_sorted_remove_last</text>
</a>
</g>
</g>
<!-- VLSM_Lib_TopSort_toplogically_sorted_remove_last&#45;&gt;VLSM_Lib_TopSort_topologically_sorted -->
<g id="edge21" class="edge">
<title>VLSM_Lib_TopSort_toplogically_sorted_remove_last&#45;&gt;VLSM_Lib_TopSort_topologically_sorted</title>
<path fill="none" stroke="black" d="M823.52,-407.89C825.51,-399.75 827.72,-390.68 829.74,-382.38"/>
<polygon fill="black" stroke="black" points="833.2,-382.95 832.17,-372.41 826.4,-381.3 833.2,-382.95"/>
</g>
<!-- VLSM_Lib_TopSort_top_sort_preceeds -->
<g id="node16" class="node">
<title>VLSM_Lib_TopSort_top_sort_preceeds</title>
<g id="a_node16"><a xlink:href="VLSM.Lib.TopSort.html#top_sort_preceeds" xlink:title="top_sort_preceeds" target="_top">
<ellipse fill="#7fffd4" stroke="black" cx="168.41" cy="-610" rx="74.96" ry="18"/>
<ellipse fill="none" stroke="black" cx="168.41" cy="-610" rx="78.98" ry="22"/>
<ellipse fill="none" stroke="black" cx="168.41" cy="-610" rx="82.99" ry="26"/>
<text text-anchor="middle" x="168.41" y="-606.3" font-family="Times,serif" font-size="14.00">top_sort_preceeds</text>
</a>
</g>
</g>
<!-- VLSM_Lib_TopSort_top_sort_before -->
<g id="node17" class="node">
<title>VLSM_Lib_TopSort_top_sort_before</title>
<g id="a_node17"><a xlink:href="VLSM.Lib.TopSort.html#top_sort_before" xlink:title="top_sort_before" target="_top">
<ellipse fill="#7fffd4" stroke="black" cx="168.41" cy="-522" rx="66.09" ry="18"/>
<text text-anchor="middle" x="168.41" y="-518.3" font-family="Times,serif" font-size="14.00">top_sort_before</text>
</a>
</g>
</g>
<!-- VLSM_Lib_TopSort_top_sort_preceeds&#45;&gt;VLSM_Lib_TopSort_top_sort_before -->
<g id="edge22" class="edge">
<title>VLSM_Lib_TopSort_top_sort_preceeds&#45;&gt;VLSM_Lib_TopSort_top_sort_before</title>
<path fill="none" stroke="black" d="M168.41,-583.66C168.41,-573.11 168.41,-560.84 168.41,-550.1"/>
<polygon fill="black" stroke="black" points="171.91,-550 168.41,-540 164.91,-550 171.91,-550"/>
</g>
<!-- VLSM_Lib_TopSort_top_sort_before&#45;&gt;VLSM_Lib_TopSort_topologically_sorted_occurrences_ordering -->
<g id="edge23" class="edge">
<title>VLSM_Lib_TopSort_top_sort_before&#45;&gt;VLSM_Lib_TopSort_topologically_sorted_occurrences_ordering</title>
<path fill="none" stroke="black" d="M182.63,-504.01C193.18,-491.41 207.73,-474.03 219.59,-459.86"/>
<polygon fill="black" stroke="black" points="222.48,-461.87 226.21,-451.96 217.11,-457.38 222.48,-461.87"/>
</g>
<!-- VLSM_Lib_TopSort_topologically_sorted_occurrences_ordering&#45;&gt;VLSM_Lib_TopSort_topologically_sorted -->
<g id="edge24" class="edge">
<title>VLSM_Lib_TopSort_topologically_sorted_occurrences_ordering&#45;&gt;VLSM_Lib_TopSort_topologically_sorted</title>
<path fill="none" stroke="black" d="M341.17,-419.81C458.54,-404.45 650,-379.4 757.23,-365.36"/>
<polygon fill="black" stroke="black" points="757.88,-368.81 767.34,-364.04 756.97,-361.87 757.88,-368.81"/>
</g>
<!-- VLSM_Lib_TopSort_preceeds_irreflexive -->
<g id="node24" class="node">
<title>VLSM_Lib_TopSort_preceeds_irreflexive</title>
<g id="a_node24"><a xlink:href="VLSM.Lib.TopSort.html#preceeds_irreflexive" xlink:title="preceeds_irreflexive" target="_top">
<ellipse fill="#7fffd4" stroke="black" cx="571.41" cy="-202" rx="82.59" ry="18"/>
<text text-anchor="middle" x="571.41" y="-198.3" font-family="Times,serif" font-size="14.00">preceeds_irreflexive</text>
</a>
</g>
</g>
<!-- VLSM_Lib_TopSort_topologically_sorted_occurrences_ordering&#45;&gt;VLSM_Lib_TopSort_preceeds_irreflexive -->
<g id="edge25" class="edge">
<title>VLSM_Lib_TopSort_topologically_sorted_occurrences_ordering&#45;&gt;VLSM_Lib_TopSort_preceeds_irreflexive</title>
<path fill="none" stroke="black" d="M264.75,-416.09C323.61,-375.18 473.68,-270.9 539.57,-225.12"/>
<polygon fill="black" stroke="black" points="541.71,-227.9 547.92,-219.32 537.71,-222.15 541.71,-227.9"/>
</g>
<!-- VLSM_Lib_TopSort_count_predecessors_zero -->
<g id="node21" class="node">
<title>VLSM_Lib_TopSort_count_predecessors_zero</title>
<g id="a_node21"><a xlink:href="VLSM.Lib.TopSort.html#count_predecessors_zero" xlink:title="count_predecessors_zero" target="_top">
<ellipse fill="#7fffd4" stroke="black" cx="813.41" cy="-282" rx="98.58" ry="18"/>
<text text-anchor="middle" x="813.41" y="-278.3" font-family="Times,serif" font-size="14.00">count_predecessors_zero</text>
</a>
</g>
</g>
<!-- VLSM_Lib_TopSort_min_predecessors_zero&#45;&gt;VLSM_Lib_TopSort_count_predecessors_zero -->
<g id="edge26" class="edge">
<title>VLSM_Lib_TopSort_min_predecessors_zero&#45;&gt;VLSM_Lib_TopSort_count_predecessors_zero</title>
<path fill="none" stroke="black" d="M1073.15,-340C1019.61,-328.25 940.72,-310.94 883.95,-298.48"/>
<polygon fill="black" stroke="black" points="884.49,-295.01 873.97,-296.29 882.99,-301.85 884.49,-295.01"/>
</g>
<!-- VLSM_Lib_TopSort_min_predecessors_correct -->
<g id="node26" class="node">
<title>VLSM_Lib_TopSort_min_predecessors_correct</title>
<g id="a_node26"><a xlink:href="VLSM.Lib.TopSort.html#min_predecessors_correct" xlink:title="min_predecessors_correct" target="_top">
<ellipse fill="#7fffd4" stroke="black" cx="1132.41" cy="-282" rx="102.88" ry="18"/>
<text text-anchor="middle" x="1132.41" y="-278.3" font-family="Times,serif" font-size="14.00">min_predecessors_correct</text>
</a>
</g>
</g>
<!-- VLSM_Lib_TopSort_min_predecessors_zero&#45;&gt;VLSM_Lib_TopSort_min_predecessors_correct -->
<g id="edge27" class="edge">
<title>VLSM_Lib_TopSort_min_predecessors_zero&#45;&gt;VLSM_Lib_TopSort_min_predecessors_correct</title>
<path fill="none" stroke="black" d="M1132.41,-335.7C1132.41,-327.98 1132.41,-318.71 1132.41,-310.11"/>
<polygon fill="black" stroke="black" points="1135.91,-310.1 1132.41,-300.1 1128.91,-310.1 1135.91,-310.1"/>
</g>
<!-- VLSM_Lib_TopSort_preceeds_transitive -->
<g id="node22" class="node">
<title>VLSM_Lib_TopSort_preceeds_transitive</title>
<g id="a_node22"><a xlink:href="VLSM.Lib.TopSort.html#preceeds_transitive" xlink:title="preceeds_transitive" target="_top">
<ellipse fill="#7fffd4" stroke="black" cx="791.41" cy="-202" rx="78.79" ry="18"/>
<text text-anchor="middle" x="791.41" y="-198.3" font-family="Times,serif" font-size="14.00">preceeds_transitive</text>
</a>
</g>
</g>
<!-- VLSM_Lib_TopSort_count_predecessors_zero&#45;&gt;VLSM_Lib_TopSort_preceeds_transitive -->
<g id="edge28" class="edge">
<title>VLSM_Lib_TopSort_count_predecessors_zero&#45;&gt;VLSM_Lib_TopSort_preceeds_transitive</title>
<path fill="none" stroke="black" d="M808.52,-263.69C805.71,-253.72 802.12,-240.99 798.95,-229.76"/>
<polygon fill="black" stroke="black" points="802.28,-228.67 796.2,-219.99 795.55,-230.57 802.28,-228.67"/>
</g>
<!-- VLSM_Lib_TopSort_count_predecessors_zero&#45;&gt;VLSM_Lib_TopSort_preceeds_irreflexive -->
<g id="edge29" class="edge">
<title>VLSM_Lib_TopSort_count_predecessors_zero&#45;&gt;VLSM_Lib_TopSort_preceeds_irreflexive</title>
<path fill="none" stroke="black" d="M767.03,-266.05C726.54,-253 667.76,-234.06 625.21,-220.34"/>
<polygon fill="black" stroke="black" points="626.18,-216.98 615.58,-217.24 624.03,-223.64 626.18,-216.98"/>
</g>
<!-- VLSM_Lib_TopSort_count_predecessors -->
<g id="node30" class="node">
<title>VLSM_Lib_TopSort_count_predecessors</title>
<g id="a_node30"><a xlink:href="VLSM.Lib.TopSort.html#count_predecessors" xlink:title="count_predecessors" target="_top">
<ellipse fill="#f070d1" stroke="black" cx="1027.41" cy="-50" rx="79.09" ry="18"/>
<text text-anchor="middle" x="1027.41" y="-46.3" font-family="Times,serif" font-size="14.00">count_predecessors</text>
</a>
</g>
</g>
<!-- VLSM_Lib_TopSort_count_predecessors_zero&#45;&gt;VLSM_Lib_TopSort_count_predecessors -->
<g id="edge30" class="edge">
<title>VLSM_Lib_TopSort_count_predecessors_zero&#45;&gt;VLSM_Lib_TopSort_count_predecessors</title>
<path fill="none" stroke="black" d="M838.75,-264.51C852.03,-254.98 867.87,-242.11 879.41,-228 918.66,-179.98 901.49,-149.71 943.41,-104 955.28,-91.06 971,-80.02 985.63,-71.43"/>
<polygon fill="black" stroke="black" points="987.56,-74.36 994.56,-66.39 984.13,-68.26 987.56,-74.36"/>
</g>
<!-- VLSM_Lib_TopSort_preceeds_P -->
<g id="node25" class="node">
<title>VLSM_Lib_TopSort_preceeds_P</title>
<g id="a_node25"><a xlink:href="VLSM.Lib.TopSort.html#preceeds_P" xlink:title="preceeds_P" target="_top">
<ellipse fill="#f070d1" stroke="black" cx="571.41" cy="-122" rx="50.89" ry="18"/>
<text text-anchor="middle" x="571.41" y="-118.3" font-family="Times,serif" font-size="14.00">preceeds_P</text>
</a>
</g>
</g>
<!-- VLSM_Lib_TopSort_preceeds_transitive&#45;&gt;VLSM_Lib_TopSort_preceeds_P -->
<g id="edge31" class="edge">
<title>VLSM_Lib_TopSort_preceeds_transitive&#45;&gt;VLSM_Lib_TopSort_preceeds_P</title>
<path fill="none" stroke="black" d="M750.54,-186.51C712.17,-172.91 654.91,-152.61 615.51,-138.64"/>
<polygon fill="black" stroke="black" points="616.5,-135.27 605.91,-135.23 614.16,-141.87 616.5,-135.27"/>
</g>
<!-- VLSM_Lib_TopSort_preceeds_asymmetric -->
<g id="node23" class="node">
<title>VLSM_Lib_TopSort_preceeds_asymmetric</title>
<g id="a_node23"><a xlink:href="VLSM.Lib.TopSort.html#preceeds_asymmetric" xlink:title="preceeds_asymmetric" target="_top">
<ellipse fill="#7fffd4" stroke="black" cx="329.41" cy="-202" rx="87.96" ry="18"/>
<ellipse fill="none" stroke="black" cx="329.41" cy="-202" rx="91.97" ry="22"/>
<ellipse fill="none" stroke="black" cx="329.41" cy="-202" rx="95.99" ry="26"/>
<text text-anchor="middle" x="329.41" y="-198.3" font-family="Times,serif" font-size="14.00">preceeds_asymmetric</text>
</a>
</g>
</g>
<!-- VLSM_Lib_TopSort_preceeds_asymmetric&#45;&gt;VLSM_Lib_TopSort_preceeds_P -->
<g id="edge32" class="edge">
<title>VLSM_Lib_TopSort_preceeds_asymmetric&#45;&gt;VLSM_Lib_TopSort_preceeds_P</title>
<path fill="none" stroke="black" d="M389.54,-181.62C431.56,-168.08 486.82,-150.26 525.35,-137.84"/>
<polygon fill="black" stroke="black" points="526.82,-141.05 535.26,-134.65 524.67,-134.39 526.82,-141.05"/>
</g>
<!-- VLSM_Lib_TopSort_preceeds_irreflexive&#45;&gt;VLSM_Lib_TopSort_preceeds_P -->
<g id="edge33" class="edge">
<title>VLSM_Lib_TopSort_preceeds_irreflexive&#45;&gt;VLSM_Lib_TopSort_preceeds_P</title>
<path fill="none" stroke="black" d="M571.41,-183.69C571.41,-173.89 571.41,-161.42 571.41,-150.33"/>
<polygon fill="black" stroke="black" points="574.91,-150.26 571.41,-140.26 567.91,-150.26 574.91,-150.26"/>
</g>
<!-- VLSM_Lib_TopSort_min_predecessors_correct&#45;&gt;VLSM_Lib_TopSort_min_predecessors -->
<g id="edge34" class="edge">
<title>VLSM_Lib_TopSort_min_predecessors_correct&#45;&gt;VLSM_Lib_TopSort_min_predecessors</title>
<path fill="none" stroke="black" d="M1153.7,-264.09C1189.72,-235.49 1262.68,-177.56 1303.01,-145.54"/>
<polygon fill="black" stroke="black" points="1305.2,-148.27 1310.86,-139.31 1300.85,-142.79 1305.2,-148.27"/>
</g>
<!-- VLSM_Lib_TopSort_min_predecessors_in&#45;&gt;VLSM_Lib_TopSort_min_predecessors -->
<g id="edge35" class="edge">
<title>VLSM_Lib_TopSort_min_predecessors_in&#45;&gt;VLSM_Lib_TopSort_min_predecessors</title>
<path fill="none" stroke="black" d="M1379.53,-263.79C1370.15,-236.37 1351.75,-182.53 1340.62,-149.96"/>
<polygon fill="black" stroke="black" points="1343.83,-148.52 1337.28,-140.19 1337.2,-150.78 1343.83,-148.52"/>
</g>
<!-- VLSM_Lib_TopSort_min_predecessors&#45;&gt;VLSM_Lib_TopSort_count_predecessors -->
<g id="edge36" class="edge">
<title>VLSM_Lib_TopSort_min_predecessors&#45;&gt;VLSM_Lib_TopSort_count_predecessors</title>
<path fill="none" stroke="black" d="M1279.49,-109.05C1227.26,-97.02 1146.64,-78.46 1090.7,-65.57"/>
<polygon fill="black" stroke="black" points="1091.43,-62.15 1080.9,-63.32 1089.86,-68.97 1091.43,-62.15"/>
</g>
<!-- VLSM_Lib_TopSort_zero_predecessors&#45;&gt;VLSM_Lib_TopSort_count_predecessors -->
<g id="edge37" class="edge">
<title>VLSM_Lib_TopSort_zero_predecessors&#45;&gt;VLSM_Lib_TopSort_count_predecessors</title>
<path fill="none" stroke="black" d="M1027.41,-103.7C1027.41,-95.98 1027.41,-86.71 1027.41,-78.11"/>
<polygon fill="black" stroke="black" points="1030.91,-78.1 1027.41,-68.1 1023.91,-78.1 1030.91,-78.1"/>
</g>
</g>
</svg>
