<?xml version="1.0" encoding="UTF-8" standalone="no"?>
<!DOCTYPE svg PUBLIC "-//W3C//DTD SVG 1.1//EN"
 "http://www.w3.org/Graphics/SVG/1.1/DTD/svg11.dtd">
<!-- Generated by graphviz version 2.43.0 (0)
 -->
<!-- Title: rvdpdgraph Pages: 1 -->
<svg width="1318pt" height="663pt"
 viewBox="0.00 0.00 1318.00 663.00" xmlns="http://www.w3.org/2000/svg" xmlns:xlink="http://www.w3.org/1999/xlink">
<g id="graph0" class="graph" transform="scale(1 1) rotate(0) translate(4 659)">
<title>rvdpdgraph</title>
<polygon fill="white" stroke="transparent" points="-4,4 -4,-659 1314,-659 1314,4 -4,4"/>
<g id="clust1" class="cluster">
<title>cluster_VLSM</title>
<polygon fill="#ffffc3" stroke="black" points="8,-10.06 8,-644.94 1302,-644.94 1302,-10.06 8,-10.06"/>
<text text-anchor="middle" x="35.5" y="-629.74" font-family="Times,serif" font-size="14.00">VLSM</text>
</g>
<g id="clust2" class="cluster">
<title>cluster_VLSM_Lib</title>
<polygon fill="#ffffa3" stroke="black" points="16,-20.12 16,-605.97 1294,-605.97 1294,-20.12 16,-20.12"/>
<text text-anchor="middle" x="33.5" y="-590.77" font-family="Times,serif" font-size="14.00">Lib</text>
</g>
<g id="clust3" class="cluster">
<title>cluster_VLSM_Lib_Temporal</title>
<polygon fill="#ffff83" stroke="black" points="24,-30.17 24,-567 1286,-567 1286,-30.17 24,-30.17"/>
<text text-anchor="middle" x="59" y="-551.8" font-family="Times,serif" font-size="14.00">Temporal</text>
</g>
<!-- VLSM_Lib_Temporal_stabilization -->
<g id="node1" class="node">
<title>VLSM_Lib_Temporal_stabilization</title>
<g id="a_node1"><a xlink:href="VLSM.Lib.Temporal.html#stabilization" xlink:title="stabilization" target="_top">
<ellipse fill="#7fffd4" stroke="black" cx="759" cy="-495.06" rx="53.9" ry="18"/>
<ellipse fill="none" stroke="black" cx="759" cy="-495.06" rx="57.89" ry="22"/>
<ellipse fill="none" stroke="black" cx="759" cy="-495.06" rx="61.89" ry="26"/>
<text text-anchor="middle" x="759" y="-491.36" font-family="Times,serif" font-size="14.00">stabilization</text>
</a>
</g>
</g>
<!-- VLSM_Lib_Temporal_not_forever -->
<g id="node2" class="node">
<title>VLSM_Lib_Temporal_not_forever</title>
<g id="a_node2"><a xlink:href="VLSM.Lib.Temporal.html#not_forever" xlink:title="not_forever" target="_top">
<ellipse fill="#7fffd4" stroke="black" cx="932" cy="-385.06" rx="51.99" ry="18"/>
<text text-anchor="middle" x="932" y="-381.36" font-family="Times,serif" font-size="14.00">not_forever</text>
</a>
</g>
</g>
<!-- VLSM_Lib_Temporal_stabilization&#45;&gt;VLSM_Lib_Temporal_not_forever -->
<g id="edge1" class="edge">
<title>VLSM_Lib_Temporal_stabilization&#45;&gt;VLSM_Lib_Temporal_not_forever</title>
<path fill="none" stroke="black" d="M792.77,-472.98C823.55,-453.76 868.75,-425.54 899.23,-406.52"/>
<polygon fill="black" stroke="black" points="901.16,-409.44 907.79,-401.17 897.46,-403.5 901.16,-409.44"/>
</g>
<!-- VLSM_Lib_Temporal_refutation -->
<g id="node4" class="node">
<title>VLSM_Lib_Temporal_refutation</title>
<g id="a_node4"><a xlink:href="VLSM.Lib.Temporal.html#refutation" xlink:title="refutation" target="_top">
<ellipse fill="#7fffd4" stroke="black" cx="288" cy="-385.06" rx="44.69" ry="18"/>
<text text-anchor="middle" x="288" y="-381.36" font-family="Times,serif" font-size="14.00">refutation</text>
</a>
</g>
</g>
<!-- VLSM_Lib_Temporal_stabilization&#45;&gt;VLSM_Lib_Temporal_refutation -->
<g id="edge2" class="edge">
<title>VLSM_Lib_Temporal_stabilization&#45;&gt;VLSM_Lib_Temporal_refutation</title>
<path fill="none" stroke="black" d="M700.21,-486.84C618.44,-475.79 466.4,-451.6 342,-411.06 335.94,-409.08 329.67,-406.61 323.63,-403.99"/>
<polygon fill="black" stroke="black" points="324.97,-400.75 314.41,-399.81 322.07,-407.13 324.97,-400.75"/>
</g>
<!-- VLSM_Lib_Temporal_progress -->
<g id="node10" class="node">
<title>VLSM_Lib_Temporal_progress</title>
<g id="a_node10"><a xlink:href="VLSM.Lib.Temporal.html#progress" xlink:title="progress" target="_top">
<ellipse fill="#f070d1" stroke="black" cx="707" cy="-385.06" rx="40.09" ry="18"/>
<text text-anchor="middle" x="707" y="-381.36" font-family="Times,serif" font-size="14.00">progress</text>
</a>
</g>
</g>
<!-- VLSM_Lib_Temporal_stabilization&#45;&gt;VLSM_Lib_Temporal_progress -->
<g id="edge3" class="edge">
<title>VLSM_Lib_Temporal_stabilization&#45;&gt;VLSM_Lib_Temporal_progress</title>
<path fill="none" stroke="black" d="M747.07,-469.28C738.82,-452.15 727.87,-429.41 719.5,-412.02"/>
<polygon fill="black" stroke="black" points="722.64,-410.48 715.15,-402.99 716.34,-413.52 722.64,-410.48"/>
</g>
<!-- VLSM_Lib_Temporal_not_exists -->
<g id="node22" class="node">
<title>VLSM_Lib_Temporal_not_exists</title>
<g id="a_node22"><a xlink:href="VLSM.Lib.Temporal.html#not_exists" xlink:title="not_exists" target="_top">
<ellipse fill="#7fffd4" stroke="black" cx="811" cy="-385.06" rx="46.29" ry="18"/>
<text text-anchor="middle" x="811" y="-381.36" font-family="Times,serif" font-size="14.00">not_exists</text>
</a>
</g>
</g>
<!-- VLSM_Lib_Temporal_stabilization&#45;&gt;VLSM_Lib_Temporal_not_exists -->
<g id="edge4" class="edge">
<title>VLSM_Lib_Temporal_stabilization&#45;&gt;VLSM_Lib_Temporal_not_exists</title>
<path fill="none" stroke="black" d="M770.93,-469.28C779.18,-452.15 790.13,-429.41 798.5,-412.02"/>
<polygon fill="black" stroke="black" points="801.66,-413.52 802.85,-402.99 795.36,-410.48 801.66,-413.52"/>
</g>
<!-- VLSM_Lib_Temporal_forever_tauto -->
<g id="node6" class="node">
<title>VLSM_Lib_Temporal_forever_tauto</title>
<g id="a_node6"><a xlink:href="VLSM.Lib.Temporal.html#forever_tauto" xlink:title="forever_tauto" target="_top">
<ellipse fill="#7fffd4" stroke="black" cx="1070" cy="-274.06" rx="57.69" ry="18"/>
<text text-anchor="middle" x="1070" y="-270.36" font-family="Times,serif" font-size="14.00">forever_tauto</text>
</a>
</g>
</g>
<!-- VLSM_Lib_Temporal_not_forever&#45;&gt;VLSM_Lib_Temporal_forever_tauto -->
<g id="edge5" class="edge">
<title>VLSM_Lib_Temporal_not_forever&#45;&gt;VLSM_Lib_Temporal_forever_tauto</title>
<path fill="none" stroke="black" d="M952.07,-368.21C975.64,-349.59 1014.92,-318.56 1041.61,-297.48"/>
<polygon fill="black" stroke="black" points="1043.78,-300.23 1049.46,-291.28 1039.44,-294.73 1043.78,-300.23"/>
</g>
<!-- VLSM_Lib_Temporal_forever_impl -->
<g id="node8" class="node">
<title>VLSM_Lib_Temporal_forever_impl</title>
<g id="a_node8"><a xlink:href="VLSM.Lib.Temporal.html#forever_impl" xlink:title="forever_impl" target="_top">
<ellipse fill="#7fffd4" stroke="black" cx="937" cy="-274.06" rx="57.39" ry="18"/>
<text text-anchor="middle" x="937" y="-270.36" font-family="Times,serif" font-size="14.00">forever_impl</text>
</a>
</g>
</g>
<!-- VLSM_Lib_Temporal_not_forever&#45;&gt;VLSM_Lib_Temporal_forever_impl -->
<g id="edge6" class="edge">
<title>VLSM_Lib_Temporal_not_forever&#45;&gt;VLSM_Lib_Temporal_forever_impl</title>
<path fill="none" stroke="black" d="M932.78,-367.03C933.57,-349.77 934.81,-322.8 935.74,-302.52"/>
<polygon fill="black" stroke="black" points="939.25,-302.48 936.21,-292.33 932.25,-302.16 939.25,-302.48"/>
</g>
<!-- VLSM_Lib_Temporal_not_eventually -->
<g id="node9" class="node">
<title>VLSM_Lib_Temporal_not_eventually</title>
<g id="a_node9"><a xlink:href="VLSM.Lib.Temporal.html#not_eventually" xlink:title="not_eventually" target="_top">
<ellipse fill="#7fffd4" stroke="black" cx="473" cy="-274.06" rx="63.09" ry="18"/>
<text text-anchor="middle" x="473" y="-270.36" font-family="Times,serif" font-size="14.00">not_eventually</text>
</a>
</g>
</g>
<!-- VLSM_Lib_Temporal_not_forever&#45;&gt;VLSM_Lib_Temporal_not_eventually -->
<g id="edge7" class="edge">
<title>VLSM_Lib_Temporal_not_forever&#45;&gt;VLSM_Lib_Temporal_not_eventually</title>
<path fill="none" stroke="black" d="M900.16,-370.67C889.44,-366.52 877.33,-362.22 866,-359.06 726.27,-320.1 685.26,-337.07 545,-300.06 536.45,-297.8 527.45,-295.02 518.83,-292.14"/>
<polygon fill="black" stroke="black" points="519.89,-288.8 509.3,-288.87 517.62,-295.42 519.89,-288.8"/>
</g>
<!-- VLSM_Lib_Temporal_forall_forever -->
<g id="node3" class="node">
<title>VLSM_Lib_Temporal_forall_forever</title>
<g id="a_node3"><a xlink:href="VLSM.Lib.Temporal.html#forall_forever" xlink:title="forall_forever" target="_top">
<ellipse fill="#7fffd4" stroke="black" cx="794" cy="-274.06" rx="59.61" ry="18"/>
<ellipse fill="none" stroke="black" cx="794" cy="-274.06" rx="63.6" ry="22"/>
<ellipse fill="none" stroke="black" cx="794" cy="-274.06" rx="67.59" ry="26"/>
<text text-anchor="middle" x="794" y="-270.36" font-family="Times,serif" font-size="14.00">forall_forever</text>
</a>
</g>
</g>
<!-- VLSM_Lib_Temporal_fcons -->
<g id="node15" class="node">
<title>VLSM_Lib_Temporal_fcons</title>
<g id="a_node15"><a xlink:href="VLSM.Lib.Temporal.html#fcons" xlink:title="fcons" target="_top">
<ellipse fill="#7faaff" stroke="black" cx="937" cy="-163.06" rx="29.8" ry="18"/>
<text text-anchor="middle" x="937" y="-159.36" font-family="Times,serif" font-size="14.00">fcons</text>
</a>
</g>
</g>
<!-- VLSM_Lib_Temporal_forall_forever&#45;&gt;VLSM_Lib_Temporal_fcons -->
<g id="edge8" class="edge">
<title>VLSM_Lib_Temporal_forall_forever&#45;&gt;VLSM_Lib_Temporal_fcons</title>
<path fill="none" stroke="black" d="M823.63,-250.47C849.39,-230.84 886.34,-202.67 910.98,-183.89"/>
<polygon fill="black" stroke="black" points="913.31,-186.52 919.14,-177.67 909.07,-180.95 913.31,-186.52"/>
</g>
<!-- VLSM_Lib_Temporal_Forever -->
<g id="node16" class="node">
<title>VLSM_Lib_Temporal_Forever</title>
<g id="a_node16"><a xlink:href="VLSM.Lib.Temporal.html#Forever" xlink:title="Forever" target="_top">
<ellipse fill="#e2cdfa" stroke="black" cx="670" cy="-163.06" rx="38.19" ry="18"/>
<text text-anchor="middle" x="670" y="-159.36" font-family="Times,serif" font-size="14.00">Forever</text>
</a>
</g>
</g>
<!-- VLSM_Lib_Temporal_forall_forever&#45;&gt;VLSM_Lib_Temporal_Forever -->
<g id="edge9" class="edge">
<title>VLSM_Lib_Temporal_forall_forever&#45;&gt;VLSM_Lib_Temporal_Forever</title>
<path fill="none" stroke="black" d="M767.7,-249.94C746.27,-231.1 716.2,-204.67 695.1,-186.12"/>
<polygon fill="black" stroke="black" points="697.31,-183.4 687.49,-179.43 692.69,-188.66 697.31,-183.4"/>
</g>
<!-- VLSM_Lib_Temporal_use_eventually -->
<g id="node5" class="node">
<title>VLSM_Lib_Temporal_use_eventually</title>
<g id="a_node5"><a xlink:href="VLSM.Lib.Temporal.html#use_eventually" xlink:title="use_eventually" target="_top">
<ellipse fill="#7fffd4" stroke="black" cx="288" cy="-274.06" rx="63.89" ry="18"/>
<text text-anchor="middle" x="288" y="-270.36" font-family="Times,serif" font-size="14.00">use_eventually</text>
</a>
</g>
</g>
<!-- VLSM_Lib_Temporal_refutation&#45;&gt;VLSM_Lib_Temporal_use_eventually -->
<g id="edge10" class="edge">
<title>VLSM_Lib_Temporal_refutation&#45;&gt;VLSM_Lib_Temporal_use_eventually</title>
<path fill="none" stroke="black" d="M288,-367.03C288,-349.77 288,-322.8 288,-302.52"/>
<polygon fill="black" stroke="black" points="291.5,-302.33 288,-292.33 284.5,-302.33 291.5,-302.33"/>
</g>
<!-- VLSM_Lib_Temporal_use_eventually&#45;&gt;VLSM_Lib_Temporal_Forever -->
<g id="edge11" class="edge">
<title>VLSM_Lib_Temporal_use_eventually&#45;&gt;VLSM_Lib_Temporal_Forever</title>
<path fill="none" stroke="black" d="M331.08,-260.77C405.06,-239.66 555.34,-196.77 628.34,-175.95"/>
<polygon fill="black" stroke="black" points="629.45,-179.27 638.11,-173.16 627.53,-172.54 629.45,-179.27"/>
</g>
<!-- VLSM_Lib_Temporal_Eventually_ind -->
<g id="node18" class="node">
<title>VLSM_Lib_Temporal_Eventually_ind</title>
<g id="a_node18"><a xlink:href="VLSM.Lib.Temporal.html#Eventually_ind" xlink:title="Eventually_ind" target="_top">
<ellipse fill="#7fffd4" stroke="black" cx="172" cy="-163.06" rx="64.19" ry="18"/>
<text text-anchor="middle" x="172" y="-159.36" font-family="Times,serif" font-size="14.00">Eventually_ind</text>
</a>
</g>
</g>
<!-- VLSM_Lib_Temporal_use_eventually&#45;&gt;VLSM_Lib_Temporal_Eventually_ind -->
<g id="edge12" class="edge">
<title>VLSM_Lib_Temporal_use_eventually&#45;&gt;VLSM_Lib_Temporal_Eventually_ind</title>
<path fill="none" stroke="black" d="M270.63,-256.74C251.07,-238.36 219.12,-208.33 196.9,-187.46"/>
<polygon fill="black" stroke="black" points="199.17,-184.78 189.49,-180.49 194.38,-189.89 199.17,-184.78"/>
</g>
<!-- VLSM_Lib_Temporal_forever_tauto&#45;&gt;VLSM_Lib_Temporal_fcons -->
<g id="edge13" class="edge">
<title>VLSM_Lib_Temporal_forever_tauto&#45;&gt;VLSM_Lib_Temporal_fcons</title>
<path fill="none" stroke="black" d="M1050.38,-256.97C1026.9,-237.74 987.58,-205.51 961.96,-184.52"/>
<polygon fill="black" stroke="black" points="964.12,-181.76 954.17,-178.13 959.68,-187.17 964.12,-181.76"/>
</g>
<!-- VLSM_Lib_Temporal_forever_tauto&#45;&gt;VLSM_Lib_Temporal_Forever -->
<g id="edge14" class="edge">
<title>VLSM_Lib_Temporal_forever_tauto&#45;&gt;VLSM_Lib_Temporal_Forever</title>
<path fill="none" stroke="black" d="M1036.25,-259.31C1025.72,-255.33 1013.98,-251.22 1003,-248.06 878.28,-212.15 839.09,-233.09 717,-189.06 712.02,-187.26 706.92,-185.02 701.99,-182.62"/>
<polygon fill="black" stroke="black" points="703.32,-179.36 692.83,-177.88 700.1,-185.58 703.32,-179.36"/>
</g>
<!-- VLSM_Lib_Temporal_eventually_impl -->
<g id="node7" class="node">
<title>VLSM_Lib_Temporal_eventually_impl</title>
<g id="a_node7"><a xlink:href="VLSM.Lib.Temporal.html#eventually_impl" xlink:title="eventually_impl" target="_top">
<ellipse fill="#7fffd4" stroke="black" cx="427" cy="-385.06" rx="68.46" ry="18"/>
<ellipse fill="none" stroke="black" cx="427" cy="-385.06" rx="72.48" ry="22"/>
<ellipse fill="none" stroke="black" cx="427" cy="-385.06" rx="76.49" ry="26"/>
<text text-anchor="middle" x="427" y="-381.36" font-family="Times,serif" font-size="14.00">eventually_impl</text>
</a>
</g>
</g>
<!-- VLSM_Lib_Temporal_flater -->
<g id="node13" class="node">
<title>VLSM_Lib_Temporal_flater</title>
<g id="a_node13"><a xlink:href="VLSM.Lib.Temporal.html#flater" xlink:title="flater" target="_top">
<ellipse fill="#7fffd4" stroke="black" cx="659" cy="-274.06" rx="29.5" ry="18"/>
<text text-anchor="middle" x="659" y="-270.36" font-family="Times,serif" font-size="14.00">flater</text>
</a>
</g>
</g>
<!-- VLSM_Lib_Temporal_eventually_impl&#45;&gt;VLSM_Lib_Temporal_flater -->
<g id="edge15" class="edge">
<title>VLSM_Lib_Temporal_eventually_impl&#45;&gt;VLSM_Lib_Temporal_flater</title>
<path fill="none" stroke="black" d="M476.74,-365.29C516.61,-349.59 573.53,-325.7 621,-300.06 624.57,-298.13 628.24,-295.97 631.83,-293.74"/>
<polygon fill="black" stroke="black" points="633.94,-296.54 640.45,-288.18 630.15,-290.66 633.94,-296.54"/>
</g>
<!-- VLSM_Lib_Temporal_fhere -->
<g id="node14" class="node">
<title>VLSM_Lib_Temporal_fhere</title>
<g id="a_node14"><a xlink:href="VLSM.Lib.Temporal.html#fhere" xlink:title="fhere" target="_top">
<ellipse fill="#7fffd4" stroke="black" cx="583" cy="-274.06" rx="28.7" ry="18"/>
<text text-anchor="middle" x="583" y="-270.36" font-family="Times,serif" font-size="14.00">fhere</text>
</a>
</g>
</g>
<!-- VLSM_Lib_Temporal_eventually_impl&#45;&gt;VLSM_Lib_Temporal_fhere -->
<g id="edge16" class="edge">
<title>VLSM_Lib_Temporal_eventually_impl&#45;&gt;VLSM_Lib_Temporal_fhere</title>
<path fill="none" stroke="black" d="M459.32,-361.47C487.87,-341.53 529.01,-312.78 555.88,-294.01"/>
<polygon fill="black" stroke="black" points="558.21,-296.65 564.4,-288.05 554.2,-290.91 558.21,-296.65"/>
</g>
<!-- VLSM_Lib_Temporal_eventually_impl&#45;&gt;VLSM_Lib_Temporal_Eventually_ind -->
<g id="edge17" class="edge">
<title>VLSM_Lib_Temporal_eventually_impl&#45;&gt;VLSM_Lib_Temporal_Eventually_ind</title>
<path fill="none" stroke="black" d="M371.87,-367.05C361.97,-364.22 351.71,-361.44 342,-359.06 210.45,-326.8 129.01,-404.7 43,-300.06 28.32,-282.2 31.98,-268.37 43,-248.06 60.13,-216.47 94.84,-194.89 123.95,-181.52"/>
<polygon fill="black" stroke="black" points="125.43,-184.7 133.18,-177.47 122.61,-178.29 125.43,-184.7"/>
</g>
<!-- VLSM_Lib_Temporal_elater -->
<g id="node19" class="node">
<title>VLSM_Lib_Temporal_elater</title>
<g id="a_node19"><a xlink:href="VLSM.Lib.Temporal.html#elater" xlink:title="elater" target="_top">
<ellipse fill="#7faaff" stroke="black" cx="329" cy="-163.06" rx="30.59" ry="18"/>
<text text-anchor="middle" x="329" y="-159.36" font-family="Times,serif" font-size="14.00">elater</text>
</a>
</g>
</g>
<!-- VLSM_Lib_Temporal_eventually_impl&#45;&gt;VLSM_Lib_Temporal_elater -->
<g id="edge18" class="edge">
<title>VLSM_Lib_Temporal_eventually_impl&#45;&gt;VLSM_Lib_Temporal_elater</title>
<path fill="none" stroke="black" d="M415.95,-359.25C397.23,-317.23 359.49,-232.5 340.48,-189.84"/>
<polygon fill="black" stroke="black" points="343.67,-188.38 336.4,-180.67 337.27,-191.23 343.67,-188.38"/>
</g>
<!-- VLSM_Lib_Temporal_ehere -->
<g id="node20" class="node">
<title>VLSM_Lib_Temporal_ehere</title>
<g id="a_node20"><a xlink:href="VLSM.Lib.Temporal.html#ehere" xlink:title="ehere" target="_top">
<ellipse fill="#7faaff" stroke="black" cx="407" cy="-163.06" rx="29.8" ry="18"/>
<text text-anchor="middle" x="407" y="-159.36" font-family="Times,serif" font-size="14.00">ehere</text>
</a>
</g>
</g>
<!-- VLSM_Lib_Temporal_eventually_impl&#45;&gt;VLSM_Lib_Temporal_ehere -->
<g id="edge19" class="edge">
<title>VLSM_Lib_Temporal_eventually_impl&#45;&gt;VLSM_Lib_Temporal_ehere</title>
<path fill="none" stroke="black" d="M417.13,-359.16C411.14,-342.68 404.08,-320.43 401,-300.06 395.35,-262.72 399.09,-219.01 402.7,-191.42"/>
<polygon fill="black" stroke="black" points="406.19,-191.73 404.11,-181.35 399.26,-190.77 406.19,-191.73"/>
</g>
<!-- VLSM_Lib_Temporal_forever_impl&#45;&gt;VLSM_Lib_Temporal_fcons -->
<g id="edge20" class="edge">
<title>VLSM_Lib_Temporal_forever_impl&#45;&gt;VLSM_Lib_Temporal_fcons</title>
<path fill="none" stroke="black" d="M937,-256.03C937,-238.77 937,-211.8 937,-191.52"/>
<polygon fill="black" stroke="black" points="940.5,-191.33 937,-181.33 933.5,-191.33 940.5,-191.33"/>
</g>
<!-- VLSM_Lib_Temporal_forever_impl&#45;&gt;VLSM_Lib_Temporal_Forever -->
<g id="edge21" class="edge">
<title>VLSM_Lib_Temporal_forever_impl&#45;&gt;VLSM_Lib_Temporal_Forever</title>
<path fill="none" stroke="black" d="M902.03,-259.77C841.09,-236.6 721.43,-191.07 717,-189.06 712.28,-186.91 707.38,-184.51 702.59,-182.06"/>
<polygon fill="black" stroke="black" points="704.1,-178.9 693.62,-177.36 700.85,-185.1 704.1,-178.9"/>
</g>
<!-- VLSM_Lib_Temporal_not_eventually&#45;&gt;VLSM_Lib_Temporal_fcons -->
<g id="edge22" class="edge">
<title>VLSM_Lib_Temporal_not_eventually&#45;&gt;VLSM_Lib_Temporal_fcons</title>
<path fill="none" stroke="black" d="M509.27,-259.17C520.6,-255.18 533.21,-251.1 545,-248.06 694.35,-209.52 740.45,-237.17 887,-189.06 893.69,-186.86 900.61,-183.9 907.08,-180.79"/>
<polygon fill="black" stroke="black" points="908.83,-183.82 916.17,-176.18 905.67,-177.58 908.83,-183.82"/>
</g>
<!-- VLSM_Lib_Temporal_not_eventually&#45;&gt;VLSM_Lib_Temporal_Forever -->
<g id="edge23" class="edge">
<title>VLSM_Lib_Temporal_not_eventually&#45;&gt;VLSM_Lib_Temporal_Forever</title>
<path fill="none" stroke="black" d="M500.81,-257.67C536.59,-237.87 598.69,-203.51 636.88,-182.38"/>
<polygon fill="black" stroke="black" points="638.99,-185.22 646.04,-177.31 635.6,-179.09 638.99,-185.22"/>
</g>
<!-- VLSM_Lib_Temporal_not_eventually&#45;&gt;VLSM_Lib_Temporal_elater -->
<g id="edge24" class="edge">
<title>VLSM_Lib_Temporal_not_eventually&#45;&gt;VLSM_Lib_Temporal_elater</title>
<path fill="none" stroke="black" d="M451.75,-256.97C426.09,-237.55 382.91,-204.87 355.21,-183.9"/>
<polygon fill="black" stroke="black" points="357.23,-181.03 347.14,-177.79 353,-186.62 357.23,-181.03"/>
</g>
<!-- VLSM_Lib_Temporal_not_eventually&#45;&gt;VLSM_Lib_Temporal_ehere -->
<g id="edge25" class="edge">
<title>VLSM_Lib_Temporal_not_eventually&#45;&gt;VLSM_Lib_Temporal_ehere</title>
<path fill="none" stroke="black" d="M462.69,-256.03C451.81,-238.06 434.56,-209.57 422.14,-189.05"/>
<polygon fill="black" stroke="black" points="424.98,-187 416.81,-180.26 419,-190.63 424.98,-187"/>
</g>
<!-- VLSM_Lib_Temporal_Eventually -->
<g id="node21" class="node">
<title>VLSM_Lib_Temporal_Eventually</title>
<g id="a_node21"><a xlink:href="VLSM.Lib.Temporal.html#Eventually" xlink:title="Eventually" target="_top">
<ellipse fill="#e2cdfa" stroke="black" cx="473" cy="-63.06" rx="48.99" ry="18"/>
<text text-anchor="middle" x="473" y="-59.36" font-family="Times,serif" font-size="14.00">Eventually</text>
</a>
</g>
</g>
<!-- VLSM_Lib_Temporal_not_eventually&#45;&gt;VLSM_Lib_Temporal_Eventually -->
<g id="edge26" class="edge">
<title>VLSM_Lib_Temporal_not_eventually&#45;&gt;VLSM_Lib_Temporal_Eventually</title>
<path fill="none" stroke="black" d="M473,-255.95C473,-219.73 473,-135.04 473,-91.29"/>
<polygon fill="black" stroke="black" points="476.5,-91.1 473,-81.1 469.5,-91.1 476.5,-91.1"/>
</g>
<!-- VLSM_Lib_Temporal_progress&#45;&gt;VLSM_Lib_Temporal_Forever -->
<g id="edge27" class="edge">
<title>VLSM_Lib_Temporal_progress&#45;&gt;VLSM_Lib_Temporal_Forever</title>
<path fill="none" stroke="black" d="M707.04,-366.71C706.8,-340.69 705.19,-290.12 697,-248.06 693.15,-228.26 686.11,-206.61 680.19,-190.24"/>
<polygon fill="black" stroke="black" points="683.45,-188.96 676.69,-180.8 676.89,-191.39 683.45,-188.96"/>
</g>
<!-- VLSM_Lib_Temporal_Forever_map -->
<g id="node11" class="node">
<title>VLSM_Lib_Temporal_Forever_map</title>
<g id="a_node11"><a xlink:href="VLSM.Lib.Temporal.html#Forever_map" xlink:title="Forever_map" target="_top">
<ellipse fill="#7fffd4" stroke="black" cx="1212" cy="-274.06" rx="57.71" ry="18"/>
<ellipse fill="none" stroke="black" cx="1212" cy="-274.06" rx="61.7" ry="22"/>
<ellipse fill="none" stroke="black" cx="1212" cy="-274.06" rx="65.69" ry="26"/>
<text text-anchor="middle" x="1212" y="-270.36" font-family="Times,serif" font-size="14.00">Forever_map</text>
</a>
</g>
</g>
<!-- VLSM_Lib_Temporal_Forever_map&#45;&gt;VLSM_Lib_Temporal_fcons -->
<g id="edge28" class="edge">
<title>VLSM_Lib_Temporal_Forever_map&#45;&gt;VLSM_Lib_Temporal_fcons</title>
<path fill="none" stroke="black" d="M1166.59,-255.06C1111.64,-233.28 1020.38,-197.11 971.09,-177.57"/>
<polygon fill="black" stroke="black" points="972.12,-174.21 961.53,-173.78 969.54,-180.72 972.12,-174.21"/>
</g>
<!-- VLSM_Lib_Temporal_Forever_map&#45;&gt;VLSM_Lib_Temporal_Forever -->
<g id="edge29" class="edge">
<title>VLSM_Lib_Temporal_Forever_map&#45;&gt;VLSM_Lib_Temporal_Forever</title>
<path fill="none" stroke="black" d="M1164.76,-255.86C1155.64,-252.96 1146.09,-250.19 1137,-248.06 953.49,-204.96 896.27,-247.32 717,-189.06 711.73,-187.34 706.34,-185.06 701.19,-182.57"/>
<polygon fill="black" stroke="black" points="702.73,-179.42 692.24,-177.93 699.51,-185.64 702.73,-179.42"/>
</g>
<!-- VLSM_Lib_Temporal_Eventually_map -->
<g id="node12" class="node">
<title>VLSM_Lib_Temporal_Eventually_map</title>
<g id="a_node12"><a xlink:href="VLSM.Lib.Temporal.html#Eventually_map" xlink:title="Eventually_map" target="_top">
<ellipse fill="#7fffd4" stroke="black" cx="129" cy="-274.06" rx="68.8" ry="18"/>
<ellipse fill="none" stroke="black" cx="129" cy="-274.06" rx="72.79" ry="22"/>
<ellipse fill="none" stroke="black" cx="129" cy="-274.06" rx="76.79" ry="26"/>
<text text-anchor="middle" x="129" y="-270.36" font-family="Times,serif" font-size="14.00">Eventually_map</text>
</a>
</g>
</g>
<!-- VLSM_Lib_Temporal_Eventually_map&#45;&gt;VLSM_Lib_Temporal_Eventually_ind -->
<g id="edge30" class="edge">
<title>VLSM_Lib_Temporal_Eventually_map&#45;&gt;VLSM_Lib_Temporal_Eventually_ind</title>
<path fill="none" stroke="black" d="M138.87,-248.05C145.62,-230.92 154.57,-208.23 161.47,-190.75"/>
<polygon fill="black" stroke="black" points="164.84,-191.73 165.26,-181.15 158.33,-189.16 164.84,-191.73"/>
</g>
<!-- VLSM_Lib_Temporal_Eventually_map&#45;&gt;VLSM_Lib_Temporal_elater -->
<g id="edge31" class="edge">
<title>VLSM_Lib_Temporal_Eventually_map&#45;&gt;VLSM_Lib_Temporal_elater</title>
<path fill="none" stroke="black" d="M168.51,-251.52C206.49,-230.82 263.12,-199.96 297.97,-180.97"/>
<polygon fill="black" stroke="black" points="300.08,-183.81 307.18,-175.95 296.73,-177.66 300.08,-183.81"/>
</g>
<!-- VLSM_Lib_Temporal_Eventually_map&#45;&gt;VLSM_Lib_Temporal_ehere -->
<g id="edge32" class="edge">
<title>VLSM_Lib_Temporal_Eventually_map&#45;&gt;VLSM_Lib_Temporal_ehere</title>
<path fill="none" stroke="black" d="M183.6,-255.67C243.62,-236.26 335.91,-205.42 369,-189.06 372.64,-187.26 376.35,-185.17 379.95,-182.99"/>
<polygon fill="black" stroke="black" points="382.06,-185.8 388.6,-177.47 378.29,-179.9 382.06,-185.8"/>
</g>
<!-- VLSM_Lib_Temporal_flater&#45;&gt;VLSM_Lib_Temporal_Forever -->
<g id="edge33" class="edge">
<title>VLSM_Lib_Temporal_flater&#45;&gt;VLSM_Lib_Temporal_Forever</title>
<path fill="none" stroke="black" d="M660.72,-256.03C662.46,-238.77 665.18,-211.8 667.23,-191.52"/>
<polygon fill="black" stroke="black" points="670.74,-191.63 668.26,-181.33 663.77,-190.93 670.74,-191.63"/>
</g>
<!-- VLSM_Lib_Temporal_fhere&#45;&gt;VLSM_Lib_Temporal_Forever -->
<g id="edge34" class="edge">
<title>VLSM_Lib_Temporal_fhere&#45;&gt;VLSM_Lib_Temporal_Forever</title>
<path fill="none" stroke="black" d="M595.46,-257.44C609.9,-239.36 633.85,-209.35 650.69,-188.24"/>
<polygon fill="black" stroke="black" points="653.49,-190.36 656.99,-180.36 648.02,-185.99 653.49,-190.36"/>
</g>
<!-- VLSM_Lib_Temporal_Eventually_sind -->
<g id="node17" class="node">
<title>VLSM_Lib_Temporal_Eventually_sind</title>
<g id="a_node17"><a xlink:href="VLSM.Lib.Temporal.html#Eventually_sind" xlink:title="Eventually_sind" target="_top">
<ellipse fill="#f070d1" stroke="black" cx="802" cy="-163.06" rx="67.68" ry="18"/>
<ellipse fill="none" stroke="black" cx="802" cy="-163.06" rx="71.68" ry="22"/>
<ellipse fill="none" stroke="black" cx="802" cy="-163.06" rx="75.69" ry="26"/>
<text text-anchor="middle" x="802" y="-159.36" font-family="Times,serif" font-size="14.00">Eventually_sind</text>
</a>
</g>
</g>
<!-- VLSM_Lib_Temporal_Eventually_sind&#45;&gt;VLSM_Lib_Temporal_Eventually -->
<g id="edge35" class="edge">
<title>VLSM_Lib_Temporal_Eventually_sind&#45;&gt;VLSM_Lib_Temporal_Eventually</title>
<path fill="none" stroke="black" d="M746.19,-145.43C682.41,-126.44 579.19,-95.69 519.56,-77.93"/>
<polygon fill="black" stroke="black" points="520.25,-74.48 509.66,-74.98 518.25,-81.19 520.25,-74.48"/>
</g>
<!-- VLSM_Lib_Temporal_Eventually_ind&#45;&gt;VLSM_Lib_Temporal_Eventually -->
<g id="edge36" class="edge">
<title>VLSM_Lib_Temporal_Eventually_ind&#45;&gt;VLSM_Lib_Temporal_Eventually</title>
<path fill="none" stroke="black" d="M212.28,-148.94C268.31,-130.7 369.46,-97.77 427.94,-78.73"/>
<polygon fill="black" stroke="black" points="429.21,-81.99 437.64,-75.57 427.05,-75.34 429.21,-81.99"/>
</g>
</g>
</svg>
