<?xml version="1.0" encoding="UTF-8" standalone="no"?>
<!DOCTYPE svg PUBLIC "-//W3C//DTD SVG 1.1//EN"
 "http://www.w3.org/Graphics/SVG/1.1/DTD/svg11.dtd">
<!-- Generated by graphviz version 2.43.0 (0)
 -->
<!-- Title: rvdpdgraph Pages: 1 -->
<svg width="986pt" height="497pt"
 viewBox="0.00 0.00 986.00 497.00" xmlns="http://www.w3.org/2000/svg" xmlns:xlink="http://www.w3.org/1999/xlink">
<g id="graph0" class="graph" transform="scale(1 1) rotate(0) translate(4 493)">
<title>rvdpdgraph</title>
<polygon fill="white" stroke="transparent" points="-4,4 -4,-493 982,-493 982,4 -4,4"/>
<g id="clust1" class="cluster">
<title>cluster_VLSM</title>
<polygon fill="#ffffc3" stroke="black" points="10.23,-8 10.23,-481 967.77,-481 967.77,-8 10.23,-8"/>
<text text-anchor="middle" x="37.73" y="-465.8" font-family="Times,serif" font-size="14.00">VLSM</text>
</g>
<g id="clust2" class="cluster">
<title>cluster_VLSM_Lib</title>
<polygon fill="#ffffa3" stroke="black" points="20.45,-16 20.45,-450 957.55,-450 957.55,-16 20.45,-16"/>
<text text-anchor="middle" x="37.95" y="-434.8" font-family="Times,serif" font-size="14.00">Lib</text>
</g>
<g id="clust3" class="cluster">
<title>cluster_VLSM_Lib_Traces</title>
<polygon fill="#ffff83" stroke="black" points="30.68,-24 30.68,-419 947.32,-419 947.32,-24 30.68,-24"/>
<text text-anchor="middle" x="57.18" y="-403.8" font-family="Times,serif" font-size="14.00">Traces</text>
</g>
<!-- VLSM_Lib_Traces_trace_append_bism -->
<g id="node1" class="node">
<title>VLSM_Lib_Traces_trace_append_bism</title>
<g id="a_node1"><a xlink:href="VLSM.Lib.Traces.html#trace_append_bism" xlink:title="trace_append_bism" target="_top">
<ellipse fill="#7fffd4" stroke="black" cx="566.48" cy="-362" rx="79.11" ry="18"/>
<ellipse fill="none" stroke="black" cx="566.48" cy="-362" rx="83.1" ry="22"/>
<ellipse fill="none" stroke="black" cx="566.48" cy="-362" rx="87.09" ry="26"/>
<text text-anchor="middle" x="566.48" y="-358.3" font-family="Times,serif" font-size="14.00">trace_append_bism</text>
</a>
</g>
</g>
<!-- VLSM_Lib_Traces_trace_append_cons -->
<g id="node2" class="node">
<title>VLSM_Lib_Traces_trace_append_cons</title>
<g id="a_node2"><a xlink:href="VLSM.Lib.Traces.html#trace_append_cons" xlink:title="trace_append_cons" target="_top">
<ellipse fill="#7fffd4" stroke="black" cx="837.48" cy="-282" rx="77.99" ry="18"/>
<text text-anchor="middle" x="837.48" y="-278.3" font-family="Times,serif" font-size="14.00">trace_append_cons</text>
</a>
</g>
</g>
<!-- VLSM_Lib_Traces_trace_append_bism&#45;&gt;VLSM_Lib_Traces_trace_append_cons -->
<g id="edge1" class="edge">
<title>VLSM_Lib_Traces_trace_append_bism&#45;&gt;VLSM_Lib_Traces_trace_append_cons</title>
<path fill="none" stroke="black" d="M627.63,-343.4C673.5,-330.2 735.82,-312.26 780.61,-299.37"/>
<polygon fill="black" stroke="black" points="781.81,-302.66 790.46,-296.53 779.88,-295.94 781.81,-302.66"/>
</g>
<!-- VLSM_Lib_Traces_trace_append_nil -->
<g id="node3" class="node">
<title>VLSM_Lib_Traces_trace_append_nil</title>
<g id="a_node3"><a xlink:href="VLSM.Lib.Traces.html#trace_append_nil" xlink:title="trace_append_nil" target="_top">
<ellipse fill="#7fffd4" stroke="black" cx="623.48" cy="-282" rx="71.49" ry="18"/>
<text text-anchor="middle" x="623.48" y="-278.3" font-family="Times,serif" font-size="14.00">trace_append_nil</text>
</a>
</g>
</g>
<!-- VLSM_Lib_Traces_trace_append_bism&#45;&gt;VLSM_Lib_Traces_trace_append_nil -->
<g id="edge2" class="edge">
<title>VLSM_Lib_Traces_trace_append_bism&#45;&gt;VLSM_Lib_Traces_trace_append_nil</title>
<path fill="none" stroke="black" d="M584.51,-336.32C591.04,-327.39 598.41,-317.3 604.98,-308.32"/>
<polygon fill="black" stroke="black" points="607.9,-310.26 610.97,-300.12 602.24,-306.13 607.9,-310.26"/>
</g>
<!-- VLSM_Lib_Traces_bisim_cons -->
<g id="node9" class="node">
<title>VLSM_Lib_Traces_bisim_cons</title>
<g id="a_node9"><a xlink:href="VLSM.Lib.Traces.html#bisim_cons" xlink:title="bisim_cons" target="_top">
<ellipse fill="#7faaff" stroke="black" cx="162.48" cy="-122" rx="51.19" ry="18"/>
<text text-anchor="middle" x="162.48" y="-118.3" font-family="Times,serif" font-size="14.00">bisim_cons</text>
</a>
</g>
</g>
<!-- VLSM_Lib_Traces_trace_append_bism&#45;&gt;VLSM_Lib_Traces_bisim_cons -->
<g id="edge3" class="edge">
<title>VLSM_Lib_Traces_trace_append_bism&#45;&gt;VLSM_Lib_Traces_bisim_cons</title>
<path fill="none" stroke="black" d="M486.95,-351.19C360.92,-333.83 124.43,-293.25 74.48,-228 60.43,-209.65 63.11,-196.12 74.48,-176 83.72,-159.65 100.25,-147.78 116.51,-139.47"/>
<polygon fill="black" stroke="black" points="118.46,-142.42 126,-134.99 115.46,-136.1 118.46,-142.42"/>
</g>
<!-- VLSM_Lib_Traces_bisim -->
<g id="node11" class="node">
<title>VLSM_Lib_Traces_bisim</title>
<g id="a_node11"><a xlink:href="VLSM.Lib.Traces.html#bisim" xlink:title="bisim" target="_top">
<ellipse fill="#e2cdfa" stroke="black" cx="427.48" cy="-122" rx="30.59" ry="18"/>
<text text-anchor="middle" x="427.48" y="-118.3" font-family="Times,serif" font-size="14.00">bisim</text>
</a>
</g>
</g>
<!-- VLSM_Lib_Traces_trace_append_bism&#45;&gt;VLSM_Lib_Traces_bisim -->
<g id="edge4" class="edge">
<title>VLSM_Lib_Traces_trace_append_bism&#45;&gt;VLSM_Lib_Traces_bisim</title>
<path fill="none" stroke="black" d="M554.75,-336.06C550.27,-325.23 545.71,-312.25 543.48,-300 540.61,-284.26 542.59,-279.98 543.48,-264 545.64,-224.91 568.85,-208.8 547.48,-176 537.8,-161.15 495.53,-144.76 463.88,-134.2"/>
<polygon fill="black" stroke="black" points="464.62,-130.76 454.03,-130.98 462.45,-137.42 464.62,-130.76"/>
</g>
<!-- VLSM_Lib_Traces_trace_append -->
<g id="node4" class="node">
<title>VLSM_Lib_Traces_trace_append</title>
<g id="a_node4"><a xlink:href="VLSM.Lib.Traces.html#trace_append" xlink:title="trace_append" target="_top">
<ellipse fill="#f070d1" stroke="black" cx="862.48" cy="-122" rx="57.69" ry="18"/>
<text text-anchor="middle" x="862.48" y="-118.3" font-family="Times,serif" font-size="14.00">trace_append</text>
</a>
</g>
</g>
<!-- VLSM_Lib_Traces_trace_append_cons&#45;&gt;VLSM_Lib_Traces_trace_append -->
<g id="edge5" class="edge">
<title>VLSM_Lib_Traces_trace_append_cons&#45;&gt;VLSM_Lib_Traces_trace_append</title>
<path fill="none" stroke="black" d="M873.97,-265.84C889.74,-257.24 906.59,-244.78 915.48,-228 926.29,-207.58 924.32,-197.35 915.48,-176 910.62,-164.26 901.75,-153.76 892.64,-145.27"/>
<polygon fill="black" stroke="black" points="894.86,-142.56 885.02,-138.63 890.26,-147.84 894.86,-142.56"/>
</g>
<!-- VLSM_Lib_Traces_trace_destr -->
<g id="node12" class="node">
<title>VLSM_Lib_Traces_trace_destr</title>
<g id="a_node12"><a xlink:href="VLSM.Lib.Traces.html#trace_destr" xlink:title="trace_destr" target="_top">
<ellipse fill="#7fffd4" stroke="black" cx="823.48" cy="-202" rx="49.29" ry="18"/>
<text text-anchor="middle" x="823.48" y="-198.3" font-family="Times,serif" font-size="14.00">trace_destr</text>
</a>
</g>
</g>
<!-- VLSM_Lib_Traces_trace_append_cons&#45;&gt;VLSM_Lib_Traces_trace_destr -->
<g id="edge6" class="edge">
<title>VLSM_Lib_Traces_trace_append_cons&#45;&gt;VLSM_Lib_Traces_trace_destr</title>
<path fill="none" stroke="black" d="M834.37,-263.69C832.6,-253.83 830.34,-241.25 828.34,-230.1"/>
<polygon fill="black" stroke="black" points="831.74,-229.22 826.53,-219.99 824.85,-230.46 831.74,-229.22"/>
</g>
<!-- VLSM_Lib_Traces_trace_append_nil&#45;&gt;VLSM_Lib_Traces_trace_append -->
<g id="edge7" class="edge">
<title>VLSM_Lib_Traces_trace_append_nil&#45;&gt;VLSM_Lib_Traces_trace_append</title>
<path fill="none" stroke="black" d="M684.57,-272.55C756.86,-261.93 869.05,-243.24 881.48,-228 899.59,-205.79 888.88,-172.08 877.56,-148.88"/>
<polygon fill="black" stroke="black" points="880.64,-147.21 872.92,-139.95 874.42,-150.44 880.64,-147.21"/>
</g>
<!-- VLSM_Lib_Traces_trace_append_nil&#45;&gt;VLSM_Lib_Traces_trace_destr -->
<g id="edge8" class="edge">
<title>VLSM_Lib_Traces_trace_append_nil&#45;&gt;VLSM_Lib_Traces_trace_destr</title>
<path fill="none" stroke="black" d="M660.63,-266.51C694.81,-253.18 745.46,-233.43 781.18,-219.5"/>
<polygon fill="black" stroke="black" points="782.79,-222.63 790.83,-215.73 780.24,-216.11 782.79,-222.63"/>
</g>
<!-- VLSM_Lib_Traces_Tcons -->
<g id="node15" class="node">
<title>VLSM_Lib_Traces_Tcons</title>
<g id="a_node15"><a xlink:href="VLSM.Lib.Traces.html#Tcons" xlink:title="Tcons" target="_top">
<ellipse fill="#7faaff" stroke="black" cx="427.48" cy="-50" rx="32.49" ry="18"/>
<text text-anchor="middle" x="427.48" y="-46.3" font-family="Times,serif" font-size="14.00">Tcons</text>
</a>
</g>
</g>
<!-- VLSM_Lib_Traces_trace_append&#45;&gt;VLSM_Lib_Traces_Tcons -->
<g id="edge9" class="edge">
<title>VLSM_Lib_Traces_trace_append&#45;&gt;VLSM_Lib_Traces_Tcons</title>
<path fill="none" stroke="black" d="M814.2,-112.03C799.25,-109.34 782.7,-106.45 767.48,-104 656.22,-86.07 627.63,-86.58 516.48,-68 500.47,-65.32 482.9,-62.04 467.64,-59.08"/>
<polygon fill="black" stroke="black" points="467.98,-55.58 457.49,-57.09 466.63,-62.45 467.98,-55.58"/>
</g>
<!-- VLSM_Lib_Traces_trace -->
<g id="node17" class="node">
<title>VLSM_Lib_Traces_trace</title>
<g id="a_node17"><a xlink:href="VLSM.Lib.Traces.html#trace" xlink:title="trace" target="_top">
<ellipse fill="#e2cdfa" stroke="black" cx="553.48" cy="-50" rx="27.9" ry="18"/>
<text text-anchor="middle" x="553.48" y="-46.3" font-family="Times,serif" font-size="14.00">trace</text>
</a>
</g>
</g>
<!-- VLSM_Lib_Traces_trace_append&#45;&gt;VLSM_Lib_Traces_trace -->
<g id="edge10" class="edge">
<title>VLSM_Lib_Traces_trace_append&#45;&gt;VLSM_Lib_Traces_trace</title>
<path fill="none" stroke="black" d="M817.22,-110.75C755.35,-96.73 645.66,-71.88 589.22,-59.1"/>
<polygon fill="black" stroke="black" points="589.85,-55.65 579.32,-56.85 588.3,-62.48 589.85,-55.65"/>
</g>
<!-- VLSM_Lib_Traces_bisim_hd -->
<g id="node5" class="node">
<title>VLSM_Lib_Traces_bisim_hd</title>
<g id="a_node5"><a xlink:href="VLSM.Lib.Traces.html#bisim_hd" xlink:title="bisim_hd" target="_top">
<ellipse fill="#7fffd4" stroke="black" cx="669.48" cy="-202" rx="44.36" ry="18"/>
<ellipse fill="none" stroke="black" cx="669.48" cy="-202" rx="48.38" ry="22"/>
<ellipse fill="none" stroke="black" cx="669.48" cy="-202" rx="52.39" ry="26"/>
<text text-anchor="middle" x="669.48" y="-198.3" font-family="Times,serif" font-size="14.00">bisim_hd</text>
</a>
</g>
</g>
<!-- VLSM_Lib_Traces_bisim_hd&#45;&gt;VLSM_Lib_Traces_bisim -->
<g id="edge11" class="edge">
<title>VLSM_Lib_Traces_bisim_hd&#45;&gt;VLSM_Lib_Traces_bisim</title>
<path fill="none" stroke="black" d="M626.49,-187.15C580,-172.16 506.71,-148.54 463.24,-134.53"/>
<polygon fill="black" stroke="black" points="464.24,-131.17 453.65,-131.44 462.1,-137.83 464.24,-131.17"/>
</g>
<!-- VLSM_Lib_Traces_hd -->
<g id="node14" class="node">
<title>VLSM_Lib_Traces_hd</title>
<g id="a_node14"><a xlink:href="VLSM.Lib.Traces.html#hd" xlink:title="hd" target="_top">
<ellipse fill="#f070d1" stroke="black" cx="731.48" cy="-122" rx="27" ry="18"/>
<text text-anchor="middle" x="731.48" y="-118.3" font-family="Times,serif" font-size="14.00">hd</text>
</a>
</g>
</g>
<!-- VLSM_Lib_Traces_bisim_hd&#45;&gt;VLSM_Lib_Traces_hd -->
<g id="edge12" class="edge">
<title>VLSM_Lib_Traces_bisim_hd&#45;&gt;VLSM_Lib_Traces_hd</title>
<path fill="none" stroke="black" d="M688.08,-177.6C695.99,-167.64 705.2,-156.06 713.09,-146.13"/>
<polygon fill="black" stroke="black" points="715.87,-148.26 719.35,-138.26 710.39,-143.91 715.87,-148.26"/>
</g>
<!-- VLSM_Lib_Traces_bisim_trans -->
<g id="node6" class="node">
<title>VLSM_Lib_Traces_bisim_trans</title>
<g id="a_node6"><a xlink:href="VLSM.Lib.Traces.html#bisim_trans" xlink:title="bisim_trans" target="_top">
<ellipse fill="#7fffd4" stroke="black" cx="143.48" cy="-202" rx="51.99" ry="18"/>
<ellipse fill="none" stroke="black" cx="143.48" cy="-202" rx="55.99" ry="22"/>
<ellipse fill="none" stroke="black" cx="143.48" cy="-202" rx="59.99" ry="26"/>
<text text-anchor="middle" x="143.48" y="-198.3" font-family="Times,serif" font-size="14.00">bisim_trans</text>
</a>
</g>
</g>
<!-- VLSM_Lib_Traces_bisim_trans&#45;&gt;VLSM_Lib_Traces_bisim_cons -->
<g id="edge13" class="edge">
<title>VLSM_Lib_Traces_bisim_trans&#45;&gt;VLSM_Lib_Traces_bisim_cons</title>
<path fill="none" stroke="black" d="M149.59,-175.89C151.58,-167.75 153.79,-158.68 155.81,-150.38"/>
<polygon fill="black" stroke="black" points="159.27,-150.95 158.24,-140.41 152.47,-149.3 159.27,-150.95"/>
</g>
<!-- VLSM_Lib_Traces_bisim_nil -->
<g id="node10" class="node">
<title>VLSM_Lib_Traces_bisim_nil</title>
<g id="a_node10"><a xlink:href="VLSM.Lib.Traces.html#bisim_nil" xlink:title="bisim_nil" target="_top">
<ellipse fill="#7faaff" stroke="black" cx="308.48" cy="-122" rx="44.39" ry="18"/>
<text text-anchor="middle" x="308.48" y="-118.3" font-family="Times,serif" font-size="14.00">bisim_nil</text>
</a>
</g>
</g>
<!-- VLSM_Lib_Traces_bisim_trans&#45;&gt;VLSM_Lib_Traces_bisim_nil -->
<g id="edge14" class="edge">
<title>VLSM_Lib_Traces_bisim_trans&#45;&gt;VLSM_Lib_Traces_bisim_nil</title>
<path fill="none" stroke="black" d="M183,-182.32C209.83,-169.63 245.08,-152.97 271.38,-140.54"/>
<polygon fill="black" stroke="black" points="273.09,-143.6 280.64,-136.16 270.1,-137.27 273.09,-143.6"/>
</g>
<!-- VLSM_Lib_Traces_bisim_trans&#45;&gt;VLSM_Lib_Traces_bisim -->
<g id="edge15" class="edge">
<title>VLSM_Lib_Traces_bisim_trans&#45;&gt;VLSM_Lib_Traces_bisim</title>
<path fill="none" stroke="black" d="M193.27,-187.32C249.53,-171.87 339.8,-147.08 390.27,-133.22"/>
<polygon fill="black" stroke="black" points="391.39,-136.54 400.11,-130.52 389.54,-129.79 391.39,-136.54"/>
</g>
<!-- VLSM_Lib_Traces_bisim_sym -->
<g id="node7" class="node">
<title>VLSM_Lib_Traces_bisim_sym</title>
<g id="a_node7"><a xlink:href="VLSM.Lib.Traces.html#bisim_sym" xlink:title="bisim_sym" target="_top">
<ellipse fill="#7fffd4" stroke="black" cx="480.48" cy="-202" rx="50.08" ry="18"/>
<ellipse fill="none" stroke="black" cx="480.48" cy="-202" rx="54.09" ry="22"/>
<ellipse fill="none" stroke="black" cx="480.48" cy="-202" rx="58.09" ry="26"/>
<text text-anchor="middle" x="480.48" y="-198.3" font-family="Times,serif" font-size="14.00">bisim_sym</text>
</a>
</g>
</g>
<!-- VLSM_Lib_Traces_bisim_sym&#45;&gt;VLSM_Lib_Traces_bisim_cons -->
<g id="edge16" class="edge">
<title>VLSM_Lib_Traces_bisim_sym&#45;&gt;VLSM_Lib_Traces_bisim_cons</title>
<path fill="none" stroke="black" d="M430.44,-188.73C371.25,-174.21 273.23,-150.17 213.58,-135.53"/>
<polygon fill="black" stroke="black" points="214.17,-132.08 203.63,-133.09 212.51,-138.87 214.17,-132.08"/>
</g>
<!-- VLSM_Lib_Traces_bisim_sym&#45;&gt;VLSM_Lib_Traces_bisim_nil -->
<g id="edge17" class="edge">
<title>VLSM_Lib_Traces_bisim_sym&#45;&gt;VLSM_Lib_Traces_bisim_nil</title>
<path fill="none" stroke="black" d="M440.59,-182.91C412.18,-170.03 374.24,-152.82 346.31,-140.16"/>
<polygon fill="black" stroke="black" points="347.43,-136.82 336.88,-135.88 344.54,-143.2 347.43,-136.82"/>
</g>
<!-- VLSM_Lib_Traces_bisim_sym&#45;&gt;VLSM_Lib_Traces_bisim -->
<g id="edge18" class="edge">
<title>VLSM_Lib_Traces_bisim_sym&#45;&gt;VLSM_Lib_Traces_bisim</title>
<path fill="none" stroke="black" d="M464,-176.75C457.64,-167.39 450.39,-156.71 444.02,-147.35"/>
<polygon fill="black" stroke="black" points="446.77,-145.17 438.26,-138.86 440.98,-149.1 446.77,-145.17"/>
</g>
<!-- VLSM_Lib_Traces_bisim_refl -->
<g id="node8" class="node">
<title>VLSM_Lib_Traces_bisim_refl</title>
<g id="a_node8"><a xlink:href="VLSM.Lib.Traces.html#bisim_refl" xlink:title="bisim_refl" target="_top">
<ellipse fill="#7fffd4" stroke="black" cx="313.48" cy="-202" rx="47.4" ry="18"/>
<ellipse fill="none" stroke="black" cx="313.48" cy="-202" rx="51.4" ry="22"/>
<ellipse fill="none" stroke="black" cx="313.48" cy="-202" rx="55.39" ry="26"/>
<text text-anchor="middle" x="313.48" y="-198.3" font-family="Times,serif" font-size="14.00">bisim_refl</text>
</a>
</g>
</g>
<!-- VLSM_Lib_Traces_bisim_refl&#45;&gt;VLSM_Lib_Traces_bisim_cons -->
<g id="edge19" class="edge">
<title>VLSM_Lib_Traces_bisim_refl&#45;&gt;VLSM_Lib_Traces_bisim_cons</title>
<path fill="none" stroke="black" d="M276.93,-182.12C253.35,-169.94 222.79,-154.15 199.18,-141.96"/>
<polygon fill="black" stroke="black" points="200.67,-138.79 190.18,-137.31 197.46,-145.01 200.67,-138.79"/>
</g>
<!-- VLSM_Lib_Traces_bisim_refl&#45;&gt;VLSM_Lib_Traces_bisim_nil -->
<g id="edge20" class="edge">
<title>VLSM_Lib_Traces_bisim_refl&#45;&gt;VLSM_Lib_Traces_bisim_nil</title>
<path fill="none" stroke="black" d="M311.87,-175.89C311.35,-167.84 310.78,-158.88 310.25,-150.66"/>
<polygon fill="black" stroke="black" points="313.73,-150.17 309.59,-140.41 306.74,-150.61 313.73,-150.17"/>
</g>
<!-- VLSM_Lib_Traces_bisim_refl&#45;&gt;VLSM_Lib_Traces_bisim -->
<g id="edge21" class="edge">
<title>VLSM_Lib_Traces_bisim_refl&#45;&gt;VLSM_Lib_Traces_bisim</title>
<path fill="none" stroke="black" d="M344.03,-180.1C361.44,-168.18 383.08,-153.38 399.96,-141.83"/>
<polygon fill="black" stroke="black" points="402.03,-144.65 408.31,-136.12 398.08,-138.88 402.03,-144.65"/>
</g>
<!-- VLSM_Lib_Traces_bisim_cons&#45;&gt;VLSM_Lib_Traces_Tcons -->
<g id="edge22" class="edge">
<title>VLSM_Lib_Traces_bisim_cons&#45;&gt;VLSM_Lib_Traces_Tcons</title>
<path fill="none" stroke="black" d="M202.15,-110.52C252.54,-97.21 338.91,-74.4 388.81,-61.21"/>
<polygon fill="black" stroke="black" points="389.81,-64.57 398.58,-58.63 388.02,-57.8 389.81,-64.57"/>
</g>
<!-- VLSM_Lib_Traces_Tnil -->
<g id="node16" class="node">
<title>VLSM_Lib_Traces_Tnil</title>
<g id="a_node16"><a xlink:href="VLSM.Lib.Traces.html#Tnil" xlink:title="Tnil" target="_top">
<ellipse fill="#7faaff" stroke="black" cx="318.48" cy="-50" rx="27" ry="18"/>
<text text-anchor="middle" x="318.48" y="-46.3" font-family="Times,serif" font-size="14.00">Tnil</text>
</a>
</g>
</g>
<!-- VLSM_Lib_Traces_bisim_cons&#45;&gt;VLSM_Lib_Traces_Tnil -->
<g id="edge23" class="edge">
<title>VLSM_Lib_Traces_bisim_cons&#45;&gt;VLSM_Lib_Traces_Tnil</title>
<path fill="none" stroke="black" d="M192.93,-107.34C220.21,-95.09 260.05,-77.22 287.5,-64.9"/>
<polygon fill="black" stroke="black" points="288.96,-68.08 296.65,-60.8 286.09,-61.7 288.96,-68.08"/>
</g>
<!-- VLSM_Lib_Traces_bisim_cons&#45;&gt;VLSM_Lib_Traces_trace -->
<g id="edge24" class="edge">
<title>VLSM_Lib_Traces_bisim_cons&#45;&gt;VLSM_Lib_Traces_trace</title>
<path fill="none" stroke="black" d="M206.92,-112.75C222.29,-109.93 239.64,-106.79 255.48,-104 350.04,-87.37 374.06,-85.42 468.48,-68 484.47,-65.05 502.11,-61.56 517.15,-58.51"/>
<polygon fill="black" stroke="black" points="518,-61.91 527.1,-56.49 516.6,-55.05 518,-61.91"/>
</g>
<!-- VLSM_Lib_Traces_bisim_nil&#45;&gt;VLSM_Lib_Traces_Tcons -->
<g id="edge25" class="edge">
<title>VLSM_Lib_Traces_bisim_nil&#45;&gt;VLSM_Lib_Traces_Tcons</title>
<path fill="none" stroke="black" d="M332.56,-106.83C351.17,-95.89 377.05,-80.66 397.09,-68.88"/>
<polygon fill="black" stroke="black" points="398.99,-71.82 405.83,-63.73 395.44,-65.79 398.99,-71.82"/>
</g>
<!-- VLSM_Lib_Traces_bisim_nil&#45;&gt;VLSM_Lib_Traces_Tnil -->
<g id="edge26" class="edge">
<title>VLSM_Lib_Traces_bisim_nil&#45;&gt;VLSM_Lib_Traces_Tnil</title>
<path fill="none" stroke="black" d="M310.95,-103.7C312.05,-95.98 313.38,-86.71 314.61,-78.11"/>
<polygon fill="black" stroke="black" points="318.09,-78.5 316.03,-68.1 311.16,-77.51 318.09,-78.5"/>
</g>
<!-- VLSM_Lib_Traces_bisim_nil&#45;&gt;VLSM_Lib_Traces_trace -->
<g id="edge27" class="edge">
<title>VLSM_Lib_Traces_bisim_nil&#45;&gt;VLSM_Lib_Traces_trace</title>
<path fill="none" stroke="black" d="M343.58,-110.97C390.3,-97.62 472.41,-74.16 518.87,-60.89"/>
<polygon fill="black" stroke="black" points="519.84,-64.25 528.5,-58.14 517.92,-57.52 519.84,-64.25"/>
</g>
<!-- VLSM_Lib_Traces_bisim&#45;&gt;VLSM_Lib_Traces_Tcons -->
<g id="edge28" class="edge">
<title>VLSM_Lib_Traces_bisim&#45;&gt;VLSM_Lib_Traces_Tcons</title>
<path fill="none" stroke="black" d="M427.48,-103.7C427.48,-95.98 427.48,-86.71 427.48,-78.11"/>
<polygon fill="black" stroke="black" points="430.98,-78.1 427.48,-68.1 423.98,-78.1 430.98,-78.1"/>
</g>
<!-- VLSM_Lib_Traces_bisim&#45;&gt;VLSM_Lib_Traces_Tnil -->
<g id="edge29" class="edge">
<title>VLSM_Lib_Traces_bisim&#45;&gt;VLSM_Lib_Traces_Tnil</title>
<path fill="none" stroke="black" d="M407.49,-108.16C390.19,-97.05 365.02,-80.89 345.85,-68.58"/>
<polygon fill="black" stroke="black" points="347.56,-65.51 337.25,-63.06 343.77,-71.4 347.56,-65.51"/>
</g>
<!-- VLSM_Lib_Traces_bisim&#45;&gt;VLSM_Lib_Traces_trace -->
<g id="edge30" class="edge">
<title>VLSM_Lib_Traces_bisim&#45;&gt;VLSM_Lib_Traces_trace</title>
<path fill="none" stroke="black" d="M448.85,-109.13C469.46,-97.67 500.83,-80.25 523.85,-67.46"/>
<polygon fill="black" stroke="black" points="525.8,-70.38 532.84,-62.47 522.4,-64.26 525.8,-70.38"/>
</g>
<!-- VLSM_Lib_Traces_trace_decompose -->
<g id="node13" class="node">
<title>VLSM_Lib_Traces_trace_decompose</title>
<g id="a_node13"><a xlink:href="VLSM.Lib.Traces.html#trace_decompose" xlink:title="trace_decompose" target="_top">
<ellipse fill="#f070d1" stroke="black" cx="581.48" cy="-122" rx="72.29" ry="18"/>
<text text-anchor="middle" x="581.48" y="-118.3" font-family="Times,serif" font-size="14.00">trace_decompose</text>
</a>
</g>
</g>
<!-- VLSM_Lib_Traces_trace_destr&#45;&gt;VLSM_Lib_Traces_trace_decompose -->
<g id="edge31" class="edge">
<title>VLSM_Lib_Traces_trace_destr&#45;&gt;VLSM_Lib_Traces_trace_decompose</title>
<path fill="none" stroke="black" d="M787.77,-189.49C747.02,-176.36 680.01,-154.76 633.46,-139.75"/>
<polygon fill="black" stroke="black" points="634.45,-136.4 623.86,-136.66 632.3,-143.06 634.45,-136.4"/>
</g>
<!-- VLSM_Lib_Traces_trace_decompose&#45;&gt;VLSM_Lib_Traces_Tcons -->
<g id="edge32" class="edge">
<title>VLSM_Lib_Traces_trace_decompose&#45;&gt;VLSM_Lib_Traces_Tcons</title>
<path fill="none" stroke="black" d="M548.44,-105.98C522.74,-94.3 487.2,-78.15 461.3,-66.37"/>
<polygon fill="black" stroke="black" points="462.44,-63.05 451.89,-62.09 459.54,-69.42 462.44,-63.05"/>
</g>
<!-- VLSM_Lib_Traces_trace_decompose&#45;&gt;VLSM_Lib_Traces_Tnil -->
<g id="edge33" class="edge">
<title>VLSM_Lib_Traces_trace_decompose&#45;&gt;VLSM_Lib_Traces_Tnil</title>
<path fill="none" stroke="black" d="M534.16,-108.4C482.05,-94.54 399.51,-72.57 353.11,-60.22"/>
<polygon fill="black" stroke="black" points="353.8,-56.78 343.23,-57.59 351.99,-63.54 353.8,-56.78"/>
</g>
<!-- VLSM_Lib_Traces_trace_decompose&#45;&gt;VLSM_Lib_Traces_trace -->
<g id="edge34" class="edge">
<title>VLSM_Lib_Traces_trace_decompose&#45;&gt;VLSM_Lib_Traces_trace</title>
<path fill="none" stroke="black" d="M574.7,-104.05C571.47,-95.97 567.53,-86.12 563.92,-77.11"/>
<polygon fill="black" stroke="black" points="567.16,-75.77 560.19,-67.79 560.66,-78.37 567.16,-75.77"/>
</g>
<!-- VLSM_Lib_Traces_hd&#45;&gt;VLSM_Lib_Traces_trace -->
<g id="edge35" class="edge">
<title>VLSM_Lib_Traces_hd&#45;&gt;VLSM_Lib_Traces_trace</title>
<path fill="none" stroke="black" d="M708.57,-111.99C677.5,-99.77 621.81,-77.87 586.3,-63.91"/>
<polygon fill="black" stroke="black" points="587.45,-60.6 576.86,-60.2 584.89,-67.11 587.45,-60.6"/>
</g>
</g>
</svg>
