<?xml version="1.0" encoding="UTF-8" standalone="no"?>
<!DOCTYPE svg PUBLIC "-//W3C//DTD SVG 1.1//EN"
 "http://www.w3.org/Graphics/SVG/1.1/DTD/svg11.dtd">
<!-- Generated by graphviz version 2.43.0 (0)
 -->
<!-- Title: rvdpdgraph Pages: 1 -->
<svg width="1421pt" height="193pt"
 viewBox="0.00 0.00 1421.00 193.00" xmlns="http://www.w3.org/2000/svg" xmlns:xlink="http://www.w3.org/1999/xlink">
<g id="graph0" class="graph" transform="scale(1 1) rotate(0) translate(4 189)">
<title>rvdpdgraph</title>
<polygon fill="white" stroke="transparent" points="-4,4 -4,-189 1417,-189 1417,4 -4,4"/>
<g id="clust1" class="cluster">
<title>cluster_VLSM</title>
<polygon fill="#ffffc3" stroke="black" points="8,-8 8,-177 1405,-177 1405,-8 8,-8"/>
<text text-anchor="middle" x="35.5" y="-161.8" font-family="Times,serif" font-size="14.00">VLSM</text>
</g>
<g id="clust2" class="cluster">
<title>cluster_VLSM_Lib</title>
<polygon fill="#ffffa3" stroke="black" points="16,-16 16,-146 1397,-146 1397,-16 16,-16"/>
<text text-anchor="middle" x="33.5" y="-130.8" font-family="Times,serif" font-size="14.00">Lib</text>
</g>
<g id="clust3" class="cluster">
<title>cluster_VLSM_Lib_RealsExtras</title>
<polygon fill="#ffff83" stroke="black" points="24,-24 24,-115 1389,-115 1389,-24 24,-24"/>
<text text-anchor="middle" x="64.5" y="-99.8" font-family="Times,serif" font-size="14.00">RealsExtras</text>
</g>
<!-- VLSM_Lib_RealsExtras_Rle_transitive -->
<g id="node1" class="node">
<title>VLSM_Lib_RealsExtras_Rle_transitive</title>
<g id="a_node1"><a xlink:href="VLSM.Lib.RealsExtras.html#Rle_transitive" xlink:title="Rle_transitive" target="_top">
<ellipse fill="#7fffd4" stroke="black" cx="1313" cy="-58" rx="59.61" ry="18"/>
<ellipse fill="none" stroke="black" cx="1313" cy="-58" rx="63.6" ry="22"/>
<ellipse fill="none" stroke="black" cx="1313" cy="-58" rx="67.59" ry="26"/>
<text text-anchor="middle" x="1313" y="-54.3" font-family="Times,serif" font-size="14.00">Rle_transitive</text>
</a>
</g>
</g>
<!-- VLSM_Lib_RealsExtras_Rtotal_le_gt -->
<g id="node2" class="node">
<title>VLSM_Lib_RealsExtras_Rtotal_le_gt</title>
<g id="a_node2"><a xlink:href="VLSM.Lib.RealsExtras.html#Rtotal_le_gt" xlink:title="Rtotal_le_gt" target="_top">
<ellipse fill="#7fffd4" stroke="black" cx="1165" cy="-58" rx="53.9" ry="18"/>
<ellipse fill="none" stroke="black" cx="1165" cy="-58" rx="57.89" ry="22"/>
<ellipse fill="none" stroke="black" cx="1165" cy="-58" rx="61.89" ry="26"/>
<text text-anchor="middle" x="1165" y="-54.3" font-family="Times,serif" font-size="14.00">Rtotal_le_gt</text>
</a>
</g>
</g>
<!-- VLSM_Lib_RealsExtras_Rminus_lt_r_strict -->
<g id="node3" class="node">
<title>VLSM_Lib_RealsExtras_Rminus_lt_r_strict</title>
<g id="a_node3"><a xlink:href="VLSM.Lib.RealsExtras.html#Rminus_lt_r_strict" xlink:title="Rminus_lt_r_strict" target="_top">
<ellipse fill="#7fffd4" stroke="black" cx="1000" cy="-58" rx="77.2" ry="18"/>
<ellipse fill="none" stroke="black" cx="1000" cy="-58" rx="81.19" ry="22"/>
<ellipse fill="none" stroke="black" cx="1000" cy="-58" rx="85.19" ry="26"/>
<text text-anchor="middle" x="1000" y="-54.3" font-family="Times,serif" font-size="14.00">Rminus_lt_r_strict</text>
</a>
</g>
</g>
<!-- VLSM_Lib_RealsExtras_Rminus_lt_r -->
<g id="node4" class="node">
<title>VLSM_Lib_RealsExtras_Rminus_lt_r</title>
<g id="a_node4"><a xlink:href="VLSM.Lib.RealsExtras.html#Rminus_lt_r" xlink:title="Rminus_lt_r" target="_top">
<ellipse fill="#7fffd4" stroke="black" cx="833" cy="-58" rx="55.46" ry="18"/>
<ellipse fill="none" stroke="black" cx="833" cy="-58" rx="59.48" ry="22"/>
<ellipse fill="none" stroke="black" cx="833" cy="-58" rx="63.49" ry="26"/>
<text text-anchor="middle" x="833" y="-54.3" font-family="Times,serif" font-size="14.00">Rminus_lt_r</text>
</a>
</g>
</g>
<!-- VLSM_Lib_RealsExtras_Rplus_ge_reg_neg_r -->
<g id="node5" class="node">
<title>VLSM_Lib_RealsExtras_Rplus_ge_reg_neg_r</title>
<g id="a_node5"><a xlink:href="VLSM.Lib.RealsExtras.html#Rplus_ge_reg_neg_r" xlink:title="Rplus_ge_reg_neg_r" target="_top">
<ellipse fill="#7fffd4" stroke="black" cx="660" cy="-58" rx="83.7" ry="18"/>
<ellipse fill="none" stroke="black" cx="660" cy="-58" rx="87.69" ry="22"/>
<ellipse fill="none" stroke="black" cx="660" cy="-58" rx="91.69" ry="26"/>
<text text-anchor="middle" x="660" y="-54.3" font-family="Times,serif" font-size="14.00">Rplus_ge_reg_neg_r</text>
</a>
</g>
</g>
<!-- VLSM_Lib_RealsExtras_Rplus_opp_l -->
<g id="node6" class="node">
<title>VLSM_Lib_RealsExtras_Rplus_opp_l</title>
<g id="a_node6"><a xlink:href="VLSM.Lib.RealsExtras.html#Rplus_opp_l" xlink:title="Rplus_opp_l" target="_top">
<ellipse fill="#7fffd4" stroke="black" cx="486" cy="-58" rx="55.8" ry="18"/>
<ellipse fill="none" stroke="black" cx="486" cy="-58" rx="59.8" ry="22"/>
<ellipse fill="none" stroke="black" cx="486" cy="-58" rx="63.79" ry="26"/>
<text text-anchor="middle" x="486" y="-54.3" font-family="Times,serif" font-size="14.00">Rplus_opp_l</text>
</a>
</g>
</g>
<!-- VLSM_Lib_RealsExtras_Rplusminus_assoc_r -->
<g id="node7" class="node">
<title>VLSM_Lib_RealsExtras_Rplusminus_assoc_r</title>
<g id="a_node7"><a xlink:href="VLSM.Lib.RealsExtras.html#Rplusminus_assoc_r" xlink:title="Rplusminus_assoc_r" target="_top">
<ellipse fill="#7fffd4" stroke="black" cx="312" cy="-58" rx="83.7" ry="18"/>
<ellipse fill="none" stroke="black" cx="312" cy="-58" rx="87.69" ry="22"/>
<ellipse fill="none" stroke="black" cx="312" cy="-58" rx="91.69" ry="26"/>
<text text-anchor="middle" x="312" y="-54.3" font-family="Times,serif" font-size="14.00">Rplusminus_assoc_r</text>
</a>
</g>
</g>
<!-- VLSM_Lib_RealsExtras_Rplusminus_assoc -->
<g id="node8" class="node">
<title>VLSM_Lib_RealsExtras_Rplusminus_assoc</title>
<g id="a_node8"><a xlink:href="VLSM.Lib.RealsExtras.html#Rplusminus_assoc" xlink:title="Rplusminus_assoc" target="_top">
<ellipse fill="#7fffd4" stroke="black" cx="117" cy="-58" rx="76.87" ry="18"/>
<ellipse fill="none" stroke="black" cx="117" cy="-58" rx="80.88" ry="22"/>
<ellipse fill="none" stroke="black" cx="117" cy="-58" rx="84.89" ry="26"/>
<text text-anchor="middle" x="117" y="-54.3" font-family="Times,serif" font-size="14.00">Rplusminus_assoc</text>
</a>
</g>
</g>
</g>
</svg>
