<?xml version="1.0" encoding="UTF-8" standalone="no"?>
<!DOCTYPE svg PUBLIC "-//W3C//DTD SVG 1.1//EN"
 "http://www.w3.org/Graphics/SVG/1.1/DTD/svg11.dtd">
<!-- Generated by graphviz version 2.43.0 (0)
 -->
<!-- Title: rvdpdgraph Pages: 1 -->
<svg width="2195pt" height="1102pt"
 viewBox="0.00 0.00 2195.00 1101.50" xmlns="http://www.w3.org/2000/svg" xmlns:xlink="http://www.w3.org/1999/xlink">
<g id="graph0" class="graph" transform="scale(1 1) rotate(0) translate(4 1097.5)">
<title>rvdpdgraph</title>
<polygon fill="white" stroke="transparent" points="-4,4 -4,-1097.5 2191,-1097.5 2191,4 -4,4"/>
<g id="clust1" class="cluster">
<title>cluster_VLSM</title>
<polygon fill="#ffffc3" stroke="black" points="8,-13.15 8,-1080.35 2179,-1080.35 2179,-13.15 8,-13.15"/>
<text text-anchor="middle" x="35.5" y="-1065.15" font-family="Times,serif" font-size="14.00">VLSM</text>
</g>
<g id="clust2" class="cluster">
<title>cluster_VLSM_Core</title>
<polygon fill="#ffffa3" stroke="black" points="16,-26.31 16,-1029.37 2171,-1029.37 2171,-26.31 16,-26.31"/>
<text text-anchor="middle" x="37.5" y="-1014.17" font-family="Times,serif" font-size="14.00">Core</text>
</g>
<g id="clust3" class="cluster">
<title>cluster_VLSM_Core_Decisions</title>
<polygon fill="#ffff83" stroke="black" points="24,-39.46 24,-978.39 2163,-978.39 2163,-39.46 24,-39.46"/>
<text text-anchor="middle" x="59" y="-963.19" font-family="Times,serif" font-size="14.00">Decisions</text>
</g>
<!-- VLSM_Core_Decisions_composite_projection_decision_estimator_property -->
<g id="node1" class="node">
<title>VLSM_Core_Decisions_composite_projection_decision_estimator_property</title>
<g id="a_node1"><a xlink:href="VLSM.Core.Decisions.html#composite_projection_decision_estimator_property" xlink:title="composite_projection_decision_estimator_property" target="_top">
<ellipse fill="#f070d1" stroke="black" cx="1452" cy="-740.15" rx="192.27" ry="18"/>
<ellipse fill="none" stroke="black" cx="1452" cy="-740.15" rx="196.27" ry="22"/>
<ellipse fill="none" stroke="black" cx="1452" cy="-740.15" rx="200.27" ry="26"/>
<text text-anchor="middle" x="1452" y="-736.45" font-family="Times,serif" font-size="14.00">composite_projection_decision_estimator_property</text>
</a>
</g>
</g>
<!-- VLSM_Core_Decisions_decision_estimator_property -->
<g id="node5" class="node">
<title>VLSM_Core_Decisions_decision_estimator_property</title>
<g id="a_node5"><a xlink:href="VLSM.Core.Decisions.html#decision_estimator_property" xlink:title="decision_estimator_property" target="_top">
<ellipse fill="#f070d1" stroke="black" cx="1784" cy="-595.15" rx="111.58" ry="18"/>
<text text-anchor="middle" x="1784" y="-591.45" font-family="Times,serif" font-size="14.00">decision_estimator_property</text>
</a>
</g>
</g>
<!-- VLSM_Core_Decisions_composite_projection_decision_estimator_property&#45;&gt;VLSM_Core_Decisions_decision_estimator_property -->
<g id="edge1" class="edge">
<title>VLSM_Core_Decisions_composite_projection_decision_estimator_property&#45;&gt;VLSM_Core_Decisions_decision_estimator_property</title>
<path fill="none" stroke="black" d="M1507.94,-715.06C1572.32,-687.33 1676.89,-642.29 1737.16,-616.33"/>
<polygon fill="black" stroke="black" points="1738.64,-619.5 1746.44,-612.33 1735.87,-613.08 1738.64,-619.5"/>
</g>
<!-- VLSM_Core_Decisions_decision_estimator_finality -->
<g id="node2" class="node">
<title>VLSM_Core_Decisions_decision_estimator_finality</title>
<g id="a_node2"><a xlink:href="VLSM.Core.Decisions.html#decision_estimator_finality" xlink:title="decision_estimator_finality" target="_top">
<ellipse fill="#7fffd4" stroke="black" cx="1784" cy="-885.15" rx="107.46" ry="18"/>
<ellipse fill="none" stroke="black" cx="1784" cy="-885.15" rx="111.47" ry="22"/>
<ellipse fill="none" stroke="black" cx="1784" cy="-885.15" rx="115.48" ry="26"/>
<text text-anchor="middle" x="1784" y="-881.45" font-family="Times,serif" font-size="14.00">decision_estimator_finality</text>
</a>
</g>
</g>
<!-- VLSM_Core_Decisions_estimator_surely_has_decision -->
<g id="node3" class="node">
<title>VLSM_Core_Decisions_estimator_surely_has_decision</title>
<g id="a_node3"><a xlink:href="VLSM.Core.Decisions.html#estimator_surely_has_decision" xlink:title="estimator_surely_has_decision" target="_top">
<ellipse fill="#7fffd4" stroke="black" cx="2035" cy="-740.15" rx="119.68" ry="18"/>
<text text-anchor="middle" x="2035" y="-736.45" font-family="Times,serif" font-size="14.00">estimator_surely_has_decision</text>
</a>
</g>
</g>
<!-- VLSM_Core_Decisions_decision_estimator_finality&#45;&gt;VLSM_Core_Decisions_estimator_surely_has_decision -->
<g id="edge2" class="edge">
<title>VLSM_Core_Decisions_decision_estimator_finality&#45;&gt;VLSM_Core_Decisions_estimator_surely_has_decision</title>
<path fill="none" stroke="black" d="M1825.17,-860.7C1872.89,-833.51 1950.89,-789.08 1997.15,-762.72"/>
<polygon fill="black" stroke="black" points="1999,-765.69 2005.96,-757.7 1995.54,-759.61 1999,-765.69"/>
</g>
<!-- VLSM_Core_Decisions_estimator_only_has_decision -->
<g id="node4" class="node">
<title>VLSM_Core_Decisions_estimator_only_has_decision</title>
<g id="a_node4"><a xlink:href="VLSM.Core.Decisions.html#estimator_only_has_decision" xlink:title="estimator_only_has_decision" target="_top">
<ellipse fill="#7fffd4" stroke="black" cx="1784" cy="-740.15" rx="113.98" ry="18"/>
<text text-anchor="middle" x="1784" y="-736.45" font-family="Times,serif" font-size="14.00">estimator_only_has_decision</text>
</a>
</g>
</g>
<!-- VLSM_Core_Decisions_decision_estimator_finality&#45;&gt;VLSM_Core_Decisions_estimator_only_has_decision -->
<g id="edge3" class="edge">
<title>VLSM_Core_Decisions_decision_estimator_finality&#45;&gt;VLSM_Core_Decisions_estimator_only_has_decision</title>
<path fill="none" stroke="black" d="M1784,-858.92C1784,-833.66 1784,-794.91 1784,-768.82"/>
<polygon fill="black" stroke="black" points="1787.5,-768.5 1784,-758.5 1780.5,-768.5 1787.5,-768.5"/>
</g>
<!-- VLSM_Core_Decisions_final -->
<g id="node22" class="node">
<title>VLSM_Core_Decisions_final</title>
<g id="a_node22"><a xlink:href="VLSM.Core.Decisions.html#final" xlink:title="final" target="_top">
<ellipse fill="#f070d1" stroke="black" cx="1105" cy="-595.15" rx="27" ry="18"/>
<text text-anchor="middle" x="1105" y="-591.45" font-family="Times,serif" font-size="14.00">final</text>
</a>
</g>
</g>
<!-- VLSM_Core_Decisions_decision_estimator_finality&#45;&gt;VLSM_Core_Decisions_final -->
<g id="edge4" class="edge">
<title>VLSM_Core_Decisions_decision_estimator_finality&#45;&gt;VLSM_Core_Decisions_final</title>
<path fill="none" stroke="black" d="M1681.14,-873.38C1543.12,-857.01 1307.79,-821.75 1243,-766.15 1224.21,-750.03 1236.49,-734.92 1223,-714.15 1197.22,-674.48 1156.3,-637.4 1130.06,-615.75"/>
<polygon fill="black" stroke="black" points="1132.06,-612.87 1122.09,-609.28 1127.65,-618.3 1132.06,-612.87"/>
</g>
<!-- VLSM_Core_Decisions_estimator_surely_has_decision&#45;&gt;VLSM_Core_Decisions_decision_estimator_property -->
<g id="edge5" class="edge">
<title>VLSM_Core_Decisions_estimator_surely_has_decision&#45;&gt;VLSM_Core_Decisions_decision_estimator_property</title>
<path fill="none" stroke="black" d="M2005.72,-722.47C1960.18,-696.53 1872.43,-646.53 1822.05,-617.83"/>
<polygon fill="black" stroke="black" points="1823.52,-614.64 1813.1,-612.73 1820.05,-620.72 1823.52,-614.64"/>
</g>
<!-- VLSM_Core_Decisions_estimator_total -->
<g id="node6" class="node">
<title>VLSM_Core_Decisions_estimator_total</title>
<g id="a_node6"><a xlink:href="VLSM.Core.Decisions.html#estimator_total" xlink:title="estimator_total" target="_top">
<ellipse fill="#7fffd4" stroke="black" cx="2006" cy="-595.15" rx="63.89" ry="18"/>
<text text-anchor="middle" x="2006" y="-591.45" font-family="Times,serif" font-size="14.00">estimator_total</text>
</a>
</g>
</g>
<!-- VLSM_Core_Decisions_estimator_surely_has_decision&#45;&gt;VLSM_Core_Decisions_estimator_total -->
<g id="edge6" class="edge">
<title>VLSM_Core_Decisions_estimator_surely_has_decision&#45;&gt;VLSM_Core_Decisions_estimator_total</title>
<path fill="none" stroke="black" d="M2031.5,-721.91C2026.54,-697.43 2017.4,-652.37 2011.52,-623.36"/>
<polygon fill="black" stroke="black" points="2014.93,-622.57 2009.51,-613.47 2008.07,-623.96 2014.93,-622.57"/>
</g>
<!-- VLSM_Core_Decisions_estimator_only_has_decision&#45;&gt;VLSM_Core_Decisions_decision_estimator_property -->
<g id="edge7" class="edge">
<title>VLSM_Core_Decisions_estimator_only_has_decision&#45;&gt;VLSM_Core_Decisions_decision_estimator_property</title>
<path fill="none" stroke="black" d="M1784,-721.91C1784,-697.53 1784,-652.76 1784,-623.74"/>
<polygon fill="black" stroke="black" points="1787.5,-623.47 1784,-613.47 1780.5,-623.47 1787.5,-623.47"/>
</g>
<!-- VLSM_Core_Decisions_estimator -->
<g id="node7" class="node">
<title>VLSM_Core_Decisions_estimator</title>
<g id="a_node7"><a xlink:href="VLSM.Core.Decisions.html#estimator" xlink:title="estimator" target="_top">
<ellipse fill="#f070d1" stroke="black" cx="1895" cy="-464.15" rx="44.39" ry="18"/>
<text text-anchor="middle" x="1895" y="-460.45" font-family="Times,serif" font-size="14.00">estimator</text>
</a>
</g>
</g>
<!-- VLSM_Core_Decisions_decision_estimator_property&#45;&gt;VLSM_Core_Decisions_estimator -->
<g id="edge8" class="edge">
<title>VLSM_Core_Decisions_decision_estimator_property&#45;&gt;VLSM_Core_Decisions_estimator</title>
<path fill="none" stroke="black" d="M1798.51,-577.29C1817.81,-554.86 1852.06,-515.06 1874.13,-489.41"/>
<polygon fill="black" stroke="black" points="1876.97,-491.48 1880.84,-481.62 1871.66,-486.91 1876.97,-491.48"/>
</g>
<!-- VLSM_Core_Decisions_vdecision -->
<g id="node24" class="node">
<title>VLSM_Core_Decisions_vdecision</title>
<g id="a_node24"><a xlink:href="VLSM.Core.Decisions.html#vdecision" xlink:title="vdecision" target="_top">
<ellipse fill="#f070d1" stroke="black" cx="620" cy="-464.15" rx="44.39" ry="18"/>
<text text-anchor="middle" x="620" y="-460.45" font-family="Times,serif" font-size="14.00">vdecision</text>
</a>
</g>
</g>
<!-- VLSM_Core_Decisions_decision_estimator_property&#45;&gt;VLSM_Core_Decisions_vdecision -->
<g id="edge9" class="edge">
<title>VLSM_Core_Decisions_decision_estimator_property&#45;&gt;VLSM_Core_Decisions_vdecision</title>
<path fill="none" stroke="black" d="M1694.6,-584.25C1464.04,-558.7 854.64,-491.16 672.27,-470.95"/>
<polygon fill="black" stroke="black" points="672.47,-467.45 662.14,-469.83 671.7,-474.41 672.47,-467.45"/>
</g>
<!-- VLSM_Core_Decisions_estimator_total&#45;&gt;VLSM_Core_Decisions_estimator -->
<g id="edge10" class="edge">
<title>VLSM_Core_Decisions_estimator_total&#45;&gt;VLSM_Core_Decisions_estimator</title>
<path fill="none" stroke="black" d="M1991.72,-577.55C1972.38,-555.08 1937.75,-514.83 1915.6,-489.09"/>
<polygon fill="black" stroke="black" points="1918.06,-486.58 1908.88,-481.29 1912.75,-491.15 1918.06,-486.58"/>
</g>
<!-- VLSM_Core_Decisions_Estimator -->
<g id="node9" class="node">
<title>VLSM_Core_Decisions_Estimator</title>
<g id="a_node9"><a xlink:href="VLSM.Core.Decisions.html#Estimator" xlink:title="Estimator" target="_top">
<ellipse fill="#e2cdfa" stroke="black" cx="1895" cy="-332.15" rx="45.49" ry="18"/>
<text text-anchor="middle" x="1895" y="-328.45" font-family="Times,serif" font-size="14.00">Estimator</text>
</a>
</g>
</g>
<!-- VLSM_Core_Decisions_estimator&#45;&gt;VLSM_Core_Decisions_Estimator -->
<g id="edge11" class="edge">
<title>VLSM_Core_Decisions_estimator&#45;&gt;VLSM_Core_Decisions_Estimator</title>
<path fill="none" stroke="black" d="M1895,-445.89C1895,-424.14 1895,-386.48 1895,-360.72"/>
<polygon fill="black" stroke="black" points="1898.5,-360.49 1895,-350.49 1891.5,-360.49 1898.5,-360.49"/>
</g>
<!-- VLSM_Core_Decisions_Build_Estimator -->
<g id="node8" class="node">
<title>VLSM_Core_Decisions_Build_Estimator</title>
<g id="a_node8"><a xlink:href="VLSM.Core.Decisions.html#Build_Estimator" xlink:title="Build_Estimator" target="_top">
<ellipse fill="#7faaff" stroke="black" cx="1264" cy="-885.15" rx="69.58" ry="18"/>
<ellipse fill="none" stroke="black" cx="1264" cy="-885.15" rx="73.59" ry="22"/>
<ellipse fill="none" stroke="black" cx="1264" cy="-885.15" rx="77.59" ry="26"/>
<text text-anchor="middle" x="1264" y="-881.45" font-family="Times,serif" font-size="14.00">Build_Estimator</text>
</a>
</g>
</g>
<!-- VLSM_Core_Decisions_live -->
<g id="node10" class="node">
<title>VLSM_Core_Decisions_live</title>
<g id="a_node10"><a xlink:href="VLSM.Core.Decisions.html#live" xlink:title="live" target="_top">
<ellipse fill="#f070d1" stroke="black" cx="67" cy="-595.15" rx="27" ry="18"/>
<ellipse fill="none" stroke="black" cx="67" cy="-595.15" rx="31" ry="22"/>
<ellipse fill="none" stroke="black" cx="67" cy="-595.15" rx="35" ry="26"/>
<text text-anchor="middle" x="67" y="-591.45" font-family="Times,serif" font-size="14.00">live</text>
</a>
</g>
</g>
<!-- VLSM_Core_Decisions_live&#45;&gt;VLSM_Core_Decisions_vdecision -->
<g id="edge12" class="edge">
<title>VLSM_Core_Decisions_live&#45;&gt;VLSM_Core_Decisions_vdecision</title>
<path fill="none" stroke="black" d="M93.34,-577.42C99.01,-574.33 105.08,-571.38 111,-569.15 271.13,-509.04 473.34,-480.92 567.41,-470.38"/>
<polygon fill="black" stroke="black" points="567.96,-473.84 577.52,-469.27 567.2,-466.88 567.96,-473.84"/>
</g>
<!-- VLSM_Core_Decisions_final_and_consistent_implies_consistent -->
<g id="node11" class="node">
<title>VLSM_Core_Decisions_final_and_consistent_implies_consistent</title>
<g id="a_node11"><a xlink:href="VLSM.Core.Decisions.html#final_and_consistent_implies_consistent" xlink:title="final_and_consistent_implies_consistent" target="_top">
<ellipse fill="#7fffd4" stroke="black" cx="749" cy="-740.15" rx="153.28" ry="18"/>
<ellipse fill="none" stroke="black" cx="749" cy="-740.15" rx="157.28" ry="22"/>
<ellipse fill="none" stroke="black" cx="749" cy="-740.15" rx="161.27" ry="26"/>
<text text-anchor="middle" x="749" y="-736.45" font-family="Times,serif" font-size="14.00">final_and_consistent_implies_consistent</text>
</a>
</g>
</g>
<!-- VLSM_Core_Decisions_final_and_consistent -->
<g id="node13" class="node">
<title>VLSM_Core_Decisions_final_and_consistent</title>
<g id="a_node13"><a xlink:href="VLSM.Core.Decisions.html#final_and_consistent" xlink:title="final_and_consistent" target="_top">
<ellipse fill="#f070d1" stroke="black" cx="977" cy="-595.15" rx="83.39" ry="18"/>
<text text-anchor="middle" x="977" y="-591.45" font-family="Times,serif" font-size="14.00">final_and_consistent</text>
</a>
</g>
</g>
<!-- VLSM_Core_Decisions_final_and_consistent_implies_consistent&#45;&gt;VLSM_Core_Decisions_final_and_consistent -->
<g id="edge13" class="edge">
<title>VLSM_Core_Decisions_final_and_consistent_implies_consistent&#45;&gt;VLSM_Core_Decisions_final_and_consistent</title>
<path fill="none" stroke="black" d="M787.68,-714.9C831.12,-687.65 900.97,-643.84 942.58,-617.74"/>
<polygon fill="black" stroke="black" points="944.65,-620.57 951.27,-612.29 940.93,-614.64 944.65,-620.57"/>
</g>
<!-- VLSM_Core_Decisions_consistent -->
<g id="node16" class="node">
<title>VLSM_Core_Decisions_consistent</title>
<g id="a_node16"><a xlink:href="VLSM.Core.Decisions.html#consistent" xlink:title="consistent" target="_top">
<ellipse fill="#f070d1" stroke="black" cx="830" cy="-595.15" rx="46.29" ry="18"/>
<text text-anchor="middle" x="830" y="-591.45" font-family="Times,serif" font-size="14.00">consistent</text>
</a>
</g>
</g>
<!-- VLSM_Core_Decisions_final_and_consistent_implies_consistent&#45;&gt;VLSM_Core_Decisions_consistent -->
<g id="edge14" class="edge">
<title>VLSM_Core_Decisions_final_and_consistent_implies_consistent&#45;&gt;VLSM_Core_Decisions_consistent</title>
<path fill="none" stroke="black" d="M763.11,-714.25C777.72,-688.45 800.46,-648.31 815.29,-622.13"/>
<polygon fill="black" stroke="black" points="818.48,-623.59 820.37,-613.16 812.39,-620.14 818.48,-623.59"/>
</g>
<!-- VLSM_Core_Decisions_final_and_consistent_implies_final -->
<g id="node12" class="node">
<title>VLSM_Core_Decisions_final_and_consistent_implies_final</title>
<g id="a_node12"><a xlink:href="VLSM.Core.Decisions.html#final_and_consistent_implies_final" xlink:title="final_and_consistent_implies_final" target="_top">
<ellipse fill="#7fffd4" stroke="black" cx="1071" cy="-740.15" rx="134.57" ry="18"/>
<ellipse fill="none" stroke="black" cx="1071" cy="-740.15" rx="138.58" ry="22"/>
<ellipse fill="none" stroke="black" cx="1071" cy="-740.15" rx="142.58" ry="26"/>
<text text-anchor="middle" x="1071" y="-736.45" font-family="Times,serif" font-size="14.00">final_and_consistent_implies_final</text>
</a>
</g>
</g>
<!-- VLSM_Core_Decisions_final_and_consistent_implies_final&#45;&gt;VLSM_Core_Decisions_final_and_consistent -->
<g id="edge15" class="edge">
<title>VLSM_Core_Decisions_final_and_consistent_implies_final&#45;&gt;VLSM_Core_Decisions_final_and_consistent</title>
<path fill="none" stroke="black" d="M1054.63,-714.25C1037.59,-688.33 1011.05,-647.96 993.85,-621.78"/>
<polygon fill="black" stroke="black" points="996.6,-619.6 988.18,-613.16 990.75,-623.44 996.6,-619.6"/>
</g>
<!-- VLSM_Core_Decisions_final_and_consistent_implies_final&#45;&gt;VLSM_Core_Decisions_final -->
<g id="edge16" class="edge">
<title>VLSM_Core_Decisions_final_and_consistent_implies_final&#45;&gt;VLSM_Core_Decisions_final</title>
<path fill="none" stroke="black" d="M1077,-713.92C1083.07,-688.41 1092.41,-649.13 1098.61,-623.04"/>
<polygon fill="black" stroke="black" points="1102.07,-623.62 1100.98,-613.08 1095.26,-622 1102.07,-623.62"/>
</g>
<!-- VLSM_Core_Decisions_final_and_consistent&#45;&gt;VLSM_Core_Decisions_vdecision -->
<g id="edge17" class="edge">
<title>VLSM_Core_Decisions_final_and_consistent&#45;&gt;VLSM_Core_Decisions_vdecision</title>
<path fill="none" stroke="black" d="M936.05,-579.36C867.62,-554.63 730.76,-505.18 661.78,-480.25"/>
<polygon fill="black" stroke="black" points="662.71,-476.87 652.11,-476.76 660.33,-483.45 662.71,-476.87"/>
</g>
<!-- VLSM_Core_Decisions_original_to_consistent -->
<g id="node14" class="node">
<title>VLSM_Core_Decisions_original_to_consistent</title>
<g id="a_node14"><a xlink:href="VLSM.Core.Decisions.html#original_to_consistent" xlink:title="original_to_consistent" target="_top">
<ellipse fill="#7fffd4" stroke="black" cx="473" cy="-740.15" rx="89.08" ry="18"/>
<ellipse fill="none" stroke="black" cx="473" cy="-740.15" rx="93.08" ry="22"/>
<ellipse fill="none" stroke="black" cx="473" cy="-740.15" rx="97.08" ry="26"/>
<text text-anchor="middle" x="473" y="-736.45" font-family="Times,serif" font-size="14.00">original_to_consistent</text>
</a>
</g>
</g>
<!-- VLSM_Core_Decisions_original_to_consistent&#45;&gt;VLSM_Core_Decisions_consistent -->
<g id="edge18" class="edge">
<title>VLSM_Core_Decisions_original_to_consistent&#45;&gt;VLSM_Core_Decisions_consistent</title>
<path fill="none" stroke="black" d="M528.19,-718.62C589.02,-695.74 689.57,-657.23 775,-621.15 780.57,-618.8 786.42,-616.24 792.15,-613.69"/>
<polygon fill="black" stroke="black" points="793.91,-616.73 801.58,-609.43 791.03,-610.35 793.91,-616.73"/>
</g>
<!-- VLSM_Core_Decisions_consistent_original -->
<g id="node17" class="node">
<title>VLSM_Core_Decisions_consistent_original</title>
<g id="a_node17"><a xlink:href="VLSM.Core.Decisions.html#consistent_original" xlink:title="consistent_original" target="_top">
<ellipse fill="#f070d1" stroke="black" cx="689" cy="-595.15" rx="77.19" ry="18"/>
<text text-anchor="middle" x="689" y="-591.45" font-family="Times,serif" font-size="14.00">consistent_original</text>
</a>
</g>
</g>
<!-- VLSM_Core_Decisions_original_to_consistent&#45;&gt;VLSM_Core_Decisions_consistent_original -->
<g id="edge19" class="edge">
<title>VLSM_Core_Decisions_original_to_consistent&#45;&gt;VLSM_Core_Decisions_consistent_original</title>
<path fill="none" stroke="black" d="M508.18,-715.86C549.08,-688.78 616.06,-644.44 656,-618"/>
<polygon fill="black" stroke="black" points="658.17,-620.76 664.58,-612.32 654.31,-614.93 658.17,-620.76"/>
</g>
<!-- VLSM_Core_Decisions_consistent_to_original -->
<g id="node15" class="node">
<title>VLSM_Core_Decisions_consistent_to_original</title>
<g id="a_node15"><a xlink:href="VLSM.Core.Decisions.html#consistent_to_original" xlink:title="consistent_to_original" target="_top">
<ellipse fill="#7fffd4" stroke="black" cx="261" cy="-740.15" rx="89.08" ry="18"/>
<ellipse fill="none" stroke="black" cx="261" cy="-740.15" rx="93.08" ry="22"/>
<ellipse fill="none" stroke="black" cx="261" cy="-740.15" rx="97.08" ry="26"/>
<text text-anchor="middle" x="261" y="-736.45" font-family="Times,serif" font-size="14.00">consistent_to_original</text>
</a>
</g>
</g>
<!-- VLSM_Core_Decisions_consistent_to_original&#45;&gt;VLSM_Core_Decisions_consistent -->
<g id="edge20" class="edge">
<title>VLSM_Core_Decisions_consistent_to_original&#45;&gt;VLSM_Core_Decisions_consistent</title>
<path fill="none" stroke="black" d="M331.97,-722.34C343.67,-719.59 355.67,-716.78 367,-714.15 548.18,-672.14 598.77,-680.61 775,-621.15 781.07,-619.11 787.36,-616.62 793.44,-614.01"/>
<polygon fill="black" stroke="black" points="795.04,-617.13 802.74,-609.86 792.18,-610.74 795.04,-617.13"/>
</g>
<!-- VLSM_Core_Decisions_consistent_to_original&#45;&gt;VLSM_Core_Decisions_consistent_original -->
<g id="edge21" class="edge">
<title>VLSM_Core_Decisions_consistent_to_original&#45;&gt;VLSM_Core_Decisions_consistent_original</title>
<path fill="none" stroke="black" d="M320.06,-719.42C404.07,-691.35 556.73,-640.35 636.8,-613.59"/>
<polygon fill="black" stroke="black" points="638.29,-616.79 646.67,-610.3 636.07,-610.15 638.29,-616.79"/>
</g>
<!-- VLSM_Core_Decisions_consistent&#45;&gt;VLSM_Core_Decisions_vdecision -->
<g id="edge22" class="edge">
<title>VLSM_Core_Decisions_consistent&#45;&gt;VLSM_Core_Decisions_vdecision</title>
<path fill="none" stroke="black" d="M806.32,-579.61C768.56,-556.42 694.67,-511.02 652.16,-484.91"/>
<polygon fill="black" stroke="black" points="653.95,-481.9 643.59,-479.65 650.28,-487.87 653.95,-481.9"/>
</g>
<!-- VLSM_Core_Decisions_consistent_original&#45;&gt;VLSM_Core_Decisions_vdecision -->
<g id="edge23" class="edge">
<title>VLSM_Core_Decisions_consistent_original&#45;&gt;VLSM_Core_Decisions_vdecision</title>
<path fill="none" stroke="black" d="M679.84,-577.02C668.07,-555.03 647.54,-516.64 633.86,-491.06"/>
<polygon fill="black" stroke="black" points="636.78,-489.11 628.98,-481.95 630.61,-492.41 636.78,-489.11"/>
</g>
<!-- VLSM_Core_Decisions_symmetric -->
<g id="node18" class="node">
<title>VLSM_Core_Decisions_symmetric</title>
<g id="a_node18"><a xlink:href="VLSM.Core.Decisions.html#symmetric" xlink:title="symmetric" target="_top">
<ellipse fill="#f070d1" stroke="black" cx="89" cy="-740.15" rx="48.96" ry="18"/>
<ellipse fill="none" stroke="black" cx="89" cy="-740.15" rx="52.98" ry="22"/>
<ellipse fill="none" stroke="black" cx="89" cy="-740.15" rx="56.99" ry="26"/>
<text text-anchor="middle" x="89" y="-736.45" font-family="Times,serif" font-size="14.00">symmetric</text>
</a>
</g>
</g>
<!-- VLSM_Core_Decisions_behavior -->
<g id="node19" class="node">
<title>VLSM_Core_Decisions_behavior</title>
<g id="a_node19"><a xlink:href="VLSM.Core.Decisions.html#behavior" xlink:title="behavior" target="_top">
<ellipse fill="#f070d1" stroke="black" cx="552" cy="-595.15" rx="41.69" ry="18"/>
<text text-anchor="middle" x="552" y="-591.45" font-family="Times,serif" font-size="14.00">behavior</text>
</a>
</g>
</g>
<!-- VLSM_Core_Decisions_symmetric&#45;&gt;VLSM_Core_Decisions_behavior -->
<g id="edge24" class="edge">
<title>VLSM_Core_Decisions_symmetric&#45;&gt;VLSM_Core_Decisions_behavior</title>
<path fill="none" stroke="black" d="M131.03,-722.52C138.94,-719.59 147.19,-716.68 155,-714.15 306.53,-665.22 351.93,-677.13 501,-621.15 506.56,-619.07 512.32,-616.58 517.89,-613.99"/>
<polygon fill="black" stroke="black" points="519.51,-617.1 527,-609.6 516.48,-610.79 519.51,-617.1"/>
</g>
<!-- VLSM_Core_Decisions_behavior&#45;&gt;VLSM_Core_Decisions_vdecision -->
<g id="edge25" class="edge">
<title>VLSM_Core_Decisions_behavior&#45;&gt;VLSM_Core_Decisions_vdecision</title>
<path fill="none" stroke="black" d="M560.75,-577.55C572.32,-555.62 592.81,-516.74 606.4,-490.95"/>
<polygon fill="black" stroke="black" points="609.5,-492.58 611.07,-482.1 603.31,-489.32 609.5,-492.58"/>
</g>
<!-- VLSM_Core_Decisions_stuck_free -->
<g id="node20" class="node">
<title>VLSM_Core_Decisions_stuck_free</title>
<g id="a_node20"><a xlink:href="VLSM.Core.Decisions.html#stuck_free" xlink:title="stuck_free" target="_top">
<ellipse fill="#f070d1" stroke="black" cx="437" cy="-595.15" rx="47.4" ry="18"/>
<ellipse fill="none" stroke="black" cx="437" cy="-595.15" rx="51.4" ry="22"/>
<ellipse fill="none" stroke="black" cx="437" cy="-595.15" rx="55.39" ry="26"/>
<text text-anchor="middle" x="437" y="-591.45" font-family="Times,serif" font-size="14.00">stuck_free</text>
</a>
</g>
</g>
<!-- VLSM_Core_Decisions_stuck_free&#45;&gt;VLSM_Core_Decisions_vdecision -->
<g id="edge26" class="edge">
<title>VLSM_Core_Decisions_stuck_free&#45;&gt;VLSM_Core_Decisions_vdecision</title>
<path fill="none" stroke="black" d="M466.81,-573.14C500.84,-549.16 556.17,-510.15 590.2,-486.16"/>
<polygon fill="black" stroke="black" points="592.62,-488.74 598.78,-480.12 588.59,-483.02 592.62,-488.74"/>
</g>
<!-- VLSM_Core_Decisions_bivalent -->
<g id="node21" class="node">
<title>VLSM_Core_Decisions_bivalent</title>
<g id="a_node21"><a xlink:href="VLSM.Core.Decisions.html#bivalent" xlink:title="bivalent" target="_top">
<ellipse fill="#f070d1" stroke="black" cx="317" cy="-595.15" rx="38.99" ry="18"/>
<ellipse fill="none" stroke="black" cx="317" cy="-595.15" rx="42.99" ry="22"/>
<ellipse fill="none" stroke="black" cx="317" cy="-595.15" rx="46.99" ry="26"/>
<text text-anchor="middle" x="317" y="-591.45" font-family="Times,serif" font-size="14.00">bivalent</text>
</a>
</g>
</g>
<!-- VLSM_Core_Decisions_bivalent&#45;&gt;VLSM_Core_Decisions_vdecision -->
<g id="edge27" class="edge">
<title>VLSM_Core_Decisions_bivalent&#45;&gt;VLSM_Core_Decisions_vdecision</title>
<path fill="none" stroke="black" d="M352.8,-578.04C359.5,-575.06 366.46,-571.99 373,-569.15 446.03,-537.48 531.77,-501.69 580.61,-481.43"/>
<polygon fill="black" stroke="black" points="581.98,-484.66 589.87,-477.6 579.3,-478.19 581.98,-484.66"/>
</g>
<!-- VLSM_Core_Decisions_final&#45;&gt;VLSM_Core_Decisions_vdecision -->
<g id="edge28" class="edge">
<title>VLSM_Core_Decisions_final&#45;&gt;VLSM_Core_Decisions_vdecision</title>
<path fill="none" stroke="black" d="M1088.58,-580.79C1082.69,-576.55 1075.82,-572.18 1069,-569.15 933.16,-508.93 758.13,-481.36 672.25,-470.75"/>
<polygon fill="black" stroke="black" points="672.57,-467.27 662.23,-469.54 671.73,-474.21 672.57,-467.27"/>
</g>
<!-- VLSM_Core_Decisions_final_original -->
<g id="node23" class="node">
<title>VLSM_Core_Decisions_final_original</title>
<g id="a_node23"><a xlink:href="VLSM.Core.Decisions.html#final_original" xlink:title="final_original" target="_top">
<ellipse fill="#f070d1" stroke="black" cx="186" cy="-595.15" rx="58.49" ry="18"/>
<ellipse fill="none" stroke="black" cx="186" cy="-595.15" rx="62.49" ry="22"/>
<ellipse fill="none" stroke="black" cx="186" cy="-595.15" rx="66.49" ry="26"/>
<text text-anchor="middle" x="186" y="-591.45" font-family="Times,serif" font-size="14.00">final_original</text>
</a>
</g>
</g>
<!-- VLSM_Core_Decisions_final_original&#45;&gt;VLSM_Core_Decisions_vdecision -->
<g id="edge29" class="edge">
<title>VLSM_Core_Decisions_final_original&#45;&gt;VLSM_Core_Decisions_vdecision</title>
<path fill="none" stroke="black" d="M235.13,-577.47C243.73,-574.63 252.61,-571.77 261,-569.15 373.11,-534.25 506.11,-496.72 574.44,-477.73"/>
<polygon fill="black" stroke="black" points="575.75,-481 584.45,-474.95 573.87,-474.25 575.75,-481"/>
</g>
<!-- VLSM_Core_Decisions_decision -->
<g id="node25" class="node">
<title>VLSM_Core_Decisions_decision</title>
<g id="a_node25"><a xlink:href="VLSM.Core.Decisions.html#decision" xlink:title="decision" target="_top">
<ellipse fill="#f070d1" stroke="black" cx="620" cy="-332.15" rx="40.09" ry="18"/>
<text text-anchor="middle" x="620" y="-328.45" font-family="Times,serif" font-size="14.00">decision</text>
</a>
</g>
</g>
<!-- VLSM_Core_Decisions_vdecision&#45;&gt;VLSM_Core_Decisions_decision -->
<g id="edge30" class="edge">
<title>VLSM_Core_Decisions_vdecision&#45;&gt;VLSM_Core_Decisions_decision</title>
<path fill="none" stroke="black" d="M620,-445.89C620,-424.14 620,-386.48 620,-360.72"/>
<polygon fill="black" stroke="black" points="623.5,-360.49 620,-350.49 616.5,-360.49 623.5,-360.49"/>
</g>
<!-- VLSM_Core_Decisions_C -->
<g id="node27" class="node">
<title>VLSM_Core_Decisions_C</title>
<g id="a_node27"><a xlink:href="VLSM.Core.Decisions.html#C" xlink:title="C" target="_top">
<ellipse fill="#f070d1" stroke="black" cx="566" cy="-200.15" rx="27" ry="18"/>
<text text-anchor="middle" x="566" y="-196.45" font-family="Times,serif" font-size="14.00">C</text>
</a>
</g>
</g>
<!-- VLSM_Core_Decisions_decision&#45;&gt;VLSM_Core_Decisions_C -->
<g id="edge31" class="edge">
<title>VLSM_Core_Decisions_decision&#45;&gt;VLSM_Core_Decisions_C</title>
<path fill="none" stroke="black" d="M612.94,-314.16C603.75,-292.04 587.61,-253.17 576.86,-227.29"/>
<polygon fill="black" stroke="black" points="579.96,-225.64 572.89,-217.74 573.49,-228.32 579.96,-225.64"/>
</g>
<!-- VLSM_Core_Decisions_about_C -->
<g id="node26" class="node">
<title>VLSM_Core_Decisions_about_C</title>
<g id="a_node26"><a xlink:href="VLSM.Core.Decisions.html#about_C" xlink:title="about_C" target="_top">
<ellipse fill="#7fffd4" stroke="black" cx="513" cy="-332.15" rx="40.13" ry="18"/>
<ellipse fill="none" stroke="black" cx="513" cy="-332.15" rx="44.11" ry="22"/>
<ellipse fill="none" stroke="black" cx="513" cy="-332.15" rx="48.09" ry="26"/>
<text text-anchor="middle" x="513" y="-328.45" font-family="Times,serif" font-size="14.00">about_C</text>
</a>
</g>
</g>
<!-- VLSM_Core_Decisions_about_C&#45;&gt;VLSM_Core_Decisions_C -->
<g id="edge32" class="edge">
<title>VLSM_Core_Decisions_about_C&#45;&gt;VLSM_Core_Decisions_C</title>
<path fill="none" stroke="black" d="M522.97,-306.7C532.22,-284.02 545.93,-250.38 555.38,-227.2"/>
<polygon fill="black" stroke="black" points="558.73,-228.25 559.27,-217.67 552.25,-225.61 558.73,-228.25"/>
</g>
<!-- VLSM_Core_Decisions_ConsensusValues -->
<g id="node29" class="node">
<title>VLSM_Core_Decisions_ConsensusValues</title>
<g id="a_node29"><a xlink:href="VLSM.Core.Decisions.html#ConsensusValues" xlink:title="ConsensusValues" target="_top">
<ellipse fill="#e2cdfa" stroke="black" cx="566" cy="-82.15" rx="71.49" ry="18"/>
<text text-anchor="middle" x="566" y="-78.45" font-family="Times,serif" font-size="14.00">ConsensusValues</text>
</a>
</g>
</g>
<!-- VLSM_Core_Decisions_C&#45;&gt;VLSM_Core_Decisions_ConsensusValues -->
<g id="edge33" class="edge">
<title>VLSM_Core_Decisions_C&#45;&gt;VLSM_Core_Decisions_ConsensusValues</title>
<path fill="none" stroke="black" d="M566,-182.04C566,-163.19 566,-132.62 566,-110.46"/>
<polygon fill="black" stroke="black" points="569.5,-110.34 566,-100.34 562.5,-110.34 569.5,-110.34"/>
</g>
<!-- VLSM_Core_Decisions_Build_ConsensusValues -->
<g id="node28" class="node">
<title>VLSM_Core_Decisions_Build_ConsensusValues</title>
<g id="a_node28"><a xlink:href="VLSM.Core.Decisions.html#Build_ConsensusValues" xlink:title="Build_ConsensusValues" target="_top">
<ellipse fill="#7faaff" stroke="black" cx="446" cy="-885.15" rx="95.58" ry="18"/>
<ellipse fill="none" stroke="black" cx="446" cy="-885.15" rx="99.58" ry="22"/>
<ellipse fill="none" stroke="black" cx="446" cy="-885.15" rx="103.58" ry="26"/>
<text text-anchor="middle" x="446" y="-881.45" font-family="Times,serif" font-size="14.00">Build_ConsensusValues</text>
</a>
</g>
</g>
</g>
</svg>
