<?xml version="1.0" encoding="UTF-8" standalone="no"?>
<!DOCTYPE svg PUBLIC "-//W3C//DTD SVG 1.1//EN"
 "http://www.w3.org/Graphics/SVG/1.1/DTD/svg11.dtd">
<!-- Generated by graphviz version 2.43.0 (0)
 -->
<!-- Title: rvdpdgraph Pages: 1 -->
<svg width="2440pt" height="1224pt"
 viewBox="0.00 0.00 2440.00 1224.00" xmlns="http://www.w3.org/2000/svg" xmlns:xlink="http://www.w3.org/1999/xlink">
<g id="graph0" class="graph" transform="scale(1 1) rotate(0) translate(4 1220)">
<title>rvdpdgraph</title>
<polygon fill="white" stroke="transparent" points="-4,4 -4,-1220 2436,-1220 2436,4 -4,4"/>
<g id="clust1" class="cluster">
<title>cluster_VLSM</title>
<polygon fill="#ffffc3" stroke="black" points="8,-37.85 8,-1178.15 2424,-1178.15 2424,-37.85 8,-37.85"/>
<text text-anchor="middle" x="35.5" y="-1162.95" font-family="Times,serif" font-size="14.00">VLSM</text>
</g>
<g id="clust2" class="cluster">
<title>cluster_VLSM_Lib</title>
<polygon fill="#ffffa3" stroke="black" points="16,-75.7 16,-1031.47 2416,-1031.47 2416,-75.7 16,-75.7"/>
<text text-anchor="middle" x="33.5" y="-1016.27" font-family="Times,serif" font-size="14.00">Lib</text>
</g>
<g id="clust3" class="cluster">
<title>cluster_VLSM_Lib_StdppExtras</title>
<polygon fill="#ffff83" stroke="black" points="24,-113.56 24,-884.79 2408,-884.79 2408,-113.56 24,-113.56"/>
<text text-anchor="middle" x="65.5" y="-869.59" font-family="Times,serif" font-size="14.00">StdppExtras</text>
</g>
<!-- VLSM_Lib_StdppExtras_NoDup_elem_of_remove -->
<g id="node1" class="node">
<title>VLSM_Lib_StdppExtras_NoDup_elem_of_remove</title>
<g id="a_node1"><a xlink:href="VLSM.Lib.StdppExtras.html#NoDup_elem_of_remove" xlink:title="NoDup_elem_of_remove" target="_top">
<ellipse fill="#7fffd4" stroke="black" cx="2291" cy="-614.85" rx="101.29" ry="18"/>
<ellipse fill="none" stroke="black" cx="2291" cy="-614.85" rx="105.29" ry="22"/>
<ellipse fill="none" stroke="black" cx="2291" cy="-614.85" rx="109.28" ry="26"/>
<text text-anchor="middle" x="2291" y="-611.15" font-family="Times,serif" font-size="14.00">NoDup_elem_of_remove</text>
</a>
</g>
</g>
<!-- VLSM_Lib_StdppExtras_filter_complement -->
<g id="node2" class="node">
<title>VLSM_Lib_StdppExtras_filter_complement</title>
<g id="a_node2"><a xlink:href="VLSM.Lib.StdppExtras.html#filter_complement" xlink:title="filter_complement" target="_top">
<ellipse fill="#7fffd4" stroke="black" cx="2079" cy="-614.85" rx="76.87" ry="18"/>
<ellipse fill="none" stroke="black" cx="2079" cy="-614.85" rx="80.88" ry="22"/>
<ellipse fill="none" stroke="black" cx="2079" cy="-614.85" rx="84.89" ry="26"/>
<text text-anchor="middle" x="2079" y="-611.15" font-family="Times,serif" font-size="14.00">filter_complement</text>
</a>
</g>
</g>
<!-- VLSM_Lib_StdppExtras_ext_elem_of_filter -->
<g id="node3" class="node">
<title>VLSM_Lib_StdppExtras_ext_elem_of_filter</title>
<g id="a_node3"><a xlink:href="VLSM.Lib.StdppExtras.html#ext_elem_of_filter" xlink:title="ext_elem_of_filter" target="_top">
<ellipse fill="#7fffd4" stroke="black" cx="1993" cy="-236.85" rx="76.89" ry="18"/>
<text text-anchor="middle" x="1993" y="-233.15" font-family="Times,serif" font-size="14.00">ext_elem_of_filter</text>
</a>
</g>
</g>
<!-- VLSM_Lib_StdppExtras_filter_complement&#45;&gt;VLSM_Lib_StdppExtras_ext_elem_of_filter -->
<g id="edge1" class="edge">
<title>VLSM_Lib_StdppExtras_filter_complement&#45;&gt;VLSM_Lib_StdppExtras_ext_elem_of_filter</title>
<path fill="none" stroke="black" d="M2073.29,-588.89C2057.8,-521.18 2015.1,-334.46 1999.13,-264.65"/>
<polygon fill="black" stroke="black" points="2002.53,-263.82 1996.89,-254.85 1995.71,-265.38 2002.53,-263.82"/>
</g>
<!-- VLSM_Lib_StdppExtras_filter_ext_elem_of -->
<g id="node4" class="node">
<title>VLSM_Lib_StdppExtras_filter_ext_elem_of</title>
<g id="a_node4"><a xlink:href="VLSM.Lib.StdppExtras.html#filter_ext_elem_of" xlink:title="filter_ext_elem_of" target="_top">
<ellipse fill="#7fffd4" stroke="black" cx="2164" cy="-236.85" rx="76.89" ry="18"/>
<text text-anchor="middle" x="2164" y="-233.15" font-family="Times,serif" font-size="14.00">filter_ext_elem_of</text>
</a>
</g>
</g>
<!-- VLSM_Lib_StdppExtras_filter_complement&#45;&gt;VLSM_Lib_StdppExtras_filter_ext_elem_of -->
<g id="edge2" class="edge">
<title>VLSM_Lib_StdppExtras_filter_complement&#45;&gt;VLSM_Lib_StdppExtras_filter_ext_elem_of</title>
<path fill="none" stroke="black" d="M2084.64,-588.89C2099.95,-521.18 2142.16,-334.46 2157.94,-264.65"/>
<polygon fill="black" stroke="black" points="2161.37,-265.38 2160.16,-254.85 2154.54,-263.84 2161.37,-265.38"/>
</g>
<!-- VLSM_Lib_StdppExtras_get_maximal_elements2 -->
<g id="node5" class="node">
<title>VLSM_Lib_StdppExtras_get_maximal_elements2</title>
<g id="a_node5"><a xlink:href="VLSM.Lib.StdppExtras.html#get_maximal_elements2" xlink:title="get_maximal_elements2" target="_top">
<ellipse fill="#7fffd4" stroke="black" cx="1870" cy="-614.85" rx="98.27" ry="18"/>
<ellipse fill="none" stroke="black" cx="1870" cy="-614.85" rx="102.28" ry="22"/>
<ellipse fill="none" stroke="black" cx="1870" cy="-614.85" rx="106.28" ry="26"/>
<text text-anchor="middle" x="1870" y="-611.15" font-family="Times,serif" font-size="14.00">get_maximal_elements2</text>
</a>
</g>
</g>
<!-- VLSM_Lib_StdppExtras_get_maximal_elements -->
<g id="node7" class="node">
<title>VLSM_Lib_StdppExtras_get_maximal_elements</title>
<g id="a_node7"><a xlink:href="VLSM.Lib.StdppExtras.html#get_maximal_elements" xlink:title="get_maximal_elements" target="_top">
<ellipse fill="#f070d1" stroke="black" cx="1722" cy="-236.85" rx="93.68" ry="18"/>
<text text-anchor="middle" x="1722" y="-233.15" font-family="Times,serif" font-size="14.00">get_maximal_elements</text>
</a>
</g>
</g>
<!-- VLSM_Lib_StdppExtras_get_maximal_elements2&#45;&gt;VLSM_Lib_StdppExtras_get_maximal_elements -->
<g id="edge3" class="edge">
<title>VLSM_Lib_StdppExtras_get_maximal_elements2&#45;&gt;VLSM_Lib_StdppExtras_get_maximal_elements</title>
<path fill="none" stroke="black" d="M1860.17,-588.89C1833.47,-521.04 1759.72,-333.69 1732.38,-264.22"/>
<polygon fill="black" stroke="black" points="1735.61,-262.88 1728.69,-254.85 1729.1,-265.44 1735.61,-262.88"/>
</g>
<!-- VLSM_Lib_StdppExtras_get_maximal_elements1 -->
<g id="node6" class="node">
<title>VLSM_Lib_StdppExtras_get_maximal_elements1</title>
<g id="a_node6"><a xlink:href="VLSM.Lib.StdppExtras.html#get_maximal_elements1" xlink:title="get_maximal_elements1" target="_top">
<ellipse fill="#7fffd4" stroke="black" cx="1640" cy="-614.85" rx="98.27" ry="18"/>
<ellipse fill="none" stroke="black" cx="1640" cy="-614.85" rx="102.28" ry="22"/>
<ellipse fill="none" stroke="black" cx="1640" cy="-614.85" rx="106.28" ry="26"/>
<text text-anchor="middle" x="1640" y="-611.15" font-family="Times,serif" font-size="14.00">get_maximal_elements1</text>
</a>
</g>
</g>
<!-- VLSM_Lib_StdppExtras_get_maximal_elements1&#45;&gt;VLSM_Lib_StdppExtras_get_maximal_elements -->
<g id="edge4" class="edge">
<title>VLSM_Lib_StdppExtras_get_maximal_elements1&#45;&gt;VLSM_Lib_StdppExtras_get_maximal_elements</title>
<path fill="none" stroke="black" d="M1645.51,-588.6C1660.3,-520.78 1700.79,-335.11 1716.06,-265.07"/>
<polygon fill="black" stroke="black" points="1719.5,-265.75 1718.21,-255.23 1712.66,-264.26 1719.5,-265.75"/>
</g>
<!-- VLSM_Lib_StdppExtras_existsb_first -->
<g id="node8" class="node">
<title>VLSM_Lib_StdppExtras_existsb_first</title>
<g id="a_node8"><a xlink:href="VLSM.Lib.StdppExtras.html#existsb_first" xlink:title="existsb_first" target="_top">
<ellipse fill="#7fffd4" stroke="black" cx="1454" cy="-614.85" rx="53.9" ry="18"/>
<ellipse fill="none" stroke="black" cx="1454" cy="-614.85" rx="57.89" ry="22"/>
<ellipse fill="none" stroke="black" cx="1454" cy="-614.85" rx="61.89" ry="26"/>
<text text-anchor="middle" x="1454" y="-611.15" font-family="Times,serif" font-size="14.00">existsb_first</text>
</a>
</g>
</g>
<!-- VLSM_Lib_StdppExtras_existsb_Exists -->
<g id="node12" class="node">
<title>VLSM_Lib_StdppExtras_existsb_Exists</title>
<g id="a_node12"><a xlink:href="VLSM.Lib.StdppExtras.html#existsb_Exists" xlink:title="existsb_Exists" target="_top">
<ellipse fill="#7fffd4" stroke="black" cx="1308" cy="-236.85" rx="61.19" ry="18"/>
<text text-anchor="middle" x="1308" y="-233.15" font-family="Times,serif" font-size="14.00">existsb_Exists</text>
</a>
</g>
</g>
<!-- VLSM_Lib_StdppExtras_existsb_first&#45;&gt;VLSM_Lib_StdppExtras_existsb_Exists -->
<g id="edge5" class="edge">
<title>VLSM_Lib_StdppExtras_existsb_first&#45;&gt;VLSM_Lib_StdppExtras_existsb_Exists</title>
<path fill="none" stroke="black" d="M1444.31,-588.89C1417.96,-521.04 1345.21,-333.69 1318.24,-264.22"/>
<polygon fill="black" stroke="black" points="1321.48,-262.91 1314.6,-254.85 1314.96,-265.44 1321.48,-262.91"/>
</g>
<!-- VLSM_Lib_StdppExtras_existsb_forall -->
<g id="node9" class="node">
<title>VLSM_Lib_StdppExtras_existsb_forall</title>
<g id="a_node9"><a xlink:href="VLSM.Lib.StdppExtras.html#existsb_forall" xlink:title="existsb_forall" target="_top">
<ellipse fill="#7fffd4" stroke="black" cx="1308" cy="-614.85" rx="58.49" ry="18"/>
<ellipse fill="none" stroke="black" cx="1308" cy="-614.85" rx="62.49" ry="22"/>
<ellipse fill="none" stroke="black" cx="1308" cy="-614.85" rx="66.49" ry="26"/>
<text text-anchor="middle" x="1308" y="-611.15" font-family="Times,serif" font-size="14.00">existsb_forall</text>
</a>
</g>
</g>
<!-- VLSM_Lib_StdppExtras_existsb_forall&#45;&gt;VLSM_Lib_StdppExtras_existsb_Exists -->
<g id="edge6" class="edge">
<title>VLSM_Lib_StdppExtras_existsb_forall&#45;&gt;VLSM_Lib_StdppExtras_existsb_Exists</title>
<path fill="none" stroke="black" d="M1308,-588.6C1308,-520.92 1308,-335.87 1308,-265.51"/>
<polygon fill="black" stroke="black" points="1311.5,-265.23 1308,-255.23 1304.5,-265.23 1311.5,-265.23"/>
</g>
<!-- VLSM_Lib_StdppExtras_existsb_last -->
<g id="node10" class="node">
<title>VLSM_Lib_StdppExtras_existsb_last</title>
<g id="a_node10"><a xlink:href="VLSM.Lib.StdppExtras.html#existsb_last" xlink:title="existsb_last" target="_top">
<ellipse fill="#7fffd4" stroke="black" cx="1164" cy="-614.85" rx="51.99" ry="18"/>
<ellipse fill="none" stroke="black" cx="1164" cy="-614.85" rx="55.99" ry="22"/>
<ellipse fill="none" stroke="black" cx="1164" cy="-614.85" rx="59.99" ry="26"/>
<text text-anchor="middle" x="1164" y="-611.15" font-family="Times,serif" font-size="14.00">existsb_last</text>
</a>
</g>
</g>
<!-- VLSM_Lib_StdppExtras_Exists_last -->
<g id="node11" class="node">
<title>VLSM_Lib_StdppExtras_Exists_last</title>
<g id="a_node11"><a xlink:href="VLSM.Lib.StdppExtras.html#Exists_last" xlink:title="Exists_last" target="_top">
<ellipse fill="#7fffd4" stroke="black" cx="1164" cy="-236.85" rx="48.99" ry="18"/>
<text text-anchor="middle" x="1164" y="-233.15" font-family="Times,serif" font-size="14.00">Exists_last</text>
</a>
</g>
</g>
<!-- VLSM_Lib_StdppExtras_existsb_last&#45;&gt;VLSM_Lib_StdppExtras_Exists_last -->
<g id="edge7" class="edge">
<title>VLSM_Lib_StdppExtras_existsb_last&#45;&gt;VLSM_Lib_StdppExtras_Exists_last</title>
<path fill="none" stroke="black" d="M1164,-588.6C1164,-520.92 1164,-335.87 1164,-265.51"/>
<polygon fill="black" stroke="black" points="1167.5,-265.23 1164,-255.23 1160.5,-265.23 1167.5,-265.23"/>
</g>
<!-- VLSM_Lib_StdppExtras_existsb_last&#45;&gt;VLSM_Lib_StdppExtras_existsb_Exists -->
<g id="edge8" class="edge">
<title>VLSM_Lib_StdppExtras_existsb_last&#45;&gt;VLSM_Lib_StdppExtras_existsb_Exists</title>
<path fill="none" stroke="black" d="M1173.56,-588.89C1199.54,-521.04 1271.3,-333.69 1297.9,-264.22"/>
<polygon fill="black" stroke="black" points="1301.18,-265.45 1301.49,-254.85 1294.64,-262.94 1301.18,-265.45"/>
</g>
<!-- VLSM_Lib_StdppExtras_last_last_error -->
<g id="node13" class="node">
<title>VLSM_Lib_StdppExtras_last_last_error</title>
<g id="a_node13"><a xlink:href="VLSM.Lib.StdppExtras.html#last_last_error" xlink:title="last_last_error" target="_top">
<ellipse fill="#7fffd4" stroke="black" cx="1017" cy="-614.85" rx="61.18" ry="18"/>
<ellipse fill="none" stroke="black" cx="1017" cy="-614.85" rx="65.18" ry="22"/>
<ellipse fill="none" stroke="black" cx="1017" cy="-614.85" rx="69.19" ry="26"/>
<text text-anchor="middle" x="1017" y="-611.15" font-family="Times,serif" font-size="14.00">last_last_error</text>
</a>
</g>
</g>
<!-- VLSM_Lib_StdppExtras_nth_error_stdpp_last -->
<g id="node14" class="node">
<title>VLSM_Lib_StdppExtras_nth_error_stdpp_last</title>
<g id="a_node14"><a xlink:href="VLSM.Lib.StdppExtras.html#nth_error_stdpp_last" xlink:title="nth_error_stdpp_last" target="_top">
<ellipse fill="#7fffd4" stroke="black" cx="839" cy="-614.85" rx="83.37" ry="18"/>
<ellipse fill="none" stroke="black" cx="839" cy="-614.85" rx="87.38" ry="22"/>
<ellipse fill="none" stroke="black" cx="839" cy="-614.85" rx="91.39" ry="26"/>
<text text-anchor="middle" x="839" y="-611.15" font-family="Times,serif" font-size="14.00">nth_error_stdpp_last</text>
</a>
</g>
</g>
<!-- VLSM_Lib_StdppExtras_map_tail -->
<g id="node15" class="node">
<title>VLSM_Lib_StdppExtras_map_tail</title>
<g id="a_node15"><a xlink:href="VLSM.Lib.StdppExtras.html#map_tail" xlink:title="map_tail" target="_top">
<ellipse fill="#7fffd4" stroke="black" cx="680" cy="-614.85" rx="42.45" ry="18"/>
<ellipse fill="none" stroke="black" cx="680" cy="-614.85" rx="46.47" ry="22"/>
<ellipse fill="none" stroke="black" cx="680" cy="-614.85" rx="50.49" ry="26"/>
<text text-anchor="middle" x="680" y="-611.15" font-family="Times,serif" font-size="14.00">map_tail</text>
</a>
</g>
</g>
<!-- VLSM_Lib_StdppExtras_skipn_tail_comm -->
<g id="node16" class="node">
<title>VLSM_Lib_StdppExtras_skipn_tail_comm</title>
<g id="a_node16"><a xlink:href="VLSM.Lib.StdppExtras.html#skipn_tail_comm" xlink:title="skipn_tail_comm" target="_top">
<ellipse fill="#7fffd4" stroke="black" cx="531" cy="-614.85" rx="72.61" ry="18"/>
<ellipse fill="none" stroke="black" cx="531" cy="-614.85" rx="76.6" ry="22"/>
<ellipse fill="none" stroke="black" cx="531" cy="-614.85" rx="80.59" ry="26"/>
<text text-anchor="middle" x="531" y="-611.15" font-family="Times,serif" font-size="14.00">skipn_tail_comm</text>
</a>
</g>
</g>
<!-- VLSM_Lib_StdppExtras_skipn_S_tail -->
<g id="node17" class="node">
<title>VLSM_Lib_StdppExtras_skipn_S_tail</title>
<g id="a_node17"><a xlink:href="VLSM.Lib.StdppExtras.html#skipn_S_tail" xlink:title="skipn_S_tail" target="_top">
<ellipse fill="#7fffd4" stroke="black" cx="531" cy="-236.85" rx="54.69" ry="18"/>
<text text-anchor="middle" x="531" y="-233.15" font-family="Times,serif" font-size="14.00">skipn_S_tail</text>
</a>
</g>
</g>
<!-- VLSM_Lib_StdppExtras_skipn_tail_comm&#45;&gt;VLSM_Lib_StdppExtras_skipn_S_tail -->
<g id="edge9" class="edge">
<title>VLSM_Lib_StdppExtras_skipn_tail_comm&#45;&gt;VLSM_Lib_StdppExtras_skipn_S_tail</title>
<path fill="none" stroke="black" d="M531,-588.6C531,-520.92 531,-335.87 531,-265.51"/>
<polygon fill="black" stroke="black" points="534.5,-265.23 531,-255.23 527.5,-265.23 534.5,-265.23"/>
</g>
<!-- VLSM_Lib_StdppExtras_map_firstn -->
<g id="node18" class="node">
<title>VLSM_Lib_StdppExtras_map_firstn</title>
<g id="a_node18"><a xlink:href="VLSM.Lib.StdppExtras.html#map_firstn" xlink:title="map_firstn" target="_top">
<ellipse fill="#7fffd4" stroke="black" cx="375" cy="-614.85" rx="49.31" ry="18"/>
<ellipse fill="none" stroke="black" cx="375" cy="-614.85" rx="53.3" ry="22"/>
<ellipse fill="none" stroke="black" cx="375" cy="-614.85" rx="57.29" ry="26"/>
<text text-anchor="middle" x="375" y="-611.15" font-family="Times,serif" font-size="14.00">map_firstn</text>
</a>
</g>
</g>
<!-- VLSM_Lib_StdppExtras_map_skipn -->
<g id="node19" class="node">
<title>VLSM_Lib_StdppExtras_map_skipn</title>
<g id="a_node19"><a xlink:href="VLSM.Lib.StdppExtras.html#map_skipn" xlink:title="map_skipn" target="_top">
<ellipse fill="#7fffd4" stroke="black" cx="242" cy="-614.85" rx="50.08" ry="18"/>
<ellipse fill="none" stroke="black" cx="242" cy="-614.85" rx="54.09" ry="22"/>
<ellipse fill="none" stroke="black" cx="242" cy="-614.85" rx="58.09" ry="26"/>
<text text-anchor="middle" x="242" y="-611.15" font-family="Times,serif" font-size="14.00">map_skipn</text>
</a>
</g>
</g>
<!-- VLSM_Lib_StdppExtras_elem_of_take -->
<g id="node20" class="node">
<title>VLSM_Lib_StdppExtras_elem_of_take</title>
<g id="a_node20"><a xlink:href="VLSM.Lib.StdppExtras.html#elem_of_take" xlink:title="elem_of_take" target="_top">
<ellipse fill="#7fffd4" stroke="black" cx="99" cy="-614.85" rx="59.27" ry="18"/>
<ellipse fill="none" stroke="black" cx="99" cy="-614.85" rx="63.28" ry="22"/>
<ellipse fill="none" stroke="black" cx="99" cy="-614.85" rx="67.29" ry="26"/>
<text text-anchor="middle" x="99" y="-611.15" font-family="Times,serif" font-size="14.00">elem_of_take</text>
</a>
</g>
</g>
</g>
</svg>
