<?xml version="1.0" encoding="UTF-8" standalone="no"?>
<!DOCTYPE svg PUBLIC "-//W3C//DTD SVG 1.1//EN"
 "http://www.w3.org/Graphics/SVG/1.1/DTD/svg11.dtd">
<!-- Generated by graphviz version 2.43.0 (0)
 -->
<!-- Title: rvdpdgraph Pages: 1 -->
<svg width="1667pt" height="838pt"
 viewBox="0.00 0.00 1667.00 837.50" xmlns="http://www.w3.org/2000/svg" xmlns:xlink="http://www.w3.org/1999/xlink">
<g id="graph0" class="graph" transform="scale(1 1) rotate(0) translate(4 833.5)">
<title>rvdpdgraph</title>
<polygon fill="white" stroke="transparent" points="-4,4 -4,-833.5 1663,-833.5 1663,4 -4,4"/>
<g id="clust1" class="cluster">
<title>cluster_VLSM</title>
<polygon fill="#ffffc3" stroke="black" points="8,-9 8,-820.5 1651,-820.5 1651,-9 8,-9"/>
<text text-anchor="middle" x="35.5" y="-805.3" font-family="Times,serif" font-size="14.00">VLSM</text>
</g>
<g id="clust2" class="cluster">
<title>cluster_VLSM_Core</title>
<polygon fill="#ffffa3" stroke="black" points="16,-18.01 16,-785.61 1643,-785.61 1643,-18.01 16,-18.01"/>
<text text-anchor="middle" x="37.5" y="-770.41" font-family="Times,serif" font-size="14.00">Core</text>
</g>
<g id="clust3" class="cluster">
<title>cluster_VLSM_Core_Plans</title>
<polygon fill="#ffff83" stroke="black" points="24,-27.01 24,-750.71 1635,-750.71 1635,-27.01 24,-27.01"/>
<text text-anchor="middle" x="47" y="-735.51" font-family="Times,serif" font-size="14.00">Plans</text>
</g>
<!-- VLSM_Core_Plans_plan_independence -->
<g id="node1" class="node">
<title>VLSM_Core_Plans_plan_independence</title>
<g id="a_node1"><a xlink:href="VLSM.Core.Plans.html#plan_independence" xlink:title="plan_independence" target="_top">
<ellipse fill="#7fffd4" stroke="black" cx="378" cy="-588" rx="78.77" ry="18"/>
<ellipse fill="none" stroke="black" cx="378" cy="-588" rx="82.78" ry="22"/>
<ellipse fill="none" stroke="black" cx="378" cy="-588" rx="86.79" ry="26"/>
<text text-anchor="middle" x="378" y="-584.3" font-family="Times,serif" font-size="14.00">plan_independence</text>
</a>
</g>
</g>
<!-- VLSM_Core_Plans_ensures -->
<g id="node2" class="node">
<title>VLSM_Core_Plans_ensures</title>
<g id="a_node2"><a xlink:href="VLSM.Core.Plans.html#ensures" xlink:title="ensures" target="_top">
<ellipse fill="#f070d1" stroke="black" cx="89" cy="-488" rx="37.09" ry="18"/>
<text text-anchor="middle" x="89" y="-484.3" font-family="Times,serif" font-size="14.00">ensures</text>
</a>
</g>
</g>
<!-- VLSM_Core_Plans_plan_independence&#45;&gt;VLSM_Core_Plans_ensures -->
<g id="edge1" class="edge">
<title>VLSM_Core_Plans_plan_independence&#45;&gt;VLSM_Core_Plans_ensures</title>
<path fill="none" stroke="black" d="M312.01,-571.12C262.4,-558.24 193.25,-538.28 135,-514 130.19,-512 125.24,-509.64 120.43,-507.19"/>
<polygon fill="black" stroke="black" points="121.95,-504.03 111.47,-502.42 118.66,-510.21 121.95,-504.03"/>
</g>
<!-- VLSM_Core_Plans_preserves -->
<g id="node3" class="node">
<title>VLSM_Core_Plans_preserves</title>
<g id="a_node3"><a xlink:href="VLSM.Core.Plans.html#preserves" xlink:title="preserves" target="_top">
<ellipse fill="#f070d1" stroke="black" cx="188" cy="-488" rx="44.39" ry="18"/>
<text text-anchor="middle" x="188" y="-484.3" font-family="Times,serif" font-size="14.00">preserves</text>
</a>
</g>
</g>
<!-- VLSM_Core_Plans_plan_independence&#45;&gt;VLSM_Core_Plans_preserves -->
<g id="edge2" class="edge">
<title>VLSM_Core_Plans_plan_independence&#45;&gt;VLSM_Core_Plans_preserves</title>
<path fill="none" stroke="black" d="M335.83,-565.25C302,-547.8 255.06,-523.59 223.22,-507.17"/>
<polygon fill="black" stroke="black" points="224.75,-504.02 214.26,-502.55 221.54,-510.24 224.75,-504.02"/>
</g>
<!-- VLSM_Core_Plans_apply_plan_last_valid -->
<g id="node9" class="node">
<title>VLSM_Core_Plans_apply_plan_last_valid</title>
<g id="a_node9"><a xlink:href="VLSM.Core.Plans.html#apply_plan_last_valid" xlink:title="apply_plan_last_valid" target="_top">
<ellipse fill="#7fffd4" stroke="black" cx="568" cy="-488" rx="88.28" ry="18"/>
<text text-anchor="middle" x="568" y="-484.3" font-family="Times,serif" font-size="14.00">apply_plan_last_valid</text>
</a>
</g>
</g>
<!-- VLSM_Core_Plans_plan_independence&#45;&gt;VLSM_Core_Plans_apply_plan_last_valid -->
<g id="edge3" class="edge">
<title>VLSM_Core_Plans_plan_independence&#45;&gt;VLSM_Core_Plans_apply_plan_last_valid</title>
<path fill="none" stroke="black" d="M420.17,-565.25C452.41,-548.63 496.55,-525.86 528.19,-509.54"/>
<polygon fill="black" stroke="black" points="529.89,-512.6 537.17,-504.91 526.68,-506.38 529.89,-512.6"/>
</g>
<!-- VLSM_Core_Plans_finite_valid_plan_from_app_iff -->
<g id="node11" class="node">
<title>VLSM_Core_Plans_finite_valid_plan_from_app_iff</title>
<g id="a_node11"><a xlink:href="VLSM.Core.Plans.html#finite_valid_plan_from_app_iff" xlink:title="finite_valid_plan_from_app_iff" target="_top">
<ellipse fill="#7fffd4" stroke="black" cx="797" cy="-488" rx="122.38" ry="18"/>
<text text-anchor="middle" x="797" y="-484.3" font-family="Times,serif" font-size="14.00">finite_valid_plan_from_app_iff</text>
</a>
</g>
</g>
<!-- VLSM_Core_Plans_plan_independence&#45;&gt;VLSM_Core_Plans_finite_valid_plan_from_app_iff -->
<g id="edge4" class="edge">
<title>VLSM_Core_Plans_plan_independence&#45;&gt;VLSM_Core_Plans_finite_valid_plan_from_app_iff</title>
<path fill="none" stroke="black" d="M444.86,-571.37C521.41,-553.46 646.35,-524.24 725,-505.85"/>
<polygon fill="black" stroke="black" points="725.89,-509.23 734.83,-503.55 724.29,-502.42 725.89,-509.23"/>
</g>
<!-- VLSM_Core_Plans_finite_valid_plan_from -->
<g id="node12" class="node">
<title>VLSM_Core_Plans_finite_valid_plan_from</title>
<g id="a_node12"><a xlink:href="VLSM.Core.Plans.html#finite_valid_plan_from" xlink:title="finite_valid_plan_from" target="_top">
<ellipse fill="#f070d1" stroke="black" cx="465" cy="-389" rx="92.88" ry="18"/>
<text text-anchor="middle" x="465" y="-385.3" font-family="Times,serif" font-size="14.00">finite_valid_plan_from</text>
</a>
</g>
</g>
<!-- VLSM_Core_Plans_ensures&#45;&gt;VLSM_Core_Plans_finite_valid_plan_from -->
<g id="edge5" class="edge">
<title>VLSM_Core_Plans_ensures&#45;&gt;VLSM_Core_Plans_finite_valid_plan_from</title>
<path fill="none" stroke="black" d="M111.33,-473.22C118.66,-469.15 126.99,-464.98 135,-462 216.02,-431.85 313.17,-412.55 381,-401.6"/>
<polygon fill="black" stroke="black" points="381.88,-405 391.21,-399.98 380.78,-398.09 381.88,-405"/>
</g>
<!-- VLSM_Core_Plans_preserves&#45;&gt;VLSM_Core_Plans_finite_valid_plan_from -->
<g id="edge6" class="edge">
<title>VLSM_Core_Plans_preserves&#45;&gt;VLSM_Core_Plans_finite_valid_plan_from</title>
<path fill="none" stroke="black" d="M215.19,-473.63C223.69,-469.67 233.15,-465.47 242,-462 296.36,-440.74 359.83,-420.69 405.13,-407.18"/>
<polygon fill="black" stroke="black" points="406.2,-410.51 414.79,-404.31 404.21,-403.8 406.2,-410.51"/>
</g>
<!-- VLSM_Core_Plans_finite_valid_plan_from_one -->
<g id="node4" class="node">
<title>VLSM_Core_Plans_finite_valid_plan_from_one</title>
<g id="a_node4"><a xlink:href="VLSM.Core.Plans.html#finite_valid_plan_from_one" xlink:title="finite_valid_plan_from_one" target="_top">
<ellipse fill="#7fffd4" stroke="black" cx="1321" cy="-488" rx="109.69" ry="18"/>
<ellipse fill="none" stroke="black" cx="1321" cy="-488" rx="113.69" ry="22"/>
<ellipse fill="none" stroke="black" cx="1321" cy="-488" rx="117.68" ry="26"/>
<text text-anchor="middle" x="1321" y="-484.3" font-family="Times,serif" font-size="14.00">finite_valid_plan_from_one</text>
</a>
</g>
</g>
<!-- VLSM_Core_Plans_finite_valid_plan_from_one&#45;&gt;VLSM_Core_Plans_finite_valid_plan_from -->
<g id="edge7" class="edge">
<title>VLSM_Core_Plans_finite_valid_plan_from_one&#45;&gt;VLSM_Core_Plans_finite_valid_plan_from</title>
<path fill="none" stroke="black" d="M1238.58,-469.29C1223.79,-466.54 1208.47,-463.96 1194,-462 917.08,-424.51 842.99,-458.86 567,-415 553.38,-412.84 538.9,-409.77 525.27,-406.52"/>
<polygon fill="black" stroke="black" points="526.05,-403.11 515.51,-404.14 524.39,-409.91 526.05,-403.11"/>
</g>
<!-- VLSM_Core_Plans_input_a -->
<g id="node28" class="node">
<title>VLSM_Core_Plans_input_a</title>
<g id="a_node28"><a xlink:href="VLSM.Core.Plans.html#input_a" xlink:title="input_a" target="_top">
<ellipse fill="#f070d1" stroke="black" cx="1378" cy="-389" rx="37.09" ry="18"/>
<text text-anchor="middle" x="1378" y="-385.3" font-family="Times,serif" font-size="14.00">input_a</text>
</a>
</g>
</g>
<!-- VLSM_Core_Plans_finite_valid_plan_from_one&#45;&gt;VLSM_Core_Plans_input_a -->
<g id="edge8" class="edge">
<title>VLSM_Core_Plans_finite_valid_plan_from_one&#45;&gt;VLSM_Core_Plans_input_a</title>
<path fill="none" stroke="black" d="M1335.68,-462.02C1344.07,-447.75 1354.56,-429.89 1363,-415.52"/>
<polygon fill="black" stroke="black" points="1366.16,-417.06 1368.21,-406.66 1360.13,-413.51 1366.16,-417.06"/>
</g>
<!-- VLSM_Core_Plans_label_a -->
<g id="node29" class="node">
<title>VLSM_Core_Plans_label_a</title>
<g id="a_node29"><a xlink:href="VLSM.Core.Plans.html#label_a" xlink:title="label_a" target="_top">
<ellipse fill="#f070d1" stroke="black" cx="1469" cy="-389" rx="36.29" ry="18"/>
<text text-anchor="middle" x="1469" y="-385.3" font-family="Times,serif" font-size="14.00">label_a</text>
</a>
</g>
</g>
<!-- VLSM_Core_Plans_finite_valid_plan_from_one&#45;&gt;VLSM_Core_Plans_label_a -->
<g id="edge9" class="edge">
<title>VLSM_Core_Plans_finite_valid_plan_from_one&#45;&gt;VLSM_Core_Plans_label_a</title>
<path fill="none" stroke="black" d="M1357.58,-463.03C1382.78,-446.51 1415.84,-424.85 1439.39,-409.41"/>
<polygon fill="black" stroke="black" points="1441.46,-412.24 1447.91,-403.83 1437.63,-406.38 1441.46,-412.24"/>
</g>
<!-- VLSM_Core_Plans_Build_plan_item -->
<g id="node30" class="node">
<title>VLSM_Core_Plans_Build_plan_item</title>
<g id="a_node30"><a xlink:href="VLSM.Core.Plans.html#Build_plan_item" xlink:title="Build_plan_item" target="_top">
<ellipse fill="#7faaff" stroke="black" cx="1141" cy="-137" rx="70.39" ry="18"/>
<text text-anchor="middle" x="1141" y="-133.3" font-family="Times,serif" font-size="14.00">Build_plan_item</text>
</a>
</g>
</g>
<!-- VLSM_Core_Plans_finite_valid_plan_from_one&#45;&gt;VLSM_Core_Plans_Build_plan_item -->
<g id="edge10" class="edge">
<title>VLSM_Core_Plans_finite_valid_plan_from_one&#45;&gt;VLSM_Core_Plans_Build_plan_item</title>
<path fill="none" stroke="black" d="M1323.69,-461.84C1329.78,-399.75 1341.91,-241.28 1312,-200 1289.9,-169.52 1251.3,-153.98 1216.35,-146.08"/>
<polygon fill="black" stroke="black" points="1216.63,-142.56 1206.13,-143.96 1215.21,-149.42 1216.63,-142.56"/>
</g>
<!-- VLSM_Core_Plans_finite_valid_plan_iff -->
<g id="node5" class="node">
<title>VLSM_Core_Plans_finite_valid_plan_iff</title>
<g id="a_node5"><a xlink:href="VLSM.Core.Plans.html#finite_valid_plan_iff" xlink:title="finite_valid_plan_iff" target="_top">
<ellipse fill="#7fffd4" stroke="black" cx="1536" cy="-588" rx="83.37" ry="18"/>
<ellipse fill="none" stroke="black" cx="1536" cy="-588" rx="87.38" ry="22"/>
<ellipse fill="none" stroke="black" cx="1536" cy="-588" rx="91.39" ry="26"/>
<text text-anchor="middle" x="1536" y="-584.3" font-family="Times,serif" font-size="14.00">finite_valid_plan_iff</text>
</a>
</g>
</g>
<!-- VLSM_Core_Plans_finite_valid_plan_iff&#45;&gt;VLSM_Core_Plans_finite_valid_plan_from_app_iff -->
<g id="edge11" class="edge">
<title>VLSM_Core_Plans_finite_valid_plan_iff&#45;&gt;VLSM_Core_Plans_finite_valid_plan_from_app_iff</title>
<path fill="none" stroke="black" d="M1450.66,-578.64C1332.79,-566.65 1113.68,-542.83 928,-514 910.98,-511.36 892.79,-508.14 875.54,-504.91"/>
<polygon fill="black" stroke="black" points="875.99,-501.43 865.51,-503 874.69,-508.31 875.99,-501.43"/>
</g>
<!-- VLSM_Core_Plans_finite_valid_plan_iff&#45;&gt;VLSM_Core_Plans_input_a -->
<g id="edge12" class="edge">
<title>VLSM_Core_Plans_finite_valid_plan_iff&#45;&gt;VLSM_Core_Plans_input_a</title>
<path fill="none" stroke="black" d="M1562.49,-562.82C1588.21,-536.38 1620.1,-493.57 1596,-462 1547.91,-399.01 1497.53,-444.57 1424,-415 1419.17,-413.06 1414.2,-410.74 1409.39,-408.3"/>
<polygon fill="black" stroke="black" points="1410.9,-405.14 1400.43,-403.54 1407.62,-411.32 1410.9,-405.14"/>
</g>
<!-- VLSM_Core_Plans_finite_valid_plan_iff&#45;&gt;VLSM_Core_Plans_label_a -->
<g id="edge13" class="edge">
<title>VLSM_Core_Plans_finite_valid_plan_iff&#45;&gt;VLSM_Core_Plans_label_a</title>
<path fill="none" stroke="black" d="M1570.22,-563.78C1585.79,-551.1 1602.59,-533.92 1611,-514 1619.99,-492.71 1623.09,-481.7 1611,-462 1589.63,-427.21 1545.64,-408.6 1512.25,-399.08"/>
<polygon fill="black" stroke="black" points="1512.83,-395.61 1502.27,-396.41 1511.03,-402.37 1512.83,-395.61"/>
</g>
<!-- VLSM_Core_Plans_finite_valid_trace_from_to_plan -->
<g id="node6" class="node">
<title>VLSM_Core_Plans_finite_valid_trace_from_to_plan</title>
<g id="a_node6"><a xlink:href="VLSM.Core.Plans.html#finite_valid_trace_from_to_plan" xlink:title="finite_valid_trace_from_to_plan" target="_top">
<ellipse fill="#7fffd4" stroke="black" cx="613" cy="-687" rx="125.38" ry="18"/>
<ellipse fill="none" stroke="black" cx="613" cy="-687" rx="129.38" ry="22"/>
<ellipse fill="none" stroke="black" cx="613" cy="-687" rx="133.38" ry="26"/>
<text text-anchor="middle" x="613" y="-683.3" font-family="Times,serif" font-size="14.00">finite_valid_trace_from_to_plan</text>
</a>
</g>
</g>
<!-- VLSM_Core_Plans_trace_to_plan_to_trace -->
<g id="node7" class="node">
<title>VLSM_Core_Plans_trace_to_plan_to_trace</title>
<g id="a_node7"><a xlink:href="VLSM.Core.Plans.html#trace_to_plan_to_trace" xlink:title="trace_to_plan_to_trace" target="_top">
<ellipse fill="#7fffd4" stroke="black" cx="837" cy="-588" rx="90.98" ry="18"/>
<text text-anchor="middle" x="837" y="-584.3" font-family="Times,serif" font-size="14.00">trace_to_plan_to_trace</text>
</a>
</g>
</g>
<!-- VLSM_Core_Plans_finite_valid_trace_from_to_plan&#45;&gt;VLSM_Core_Plans_trace_to_plan_to_trace -->
<g id="edge14" class="edge">
<title>VLSM_Core_Plans_finite_valid_trace_from_to_plan&#45;&gt;VLSM_Core_Plans_trace_to_plan_to_trace</title>
<path fill="none" stroke="black" d="M666.08,-663.02C704.33,-646.46 755.38,-624.35 791.7,-608.62"/>
<polygon fill="black" stroke="black" points="793.28,-611.75 801.07,-604.56 790.5,-605.33 793.28,-611.75"/>
</g>
<!-- VLSM_Core_Plans_finite_valid_trace_from_to_plan&#45;&gt;VLSM_Core_Plans_finite_valid_plan_from -->
<g id="edge15" class="edge">
<title>VLSM_Core_Plans_finite_valid_trace_from_to_plan&#45;&gt;VLSM_Core_Plans_finite_valid_plan_from</title>
<path fill="none" stroke="black" d="M509.17,-670.57C359.4,-645.84 94.94,-592.04 43,-514 30.19,-494.76 28.1,-479.67 43,-462 83.15,-414.43 251.46,-398.29 363,-392.81"/>
<polygon fill="black" stroke="black" points="363.45,-396.29 373.28,-392.33 363.12,-389.3 363.45,-396.29"/>
</g>
<!-- VLSM_Core_Plans_trace_to_plan_to_trace_from_to -->
<g id="node8" class="node">
<title>VLSM_Core_Plans_trace_to_plan_to_trace_from_to</title>
<g id="a_node8"><a xlink:href="VLSM.Core.Plans.html#trace_to_plan_to_trace_from_to" xlink:title="trace_to_plan_to_trace_from_to" target="_top">
<ellipse fill="#7fffd4" stroke="black" cx="1061" cy="-488" rx="124.28" ry="18"/>
<text text-anchor="middle" x="1061" y="-484.3" font-family="Times,serif" font-size="14.00">trace_to_plan_to_trace_from_to</text>
</a>
</g>
</g>
<!-- VLSM_Core_Plans_trace_to_plan_to_trace&#45;&gt;VLSM_Core_Plans_trace_to_plan_to_trace_from_to -->
<g id="edge16" class="edge">
<title>VLSM_Core_Plans_trace_to_plan_to_trace&#45;&gt;VLSM_Core_Plans_trace_to_plan_to_trace_from_to</title>
<path fill="none" stroke="black" d="M872.99,-571.26C911.51,-554.41 972.73,-527.62 1014.79,-509.22"/>
<polygon fill="black" stroke="black" points="1016.22,-512.41 1023.98,-505.2 1013.42,-506 1016.22,-512.41"/>
</g>
<!-- VLSM_Core_Plans_apply_plan_app -->
<g id="node14" class="node">
<title>VLSM_Core_Plans_apply_plan_app</title>
<g id="a_node14"><a xlink:href="VLSM.Core.Plans.html#apply_plan_app" xlink:title="apply_plan_app" target="_top">
<ellipse fill="#7fffd4" stroke="black" cx="796" cy="-389" rx="66.89" ry="18"/>
<text text-anchor="middle" x="796" y="-385.3" font-family="Times,serif" font-size="14.00">apply_plan_app</text>
</a>
</g>
</g>
<!-- VLSM_Core_Plans_trace_to_plan_to_trace_from_to&#45;&gt;VLSM_Core_Plans_apply_plan_app -->
<g id="edge17" class="edge">
<title>VLSM_Core_Plans_trace_to_plan_to_trace_from_to&#45;&gt;VLSM_Core_Plans_apply_plan_app</title>
<path fill="none" stroke="black" d="M1017.54,-471.1C969.63,-453.56 892.83,-425.45 843.4,-407.36"/>
<polygon fill="black" stroke="black" points="844.49,-404.03 833.9,-403.88 842.09,-410.6 844.49,-404.03"/>
</g>
<!-- VLSM_Core_Plans_trace_to_plan -->
<g id="node15" class="node">
<title>VLSM_Core_Plans_trace_to_plan</title>
<g id="a_node15"><a xlink:href="VLSM.Core.Plans.html#trace_to_plan" xlink:title="trace_to_plan" target="_top">
<ellipse fill="#f070d1" stroke="black" cx="1159" cy="-389" rx="58.49" ry="18"/>
<text text-anchor="middle" x="1159" y="-385.3" font-family="Times,serif" font-size="14.00">trace_to_plan</text>
</a>
</g>
</g>
<!-- VLSM_Core_Plans_trace_to_plan_to_trace_from_to&#45;&gt;VLSM_Core_Plans_trace_to_plan -->
<g id="edge18" class="edge">
<title>VLSM_Core_Plans_trace_to_plan_to_trace_from_to&#45;&gt;VLSM_Core_Plans_trace_to_plan</title>
<path fill="none" stroke="black" d="M1078.07,-470.11C1093.91,-454.43 1117.62,-430.96 1135.29,-413.47"/>
<polygon fill="black" stroke="black" points="1137.81,-415.91 1142.45,-406.38 1132.88,-410.93 1137.81,-415.91"/>
</g>
<!-- VLSM_Core_Plans_apply_plan_last_valid&#45;&gt;VLSM_Core_Plans_finite_valid_plan_from -->
<g id="edge19" class="edge">
<title>VLSM_Core_Plans_apply_plan_last_valid&#45;&gt;VLSM_Core_Plans_finite_valid_plan_from</title>
<path fill="none" stroke="black" d="M550.06,-470.11C533.52,-454.53 508.79,-431.25 490.26,-413.79"/>
<polygon fill="black" stroke="black" points="492.42,-411.01 482.74,-406.71 487.62,-416.11 492.42,-411.01"/>
</g>
<!-- VLSM_Core_Plans_apply_plan_last -->
<g id="node13" class="node">
<title>VLSM_Core_Plans_apply_plan_last</title>
<g id="a_node13"><a xlink:href="VLSM.Core.Plans.html#apply_plan_last" xlink:title="apply_plan_last" target="_top">
<ellipse fill="#7fffd4" stroke="black" cx="642" cy="-389" rx="66.09" ry="18"/>
<text text-anchor="middle" x="642" y="-385.3" font-family="Times,serif" font-size="14.00">apply_plan_last</text>
</a>
</g>
</g>
<!-- VLSM_Core_Plans_apply_plan_last_valid&#45;&gt;VLSM_Core_Plans_apply_plan_last -->
<g id="edge20" class="edge">
<title>VLSM_Core_Plans_apply_plan_last_valid&#45;&gt;VLSM_Core_Plans_apply_plan_last</title>
<path fill="none" stroke="black" d="M580.89,-470.11C592.56,-454.81 609.9,-432.08 623.14,-414.73"/>
<polygon fill="black" stroke="black" points="625.98,-416.78 629.26,-406.71 620.41,-412.53 625.98,-416.78"/>
</g>
<!-- VLSM_Core_Plans_finite_valid_plan_empty -->
<g id="node10" class="node">
<title>VLSM_Core_Plans_finite_valid_plan_empty</title>
<g id="a_node10"><a xlink:href="VLSM.Core.Plans.html#finite_valid_plan_empty" xlink:title="finite_valid_plan_empty" target="_top">
<ellipse fill="#7fffd4" stroke="black" cx="356" cy="-488" rx="97.48" ry="18"/>
<ellipse fill="none" stroke="black" cx="356" cy="-488" rx="101.48" ry="22"/>
<ellipse fill="none" stroke="black" cx="356" cy="-488" rx="105.48" ry="26"/>
<text text-anchor="middle" x="356" y="-484.3" font-family="Times,serif" font-size="14.00">finite_valid_plan_empty</text>
</a>
</g>
</g>
<!-- VLSM_Core_Plans_finite_valid_plan_empty&#45;&gt;VLSM_Core_Plans_finite_valid_plan_from -->
<g id="edge21" class="edge">
<title>VLSM_Core_Plans_finite_valid_plan_empty&#45;&gt;VLSM_Core_Plans_finite_valid_plan_from</title>
<path fill="none" stroke="black" d="M383.22,-462.78C400.02,-447.83 421.48,-428.73 438.2,-413.85"/>
<polygon fill="black" stroke="black" points="440.84,-416.19 445.99,-406.93 436.19,-410.96 440.84,-416.19"/>
</g>
<!-- VLSM_Core_Plans_finite_valid_plan_from_app_iff&#45;&gt;VLSM_Core_Plans_finite_valid_plan_from -->
<g id="edge22" class="edge">
<title>VLSM_Core_Plans_finite_valid_plan_from_app_iff&#45;&gt;VLSM_Core_Plans_finite_valid_plan_from</title>
<path fill="none" stroke="black" d="M744.39,-471.63C684.34,-454.09 586.37,-425.46 523.83,-407.19"/>
<polygon fill="black" stroke="black" points="524.69,-403.8 514.11,-404.35 522.73,-410.52 524.69,-403.8"/>
</g>
<!-- VLSM_Core_Plans_finite_valid_plan_from_app_iff&#45;&gt;VLSM_Core_Plans_apply_plan_last -->
<g id="edge23" class="edge">
<title>VLSM_Core_Plans_finite_valid_plan_from_app_iff&#45;&gt;VLSM_Core_Plans_apply_plan_last</title>
<path fill="none" stroke="black" d="M770.35,-470.33C744.27,-454 704.42,-429.07 676.05,-411.31"/>
<polygon fill="black" stroke="black" points="677.61,-408.16 667.27,-405.82 673.89,-414.09 677.61,-408.16"/>
</g>
<!-- VLSM_Core_Plans_finite_valid_plan_from_app_iff&#45;&gt;VLSM_Core_Plans_apply_plan_app -->
<g id="edge24" class="edge">
<title>VLSM_Core_Plans_finite_valid_plan_from_app_iff&#45;&gt;VLSM_Core_Plans_apply_plan_app</title>
<path fill="none" stroke="black" d="M796.82,-469.66C796.67,-455.18 796.46,-434.27 796.28,-417.5"/>
<polygon fill="black" stroke="black" points="799.78,-417.16 796.18,-407.2 792.78,-417.23 799.78,-417.16"/>
</g>
<!-- VLSM_Core_Plans_apply_plan -->
<g id="node16" class="node">
<title>VLSM_Core_Plans_apply_plan</title>
<g id="a_node16"><a xlink:href="VLSM.Core.Plans.html#apply_plan" xlink:title="apply_plan" target="_top">
<ellipse fill="#f070d1" stroke="black" cx="635" cy="-299" rx="50.09" ry="18"/>
<text text-anchor="middle" x="635" y="-295.3" font-family="Times,serif" font-size="14.00">apply_plan</text>
</a>
</g>
</g>
<!-- VLSM_Core_Plans_finite_valid_plan_from&#45;&gt;VLSM_Core_Plans_apply_plan -->
<g id="edge25" class="edge">
<title>VLSM_Core_Plans_finite_valid_plan_from&#45;&gt;VLSM_Core_Plans_apply_plan</title>
<path fill="none" stroke="black" d="M496.18,-371.86C525.11,-356.89 568.16,-334.6 598.64,-318.83"/>
<polygon fill="black" stroke="black" points="600.39,-321.86 607.67,-314.15 597.18,-315.64 600.39,-321.86"/>
</g>
<!-- VLSM_Core_Plans_plan -->
<g id="node17" class="node">
<title>VLSM_Core_Plans_plan</title>
<g id="a_node17"><a xlink:href="VLSM.Core.Plans.html#plan" xlink:title="plan" target="_top">
<ellipse fill="#f070d1" stroke="black" cx="540" cy="-299" rx="27" ry="18"/>
<text text-anchor="middle" x="540" y="-295.3" font-family="Times,serif" font-size="14.00">plan</text>
</a>
</g>
</g>
<!-- VLSM_Core_Plans_finite_valid_plan_from&#45;&gt;VLSM_Core_Plans_plan -->
<g id="edge26" class="edge">
<title>VLSM_Core_Plans_finite_valid_plan_from&#45;&gt;VLSM_Core_Plans_plan</title>
<path fill="none" stroke="black" d="M479.46,-371.04C491.1,-357.38 507.57,-338.06 520.39,-323.01"/>
<polygon fill="black" stroke="black" points="523.26,-325.04 527.09,-315.16 517.94,-320.5 523.26,-325.04"/>
</g>
<!-- VLSM_Core_Plans_apply_plan_last&#45;&gt;VLSM_Core_Plans_apply_plan -->
<g id="edge27" class="edge">
<title>VLSM_Core_Plans_apply_plan_last&#45;&gt;VLSM_Core_Plans_apply_plan</title>
<path fill="none" stroke="black" d="M640.62,-370.62C639.63,-358.24 638.29,-341.37 637.17,-327.22"/>
<polygon fill="black" stroke="black" points="640.64,-326.75 636.36,-317.05 633.66,-327.3 640.64,-326.75"/>
</g>
<!-- VLSM_Core_Plans_apply_plan_last&#45;&gt;VLSM_Core_Plans_plan -->
<g id="edge28" class="edge">
<title>VLSM_Core_Plans_apply_plan_last&#45;&gt;VLSM_Core_Plans_plan</title>
<path fill="none" stroke="black" d="M622.81,-371.45C606.1,-357.03 581.79,-336.06 563.83,-320.57"/>
<polygon fill="black" stroke="black" points="565.94,-317.76 556.08,-313.88 561.36,-323.06 565.94,-317.76"/>
</g>
<!-- VLSM_Core_Plans__apply_plan_last -->
<g id="node24" class="node">
<title>VLSM_Core_Plans__apply_plan_last</title>
<g id="a_node24"><a xlink:href="VLSM.Core.Plans.html#_apply_plan_last" xlink:title="_apply_plan_last" target="_top">
<ellipse fill="#7fffd4" stroke="black" cx="774" cy="-299" rx="70.69" ry="18"/>
<text text-anchor="middle" x="774" y="-295.3" font-family="Times,serif" font-size="14.00">_apply_plan_last</text>
</a>
</g>
</g>
<!-- VLSM_Core_Plans_apply_plan_last&#45;&gt;VLSM_Core_Plans__apply_plan_last -->
<g id="edge29" class="edge">
<title>VLSM_Core_Plans_apply_plan_last&#45;&gt;VLSM_Core_Plans__apply_plan_last</title>
<path fill="none" stroke="black" d="M665.9,-372.07C686.99,-358.01 717.9,-337.4 741.27,-321.82"/>
<polygon fill="black" stroke="black" points="743.45,-324.58 749.83,-316.12 739.57,-318.75 743.45,-324.58"/>
</g>
<!-- VLSM_Core_Plans_apply_plan_app&#45;&gt;VLSM_Core_Plans_apply_plan -->
<g id="edge30" class="edge">
<title>VLSM_Core_Plans_apply_plan_app&#45;&gt;VLSM_Core_Plans_apply_plan</title>
<path fill="none" stroke="black" d="M767.59,-372.47C740.46,-357.65 699.51,-335.26 670.3,-319.3"/>
<polygon fill="black" stroke="black" points="671.72,-316.08 661.26,-314.36 668.36,-322.23 671.72,-316.08"/>
</g>
<!-- VLSM_Core_Plans_apply_plan_app&#45;&gt;VLSM_Core_Plans_plan -->
<g id="edge31" class="edge">
<title>VLSM_Core_Plans_apply_plan_app&#45;&gt;VLSM_Core_Plans_plan</title>
<path fill="none" stroke="black" d="M754.62,-374.8C693.29,-355.21 584.54,-320.38 576,-317 574.17,-316.28 572.3,-315.51 570.42,-314.7"/>
<polygon fill="black" stroke="black" points="571.68,-311.43 561.12,-310.53 568.81,-317.82 571.68,-311.43"/>
</g>
<!-- VLSM_Core_Plans__apply_plan_app -->
<g id="node23" class="node">
<title>VLSM_Core_Plans__apply_plan_app</title>
<g id="a_node23"><a xlink:href="VLSM.Core.Plans.html#_apply_plan_app" xlink:title="_apply_plan_app" target="_top">
<ellipse fill="#7fffd4" stroke="black" cx="934" cy="-299" rx="71.49" ry="18"/>
<text text-anchor="middle" x="934" y="-295.3" font-family="Times,serif" font-size="14.00">_apply_plan_app</text>
</a>
</g>
</g>
<!-- VLSM_Core_Plans_apply_plan_app&#45;&gt;VLSM_Core_Plans__apply_plan_app -->
<g id="edge32" class="edge">
<title>VLSM_Core_Plans_apply_plan_app&#45;&gt;VLSM_Core_Plans__apply_plan_app</title>
<path fill="none" stroke="black" d="M820.99,-372.07C843.13,-357.95 875.64,-337.22 900.11,-321.62"/>
<polygon fill="black" stroke="black" points="902.18,-324.45 908.73,-316.12 898.42,-318.54 902.18,-324.45"/>
</g>
<!-- VLSM_Core_Plans__trace_to_plan -->
<g id="node20" class="node">
<title>VLSM_Core_Plans__trace_to_plan</title>
<g id="a_node20"><a xlink:href="VLSM.Core.Plans.html#_trace_to_plan" xlink:title="_trace_to_plan" target="_top">
<ellipse fill="#f070d1" stroke="black" cx="1173" cy="-299" rx="63.09" ry="18"/>
<text text-anchor="middle" x="1173" y="-295.3" font-family="Times,serif" font-size="14.00">_trace_to_plan</text>
</a>
</g>
</g>
<!-- VLSM_Core_Plans_trace_to_plan&#45;&gt;VLSM_Core_Plans__trace_to_plan -->
<g id="edge33" class="edge">
<title>VLSM_Core_Plans_trace_to_plan&#45;&gt;VLSM_Core_Plans__trace_to_plan</title>
<path fill="none" stroke="black" d="M1161.77,-370.62C1163.73,-358.24 1166.42,-341.37 1168.67,-327.22"/>
<polygon fill="black" stroke="black" points="1172.17,-327.48 1170.29,-317.05 1165.26,-326.38 1172.17,-327.48"/>
</g>
<!-- VLSM_Core_Plans__apply_plan -->
<g id="node25" class="node">
<title>VLSM_Core_Plans__apply_plan</title>
<g id="a_node25"><a xlink:href="VLSM.Core.Plans.html#_apply_plan" xlink:title="_apply_plan" target="_top">
<ellipse fill="#f070d1" stroke="black" cx="748" cy="-218" rx="53.89" ry="18"/>
<text text-anchor="middle" x="748" y="-214.3" font-family="Times,serif" font-size="14.00">_apply_plan</text>
</a>
</g>
</g>
<!-- VLSM_Core_Plans_apply_plan&#45;&gt;VLSM_Core_Plans__apply_plan -->
<g id="edge34" class="edge">
<title>VLSM_Core_Plans_apply_plan&#45;&gt;VLSM_Core_Plans__apply_plan</title>
<path fill="none" stroke="black" d="M656.79,-282.77C674.03,-270.72 698.31,-253.74 717.49,-240.34"/>
<polygon fill="black" stroke="black" points="719.7,-243.06 725.89,-234.46 715.69,-237.32 719.7,-243.06"/>
</g>
<!-- VLSM_Core_Plans_vplan_item -->
<g id="node18" class="node">
<title>VLSM_Core_Plans_vplan_item</title>
<g id="a_node18"><a xlink:href="VLSM.Core.Plans.html#vplan_item" xlink:title="vplan_item" target="_top">
<ellipse fill="#f070d1" stroke="black" cx="661" cy="-137" rx="50.89" ry="18"/>
<text text-anchor="middle" x="661" y="-133.3" font-family="Times,serif" font-size="14.00">vplan_item</text>
</a>
</g>
</g>
<!-- VLSM_Core_Plans_plan&#45;&gt;VLSM_Core_Plans_vplan_item -->
<g id="edge35" class="edge">
<title>VLSM_Core_Plans_plan&#45;&gt;VLSM_Core_Plans_vplan_item</title>
<path fill="none" stroke="black" d="M551.6,-282.66C572.56,-254.95 616.91,-196.31 642.23,-162.82"/>
<polygon fill="black" stroke="black" points="645.29,-164.58 648.53,-154.49 639.71,-160.35 645.29,-164.58"/>
</g>
<!-- VLSM_Core_Plans_plan_item -->
<g id="node31" class="node">
<title>VLSM_Core_Plans_plan_item</title>
<g id="a_node31"><a xlink:href="VLSM.Core.Plans.html#plan_item" xlink:title="plan_item" target="_top">
<ellipse fill="#e2cdfa" stroke="black" cx="1230" cy="-56" rx="46.29" ry="18"/>
<text text-anchor="middle" x="1230" y="-52.3" font-family="Times,serif" font-size="14.00">plan_item</text>
</a>
</g>
</g>
<!-- VLSM_Core_Plans_vplan_item&#45;&gt;VLSM_Core_Plans_plan_item -->
<g id="edge36" class="edge">
<title>VLSM_Core_Plans_vplan_item&#45;&gt;VLSM_Core_Plans_plan_item</title>
<path fill="none" stroke="black" d="M707.56,-129.54C812.45,-114.98 1066.64,-79.69 1177.19,-64.34"/>
<polygon fill="black" stroke="black" points="1177.69,-67.8 1187.11,-62.96 1176.72,-60.87 1177.69,-67.8"/>
</g>
<!-- VLSM_Core_Plans__messages_a -->
<g id="node19" class="node">
<title>VLSM_Core_Plans__messages_a</title>
<g id="a_node19"><a xlink:href="VLSM.Core.Plans.html#_messages_a" xlink:title="_messages_a" target="_top">
<ellipse fill="#f070d1" stroke="black" cx="1522" cy="-488" rx="57.37" ry="18"/>
<ellipse fill="none" stroke="black" cx="1522" cy="-488" rx="61.38" ry="22"/>
<ellipse fill="none" stroke="black" cx="1522" cy="-488" rx="65.39" ry="26"/>
<text text-anchor="middle" x="1522" y="-484.3" font-family="Times,serif" font-size="14.00">_messages_a</text>
</a>
</g>
</g>
<!-- VLSM_Core_Plans__messages_a&#45;&gt;VLSM_Core_Plans_input_a -->
<g id="edge37" class="edge">
<title>VLSM_Core_Plans__messages_a&#45;&gt;VLSM_Core_Plans_input_a</title>
<path fill="none" stroke="black" d="M1489.68,-465.24C1465.02,-448.62 1431.31,-425.92 1407.4,-409.81"/>
<polygon fill="black" stroke="black" points="1409.32,-406.88 1399.07,-404.2 1405.41,-412.69 1409.32,-406.88"/>
</g>
<!-- VLSM_Core_Plans__transition_item_to_plan_item -->
<g id="node21" class="node">
<title>VLSM_Core_Plans__transition_item_to_plan_item</title>
<g id="a_node21"><a xlink:href="VLSM.Core.Plans.html#_transition_item_to_plan_item" xlink:title="_transition_item_to_plan_item" target="_top">
<ellipse fill="#f070d1" stroke="black" cx="1183" cy="-218" rx="120.48" ry="18"/>
<text text-anchor="middle" x="1183" y="-214.3" font-family="Times,serif" font-size="14.00">_transition_item_to_plan_item</text>
</a>
</g>
</g>
<!-- VLSM_Core_Plans__trace_to_plan&#45;&gt;VLSM_Core_Plans__transition_item_to_plan_item -->
<g id="edge38" class="edge">
<title>VLSM_Core_Plans__trace_to_plan&#45;&gt;VLSM_Core_Plans__transition_item_to_plan_item</title>
<path fill="none" stroke="black" d="M1175.17,-280.86C1176.45,-270.72 1178.11,-257.64 1179.57,-246.12"/>
<polygon fill="black" stroke="black" points="1183.05,-246.47 1180.83,-236.11 1176.11,-245.59 1183.05,-246.47"/>
</g>
<!-- VLSM_Core_Plans__transition_item_to_plan_item&#45;&gt;VLSM_Core_Plans_Build_plan_item -->
<g id="edge39" class="edge">
<title>VLSM_Core_Plans__transition_item_to_plan_item&#45;&gt;VLSM_Core_Plans_Build_plan_item</title>
<path fill="none" stroke="black" d="M1173.89,-199.86C1168.33,-189.41 1161.11,-175.83 1154.86,-164.07"/>
<polygon fill="black" stroke="black" points="1157.88,-162.3 1150.1,-155.11 1151.7,-165.59 1157.88,-162.3"/>
</g>
<!-- VLSM_Core_Plans__transition_item_to_plan_item&#45;&gt;VLSM_Core_Plans_plan_item -->
<g id="edge40" class="edge">
<title>VLSM_Core_Plans__transition_item_to_plan_item&#45;&gt;VLSM_Core_Plans_plan_item</title>
<path fill="none" stroke="black" d="M1195.87,-200.1C1204.23,-188.16 1214.56,-171.42 1220,-155 1227.62,-131.99 1229.87,-104.42 1230.36,-84.39"/>
<polygon fill="black" stroke="black" points="1233.86,-84.15 1230.47,-74.11 1226.86,-84.08 1233.86,-84.15"/>
</g>
<!-- VLSM_Core_Plans__apply_plan_cons -->
<g id="node22" class="node">
<title>VLSM_Core_Plans__apply_plan_cons</title>
<g id="a_node22"><a xlink:href="VLSM.Core.Plans.html#_apply_plan_cons" xlink:title="_apply_plan_cons" target="_top">
<ellipse fill="#7fffd4" stroke="black" cx="964" cy="-389" rx="74.96" ry="18"/>
<ellipse fill="none" stroke="black" cx="964" cy="-389" rx="78.98" ry="22"/>
<ellipse fill="none" stroke="black" cx="964" cy="-389" rx="82.99" ry="26"/>
<text text-anchor="middle" x="964" y="-385.3" font-family="Times,serif" font-size="14.00">_apply_plan_cons</text>
</a>
</g>
</g>
<!-- VLSM_Core_Plans__apply_plan_cons&#45;&gt;VLSM_Core_Plans__apply_plan_app -->
<g id="edge41" class="edge">
<title>VLSM_Core_Plans__apply_plan_cons&#45;&gt;VLSM_Core_Plans__apply_plan_app</title>
<path fill="none" stroke="black" d="M955.48,-363.02C951.6,-351.62 946.99,-338.12 943.05,-326.54"/>
<polygon fill="black" stroke="black" points="946.32,-325.3 939.78,-316.96 939.69,-327.56 946.32,-325.3"/>
</g>
<!-- VLSM_Core_Plans__apply_plan_app&#45;&gt;VLSM_Core_Plans__apply_plan -->
<g id="edge42" class="edge">
<title>VLSM_Core_Plans__apply_plan_app&#45;&gt;VLSM_Core_Plans__apply_plan</title>
<path fill="none" stroke="black" d="M899.01,-283.14C867.89,-269.92 822.32,-250.57 789.39,-236.58"/>
<polygon fill="black" stroke="black" points="790.6,-233.3 780.03,-232.61 787.87,-239.74 790.6,-233.3"/>
</g>
<!-- VLSM_Core_Plans__apply_plan_folder_additive -->
<g id="node26" class="node">
<title>VLSM_Core_Plans__apply_plan_folder_additive</title>
<g id="a_node26"><a xlink:href="VLSM.Core.Plans.html#_apply_plan_folder_additive" xlink:title="_apply_plan_folder_additive" target="_top">
<ellipse fill="#7fffd4" stroke="black" cx="932" cy="-218" rx="112.38" ry="18"/>
<text text-anchor="middle" x="932" y="-214.3" font-family="Times,serif" font-size="14.00">_apply_plan_folder_additive</text>
</a>
</g>
</g>
<!-- VLSM_Core_Plans__apply_plan_app&#45;&gt;VLSM_Core_Plans__apply_plan_folder_additive -->
<g id="edge43" class="edge">
<title>VLSM_Core_Plans__apply_plan_app&#45;&gt;VLSM_Core_Plans__apply_plan_folder_additive</title>
<path fill="none" stroke="black" d="M933.57,-280.86C933.31,-270.72 932.98,-257.64 932.69,-246.12"/>
<polygon fill="black" stroke="black" points="936.19,-246.02 932.43,-236.11 929.19,-246.2 936.19,-246.02"/>
</g>
<!-- VLSM_Core_Plans__apply_plan_last&#45;&gt;VLSM_Core_Plans__apply_plan -->
<g id="edge44" class="edge">
<title>VLSM_Core_Plans__apply_plan_last&#45;&gt;VLSM_Core_Plans__apply_plan</title>
<path fill="none" stroke="black" d="M768.36,-280.86C764.99,-270.61 760.63,-257.37 756.81,-245.77"/>
<polygon fill="black" stroke="black" points="760.08,-244.52 753.63,-236.11 753.43,-246.71 760.08,-244.52"/>
</g>
<!-- VLSM_Core_Plans__apply_plan_folder -->
<g id="node27" class="node">
<title>VLSM_Core_Plans__apply_plan_folder</title>
<g id="a_node27"><a xlink:href="VLSM.Core.Plans.html#_apply_plan_folder" xlink:title="_apply_plan_folder" target="_top">
<ellipse fill="#f070d1" stroke="black" cx="932" cy="-137" rx="79.09" ry="18"/>
<text text-anchor="middle" x="932" y="-133.3" font-family="Times,serif" font-size="14.00">_apply_plan_folder</text>
</a>
</g>
</g>
<!-- VLSM_Core_Plans__apply_plan&#45;&gt;VLSM_Core_Plans__apply_plan_folder -->
<g id="edge45" class="edge">
<title>VLSM_Core_Plans__apply_plan&#45;&gt;VLSM_Core_Plans__apply_plan_folder</title>
<path fill="none" stroke="black" d="M780.05,-203.24C809.66,-190.53 853.95,-171.51 887.09,-157.29"/>
<polygon fill="black" stroke="black" points="888.74,-160.39 896.55,-153.22 885.98,-153.95 888.74,-160.39"/>
</g>
<!-- VLSM_Core_Plans__apply_plan_folder_additive&#45;&gt;VLSM_Core_Plans__apply_plan_folder -->
<g id="edge46" class="edge">
<title>VLSM_Core_Plans__apply_plan_folder_additive&#45;&gt;VLSM_Core_Plans__apply_plan_folder</title>
<path fill="none" stroke="black" d="M932,-199.86C932,-189.72 932,-176.64 932,-165.12"/>
<polygon fill="black" stroke="black" points="935.5,-165.11 932,-155.11 928.5,-165.11 935.5,-165.11"/>
</g>
<!-- VLSM_Core_Plans__apply_plan_folder_additive&#45;&gt;VLSM_Core_Plans_Build_plan_item -->
<g id="edge47" class="edge">
<title>VLSM_Core_Plans__apply_plan_folder_additive&#45;&gt;VLSM_Core_Plans_Build_plan_item</title>
<path fill="none" stroke="black" d="M973.79,-201.21C1008.31,-188.16 1057.31,-169.64 1093.35,-156.02"/>
<polygon fill="black" stroke="black" points="1095.03,-159.12 1103.15,-152.31 1092.55,-152.57 1095.03,-159.12"/>
</g>
<!-- VLSM_Core_Plans__apply_plan_folder&#45;&gt;VLSM_Core_Plans_plan_item -->
<g id="edge48" class="edge">
<title>VLSM_Core_Plans__apply_plan_folder&#45;&gt;VLSM_Core_Plans_plan_item</title>
<path fill="none" stroke="black" d="M981.54,-122.87C1037.63,-108 1128.33,-83.96 1183.24,-69.4"/>
<polygon fill="black" stroke="black" points="1184.29,-72.74 1193.06,-66.8 1182.5,-65.98 1184.29,-72.74"/>
</g>
<!-- VLSM_Core_Plans_input_a&#45;&gt;VLSM_Core_Plans_plan_item -->
<g id="edge49" class="edge">
<title>VLSM_Core_Plans_input_a&#45;&gt;VLSM_Core_Plans_plan_item</title>
<path fill="none" stroke="black" d="M1375.34,-371.02C1369.63,-337.25 1354.45,-259.78 1327,-200 1306.35,-155.04 1272.05,-108.65 1250.25,-81.34"/>
<polygon fill="black" stroke="black" points="1252.92,-79.08 1243.92,-73.5 1247.48,-83.48 1252.92,-79.08"/>
</g>
<!-- VLSM_Core_Plans_label_a&#45;&gt;VLSM_Core_Plans_plan_item -->
<g id="edge50" class="edge">
<title>VLSM_Core_Plans_label_a&#45;&gt;VLSM_Core_Plans_plan_item</title>
<path fill="none" stroke="black" d="M1460.04,-371.33C1436.21,-327.66 1368.07,-207.26 1295,-119 1283.33,-104.91 1268.71,-90.72 1256.29,-79.47"/>
<polygon fill="black" stroke="black" points="1258.3,-76.57 1248.5,-72.54 1253.64,-81.8 1258.3,-76.57"/>
</g>
</g>
</svg>
