<?xml version="1.0" encoding="UTF-8" standalone="no"?>
<!DOCTYPE svg PUBLIC "-//W3C//DTD SVG 1.1//EN"
 "http://www.w3.org/Graphics/SVG/1.1/DTD/svg11.dtd">
<!-- Generated by graphviz version 2.43.0 (0)
 -->
<!-- Title: rvdpdgraph Pages: 1 -->
<svg width="1383pt" height="696pt"
 viewBox="0.00 0.00 1383.00 695.50" xmlns="http://www.w3.org/2000/svg" xmlns:xlink="http://www.w3.org/1999/xlink">
<g id="graph0" class="graph" transform="scale(1 1) rotate(0) translate(4 691.5)">
<title>rvdpdgraph</title>
<polygon fill="white" stroke="transparent" points="-4,4 -4,-691.5 1379,-691.5 1379,4 -4,4"/>
<g id="clust1" class="cluster">
<title>cluster_VLSM</title>
<polygon fill="#ffffc3" stroke="black" points="8,-8.08 8,-679.42 1367,-679.42 1367,-8.08 8,-8.08"/>
<text text-anchor="middle" x="35.5" y="-664.22" font-family="Times,serif" font-size="14.00">VLSM</text>
</g>
<g id="clust2" class="cluster">
<title>cluster_VLSM_Lib</title>
<polygon fill="#ffffa3" stroke="black" points="16,-16.15 16,-648.13 1359,-648.13 1359,-16.15 16,-16.15"/>
<text text-anchor="middle" x="33.5" y="-632.93" font-family="Times,serif" font-size="14.00">Lib</text>
</g>
<g id="clust3" class="cluster">
<title>cluster_VLSM_Lib_StdppListSet</title>
<polygon fill="#ffff83" stroke="black" points="24,-24.23 24,-616.83 1351,-616.83 1351,-24.23 24,-24.23"/>
<text text-anchor="middle" x="67" y="-601.63" font-family="Times,serif" font-size="14.00">StdppListSet</text>
</g>
<!-- VLSM_Lib_StdppListSet_set_map -->
<g id="node1" class="node">
<title>VLSM_Lib_StdppListSet_set_map</title>
<g id="a_node1"><a xlink:href="VLSM.Lib.StdppListSet.html#set_map" xlink:title="set_map" target="_top">
<ellipse fill="#f070d1" stroke="black" cx="562" cy="-220.08" rx="40.13" ry="18"/>
<ellipse fill="none" stroke="black" cx="562" cy="-220.08" rx="44.11" ry="22"/>
<ellipse fill="none" stroke="black" cx="562" cy="-220.08" rx="48.09" ry="26"/>
<text text-anchor="middle" x="562" y="-216.38" font-family="Times,serif" font-size="14.00">set_map</text>
</a>
</g>
</g>
<!-- VLSM_Lib_StdppListSet_set_fold_right -->
<g id="node2" class="node">
<title>VLSM_Lib_StdppListSet_set_fold_right</title>
<g id="a_node2"><a xlink:href="VLSM.Lib.StdppListSet.html#set_fold_right" xlink:title="set_fold_right" target="_top">
<ellipse fill="#f070d1" stroke="black" cx="548" cy="-131.08" rx="59.59" ry="18"/>
<text text-anchor="middle" x="548" y="-127.38" font-family="Times,serif" font-size="14.00">set_fold_right</text>
</a>
</g>
</g>
<!-- VLSM_Lib_StdppListSet_set_map&#45;&gt;VLSM_Lib_StdppListSet_set_fold_right -->
<g id="edge1" class="edge">
<title>VLSM_Lib_StdppListSet_set_map&#45;&gt;VLSM_Lib_StdppListSet_set_fold_right</title>
<path fill="none" stroke="black" d="M557.95,-193.91C556.2,-183.04 554.15,-170.29 552.36,-159.2"/>
<polygon fill="black" stroke="black" points="555.8,-158.51 550.75,-149.19 548.89,-159.62 555.8,-158.51"/>
</g>
<!-- VLSM_Lib_StdppListSet_set_add -->
<g id="node28" class="node">
<title>VLSM_Lib_StdppListSet_set_add</title>
<g id="a_node28"><a xlink:href="VLSM.Lib.StdppListSet.html#set_add" xlink:title="set_add" target="_top">
<ellipse fill="#f070d1" stroke="black" cx="780" cy="-131.08" rx="37.89" ry="18"/>
<text text-anchor="middle" x="780" y="-127.38" font-family="Times,serif" font-size="14.00">set_add</text>
</a>
</g>
</g>
<!-- VLSM_Lib_StdppListSet_set_map&#45;&gt;VLSM_Lib_StdppListSet_set_add -->
<g id="edge2" class="edge">
<title>VLSM_Lib_StdppListSet_set_map&#45;&gt;VLSM_Lib_StdppListSet_set_add</title>
<path fill="none" stroke="black" d="M597.96,-202.66C604.89,-199.68 612.13,-196.69 619,-194.08 668.79,-175.13 683.96,-177.89 733,-157.08 737.87,-155.01 742.92,-152.61 747.82,-150.14"/>
<polygon fill="black" stroke="black" points="749.72,-153.1 756.96,-145.36 746.48,-146.89 749.72,-153.1"/>
</g>
<!-- VLSM_Lib_StdppListSet_empty_set -->
<g id="node29" class="node">
<title>VLSM_Lib_StdppListSet_empty_set</title>
<g id="a_node29"><a xlink:href="VLSM.Lib.StdppListSet.html#empty_set" xlink:title="empty_set" target="_top">
<ellipse fill="#f070d1" stroke="black" cx="415" cy="-131.08" rx="47.39" ry="18"/>
<text text-anchor="middle" x="415" y="-127.38" font-family="Times,serif" font-size="14.00">empty_set</text>
</a>
</g>
</g>
<!-- VLSM_Lib_StdppListSet_set_map&#45;&gt;VLSM_Lib_StdppListSet_empty_set -->
<g id="edge3" class="edge">
<title>VLSM_Lib_StdppListSet_set_map&#45;&gt;VLSM_Lib_StdppListSet_empty_set</title>
<path fill="none" stroke="black" d="M530.1,-200.2C505.89,-185.87 472.69,-166.22 448.16,-151.7"/>
<polygon fill="black" stroke="black" points="449.94,-148.69 439.56,-146.61 446.38,-154.71 449.94,-148.69"/>
</g>
<!-- VLSM_Lib_StdppListSet_set -->
<g id="node30" class="node">
<title>VLSM_Lib_StdppListSet_set</title>
<g id="a_node30"><a xlink:href="VLSM.Lib.StdppListSet.html#set" xlink:title="set" target="_top">
<ellipse fill="#f070d1" stroke="black" cx="611" cy="-50.08" rx="27" ry="18"/>
<text text-anchor="middle" x="611" y="-46.38" font-family="Times,serif" font-size="14.00">set</text>
</a>
</g>
</g>
<!-- VLSM_Lib_StdppListSet_set_fold_right&#45;&gt;VLSM_Lib_StdppListSet_set -->
<g id="edge4" class="edge">
<title>VLSM_Lib_StdppListSet_set_fold_right&#45;&gt;VLSM_Lib_StdppListSet_set</title>
<path fill="none" stroke="black" d="M561.36,-113.32C570.4,-101.99 582.46,-86.86 592.43,-74.36"/>
<polygon fill="black" stroke="black" points="595.44,-76.2 598.94,-66.2 589.97,-71.84 595.44,-76.2"/>
</g>
<!-- VLSM_Lib_StdppListSet_set_prod -->
<g id="node3" class="node">
<title>VLSM_Lib_StdppListSet_set_prod</title>
<g id="a_node3"><a xlink:href="VLSM.Lib.StdppListSet.html#set_prod" xlink:title="set_prod" target="_top">
<ellipse fill="#f070d1" stroke="black" cx="675" cy="-131.08" rx="40.9" ry="18"/>
<ellipse fill="none" stroke="black" cx="675" cy="-131.08" rx="44.9" ry="22"/>
<ellipse fill="none" stroke="black" cx="675" cy="-131.08" rx="48.89" ry="26"/>
<text text-anchor="middle" x="675" y="-127.38" font-family="Times,serif" font-size="14.00">set_prod</text>
</a>
</g>
</g>
<!-- VLSM_Lib_StdppListSet_set_prod&#45;&gt;VLSM_Lib_StdppListSet_set -->
<g id="edge5" class="edge">
<title>VLSM_Lib_StdppListSet_set_prod&#45;&gt;VLSM_Lib_StdppListSet_set</title>
<path fill="none" stroke="black" d="M656.14,-106.8C647.76,-96.46 637.93,-84.32 629.58,-74.02"/>
<polygon fill="black" stroke="black" points="632.28,-71.78 623.26,-66.21 626.84,-76.19 632.28,-71.78"/>
</g>
<!-- VLSM_Lib_StdppListSet_set_diff_nodup -->
<g id="node4" class="node">
<title>VLSM_Lib_StdppListSet_set_diff_nodup</title>
<g id="a_node4"><a xlink:href="VLSM.Lib.StdppListSet.html#set_diff_nodup" xlink:title="set_diff_nodup" target="_top">
<ellipse fill="#7fffd4" stroke="black" cx="604" cy="-559.08" rx="63.87" ry="18"/>
<ellipse fill="none" stroke="black" cx="604" cy="-559.08" rx="67.88" ry="22"/>
<ellipse fill="none" stroke="black" cx="604" cy="-559.08" rx="71.89" ry="26"/>
<text text-anchor="middle" x="604" y="-555.38" font-family="Times,serif" font-size="14.00">set_diff_nodup</text>
</a>
</g>
</g>
<!-- VLSM_Lib_StdppListSet_set_add_nodup -->
<g id="node18" class="node">
<title>VLSM_Lib_StdppListSet_set_add_nodup</title>
<g id="a_node18"><a xlink:href="VLSM.Lib.StdppListSet.html#set_add_nodup" xlink:title="set_add_nodup" target="_top">
<ellipse fill="#7fffd4" stroke="black" cx="928" cy="-470.08" rx="63.89" ry="18"/>
<text text-anchor="middle" x="928" y="-466.38" font-family="Times,serif" font-size="14.00">set_add_nodup</text>
</a>
</g>
</g>
<!-- VLSM_Lib_StdppListSet_set_diff_nodup&#45;&gt;VLSM_Lib_StdppListSet_set_add_nodup -->
<g id="edge6" class="edge">
<title>VLSM_Lib_StdppListSet_set_diff_nodup&#45;&gt;VLSM_Lib_StdppListSet_set_add_nodup</title>
<path fill="none" stroke="black" d="M660.44,-542.92C720.25,-526.86 814.07,-501.67 873.24,-485.78"/>
<polygon fill="black" stroke="black" points="874.4,-489.09 883.15,-483.12 872.59,-482.33 874.4,-489.09"/>
</g>
<!-- VLSM_Lib_StdppListSet_set_diff -->
<g id="node25" class="node">
<title>VLSM_Lib_StdppListSet_set_diff</title>
<g id="a_node25"><a xlink:href="VLSM.Lib.StdppListSet.html#set_diff" xlink:title="set_diff" target="_top">
<ellipse fill="#f070d1" stroke="black" cx="666" cy="-220.08" rx="37.89" ry="18"/>
<text text-anchor="middle" x="666" y="-216.38" font-family="Times,serif" font-size="14.00">set_diff</text>
</a>
</g>
</g>
<!-- VLSM_Lib_StdppListSet_set_diff_nodup&#45;&gt;VLSM_Lib_StdppListSet_set_diff -->
<g id="edge7" class="edge">
<title>VLSM_Lib_StdppListSet_set_diff_nodup&#45;&gt;VLSM_Lib_StdppListSet_set_diff</title>
<path fill="none" stroke="black" d="M574.8,-535.01C515.6,-485.49 392.49,-366.72 459,-283.08 504.43,-225.95 550.64,-271.66 619,-246.08 623.96,-244.22 629.05,-241.94 633.97,-239.53"/>
<polygon fill="black" stroke="black" points="635.86,-242.49 643.13,-234.78 632.64,-236.27 635.86,-242.49"/>
</g>
<!-- VLSM_Lib_StdppListSet_set_diff_iff -->
<g id="node5" class="node">
<title>VLSM_Lib_StdppListSet_set_diff_iff</title>
<g id="a_node5"><a xlink:href="VLSM.Lib.StdppListSet.html#set_diff_iff" xlink:title="set_diff_iff" target="_top">
<ellipse fill="#7fffd4" stroke="black" cx="673" cy="-382.08" rx="50.08" ry="18"/>
<ellipse fill="none" stroke="black" cx="673" cy="-382.08" rx="54.09" ry="22"/>
<ellipse fill="none" stroke="black" cx="673" cy="-382.08" rx="58.09" ry="26"/>
<text text-anchor="middle" x="673" y="-378.38" font-family="Times,serif" font-size="14.00">set_diff_iff</text>
</a>
</g>
</g>
<!-- VLSM_Lib_StdppListSet_set_diff_elim2 -->
<g id="node6" class="node">
<title>VLSM_Lib_StdppListSet_set_diff_elim2</title>
<g id="a_node6"><a xlink:href="VLSM.Lib.StdppListSet.html#set_diff_elim2" xlink:title="set_diff_elim2" target="_top">
<ellipse fill="#7fffd4" stroke="black" cx="673" cy="-301.08" rx="62.29" ry="18"/>
<text text-anchor="middle" x="673" y="-297.38" font-family="Times,serif" font-size="14.00">set_diff_elim2</text>
</a>
</g>
</g>
<!-- VLSM_Lib_StdppListSet_set_diff_iff&#45;&gt;VLSM_Lib_StdppListSet_set_diff_elim2 -->
<g id="edge8" class="edge">
<title>VLSM_Lib_StdppListSet_set_diff_iff&#45;&gt;VLSM_Lib_StdppListSet_set_diff_elim2</title>
<path fill="none" stroke="black" d="M673,-355.65C673,-347.27 673,-337.93 673,-329.42"/>
<polygon fill="black" stroke="black" points="676.5,-329.22 673,-319.22 669.5,-329.22 676.5,-329.22"/>
</g>
<!-- VLSM_Lib_StdppListSet_set_diff_elim1 -->
<g id="node7" class="node">
<title>VLSM_Lib_StdppListSet_set_diff_elim1</title>
<g id="a_node7"><a xlink:href="VLSM.Lib.StdppListSet.html#set_diff_elim1" xlink:title="set_diff_elim1" target="_top">
<ellipse fill="#7fffd4" stroke="black" cx="530" cy="-301.08" rx="62.29" ry="18"/>
<text text-anchor="middle" x="530" y="-297.38" font-family="Times,serif" font-size="14.00">set_diff_elim1</text>
</a>
</g>
</g>
<!-- VLSM_Lib_StdppListSet_set_diff_iff&#45;&gt;VLSM_Lib_StdppListSet_set_diff_elim1 -->
<g id="edge9" class="edge">
<title>VLSM_Lib_StdppListSet_set_diff_iff&#45;&gt;VLSM_Lib_StdppListSet_set_diff_elim1</title>
<path fill="none" stroke="black" d="M637.28,-361.35C615.71,-349.43 588.29,-334.28 566.57,-322.28"/>
<polygon fill="black" stroke="black" points="568.08,-319.12 557.64,-317.35 564.7,-325.24 568.08,-319.12"/>
</g>
<!-- VLSM_Lib_StdppListSet_set_diff_intro -->
<g id="node8" class="node">
<title>VLSM_Lib_StdppListSet_set_diff_intro</title>
<g id="a_node8"><a xlink:href="VLSM.Lib.StdppListSet.html#set_diff_intro" xlink:title="set_diff_intro" target="_top">
<ellipse fill="#7fffd4" stroke="black" cx="812" cy="-301.08" rx="58.49" ry="18"/>
<text text-anchor="middle" x="812" y="-297.38" font-family="Times,serif" font-size="14.00">set_diff_intro</text>
</a>
</g>
</g>
<!-- VLSM_Lib_StdppListSet_set_diff_iff&#45;&gt;VLSM_Lib_StdppListSet_set_diff_intro -->
<g id="edge10" class="edge">
<title>VLSM_Lib_StdppListSet_set_diff_iff&#45;&gt;VLSM_Lib_StdppListSet_set_diff_intro</title>
<path fill="none" stroke="black" d="M708.08,-361.14C728.95,-349.28 755.37,-334.26 776.35,-322.34"/>
<polygon fill="black" stroke="black" points="778.31,-325.25 785.27,-317.27 774.85,-319.17 778.31,-325.25"/>
</g>
<!-- VLSM_Lib_StdppListSet_set_add_elim -->
<g id="node21" class="node">
<title>VLSM_Lib_StdppListSet_set_add_elim</title>
<g id="a_node21"><a xlink:href="VLSM.Lib.StdppListSet.html#set_add_elim" xlink:title="set_add_elim" target="_top">
<ellipse fill="#7fffd4" stroke="black" cx="780" cy="-220.08" rx="57.69" ry="18"/>
<text text-anchor="middle" x="780" y="-216.38" font-family="Times,serif" font-size="14.00">set_add_elim</text>
</a>
</g>
</g>
<!-- VLSM_Lib_StdppListSet_set_diff_elim2&#45;&gt;VLSM_Lib_StdppListSet_set_add_elim -->
<g id="edge11" class="edge">
<title>VLSM_Lib_StdppListSet_set_diff_elim2&#45;&gt;VLSM_Lib_StdppListSet_set_add_elim</title>
<path fill="none" stroke="black" d="M694.65,-284.09C710.61,-272.31 732.5,-256.15 750.12,-243.14"/>
<polygon fill="black" stroke="black" points="752.41,-245.79 758.38,-237.04 748.26,-240.16 752.41,-245.79"/>
</g>
<!-- VLSM_Lib_StdppListSet_set_diff_elim2&#45;&gt;VLSM_Lib_StdppListSet_set_diff -->
<g id="edge12" class="edge">
<title>VLSM_Lib_StdppListSet_set_diff_elim2&#45;&gt;VLSM_Lib_StdppListSet_set_diff</title>
<path fill="none" stroke="black" d="M671.48,-282.93C670.58,-272.79 669.42,-259.71 668.4,-248.19"/>
<polygon fill="black" stroke="black" points="671.88,-247.84 667.52,-238.18 664.91,-248.45 671.88,-247.84"/>
</g>
<!-- VLSM_Lib_StdppListSet_set_diff_elim1&#45;&gt;VLSM_Lib_StdppListSet_set_add_elim -->
<g id="edge13" class="edge">
<title>VLSM_Lib_StdppListSet_set_diff_elim1&#45;&gt;VLSM_Lib_StdppListSet_set_add_elim</title>
<path fill="none" stroke="black" d="M573.53,-288.16C610.77,-277.74 665.71,-261.85 713,-246.08 720.45,-243.59 728.31,-240.8 735.93,-238.02"/>
<polygon fill="black" stroke="black" points="737.23,-241.27 745.39,-234.52 734.8,-234.71 737.23,-241.27"/>
</g>
<!-- VLSM_Lib_StdppListSet_set_diff_elim1&#45;&gt;VLSM_Lib_StdppListSet_set_diff -->
<g id="edge14" class="edge">
<title>VLSM_Lib_StdppListSet_set_diff_elim1&#45;&gt;VLSM_Lib_StdppListSet_set_diff</title>
<path fill="none" stroke="black" d="M556.55,-284.66C578.66,-271.81 610.22,-253.48 633.78,-239.79"/>
<polygon fill="black" stroke="black" points="635.81,-242.66 642.7,-234.61 632.29,-236.61 635.81,-242.66"/>
</g>
<!-- VLSM_Lib_StdppListSet_set_add_intro2 -->
<g id="node23" class="node">
<title>VLSM_Lib_StdppListSet_set_add_intro2</title>
<g id="a_node23"><a xlink:href="VLSM.Lib.StdppListSet.html#set_add_intro2" xlink:title="set_add_intro2" target="_top">
<ellipse fill="#7fffd4" stroke="black" cx="1063" cy="-220.08" rx="63.09" ry="18"/>
<text text-anchor="middle" x="1063" y="-216.38" font-family="Times,serif" font-size="14.00">set_add_intro2</text>
</a>
</g>
</g>
<!-- VLSM_Lib_StdppListSet_set_diff_intro&#45;&gt;VLSM_Lib_StdppListSet_set_add_intro2 -->
<g id="edge15" class="edge">
<title>VLSM_Lib_StdppListSet_set_diff_intro&#45;&gt;VLSM_Lib_StdppListSet_set_add_intro2</title>
<path fill="none" stroke="black" d="M853.03,-288.22C889.41,-277.59 943.91,-261.35 991,-246.08 998.87,-243.52 1007.2,-240.72 1015.29,-237.95"/>
<polygon fill="black" stroke="black" points="1016.67,-241.18 1024.98,-234.6 1014.39,-234.56 1016.67,-241.18"/>
</g>
<!-- VLSM_Lib_StdppListSet_set_add_intro1 -->
<g id="node24" class="node">
<title>VLSM_Lib_StdppListSet_set_add_intro1</title>
<g id="a_node24"><a xlink:href="VLSM.Lib.StdppListSet.html#set_add_intro1" xlink:title="set_add_intro1" target="_top">
<ellipse fill="#7fffd4" stroke="black" cx="919" cy="-220.08" rx="63.09" ry="18"/>
<text text-anchor="middle" x="919" y="-216.38" font-family="Times,serif" font-size="14.00">set_add_intro1</text>
</a>
</g>
</g>
<!-- VLSM_Lib_StdppListSet_set_diff_intro&#45;&gt;VLSM_Lib_StdppListSet_set_add_intro1 -->
<g id="edge16" class="edge">
<title>VLSM_Lib_StdppListSet_set_diff_intro&#45;&gt;VLSM_Lib_StdppListSet_set_add_intro1</title>
<path fill="none" stroke="black" d="M833.4,-284.28C849.33,-272.52 871.29,-256.3 888.98,-243.24"/>
<polygon fill="black" stroke="black" points="891.31,-245.87 897.27,-237.12 887.15,-240.24 891.31,-245.87"/>
</g>
<!-- VLSM_Lib_StdppListSet_set_diff_intro&#45;&gt;VLSM_Lib_StdppListSet_set_diff -->
<g id="edge17" class="edge">
<title>VLSM_Lib_StdppListSet_set_diff_intro&#45;&gt;VLSM_Lib_StdppListSet_set_diff</title>
<path fill="none" stroke="black" d="M784.19,-285.03C760.03,-271.95 724.96,-252.98 699.3,-239.09"/>
<polygon fill="black" stroke="black" points="700.77,-235.91 690.31,-234.23 697.44,-242.07 700.77,-235.91"/>
</g>
<!-- VLSM_Lib_StdppListSet_set_union_nodup -->
<g id="node9" class="node">
<title>VLSM_Lib_StdppListSet_set_union_nodup</title>
<g id="a_node9"><a xlink:href="VLSM.Lib.StdppListSet.html#set_union_nodup" xlink:title="set_union_nodup" target="_top">
<ellipse fill="#7fffd4" stroke="black" cx="1096" cy="-559.08" rx="71.49" ry="18"/>
<ellipse fill="none" stroke="black" cx="1096" cy="-559.08" rx="75.49" ry="22"/>
<ellipse fill="none" stroke="black" cx="1096" cy="-559.08" rx="79.49" ry="26"/>
<text text-anchor="middle" x="1096" y="-555.38" font-family="Times,serif" font-size="14.00">set_union_nodup</text>
</a>
</g>
</g>
<!-- VLSM_Lib_StdppListSet_set_union_nodup&#45;&gt;VLSM_Lib_StdppListSet_set_add_nodup -->
<g id="edge18" class="edge">
<title>VLSM_Lib_StdppListSet_set_union_nodup&#45;&gt;VLSM_Lib_StdppListSet_set_add_nodup</title>
<path fill="none" stroke="black" d="M1054.9,-536.79C1027.79,-522.75 992.53,-504.49 966.06,-490.79"/>
<polygon fill="black" stroke="black" points="967.58,-487.63 957.09,-486.14 964.36,-493.85 967.58,-487.63"/>
</g>
<!-- VLSM_Lib_StdppListSet_set_union -->
<g id="node26" class="node">
<title>VLSM_Lib_StdppListSet_set_union</title>
<g id="a_node26"><a xlink:href="VLSM.Lib.StdppListSet.html#set_union" xlink:title="set_union" target="_top">
<ellipse fill="#f070d1" stroke="black" cx="1226" cy="-220.08" rx="44.69" ry="18"/>
<text text-anchor="middle" x="1226" y="-216.38" font-family="Times,serif" font-size="14.00">set_union</text>
</a>
</g>
</g>
<!-- VLSM_Lib_StdppListSet_set_union_nodup&#45;&gt;VLSM_Lib_StdppListSet_set_union -->
<g id="edge19" class="edge">
<title>VLSM_Lib_StdppListSet_set_union_nodup&#45;&gt;VLSM_Lib_StdppListSet_set_union</title>
<path fill="none" stroke="black" d="M1132.77,-535.91C1189.38,-499.24 1295.2,-419.86 1332,-319.08 1337.49,-304.05 1339.96,-296.96 1332,-283.08 1318.77,-260.02 1293.29,-244.71 1270.62,-235.08"/>
<polygon fill="black" stroke="black" points="1271.7,-231.74 1261.12,-231.29 1269.11,-238.25 1271.7,-231.74"/>
</g>
<!-- VLSM_Lib_StdppListSet_set_union_iff -->
<g id="node10" class="node">
<title>VLSM_Lib_StdppListSet_set_union_iff</title>
<g id="a_node10"><a xlink:href="VLSM.Lib.StdppListSet.html#set_union_iff" xlink:title="set_union_iff" target="_top">
<ellipse fill="#7fffd4" stroke="black" cx="1182" cy="-382.08" rx="57.71" ry="18"/>
<ellipse fill="none" stroke="black" cx="1182" cy="-382.08" rx="61.7" ry="22"/>
<ellipse fill="none" stroke="black" cx="1182" cy="-382.08" rx="65.69" ry="26"/>
<text text-anchor="middle" x="1182" y="-378.38" font-family="Times,serif" font-size="14.00">set_union_iff</text>
</a>
</g>
</g>
<!-- VLSM_Lib_StdppListSet_set_union_elim -->
<g id="node11" class="node">
<title>VLSM_Lib_StdppListSet_set_union_elim</title>
<g id="a_node11"><a xlink:href="VLSM.Lib.StdppListSet.html#set_union_elim" xlink:title="set_union_elim" target="_top">
<ellipse fill="#7fffd4" stroke="black" cx="1108" cy="-301.08" rx="65.79" ry="18"/>
<text text-anchor="middle" x="1108" y="-297.38" font-family="Times,serif" font-size="14.00">set_union_elim</text>
</a>
</g>
</g>
<!-- VLSM_Lib_StdppListSet_set_union_iff&#45;&gt;VLSM_Lib_StdppListSet_set_union_elim -->
<g id="edge20" class="edge">
<title>VLSM_Lib_StdppListSet_set_union_iff&#45;&gt;VLSM_Lib_StdppListSet_set_union_elim</title>
<path fill="none" stroke="black" d="M1159.8,-357.37C1150.66,-347.62 1140.08,-336.33 1130.88,-326.5"/>
<polygon fill="black" stroke="black" points="1133.23,-323.89 1123.84,-318.99 1128.12,-328.68 1133.23,-323.89"/>
</g>
<!-- VLSM_Lib_StdppListSet_set_union_intro -->
<g id="node12" class="node">
<title>VLSM_Lib_StdppListSet_set_union_intro</title>
<g id="a_node12"><a xlink:href="VLSM.Lib.StdppListSet.html#set_union_intro" xlink:title="set_union_intro" target="_top">
<ellipse fill="#7fffd4" stroke="black" cx="1257" cy="-301.08" rx="65.79" ry="18"/>
<text text-anchor="middle" x="1257" y="-297.38" font-family="Times,serif" font-size="14.00">set_union_intro</text>
</a>
</g>
</g>
<!-- VLSM_Lib_StdppListSet_set_union_iff&#45;&gt;VLSM_Lib_StdppListSet_set_union_intro -->
<g id="edge21" class="edge">
<title>VLSM_Lib_StdppListSet_set_union_iff&#45;&gt;VLSM_Lib_StdppListSet_set_union_intro</title>
<path fill="none" stroke="black" d="M1204.5,-357.37C1213.76,-347.62 1224.48,-336.33 1233.82,-326.5"/>
<polygon fill="black" stroke="black" points="1236.6,-328.65 1240.95,-318.99 1231.52,-323.83 1236.6,-328.65"/>
</g>
<!-- VLSM_Lib_StdppListSet_set_union_elim&#45;&gt;VLSM_Lib_StdppListSet_set_add_elim -->
<g id="edge22" class="edge">
<title>VLSM_Lib_StdppListSet_set_union_elim&#45;&gt;VLSM_Lib_StdppListSet_set_add_elim</title>
<path fill="none" stroke="black" d="M1059.23,-288.82C1050.5,-286.87 1041.49,-284.88 1033,-283.08 950.56,-265.54 928.08,-269.11 847,-246.08 839.19,-243.86 831,-241.14 823.12,-238.33"/>
<polygon fill="black" stroke="black" points="824.33,-235.04 813.73,-234.87 821.91,-241.61 824.33,-235.04"/>
</g>
<!-- VLSM_Lib_StdppListSet_set_union_elim&#45;&gt;VLSM_Lib_StdppListSet_set_union -->
<g id="edge23" class="edge">
<title>VLSM_Lib_StdppListSet_set_union_elim&#45;&gt;VLSM_Lib_StdppListSet_set_union</title>
<path fill="none" stroke="black" d="M1131.88,-284.09C1150.18,-271.84 1175.57,-254.84 1195.37,-241.58"/>
<polygon fill="black" stroke="black" points="1197.39,-244.44 1203.75,-235.97 1193.5,-238.63 1197.39,-244.44"/>
</g>
<!-- VLSM_Lib_StdppListSet_set_union_intro&#45;&gt;VLSM_Lib_StdppListSet_set_add_intro2 -->
<g id="edge24" class="edge">
<title>VLSM_Lib_StdppListSet_set_union_intro&#45;&gt;VLSM_Lib_StdppListSet_set_add_intro2</title>
<path fill="none" stroke="black" d="M1221.87,-285.77C1189.63,-272.64 1141.75,-253.14 1106.98,-238.99"/>
<polygon fill="black" stroke="black" points="1108.13,-235.67 1097.54,-235.14 1105.49,-242.16 1108.13,-235.67"/>
</g>
<!-- VLSM_Lib_StdppListSet_set_union_intro&#45;&gt;VLSM_Lib_StdppListSet_set_add_intro1 -->
<g id="edge25" class="edge">
<title>VLSM_Lib_StdppListSet_set_union_intro&#45;&gt;VLSM_Lib_StdppListSet_set_add_intro1</title>
<path fill="none" stroke="black" d="M1208.89,-288.76C1200.28,-286.81 1191.38,-284.85 1183,-283.08 1097.97,-265.12 1074.93,-268.61 991,-246.08 982.46,-243.78 973.47,-240.98 964.85,-238.1"/>
<polygon fill="black" stroke="black" points="965.91,-234.76 955.31,-234.82 963.63,-241.38 965.91,-234.76"/>
</g>
<!-- VLSM_Lib_StdppListSet_set_union_intro&#45;&gt;VLSM_Lib_StdppListSet_set_union -->
<g id="edge26" class="edge">
<title>VLSM_Lib_StdppListSet_set_union_intro&#45;&gt;VLSM_Lib_StdppListSet_set_union</title>
<path fill="none" stroke="black" d="M1250.27,-282.93C1246.18,-272.51 1240.88,-258.99 1236.27,-247.25"/>
<polygon fill="black" stroke="black" points="1239.52,-245.94 1232.61,-237.91 1233,-248.5 1239.52,-245.94"/>
</g>
<!-- VLSM_Lib_StdppListSet_set_remove_nodup -->
<g id="node13" class="node">
<title>VLSM_Lib_StdppListSet_set_remove_nodup</title>
<g id="a_node13"><a xlink:href="VLSM.Lib.StdppListSet.html#set_remove_nodup" xlink:title="set_remove_nodup" target="_top">
<ellipse fill="#7fffd4" stroke="black" cx="231" cy="-470.08" rx="77.99" ry="18"/>
<ellipse fill="none" stroke="black" cx="231" cy="-470.08" rx="81.99" ry="22"/>
<ellipse fill="none" stroke="black" cx="231" cy="-470.08" rx="85.99" ry="26"/>
<text text-anchor="middle" x="231" y="-466.38" font-family="Times,serif" font-size="14.00">set_remove_nodup</text>
</a>
</g>
</g>
<!-- VLSM_Lib_StdppListSet_set_remove_iff -->
<g id="node14" class="node">
<title>VLSM_Lib_StdppListSet_set_remove_iff</title>
<g id="a_node14"><a xlink:href="VLSM.Lib.StdppListSet.html#set_remove_iff" xlink:title="set_remove_iff" target="_top">
<ellipse fill="#7fffd4" stroke="black" cx="231" cy="-382.08" rx="64.19" ry="18"/>
<text text-anchor="middle" x="231" y="-378.38" font-family="Times,serif" font-size="14.00">set_remove_iff</text>
</a>
</g>
</g>
<!-- VLSM_Lib_StdppListSet_set_remove_nodup&#45;&gt;VLSM_Lib_StdppListSet_set_remove_iff -->
<g id="edge27" class="edge">
<title>VLSM_Lib_StdppListSet_set_remove_nodup&#45;&gt;VLSM_Lib_StdppListSet_set_remove_iff</title>
<path fill="none" stroke="black" d="M231,-443.74C231,-433.19 231,-420.91 231,-410.18"/>
<polygon fill="black" stroke="black" points="234.5,-410.08 231,-400.08 227.5,-410.08 234.5,-410.08"/>
</g>
<!-- VLSM_Lib_StdppListSet_set_remove_3 -->
<g id="node15" class="node">
<title>VLSM_Lib_StdppListSet_set_remove_3</title>
<g id="a_node15"><a xlink:href="VLSM.Lib.StdppListSet.html#set_remove_3" xlink:title="set_remove_3" target="_top">
<ellipse fill="#7fffd4" stroke="black" cx="92" cy="-301.08" rx="60.39" ry="18"/>
<text text-anchor="middle" x="92" y="-297.38" font-family="Times,serif" font-size="14.00">set_remove_3</text>
</a>
</g>
</g>
<!-- VLSM_Lib_StdppListSet_set_remove_iff&#45;&gt;VLSM_Lib_StdppListSet_set_remove_3 -->
<g id="edge28" class="edge">
<title>VLSM_Lib_StdppListSet_set_remove_iff&#45;&gt;VLSM_Lib_StdppListSet_set_remove_3</title>
<path fill="none" stroke="black" d="M203.87,-365.66C182.15,-353.31 151.51,-335.9 127.78,-322.41"/>
<polygon fill="black" stroke="black" points="129.49,-319.36 119.06,-317.46 126.03,-325.44 129.49,-319.36"/>
</g>
<!-- VLSM_Lib_StdppListSet_set_remove_2 -->
<g id="node16" class="node">
<title>VLSM_Lib_StdppListSet_set_remove_2</title>
<g id="a_node16"><a xlink:href="VLSM.Lib.StdppListSet.html#set_remove_2" xlink:title="set_remove_2" target="_top">
<ellipse fill="#7fffd4" stroke="black" cx="231" cy="-301.08" rx="60.39" ry="18"/>
<text text-anchor="middle" x="231" y="-297.38" font-family="Times,serif" font-size="14.00">set_remove_2</text>
</a>
</g>
</g>
<!-- VLSM_Lib_StdppListSet_set_remove_iff&#45;&gt;VLSM_Lib_StdppListSet_set_remove_2 -->
<g id="edge29" class="edge">
<title>VLSM_Lib_StdppListSet_set_remove_iff&#45;&gt;VLSM_Lib_StdppListSet_set_remove_2</title>
<path fill="none" stroke="black" d="M231,-363.93C231,-353.79 231,-340.71 231,-329.19"/>
<polygon fill="black" stroke="black" points="234.5,-329.18 231,-319.18 227.5,-329.18 234.5,-329.18"/>
</g>
<!-- VLSM_Lib_StdppListSet_set_remove_1 -->
<g id="node17" class="node">
<title>VLSM_Lib_StdppListSet_set_remove_1</title>
<g id="a_node17"><a xlink:href="VLSM.Lib.StdppListSet.html#set_remove_1" xlink:title="set_remove_1" target="_top">
<ellipse fill="#7fffd4" stroke="black" cx="370" cy="-301.08" rx="60.39" ry="18"/>
<text text-anchor="middle" x="370" y="-297.38" font-family="Times,serif" font-size="14.00">set_remove_1</text>
</a>
</g>
</g>
<!-- VLSM_Lib_StdppListSet_set_remove_iff&#45;&gt;VLSM_Lib_StdppListSet_set_remove_1 -->
<g id="edge30" class="edge">
<title>VLSM_Lib_StdppListSet_set_remove_iff&#45;&gt;VLSM_Lib_StdppListSet_set_remove_1</title>
<path fill="none" stroke="black" d="M258.13,-365.66C279.85,-353.31 310.49,-335.9 334.22,-322.41"/>
<polygon fill="black" stroke="black" points="335.97,-325.44 342.94,-317.46 332.51,-319.36 335.97,-325.44"/>
</g>
<!-- VLSM_Lib_StdppListSet_set_remove -->
<g id="node27" class="node">
<title>VLSM_Lib_StdppListSet_set_remove</title>
<g id="a_node27"><a xlink:href="VLSM.Lib.StdppListSet.html#set_remove" xlink:title="set_remove" target="_top">
<ellipse fill="#f070d1" stroke="black" cx="237" cy="-220.08" rx="51.99" ry="18"/>
<text text-anchor="middle" x="237" y="-216.38" font-family="Times,serif" font-size="14.00">set_remove</text>
</a>
</g>
</g>
<!-- VLSM_Lib_StdppListSet_set_remove_3&#45;&gt;VLSM_Lib_StdppListSet_set_remove -->
<g id="edge31" class="edge">
<title>VLSM_Lib_StdppListSet_set_remove_3&#45;&gt;VLSM_Lib_StdppListSet_set_remove</title>
<path fill="none" stroke="black" d="M119.61,-285.03C142.74,-272.43 175.91,-254.36 201.1,-240.64"/>
<polygon fill="black" stroke="black" points="202.87,-243.66 209.98,-235.8 199.52,-237.51 202.87,-243.66"/>
</g>
<!-- VLSM_Lib_StdppListSet_set_remove_2&#45;&gt;VLSM_Lib_StdppListSet_set_remove -->
<g id="edge32" class="edge">
<title>VLSM_Lib_StdppListSet_set_remove_2&#45;&gt;VLSM_Lib_StdppListSet_set_remove</title>
<path fill="none" stroke="black" d="M232.3,-282.93C233.07,-272.79 234.07,-259.71 234.94,-248.19"/>
<polygon fill="black" stroke="black" points="238.43,-248.42 235.7,-238.18 231.45,-247.89 238.43,-248.42"/>
</g>
<!-- VLSM_Lib_StdppListSet_set_remove_1&#45;&gt;VLSM_Lib_StdppListSet_set_remove -->
<g id="edge33" class="edge">
<title>VLSM_Lib_StdppListSet_set_remove_1&#45;&gt;VLSM_Lib_StdppListSet_set_remove</title>
<path fill="none" stroke="black" d="M344.04,-284.66C323.08,-272.21 293.44,-254.6 270.67,-241.07"/>
<polygon fill="black" stroke="black" points="272.38,-238.02 261.99,-235.92 268.8,-244.04 272.38,-238.02"/>
</g>
<!-- VLSM_Lib_StdppListSet_set_add_iff -->
<g id="node19" class="node">
<title>VLSM_Lib_StdppListSet_set_add_iff</title>
<g id="a_node19"><a xlink:href="VLSM.Lib.StdppListSet.html#set_add_iff" xlink:title="set_add_iff" target="_top">
<ellipse fill="#7fffd4" stroke="black" cx="928" cy="-382.08" rx="50.09" ry="18"/>
<text text-anchor="middle" x="928" y="-378.38" font-family="Times,serif" font-size="14.00">set_add_iff</text>
</a>
</g>
</g>
<!-- VLSM_Lib_StdppListSet_set_add_nodup&#45;&gt;VLSM_Lib_StdppListSet_set_add_iff -->
<g id="edge34" class="edge">
<title>VLSM_Lib_StdppListSet_set_add_nodup&#45;&gt;VLSM_Lib_StdppListSet_set_add_iff</title>
<path fill="none" stroke="black" d="M928,-451.67C928,-439.82 928,-423.89 928,-410.37"/>
<polygon fill="black" stroke="black" points="931.5,-410.16 928,-400.16 924.5,-410.16 931.5,-410.16"/>
</g>
<!-- VLSM_Lib_StdppListSet_set_add_iff&#45;&gt;VLSM_Lib_StdppListSet_set_add_elim -->
<g id="edge35" class="edge">
<title>VLSM_Lib_StdppListSet_set_add_iff&#45;&gt;VLSM_Lib_StdppListSet_set_add_elim</title>
<path fill="none" stroke="black" d="M920.15,-364.15C907.87,-337.87 884.92,-289.59 879,-283.08 862.75,-265.19 840.19,-250.53 820.7,-239.96"/>
<polygon fill="black" stroke="black" points="822.2,-236.79 811.72,-235.25 818.95,-242.99 822.2,-236.79"/>
</g>
<!-- VLSM_Lib_StdppListSet_set_add_intro -->
<g id="node22" class="node">
<title>VLSM_Lib_StdppListSet_set_add_intro</title>
<g id="a_node22"><a xlink:href="VLSM.Lib.StdppListSet.html#set_add_intro" xlink:title="set_add_intro" target="_top">
<ellipse fill="#7fffd4" stroke="black" cx="966" cy="-301.08" rx="58.49" ry="18"/>
<text text-anchor="middle" x="966" y="-297.38" font-family="Times,serif" font-size="14.00">set_add_intro</text>
</a>
</g>
</g>
<!-- VLSM_Lib_StdppListSet_set_add_iff&#45;&gt;VLSM_Lib_StdppListSet_set_add_intro -->
<g id="edge36" class="edge">
<title>VLSM_Lib_StdppListSet_set_add_iff&#45;&gt;VLSM_Lib_StdppListSet_set_add_intro</title>
<path fill="none" stroke="black" d="M936.25,-363.93C941.26,-353.51 947.76,-339.99 953.41,-328.25"/>
<polygon fill="black" stroke="black" points="956.72,-329.44 957.9,-318.91 950.41,-326.41 956.72,-329.44"/>
</g>
<!-- VLSM_Lib_StdppListSet_set_add_not_empty -->
<g id="node20" class="node">
<title>VLSM_Lib_StdppListSet_set_add_not_empty</title>
<g id="a_node20"><a xlink:href="VLSM.Lib.StdppListSet.html#set_add_not_empty" xlink:title="set_add_not_empty" target="_top">
<ellipse fill="#7fffd4" stroke="black" cx="408" cy="-220.08" rx="79.89" ry="18"/>
<ellipse fill="none" stroke="black" cx="408" cy="-220.08" rx="83.89" ry="22"/>
<ellipse fill="none" stroke="black" cx="408" cy="-220.08" rx="87.89" ry="26"/>
<text text-anchor="middle" x="408" y="-216.38" font-family="Times,serif" font-size="14.00">set_add_not_empty</text>
</a>
</g>
</g>
<!-- VLSM_Lib_StdppListSet_set_add_not_empty&#45;&gt;VLSM_Lib_StdppListSet_set_add -->
<g id="edge37" class="edge">
<title>VLSM_Lib_StdppListSet_set_add_not_empty&#45;&gt;VLSM_Lib_StdppListSet_set_add</title>
<path fill="none" stroke="black" d="M471.2,-201.9C482.42,-199.11 494.02,-196.38 505,-194.08 605.48,-173.02 635.71,-189.84 733,-157.08 738.26,-155.31 743.63,-152.99 748.78,-150.49"/>
<polygon fill="black" stroke="black" points="750.46,-153.56 757.72,-145.85 747.24,-147.34 750.46,-153.56"/>
</g>
<!-- VLSM_Lib_StdppListSet_set_add_not_empty&#45;&gt;VLSM_Lib_StdppListSet_empty_set -->
<g id="edge38" class="edge">
<title>VLSM_Lib_StdppListSet_set_add_not_empty&#45;&gt;VLSM_Lib_StdppListSet_empty_set</title>
<path fill="none" stroke="black" d="M410.02,-193.91C410.9,-183.04 411.93,-170.29 412.82,-159.2"/>
<polygon fill="black" stroke="black" points="416.31,-159.44 413.62,-149.19 409.33,-158.88 416.31,-159.44"/>
</g>
<!-- VLSM_Lib_StdppListSet_set_add_elim&#45;&gt;VLSM_Lib_StdppListSet_set_add -->
<g id="edge39" class="edge">
<title>VLSM_Lib_StdppListSet_set_add_elim&#45;&gt;VLSM_Lib_StdppListSet_set_add</title>
<path fill="none" stroke="black" d="M780,-201.89C780,-189.73 780,-173.19 780,-159.26"/>
<polygon fill="black" stroke="black" points="783.5,-159.23 780,-149.23 776.5,-159.23 783.5,-159.23"/>
</g>
<!-- VLSM_Lib_StdppListSet_set_add_intro&#45;&gt;VLSM_Lib_StdppListSet_set_add_intro2 -->
<g id="edge40" class="edge">
<title>VLSM_Lib_StdppListSet_set_add_intro&#45;&gt;VLSM_Lib_StdppListSet_set_add_intro2</title>
<path fill="none" stroke="black" d="M985.63,-284.09C999.87,-272.49 1019.32,-256.65 1035.16,-243.75"/>
<polygon fill="black" stroke="black" points="1037.52,-246.34 1043.07,-237.31 1033.1,-240.91 1037.52,-246.34"/>
</g>
<!-- VLSM_Lib_StdppListSet_set_add_intro&#45;&gt;VLSM_Lib_StdppListSet_set_add_intro1 -->
<g id="edge41" class="edge">
<title>VLSM_Lib_StdppListSet_set_add_intro&#45;&gt;VLSM_Lib_StdppListSet_set_add_intro1</title>
<path fill="none" stroke="black" d="M956.03,-283.32C949.72,-272.71 941.43,-258.78 934.29,-246.78"/>
<polygon fill="black" stroke="black" points="937.24,-244.88 929.12,-238.08 931.22,-248.46 937.24,-244.88"/>
</g>
<!-- VLSM_Lib_StdppListSet_set_add_intro2&#45;&gt;VLSM_Lib_StdppListSet_set_add -->
<g id="edge42" class="edge">
<title>VLSM_Lib_StdppListSet_set_add_intro2&#45;&gt;VLSM_Lib_StdppListSet_set_add</title>
<path fill="none" stroke="black" d="M1025.37,-205.63C1014.33,-201.79 1002.22,-197.67 991,-194.08 932.6,-175.37 864.42,-155.73 821.72,-143.69"/>
<polygon fill="black" stroke="black" points="822.54,-140.28 811.96,-140.95 820.64,-147.02 822.54,-140.28"/>
</g>
<!-- VLSM_Lib_StdppListSet_set_add_intro1&#45;&gt;VLSM_Lib_StdppListSet_set_add -->
<g id="edge43" class="edge">
<title>VLSM_Lib_StdppListSet_set_add_intro1&#45;&gt;VLSM_Lib_StdppListSet_set_add</title>
<path fill="none" stroke="black" d="M894.15,-203.52C870.78,-188.9 835.74,-166.96 810.64,-151.26"/>
<polygon fill="black" stroke="black" points="812.22,-148.12 801.89,-145.78 808.51,-154.05 812.22,-148.12"/>
</g>
<!-- VLSM_Lib_StdppListSet_set_diff&#45;&gt;VLSM_Lib_StdppListSet_set_add -->
<g id="edge44" class="edge">
<title>VLSM_Lib_StdppListSet_set_diff&#45;&gt;VLSM_Lib_StdppListSet_set_add</title>
<path fill="none" stroke="black" d="M685.08,-204.51C703.58,-190.4 731.82,-168.85 752.69,-152.92"/>
<polygon fill="black" stroke="black" points="755.03,-155.53 760.86,-146.69 750.78,-149.97 755.03,-155.53"/>
</g>
<!-- VLSM_Lib_StdppListSet_set_union&#45;&gt;VLSM_Lib_StdppListSet_set_add -->
<g id="edge45" class="edge">
<title>VLSM_Lib_StdppListSet_set_union&#45;&gt;VLSM_Lib_StdppListSet_set_add</title>
<path fill="none" stroke="black" d="M1191.19,-208.68C1174.32,-203.85 1153.71,-198.27 1135,-194.08 1024.81,-169.38 893.54,-148.69 825.68,-138.63"/>
<polygon fill="black" stroke="black" points="826.15,-135.16 815.75,-137.17 825.13,-142.09 826.15,-135.16"/>
</g>
<!-- VLSM_Lib_StdppListSet_set_remove&#45;&gt;VLSM_Lib_StdppListSet_empty_set -->
<g id="edge46" class="edge">
<title>VLSM_Lib_StdppListSet_set_remove&#45;&gt;VLSM_Lib_StdppListSet_empty_set</title>
<path fill="none" stroke="black" d="M265.99,-204.9C296.48,-190 344.55,-166.51 377.81,-150.26"/>
<polygon fill="black" stroke="black" points="379.74,-153.2 387.19,-145.67 376.67,-146.92 379.74,-153.2"/>
</g>
<!-- VLSM_Lib_StdppListSet_set_add&#45;&gt;VLSM_Lib_StdppListSet_set -->
<g id="edge47" class="edge">
<title>VLSM_Lib_StdppListSet_set_add&#45;&gt;VLSM_Lib_StdppListSet_set</title>
<path fill="none" stroke="black" d="M756.26,-117.02C748.87,-113.07 740.65,-108.8 733,-105.08 702.66,-90.32 667.35,-74.87 642.55,-64.3"/>
<polygon fill="black" stroke="black" points="643.83,-61.04 633.26,-60.36 641.1,-67.49 643.83,-61.04"/>
</g>
<!-- VLSM_Lib_StdppListSet_empty_set&#45;&gt;VLSM_Lib_StdppListSet_set -->
<g id="edge48" class="edge">
<title>VLSM_Lib_StdppListSet_empty_set&#45;&gt;VLSM_Lib_StdppListSet_set</title>
<path fill="none" stroke="black" d="M446.49,-117.38C482.79,-102.75 542.15,-78.83 578.76,-64.07"/>
<polygon fill="black" stroke="black" points="580.48,-67.15 588.45,-60.17 577.86,-60.66 580.48,-67.15"/>
</g>
</g>
</svg>
