<?xml version="1.0" encoding="UTF-8" standalone="no"?>
<!DOCTYPE svg PUBLIC "-//W3C//DTD SVG 1.1//EN"
 "http://www.w3.org/Graphics/SVG/1.1/DTD/svg11.dtd">
<!-- Generated by graphviz version 2.43.0 (0)
 -->
<!-- Title: rvdpdgraph Pages: 1 -->
<svg width="986pt" height="497pt"
 viewBox="0.00 0.00 986.00 497.00" xmlns="http://www.w3.org/2000/svg" xmlns:xlink="http://www.w3.org/1999/xlink">
<g id="graph0" class="graph" transform="scale(1 1) rotate(0) translate(4 493)">
<title>rvdpdgraph</title>
<polygon fill="white" stroke="transparent" points="-4,4 -4,-493 982,-493 982,4 -4,4"/>
<g id="clust1" class="cluster">
<title>cluster_VLSM</title>
<polygon fill="#ffffc3" stroke="black" points="9.98,-8 9.98,-481 968.02,-481 968.02,-8 9.98,-8"/>
<text text-anchor="middle" x="37.48" y="-465.8" font-family="Times,serif" font-size="14.00">VLSM</text>
</g>
<g id="clust2" class="cluster">
<title>cluster_VLSM_Lib</title>
<polygon fill="#ffffa3" stroke="black" points="19.96,-16 19.96,-450 958.04,-450 958.04,-16 19.96,-16"/>
<text text-anchor="middle" x="37.46" y="-434.8" font-family="Times,serif" font-size="14.00">Lib</text>
</g>
<g id="clust3" class="cluster">
<title>cluster_VLSM_Lib_Traces</title>
<polygon fill="#ffff83" stroke="black" points="29.94,-24 29.94,-419 948.06,-419 948.06,-24 29.94,-24"/>
<text text-anchor="middle" x="56.44" y="-403.8" font-family="Times,serif" font-size="14.00">Traces</text>
</g>
<!-- VLSM_Lib_Traces_trace_append_bism -->
<g id="node1" class="node">
<title>VLSM_Lib_Traces_trace_append_bism</title>
<g id="a_node1"><a xlink:href="VLSM.Lib.Traces.html#trace_append_bism" xlink:title="trace_append_bism" target="_top">
<ellipse fill="#7fffd4" stroke="black" cx="519.82" cy="-362" rx="79.11" ry="18"/>
<ellipse fill="none" stroke="black" cx="519.82" cy="-362" rx="83.1" ry="22"/>
<ellipse fill="none" stroke="black" cx="519.82" cy="-362" rx="87.09" ry="26"/>
<text text-anchor="middle" x="519.82" y="-358.3" font-family="Times,serif" font-size="14.00">trace_append_bism</text>
</a>
</g>
</g>
<!-- VLSM_Lib_Traces_trace_append_cons -->
<g id="node2" class="node">
<title>VLSM_Lib_Traces_trace_append_cons</title>
<g id="a_node2"><a xlink:href="VLSM.Lib.Traces.html#trace_append_cons" xlink:title="trace_append_cons" target="_top">
<ellipse fill="#7fffd4" stroke="black" cx="640.82" cy="-282" rx="77.99" ry="18"/>
<text text-anchor="middle" x="640.82" y="-278.3" font-family="Times,serif" font-size="14.00">trace_append_cons</text>
</a>
</g>
</g>
<!-- VLSM_Lib_Traces_trace_append_bism&#45;&gt;VLSM_Lib_Traces_trace_append_cons -->
<g id="edge1" class="edge">
<title>VLSM_Lib_Traces_trace_append_bism&#45;&gt;VLSM_Lib_Traces_trace_append_cons</title>
<path fill="none" stroke="black" d="M555.47,-338.02C571.82,-327.48 591.1,-315.05 607.2,-304.67"/>
<polygon fill="black" stroke="black" points="609.26,-307.5 615.77,-299.14 605.47,-301.62 609.26,-307.5"/>
</g>
<!-- VLSM_Lib_Traces_trace_append_nil -->
<g id="node3" class="node">
<title>VLSM_Lib_Traces_trace_append_nil</title>
<g id="a_node3"><a xlink:href="VLSM.Lib.Traces.html#trace_append_nil" xlink:title="trace_append_nil" target="_top">
<ellipse fill="#7fffd4" stroke="black" cx="849.82" cy="-282" rx="71.49" ry="18"/>
<text text-anchor="middle" x="849.82" y="-278.3" font-family="Times,serif" font-size="14.00">trace_append_nil</text>
</a>
</g>
</g>
<!-- VLSM_Lib_Traces_trace_append_bism&#45;&gt;VLSM_Lib_Traces_trace_append_nil -->
<g id="edge2" class="edge">
<title>VLSM_Lib_Traces_trace_append_bism&#45;&gt;VLSM_Lib_Traces_trace_append_nil</title>
<path fill="none" stroke="black" d="M586.6,-345.22C646.03,-331.17 732.18,-310.8 789.55,-297.24"/>
<polygon fill="black" stroke="black" points="790.63,-300.59 799.56,-294.88 789.02,-293.77 790.63,-300.59"/>
</g>
<!-- VLSM_Lib_Traces_bisim_cons -->
<g id="node9" class="node">
<title>VLSM_Lib_Traces_bisim_cons</title>
<g id="a_node9"><a xlink:href="VLSM.Lib.Traces.html#bisim_cons" xlink:title="bisim_cons" target="_top">
<ellipse fill="#7faaff" stroke="black" cx="181.82" cy="-122" rx="51.19" ry="18"/>
<text text-anchor="middle" x="181.82" y="-118.3" font-family="Times,serif" font-size="14.00">bisim_cons</text>
</a>
</g>
</g>
<!-- VLSM_Lib_Traces_trace_append_bism&#45;&gt;VLSM_Lib_Traces_bisim_cons -->
<g id="edge3" class="edge">
<title>VLSM_Lib_Traces_trace_append_bism&#45;&gt;VLSM_Lib_Traces_bisim_cons</title>
<path fill="none" stroke="black" d="M442.47,-349.65C325.71,-330.73 113.39,-288.73 69.82,-228 56.34,-209.22 57.45,-195.53 69.82,-176 82.9,-155.34 106.45,-142.58 128.59,-134.77"/>
<polygon fill="black" stroke="black" points="129.85,-138.04 138.28,-131.62 127.69,-131.38 129.85,-138.04"/>
</g>
<!-- VLSM_Lib_Traces_bisim_nil -->
<g id="node10" class="node">
<title>VLSM_Lib_Traces_bisim_nil</title>
<g id="a_node10"><a xlink:href="VLSM.Lib.Traces.html#bisim_nil" xlink:title="bisim_nil" target="_top">
<ellipse fill="#7faaff" stroke="black" cx="324.82" cy="-122" rx="44.39" ry="18"/>
<text text-anchor="middle" x="324.82" y="-118.3" font-family="Times,serif" font-size="14.00">bisim_nil</text>
</a>
</g>
</g>
<!-- VLSM_Lib_Traces_trace_append_bism&#45;&gt;VLSM_Lib_Traces_bisim_nil -->
<g id="edge4" class="edge">
<title>VLSM_Lib_Traces_trace_append_bism&#45;&gt;VLSM_Lib_Traces_bisim_nil</title>
<path fill="none" stroke="black" d="M448.18,-346.94C385.02,-330.34 296.71,-295.9 254.82,-228 242.68,-208.33 244.53,-196.69 254.82,-176 261.93,-161.69 274.95,-150.22 287.85,-141.65"/>
<polygon fill="black" stroke="black" points="290.02,-144.42 296.69,-136.19 286.34,-138.47 290.02,-144.42"/>
</g>
<!-- VLSM_Lib_Traces_bisim -->
<g id="node11" class="node">
<title>VLSM_Lib_Traces_bisim</title>
<g id="a_node11"><a xlink:href="VLSM.Lib.Traces.html#bisim" xlink:title="bisim" target="_top">
<ellipse fill="#e2cdfa" stroke="black" cx="440.82" cy="-122" rx="30.59" ry="18"/>
<text text-anchor="middle" x="440.82" y="-118.3" font-family="Times,serif" font-size="14.00">bisim</text>
</a>
</g>
</g>
<!-- VLSM_Lib_Traces_trace_append_bism&#45;&gt;VLSM_Lib_Traces_bisim -->
<g id="edge5" class="edge">
<title>VLSM_Lib_Traces_trace_append_bism&#45;&gt;VLSM_Lib_Traces_bisim</title>
<path fill="none" stroke="black" d="M521.93,-335.77C525.15,-313.65 533.28,-282.26 553.82,-264 608.61,-215.28 668.97,-285.22 714.82,-228 729.27,-209.96 729.68,-193.7 714.82,-176 685.07,-140.58 555.07,-149.54 509.82,-140 499.49,-137.82 488.37,-135.21 478.13,-132.68"/>
<polygon fill="black" stroke="black" points="478.8,-129.24 468.25,-130.21 477.1,-136.03 478.8,-129.24"/>
</g>
<!-- VLSM_Lib_Traces_trace_append -->
<g id="node4" class="node">
<title>VLSM_Lib_Traces_trace_append</title>
<g id="a_node4"><a xlink:href="VLSM.Lib.Traces.html#trace_append" xlink:title="trace_append" target="_top">
<ellipse fill="#f070d1" stroke="black" cx="865.82" cy="-122" rx="57.69" ry="18"/>
<text text-anchor="middle" x="865.82" y="-118.3" font-family="Times,serif" font-size="14.00">trace_append</text>
</a>
</g>
</g>
<!-- VLSM_Lib_Traces_trace_append_cons&#45;&gt;VLSM_Lib_Traces_trace_append -->
<g id="edge6" class="edge">
<title>VLSM_Lib_Traces_trace_append_cons&#45;&gt;VLSM_Lib_Traces_trace_append</title>
<path fill="none" stroke="black" d="M704.05,-271.44C772.48,-260.46 873.42,-242.13 884.82,-228 902.8,-205.69 892.11,-172 880.84,-148.84"/>
<polygon fill="black" stroke="black" points="883.93,-147.19 876.22,-139.92 877.71,-150.41 883.93,-147.19"/>
</g>
<!-- VLSM_Lib_Traces_trace_destr -->
<g id="node12" class="node">
<title>VLSM_Lib_Traces_trace_destr</title>
<g id="a_node12"><a xlink:href="VLSM.Lib.Traces.html#trace_destr" xlink:title="trace_destr" target="_top">
<ellipse fill="#7fffd4" stroke="black" cx="826.82" cy="-202" rx="49.29" ry="18"/>
<text text-anchor="middle" x="826.82" y="-198.3" font-family="Times,serif" font-size="14.00">trace_destr</text>
</a>
</g>
</g>
<!-- VLSM_Lib_Traces_trace_append_cons&#45;&gt;VLSM_Lib_Traces_trace_destr -->
<g id="edge7" class="edge">
<title>VLSM_Lib_Traces_trace_append_cons&#45;&gt;VLSM_Lib_Traces_trace_destr</title>
<path fill="none" stroke="black" d="M676.68,-265.96C708.1,-252.79 753.72,-233.65 786.42,-219.94"/>
<polygon fill="black" stroke="black" points="787.83,-223.14 795.7,-216.05 785.12,-216.69 787.83,-223.14"/>
</g>
<!-- VLSM_Lib_Traces_trace_append_nil&#45;&gt;VLSM_Lib_Traces_trace_append -->
<g id="edge8" class="edge">
<title>VLSM_Lib_Traces_trace_append_nil&#45;&gt;VLSM_Lib_Traces_trace_append</title>
<path fill="none" stroke="black" d="M879.89,-265.58C893.86,-256.67 909.06,-244.02 916.82,-228 926.88,-207.2 925.45,-197.44 916.82,-176 912.2,-164.55 903.8,-154.19 895.13,-145.73"/>
<polygon fill="black" stroke="black" points="897.27,-142.95 887.53,-138.8 892.56,-148.12 897.27,-142.95"/>
</g>
<!-- VLSM_Lib_Traces_trace_append_nil&#45;&gt;VLSM_Lib_Traces_trace_destr -->
<g id="edge9" class="edge">
<title>VLSM_Lib_Traces_trace_append_nil&#45;&gt;VLSM_Lib_Traces_trace_destr</title>
<path fill="none" stroke="black" d="M844.71,-263.69C841.77,-253.72 838.02,-240.99 834.71,-229.76"/>
<polygon fill="black" stroke="black" points="838.01,-228.6 831.83,-219.99 831.3,-230.58 838.01,-228.6"/>
</g>
<!-- VLSM_Lib_Traces_Tcons -->
<g id="node15" class="node">
<title>VLSM_Lib_Traces_Tcons</title>
<g id="a_node15"><a xlink:href="VLSM.Lib.Traces.html#Tcons" xlink:title="Tcons" target="_top">
<ellipse fill="#7faaff" stroke="black" cx="440.82" cy="-50" rx="32.49" ry="18"/>
<text text-anchor="middle" x="440.82" y="-46.3" font-family="Times,serif" font-size="14.00">Tcons</text>
</a>
</g>
</g>
<!-- VLSM_Lib_Traces_trace_append&#45;&gt;VLSM_Lib_Traces_Tcons -->
<g id="edge10" class="edge">
<title>VLSM_Lib_Traces_trace_append&#45;&gt;VLSM_Lib_Traces_Tcons</title>
<path fill="none" stroke="black" d="M817.6,-111.85C803.21,-109.21 787.39,-106.4 772.82,-104 663.78,-86.06 635.72,-86.72 526.82,-68 511.73,-65.41 495.22,-62.23 480.74,-59.32"/>
<polygon fill="black" stroke="black" points="481.09,-55.82 470.6,-57.27 479.7,-62.68 481.09,-55.82"/>
</g>
<!-- VLSM_Lib_Traces_trace -->
<g id="node17" class="node">
<title>VLSM_Lib_Traces_trace</title>
<g id="a_node17"><a xlink:href="VLSM.Lib.Traces.html#trace" xlink:title="trace" target="_top">
<ellipse fill="#e2cdfa" stroke="black" cx="563.82" cy="-50" rx="27.9" ry="18"/>
<text text-anchor="middle" x="563.82" y="-46.3" font-family="Times,serif" font-size="14.00">trace</text>
</a>
</g>
</g>
<!-- VLSM_Lib_Traces_trace_append&#45;&gt;VLSM_Lib_Traces_trace -->
<g id="edge11" class="edge">
<title>VLSM_Lib_Traces_trace_append&#45;&gt;VLSM_Lib_Traces_trace</title>
<path fill="none" stroke="black" d="M820.93,-110.6C760.73,-96.64 655.02,-72.14 599.77,-59.33"/>
<polygon fill="black" stroke="black" points="600.27,-55.86 589.74,-57.01 598.69,-62.68 600.27,-55.86"/>
</g>
<!-- VLSM_Lib_Traces_bisim_hd -->
<g id="node5" class="node">
<title>VLSM_Lib_Traces_bisim_hd</title>
<g id="a_node5"><a xlink:href="VLSM.Lib.Traces.html#bisim_hd" xlink:title="bisim_hd" target="_top">
<ellipse fill="#7fffd4" stroke="black" cx="653.82" cy="-202" rx="44.36" ry="18"/>
<ellipse fill="none" stroke="black" cx="653.82" cy="-202" rx="48.38" ry="22"/>
<ellipse fill="none" stroke="black" cx="653.82" cy="-202" rx="52.39" ry="26"/>
<text text-anchor="middle" x="653.82" y="-198.3" font-family="Times,serif" font-size="14.00">bisim_hd</text>
</a>
</g>
</g>
<!-- VLSM_Lib_Traces_bisim_hd&#45;&gt;VLSM_Lib_Traces_bisim_cons -->
<g id="edge12" class="edge">
<title>VLSM_Lib_Traces_bisim_hd&#45;&gt;VLSM_Lib_Traces_bisim_cons</title>
<path fill="none" stroke="black" d="M609.64,-187.78C594.29,-183.55 576.9,-179.15 560.82,-176 433.79,-151.14 399.7,-160.02 271.82,-140 259.91,-138.14 247.17,-135.89 235.13,-133.64"/>
<polygon fill="black" stroke="black" points="235.69,-130.19 225.21,-131.77 234.38,-137.06 235.69,-130.19"/>
</g>
<!-- VLSM_Lib_Traces_bisim_hd&#45;&gt;VLSM_Lib_Traces_bisim_nil -->
<g id="edge13" class="edge">
<title>VLSM_Lib_Traces_bisim_hd&#45;&gt;VLSM_Lib_Traces_bisim_nil</title>
<path fill="none" stroke="black" d="M608.98,-188.54C593.73,-184.41 576.56,-179.88 560.82,-176 556.21,-174.86 440.19,-148.85 372.57,-133.7"/>
<polygon fill="black" stroke="black" points="373.09,-130.23 362.56,-131.46 371.56,-137.06 373.09,-130.23"/>
</g>
<!-- VLSM_Lib_Traces_bisim_hd&#45;&gt;VLSM_Lib_Traces_bisim -->
<g id="edge14" class="edge">
<title>VLSM_Lib_Traces_bisim_hd&#45;&gt;VLSM_Lib_Traces_bisim</title>
<path fill="none" stroke="black" d="M612.5,-185.87C572.63,-171.27 512.96,-149.42 475.49,-135.7"/>
<polygon fill="black" stroke="black" points="476.6,-132.38 466.01,-132.23 474.2,-138.95 476.6,-132.38"/>
</g>
<!-- VLSM_Lib_Traces_hd -->
<g id="node14" class="node">
<title>VLSM_Lib_Traces_hd</title>
<g id="a_node14"><a xlink:href="VLSM.Lib.Traces.html#hd" xlink:title="hd" target="_top">
<ellipse fill="#f070d1" stroke="black" cx="736.82" cy="-122" rx="27" ry="18"/>
<text text-anchor="middle" x="736.82" y="-118.3" font-family="Times,serif" font-size="14.00">hd</text>
</a>
</g>
</g>
<!-- VLSM_Lib_Traces_bisim_hd&#45;&gt;VLSM_Lib_Traces_hd -->
<g id="edge15" class="edge">
<title>VLSM_Lib_Traces_bisim_hd&#45;&gt;VLSM_Lib_Traces_hd</title>
<path fill="none" stroke="black" d="M677.82,-178.44C689.34,-167.62 703.05,-154.73 714.36,-144.11"/>
<polygon fill="black" stroke="black" points="716.85,-146.56 721.74,-137.16 712.06,-141.46 716.85,-146.56"/>
</g>
<!-- VLSM_Lib_Traces_bisim_trans -->
<g id="node6" class="node">
<title>VLSM_Lib_Traces_bisim_trans</title>
<g id="a_node6"><a xlink:href="VLSM.Lib.Traces.html#bisim_trans" xlink:title="bisim_trans" target="_top">
<ellipse fill="#7fffd4" stroke="black" cx="491.82" cy="-202" rx="51.99" ry="18"/>
<ellipse fill="none" stroke="black" cx="491.82" cy="-202" rx="55.99" ry="22"/>
<ellipse fill="none" stroke="black" cx="491.82" cy="-202" rx="59.99" ry="26"/>
<text text-anchor="middle" x="491.82" y="-198.3" font-family="Times,serif" font-size="14.00">bisim_trans</text>
</a>
</g>
</g>
<!-- VLSM_Lib_Traces_bisim_trans&#45;&gt;VLSM_Lib_Traces_bisim_cons -->
<g id="edge16" class="edge">
<title>VLSM_Lib_Traces_bisim_trans&#45;&gt;VLSM_Lib_Traces_bisim_cons</title>
<path fill="none" stroke="black" d="M440.63,-188.12C382.87,-173.59 289.53,-150.1 232.14,-135.66"/>
<polygon fill="black" stroke="black" points="232.76,-132.21 222.2,-133.16 231.05,-139 232.76,-132.21"/>
</g>
<!-- VLSM_Lib_Traces_bisim_trans&#45;&gt;VLSM_Lib_Traces_bisim_nil -->
<g id="edge17" class="edge">
<title>VLSM_Lib_Traces_bisim_trans&#45;&gt;VLSM_Lib_Traces_bisim_nil</title>
<path fill="none" stroke="black" d="M451.82,-182.32C424.57,-169.59 388.76,-152.86 362.11,-140.42"/>
<polygon fill="black" stroke="black" points="363.28,-137.1 352.74,-136.04 360.32,-143.44 363.28,-137.1"/>
</g>
<!-- VLSM_Lib_Traces_bisim_trans&#45;&gt;VLSM_Lib_Traces_bisim -->
<g id="edge18" class="edge">
<title>VLSM_Lib_Traces_bisim_trans&#45;&gt;VLSM_Lib_Traces_bisim</title>
<path fill="none" stroke="black" d="M475.96,-176.75C469.93,-167.53 463.06,-157.02 457,-147.76"/>
<polygon fill="black" stroke="black" points="459.9,-145.79 451.5,-139.34 454.04,-149.62 459.9,-145.79"/>
</g>
<!-- VLSM_Lib_Traces_bisim_sym -->
<g id="node7" class="node">
<title>VLSM_Lib_Traces_bisim_sym</title>
<g id="a_node7"><a xlink:href="VLSM.Lib.Traces.html#bisim_sym" xlink:title="bisim_sym" target="_top">
<ellipse fill="#7fffd4" stroke="black" cx="321.82" cy="-202" rx="50.08" ry="18"/>
<ellipse fill="none" stroke="black" cx="321.82" cy="-202" rx="54.09" ry="22"/>
<ellipse fill="none" stroke="black" cx="321.82" cy="-202" rx="58.09" ry="26"/>
<text text-anchor="middle" x="321.82" y="-198.3" font-family="Times,serif" font-size="14.00">bisim_sym</text>
</a>
</g>
</g>
<!-- VLSM_Lib_Traces_bisim_sym&#45;&gt;VLSM_Lib_Traces_bisim_cons -->
<g id="edge19" class="edge">
<title>VLSM_Lib_Traces_bisim_sym&#45;&gt;VLSM_Lib_Traces_bisim_cons</title>
<path fill="none" stroke="black" d="M286.49,-181.32C265.32,-169.52 238.49,-154.58 217.3,-142.77"/>
<polygon fill="black" stroke="black" points="218.73,-139.56 208.29,-137.75 215.33,-145.68 218.73,-139.56"/>
</g>
<!-- VLSM_Lib_Traces_bisim_sym&#45;&gt;VLSM_Lib_Traces_bisim_nil -->
<g id="edge20" class="edge">
<title>VLSM_Lib_Traces_bisim_sym&#45;&gt;VLSM_Lib_Traces_bisim_nil</title>
<path fill="none" stroke="black" d="M322.78,-175.89C323.09,-167.84 323.44,-158.88 323.75,-150.66"/>
<polygon fill="black" stroke="black" points="327.26,-150.54 324.15,-140.41 320.26,-150.27 327.26,-150.54"/>
</g>
<!-- VLSM_Lib_Traces_bisim_sym&#45;&gt;VLSM_Lib_Traces_bisim -->
<g id="edge21" class="edge">
<title>VLSM_Lib_Traces_bisim_sym&#45;&gt;VLSM_Lib_Traces_bisim</title>
<path fill="none" stroke="black" d="M353.71,-180.1C372,-168.11 394.76,-153.19 412.43,-141.6"/>
<polygon fill="black" stroke="black" points="414.71,-144.29 421.16,-135.89 410.88,-138.44 414.71,-144.29"/>
</g>
<!-- VLSM_Lib_Traces_bisim_refl -->
<g id="node8" class="node">
<title>VLSM_Lib_Traces_bisim_refl</title>
<g id="a_node8"><a xlink:href="VLSM.Lib.Traces.html#bisim_refl" xlink:title="bisim_refl" target="_top">
<ellipse fill="#7fffd4" stroke="black" cx="133.82" cy="-202" rx="47.4" ry="18"/>
<ellipse fill="none" stroke="black" cx="133.82" cy="-202" rx="51.4" ry="22"/>
<ellipse fill="none" stroke="black" cx="133.82" cy="-202" rx="55.39" ry="26"/>
<text text-anchor="middle" x="133.82" y="-198.3" font-family="Times,serif" font-size="14.00">bisim_refl</text>
</a>
</g>
</g>
<!-- VLSM_Lib_Traces_bisim_refl&#45;&gt;VLSM_Lib_Traces_bisim_cons -->
<g id="edge22" class="edge">
<title>VLSM_Lib_Traces_bisim_refl&#45;&gt;VLSM_Lib_Traces_bisim_cons</title>
<path fill="none" stroke="black" d="M148.74,-176.75C154.27,-167.76 160.56,-157.54 166.15,-148.45"/>
<polygon fill="black" stroke="black" points="169.21,-150.17 171.47,-139.82 163.24,-146.5 169.21,-150.17"/>
</g>
<!-- VLSM_Lib_Traces_bisim_refl&#45;&gt;VLSM_Lib_Traces_bisim_nil -->
<g id="edge23" class="edge">
<title>VLSM_Lib_Traces_bisim_refl&#45;&gt;VLSM_Lib_Traces_bisim_nil</title>
<path fill="none" stroke="black" d="M174.79,-184.27C207.47,-170.92 252.97,-152.34 285.27,-139.15"/>
<polygon fill="black" stroke="black" points="286.91,-142.26 294.84,-135.24 284.26,-135.78 286.91,-142.26"/>
</g>
<!-- VLSM_Lib_Traces_bisim_refl&#45;&gt;VLSM_Lib_Traces_bisim -->
<g id="edge24" class="edge">
<title>VLSM_Lib_Traces_bisim_refl&#45;&gt;VLSM_Lib_Traces_bisim</title>
<path fill="none" stroke="black" d="M182.49,-189.11C231.79,-177.01 310.2,-157.57 377.82,-140 386.25,-137.81 395.3,-135.4 403.84,-133.1"/>
<polygon fill="black" stroke="black" points="404.82,-136.46 413.56,-130.47 402.99,-129.71 404.82,-136.46"/>
</g>
<!-- VLSM_Lib_Traces_bisim_cons&#45;&gt;VLSM_Lib_Traces_Tcons -->
<g id="edge25" class="edge">
<title>VLSM_Lib_Traces_bisim_cons&#45;&gt;VLSM_Lib_Traces_Tcons</title>
<path fill="none" stroke="black" d="M221.15,-110.37C270.3,-97.09 353.84,-74.51 402.5,-61.35"/>
<polygon fill="black" stroke="black" points="403.59,-64.69 412.33,-58.7 401.77,-57.93 403.59,-64.69"/>
</g>
<!-- VLSM_Lib_Traces_Tnil -->
<g id="node16" class="node">
<title>VLSM_Lib_Traces_Tnil</title>
<g id="a_node16"><a xlink:href="VLSM.Lib.Traces.html#Tnil" xlink:title="Tnil" target="_top">
<ellipse fill="#7faaff" stroke="black" cx="333.82" cy="-50" rx="27" ry="18"/>
<text text-anchor="middle" x="333.82" y="-46.3" font-family="Times,serif" font-size="14.00">Tnil</text>
</a>
</g>
</g>
<!-- VLSM_Lib_Traces_bisim_cons&#45;&gt;VLSM_Lib_Traces_Tnil -->
<g id="edge26" class="edge">
<title>VLSM_Lib_Traces_bisim_cons&#45;&gt;VLSM_Lib_Traces_Tnil</title>
<path fill="none" stroke="black" d="M211.85,-107.17C238.2,-95.03 276.36,-77.46 302.96,-65.21"/>
<polygon fill="black" stroke="black" points="304.57,-68.32 312.19,-60.96 301.65,-61.96 304.57,-68.32"/>
</g>
<!-- VLSM_Lib_Traces_bisim_cons&#45;&gt;VLSM_Lib_Traces_trace -->
<g id="edge27" class="edge">
<title>VLSM_Lib_Traces_bisim_cons&#45;&gt;VLSM_Lib_Traces_trace</title>
<path fill="none" stroke="black" d="M225.73,-112.55C240.38,-109.77 256.79,-106.71 271.82,-104 365.01,-87.21 388.77,-85.61 481.82,-68 496.87,-65.15 513.44,-61.76 527.71,-58.77"/>
<polygon fill="black" stroke="black" points="528.58,-62.16 537.64,-56.67 527.13,-55.31 528.58,-62.16"/>
</g>
<!-- VLSM_Lib_Traces_bisim_nil&#45;&gt;VLSM_Lib_Traces_Tcons -->
<g id="edge28" class="edge">
<title>VLSM_Lib_Traces_bisim_nil&#45;&gt;VLSM_Lib_Traces_Tcons</title>
<path fill="none" stroke="black" d="M348.57,-106.67C366.54,-95.82 391.34,-80.86 410.7,-69.18"/>
<polygon fill="black" stroke="black" points="412.68,-72.06 419.44,-63.9 409.07,-66.07 412.68,-72.06"/>
</g>
<!-- VLSM_Lib_Traces_bisim_nil&#45;&gt;VLSM_Lib_Traces_Tnil -->
<g id="edge29" class="edge">
<title>VLSM_Lib_Traces_bisim_nil&#45;&gt;VLSM_Lib_Traces_Tnil</title>
<path fill="none" stroke="black" d="M327.04,-103.7C328.03,-95.98 329.22,-86.71 330.33,-78.11"/>
<polygon fill="black" stroke="black" points="333.81,-78.47 331.62,-68.1 326.87,-77.58 333.81,-78.47"/>
</g>
<!-- VLSM_Lib_Traces_bisim_nil&#45;&gt;VLSM_Lib_Traces_trace -->
<g id="edge30" class="edge">
<title>VLSM_Lib_Traces_bisim_nil&#45;&gt;VLSM_Lib_Traces_trace</title>
<path fill="none" stroke="black" d="M359.57,-110.82C404.95,-97.53 483.91,-74.4 529.21,-61.13"/>
<polygon fill="black" stroke="black" points="530.27,-64.47 538.88,-58.3 528.3,-57.75 530.27,-64.47"/>
</g>
<!-- VLSM_Lib_Traces_bisim&#45;&gt;VLSM_Lib_Traces_Tcons -->
<g id="edge31" class="edge">
<title>VLSM_Lib_Traces_bisim&#45;&gt;VLSM_Lib_Traces_Tcons</title>
<path fill="none" stroke="black" d="M440.82,-103.7C440.82,-95.98 440.82,-86.71 440.82,-78.11"/>
<polygon fill="black" stroke="black" points="444.32,-78.1 440.82,-68.1 437.32,-78.1 444.32,-78.1"/>
</g>
<!-- VLSM_Lib_Traces_bisim&#45;&gt;VLSM_Lib_Traces_Tnil -->
<g id="edge32" class="edge">
<title>VLSM_Lib_Traces_bisim&#45;&gt;VLSM_Lib_Traces_Tnil</title>
<path fill="none" stroke="black" d="M421.19,-108.16C404.32,-97.12 379.8,-81.08 361.03,-68.8"/>
<polygon fill="black" stroke="black" points="362.88,-65.83 352.6,-63.29 359.05,-71.69 362.88,-65.83"/>
</g>
<!-- VLSM_Lib_Traces_bisim&#45;&gt;VLSM_Lib_Traces_trace -->
<g id="edge33" class="edge">
<title>VLSM_Lib_Traces_bisim&#45;&gt;VLSM_Lib_Traces_trace</title>
<path fill="none" stroke="black" d="M461.96,-108.97C482,-97.56 512.28,-80.33 534.62,-67.61"/>
<polygon fill="black" stroke="black" points="536.4,-70.63 543.36,-62.64 532.93,-64.55 536.4,-70.63"/>
</g>
<!-- VLSM_Lib_Traces_trace_decompose -->
<g id="node13" class="node">
<title>VLSM_Lib_Traces_trace_decompose</title>
<g id="a_node13"><a xlink:href="VLSM.Lib.Traces.html#trace_decompose" xlink:title="trace_decompose" target="_top">
<ellipse fill="#f070d1" stroke="black" cx="590.82" cy="-122" rx="72.29" ry="18"/>
<text text-anchor="middle" x="590.82" y="-118.3" font-family="Times,serif" font-size="14.00">trace_decompose</text>
</a>
</g>
</g>
<!-- VLSM_Lib_Traces_trace_destr&#45;&gt;VLSM_Lib_Traces_trace_decompose -->
<g id="edge34" class="edge">
<title>VLSM_Lib_Traces_trace_destr&#45;&gt;VLSM_Lib_Traces_trace_decompose</title>
<path fill="none" stroke="black" d="M791.48,-189.32C751.83,-176.22 687.15,-154.84 641.97,-139.91"/>
<polygon fill="black" stroke="black" points="642.96,-136.55 632.36,-136.73 640.76,-143.19 642.96,-136.55"/>
</g>
<!-- VLSM_Lib_Traces_trace_decompose&#45;&gt;VLSM_Lib_Traces_Tcons -->
<g id="edge35" class="edge">
<title>VLSM_Lib_Traces_trace_decompose&#45;&gt;VLSM_Lib_Traces_Tcons</title>
<path fill="none" stroke="black" d="M558.27,-105.81C533.36,-94.19 499.14,-78.22 474.06,-66.51"/>
<polygon fill="black" stroke="black" points="475.48,-63.31 464.93,-62.26 472.52,-69.66 475.48,-63.31"/>
</g>
<!-- VLSM_Lib_Traces_trace_decompose&#45;&gt;VLSM_Lib_Traces_Tnil -->
<g id="edge36" class="edge">
<title>VLSM_Lib_Traces_trace_decompose&#45;&gt;VLSM_Lib_Traces_Tnil</title>
<path fill="none" stroke="black" d="M543.98,-108.24C493.23,-94.42 413.48,-72.7 368.21,-60.37"/>
<polygon fill="black" stroke="black" points="369.13,-56.99 358.56,-57.74 367.29,-63.74 369.13,-56.99"/>
</g>
<!-- VLSM_Lib_Traces_trace_decompose&#45;&gt;VLSM_Lib_Traces_trace -->
<g id="edge37" class="edge">
<title>VLSM_Lib_Traces_trace_decompose&#45;&gt;VLSM_Lib_Traces_trace</title>
<path fill="none" stroke="black" d="M584.28,-104.05C581.2,-96.06 577.44,-86.33 574,-77.4"/>
<polygon fill="black" stroke="black" points="577.16,-75.86 570.29,-67.79 570.63,-78.38 577.16,-75.86"/>
</g>
<!-- VLSM_Lib_Traces_hd&#45;&gt;VLSM_Lib_Traces_trace -->
<g id="edge38" class="edge">
<title>VLSM_Lib_Traces_hd&#45;&gt;VLSM_Lib_Traces_trace</title>
<path fill="none" stroke="black" d="M714.2,-111.85C684.19,-99.71 631,-78.18 596.59,-64.26"/>
<polygon fill="black" stroke="black" points="597.57,-60.88 586.99,-60.38 594.95,-67.37 597.57,-60.88"/>
</g>
</g>
</svg>
