<?xml version="1.0" encoding="UTF-8" standalone="no"?>
<!DOCTYPE svg PUBLIC "-//W3C//DTD SVG 1.1//EN"
 "http://www.w3.org/Graphics/SVG/1.1/DTD/svg11.dtd">
<!-- Generated by graphviz version 2.43.0 (0)
 -->
<!-- Title: rvdpdgraph Pages: 1 -->
<svg width="4204pt" height="2106pt"
 viewBox="0.00 0.00 4204.00 2106.00" xmlns="http://www.w3.org/2000/svg" xmlns:xlink="http://www.w3.org/1999/xlink">
<g id="graph0" class="graph" transform="scale(1 1) rotate(0) translate(4 2102)">
<title>rvdpdgraph</title>
<polygon fill="white" stroke="transparent" points="-4,4 -4,-2102 4200,-2102 4200,4 -4,4"/>
<g id="clust1" class="cluster">
<title>cluster_VLSM</title>
<polygon fill="#ffffc3" stroke="black" points="8,-56.7 8,-2041.3 4188,-2041.3 4188,-56.7 8,-56.7"/>
<text text-anchor="middle" x="35.5" y="-2026.1" font-family="Times,serif" font-size="14.00">VLSM</text>
</g>
<g id="clust2" class="cluster">
<title>cluster_VLSM_Core</title>
<polygon fill="#ffffa3" stroke="black" points="16,-113.41 16,-1821.57 4180,-1821.57 4180,-113.41 16,-113.41"/>
<text text-anchor="middle" x="37.5" y="-1806.37" font-family="Times,serif" font-size="14.00">Core</text>
</g>
<g id="clust3" class="cluster">
<title>cluster_VLSM_Core_VLSMProjections</title>
<polygon fill="#ffff83" stroke="black" points="24,-170.11 24,-1601.85 4172,-1601.85 4172,-170.11 24,-170.11"/>
<text text-anchor="middle" x="82" y="-1586.65" font-family="Times,serif" font-size="14.00">VLSMProjections</text>
</g>
<g id="clust4" class="cluster">
<title>cluster_VLSM_Core_VLSMProjections_VLSMEquality</title>
<polygon fill="#ffff63" stroke="black" points="32,-226.81 32,-1382.13 4164,-1382.13 4164,-226.81 32,-226.81"/>
<text text-anchor="middle" x="82.5" y="-1366.93" font-family="Times,serif" font-size="14.00">VLSMEquality</text>
</g>
<!-- VLSM_Core_VLSMProjections_VLSMEquality_VLSM_eq_valid_trace -->
<g id="node1" class="node">
<title>VLSM_Core_VLSMProjections_VLSMEquality_VLSM_eq_valid_trace</title>
<g id="a_node1"><a xlink:href="VLSM.Core.VLSMProjections.VLSMEquality.html#VLSM_eq_valid_trace" xlink:title="VLSM_eq_valid_trace" target="_top">
<ellipse fill="#7fffd4" stroke="black" cx="4056" cy="-977.7" rx="91.77" ry="18"/>
<ellipse fill="none" stroke="black" cx="4056" cy="-977.7" rx="95.78" ry="22"/>
<ellipse fill="none" stroke="black" cx="4056" cy="-977.7" rx="99.78" ry="26"/>
<text text-anchor="middle" x="4056" y="-974" font-family="Times,serif" font-size="14.00">VLSM_eq_valid_trace</text>
</a>
</g>
</g>
<!-- VLSM_Core_VLSMProjections_VLSMEquality_VLSM_eq_part -->
<g id="node18" class="node">
<title>VLSM_Core_VLSMProjections_VLSMEquality_VLSM_eq_part</title>
<g id="a_node18"><a xlink:href="VLSM.Core.VLSMProjections.VLSMEquality.html#VLSM_eq_part" xlink:title="VLSM_eq_part" target="_top">
<ellipse fill="#f070d1" stroke="black" cx="2027" cy="-410.7" rx="66.09" ry="18"/>
<text text-anchor="middle" x="2027" y="-407" font-family="Times,serif" font-size="14.00">VLSM_eq_part</text>
</a>
</g>
</g>
<!-- VLSM_Core_VLSMProjections_VLSMEquality_VLSM_eq_valid_trace&#45;&gt;VLSM_Core_VLSMProjections_VLSMEquality_VLSM_eq_part -->
<g id="edge1" class="edge">
<title>VLSM_Core_VLSMProjections_VLSMEquality_VLSM_eq_valid_trace&#45;&gt;VLSM_Core_VLSMProjections_VLSMEquality_VLSM_eq_part</title>
<path fill="none" stroke="black" d="M3989.65,-958.23C3678.31,-871.53 2365.62,-505.99 2081.41,-426.85"/>
<polygon fill="black" stroke="black" points="2082.31,-423.47 2071.74,-424.16 2080.44,-430.22 2082.31,-423.47"/>
</g>
<!-- VLSM_Core_VLSMProjections_VLSMEquality_VLSM_eq_infinite_valid_trace -->
<g id="node2" class="node">
<title>VLSM_Core_VLSMProjections_VLSMEquality_VLSM_eq_infinite_valid_trace</title>
<g id="a_node2"><a xlink:href="VLSM.Core.VLSMProjections.VLSMEquality.html#VLSM_eq_infinite_valid_trace" xlink:title="VLSM_eq_infinite_valid_trace" target="_top">
<ellipse fill="#7fffd4" stroke="black" cx="3809" cy="-977.7" rx="121.58" ry="18"/>
<ellipse fill="none" stroke="black" cx="3809" cy="-977.7" rx="125.58" ry="22"/>
<ellipse fill="none" stroke="black" cx="3809" cy="-977.7" rx="129.58" ry="26"/>
<text text-anchor="middle" x="3809" y="-974" font-family="Times,serif" font-size="14.00">VLSM_eq_infinite_valid_trace</text>
</a>
</g>
</g>
<!-- VLSM_Core_VLSMProjections_VLSMEquality_VLSM_eq_infinite_valid_trace&#45;&gt;VLSM_Core_VLSMProjections_VLSMEquality_VLSM_eq_part -->
<g id="edge2" class="edge">
<title>VLSM_Core_VLSMProjections_VLSMEquality_VLSM_eq_infinite_valid_trace&#45;&gt;VLSM_Core_VLSMProjections_VLSMEquality_VLSM_eq_part</title>
<path fill="none" stroke="black" d="M3741.86,-955.41C3454.62,-864.34 2332.31,-508.5 2078.3,-427.97"/>
<polygon fill="black" stroke="black" points="2079.18,-424.57 2068.59,-424.89 2077.06,-431.25 2079.18,-424.57"/>
</g>
<!-- VLSM_Core_VLSMProjections_VLSMEquality_VLSM_eq_infinite_valid_trace_from -->
<g id="node3" class="node">
<title>VLSM_Core_VLSMProjections_VLSMEquality_VLSM_eq_infinite_valid_trace_from</title>
<g id="a_node3"><a xlink:href="VLSM.Core.VLSMProjections.VLSMEquality.html#VLSM_eq_infinite_valid_trace_from" xlink:title="VLSM_eq_infinite_valid_trace_from" target="_top">
<ellipse fill="#7fffd4" stroke="black" cx="3510" cy="-977.7" rx="143.77" ry="18"/>
<ellipse fill="none" stroke="black" cx="3510" cy="-977.7" rx="147.77" ry="22"/>
<ellipse fill="none" stroke="black" cx="3510" cy="-977.7" rx="151.77" ry="26"/>
<text text-anchor="middle" x="3510" y="-974" font-family="Times,serif" font-size="14.00">VLSM_eq_infinite_valid_trace_from</text>
</a>
</g>
</g>
<!-- VLSM_Core_VLSMProjections_VLSMEquality_VLSM_eq_infinite_valid_trace_from&#45;&gt;VLSM_Core_VLSMProjections_VLSMEquality_VLSM_eq_part -->
<g id="edge3" class="edge">
<title>VLSM_Core_VLSMProjections_VLSMEquality_VLSM_eq_infinite_valid_trace_from&#45;&gt;VLSM_Core_VLSMProjections_VLSMEquality_VLSM_eq_part</title>
<path fill="none" stroke="black" d="M3449.56,-953.68C3204.83,-860.44 2290.1,-511.94 2073.29,-429.34"/>
<polygon fill="black" stroke="black" points="2074.39,-426.01 2063.8,-425.72 2071.9,-432.55 2074.39,-426.01"/>
</g>
<!-- VLSM_Core_VLSMProjections_VLSMEquality_VLSM_eq_can_emit -->
<g id="node4" class="node">
<title>VLSM_Core_VLSMProjections_VLSMEquality_VLSM_eq_can_emit</title>
<g id="a_node4"><a xlink:href="VLSM.Core.VLSMProjections.VLSMEquality.html#VLSM_eq_can_emit" xlink:title="VLSM_eq_can_emit" target="_top">
<ellipse fill="#7fffd4" stroke="black" cx="3247" cy="-977.7" rx="85.27" ry="18"/>
<ellipse fill="none" stroke="black" cx="3247" cy="-977.7" rx="89.28" ry="22"/>
<ellipse fill="none" stroke="black" cx="3247" cy="-977.7" rx="93.29" ry="26"/>
<text text-anchor="middle" x="3247" y="-974" font-family="Times,serif" font-size="14.00">VLSM_eq_can_emit</text>
</a>
</g>
</g>
<!-- VLSM_Core_VLSMProjections_VLSMEquality_VLSM_eq_can_emit&#45;&gt;VLSM_Core_VLSMProjections_VLSMEquality_VLSM_eq_part -->
<g id="edge4" class="edge">
<title>VLSM_Core_VLSMProjections_VLSMEquality_VLSM_eq_can_emit&#45;&gt;VLSM_Core_VLSMProjections_VLSMEquality_VLSM_eq_part</title>
<path fill="none" stroke="black" d="M3200.29,-955.07C3004.72,-864.5 2253.22,-516.47 2068.29,-430.83"/>
<polygon fill="black" stroke="black" points="2069.71,-427.63 2059.17,-426.6 2066.77,-433.98 2069.71,-427.63"/>
</g>
<!-- VLSM_Core_VLSMProjections_VLSMEquality_VLSM_eq_can_produce -->
<g id="node5" class="node">
<title>VLSM_Core_VLSMProjections_VLSMEquality_VLSM_eq_can_produce</title>
<g id="a_node5"><a xlink:href="VLSM.Core.VLSMProjections.VLSMEquality.html#VLSM_eq_can_produce" xlink:title="VLSM_eq_can_produce" target="_top">
<ellipse fill="#7fffd4" stroke="black" cx="3030" cy="-977.7" rx="97.48" ry="18"/>
<ellipse fill="none" stroke="black" cx="3030" cy="-977.7" rx="101.48" ry="22"/>
<ellipse fill="none" stroke="black" cx="3030" cy="-977.7" rx="105.48" ry="26"/>
<text text-anchor="middle" x="3030" y="-974" font-family="Times,serif" font-size="14.00">VLSM_eq_can_produce</text>
</a>
</g>
</g>
<!-- VLSM_Core_VLSMProjections_VLSMEquality_VLSM_eq_can_produce&#45;&gt;VLSM_Core_VLSMProjections_VLSMEquality_VLSM_eq_part -->
<g id="edge5" class="edge">
<title>VLSM_Core_VLSMProjections_VLSMEquality_VLSM_eq_can_produce&#45;&gt;VLSM_Core_VLSMProjections_VLSMEquality_VLSM_eq_part</title>
<path fill="none" stroke="black" d="M2989.13,-953.68C2825.49,-861.5 2219.03,-519.88 2063.52,-432.28"/>
<polygon fill="black" stroke="black" points="2064.79,-428.97 2054.36,-427.11 2061.35,-435.07 2064.79,-428.97"/>
</g>
<!-- VLSM_Core_VLSMProjections_VLSMEquality_VLSM_eq_input_valid -->
<g id="node6" class="node">
<title>VLSM_Core_VLSMProjections_VLSMEquality_VLSM_eq_input_valid</title>
<g id="a_node6"><a xlink:href="VLSM.Core.VLSMProjections.VLSMEquality.html#VLSM_eq_input_valid" xlink:title="VLSM_eq_input_valid" target="_top">
<ellipse fill="#7fffd4" stroke="black" cx="2806" cy="-977.7" rx="92.89" ry="18"/>
<ellipse fill="none" stroke="black" cx="2806" cy="-977.7" rx="96.89" ry="22"/>
<ellipse fill="none" stroke="black" cx="2806" cy="-977.7" rx="100.88" ry="26"/>
<text text-anchor="middle" x="2806" y="-974" font-family="Times,serif" font-size="14.00">VLSM_eq_input_valid</text>
</a>
</g>
</g>
<!-- VLSM_Core_VLSMProjections_VLSMEquality_VLSM_eq_input_valid&#45;&gt;VLSM_Core_VLSMProjections_VLSMEquality_VLSM_eq_part -->
<g id="edge6" class="edge">
<title>VLSM_Core_VLSMProjections_VLSMEquality_VLSM_eq_input_valid&#45;&gt;VLSM_Core_VLSMProjections_VLSMEquality_VLSM_eq_part</title>
<path fill="none" stroke="black" d="M2773.02,-952.79C2644.91,-859.87 2181.24,-523.57 2057.52,-433.84"/>
<polygon fill="black" stroke="black" points="2059.36,-430.85 2049.21,-427.81 2055.25,-436.52 2059.36,-430.85"/>
</g>
<!-- VLSM_Core_VLSMProjections_VLSMEquality_VLSM_eq_input_valid_transition -->
<g id="node7" class="node">
<title>VLSM_Core_VLSMProjections_VLSMEquality_VLSM_eq_input_valid_transition</title>
<g id="a_node7"><a xlink:href="VLSM.Core.VLSMProjections.VLSMEquality.html#VLSM_eq_input_valid_transition" xlink:title="VLSM_eq_input_valid_transition" target="_top">
<ellipse fill="#7fffd4" stroke="black" cx="2549" cy="-977.7" rx="129.98" ry="18"/>
<ellipse fill="none" stroke="black" cx="2549" cy="-977.7" rx="133.98" ry="22"/>
<ellipse fill="none" stroke="black" cx="2549" cy="-977.7" rx="137.98" ry="26"/>
<text text-anchor="middle" x="2549" y="-974" font-family="Times,serif" font-size="14.00">VLSM_eq_input_valid_transition</text>
</a>
</g>
</g>
<!-- VLSM_Core_VLSMProjections_VLSMEquality_VLSM_eq_input_valid_transition&#45;&gt;VLSM_Core_VLSMProjections_VLSMEquality_VLSM_eq_part -->
<g id="edge7" class="edge">
<title>VLSM_Core_VLSMProjections_VLSMEquality_VLSM_eq_input_valid_transition&#45;&gt;VLSM_Core_VLSMProjections_VLSMEquality_VLSM_eq_part</title>
<path fill="none" stroke="black" d="M2525.9,-951.7C2439.24,-857.9 2134.14,-527.67 2049.14,-435.66"/>
<polygon fill="black" stroke="black" points="2051.63,-433.2 2042.27,-428.23 2046.49,-437.95 2051.63,-433.2"/>
</g>
<!-- VLSM_Core_VLSMProjections_VLSMEquality_VLSM_eq_in_futures -->
<g id="node8" class="node">
<title>VLSM_Core_VLSMProjections_VLSMEquality_VLSM_eq_in_futures</title>
<g id="a_node8"><a xlink:href="VLSM.Core.VLSMProjections.VLSMEquality.html#VLSM_eq_in_futures" xlink:title="VLSM_eq_in_futures" target="_top">
<ellipse fill="#7fffd4" stroke="black" cx="2297" cy="-977.7" rx="88.29" ry="18"/>
<ellipse fill="none" stroke="black" cx="2297" cy="-977.7" rx="92.29" ry="22"/>
<ellipse fill="none" stroke="black" cx="2297" cy="-977.7" rx="96.28" ry="26"/>
<text text-anchor="middle" x="2297" y="-974" font-family="Times,serif" font-size="14.00">VLSM_eq_in_futures</text>
</a>
</g>
</g>
<!-- VLSM_Core_VLSMProjections_VLSMEquality_VLSM_eq_in_futures&#45;&gt;VLSM_Core_VLSMProjections_VLSMEquality_VLSM_eq_part -->
<g id="edge8" class="edge">
<title>VLSM_Core_VLSMProjections_VLSMEquality_VLSM_eq_in_futures&#45;&gt;VLSM_Core_VLSMProjections_VLSMEquality_VLSM_eq_part</title>
<path fill="none" stroke="black" d="M2285.05,-951.7C2240.6,-858.67 2085.01,-533.09 2039.56,-437.98"/>
<polygon fill="black" stroke="black" points="2042.63,-436.28 2035.16,-428.77 2036.31,-439.3 2042.63,-436.28"/>
</g>
<!-- VLSM_Core_VLSMProjections_VLSMEquality_VLSM_eq_finite_valid_trace_from_to -->
<g id="node9" class="node">
<title>VLSM_Core_VLSMProjections_VLSMEquality_VLSM_eq_finite_valid_trace_from_to</title>
<g id="a_node9"><a xlink:href="VLSM.Core.VLSMProjections.VLSMEquality.html#VLSM_eq_finite_valid_trace_from_to" xlink:title="VLSM_eq_finite_valid_trace_from_to" target="_top">
<ellipse fill="#7fffd4" stroke="black" cx="2027" cy="-977.7" rx="147.57" ry="18"/>
<ellipse fill="none" stroke="black" cx="2027" cy="-977.7" rx="151.57" ry="22"/>
<ellipse fill="none" stroke="black" cx="2027" cy="-977.7" rx="155.57" ry="26"/>
<text text-anchor="middle" x="2027" y="-974" font-family="Times,serif" font-size="14.00">VLSM_eq_finite_valid_trace_from_to</text>
</a>
</g>
</g>
<!-- VLSM_Core_VLSMProjections_VLSMEquality_VLSM_eq_finite_valid_trace_from_to&#45;&gt;VLSM_Core_VLSMProjections_VLSMEquality_VLSM_eq_part -->
<g id="edge9" class="edge">
<title>VLSM_Core_VLSMProjections_VLSMEquality_VLSM_eq_finite_valid_trace_from_to&#45;&gt;VLSM_Core_VLSMProjections_VLSMEquality_VLSM_eq_part</title>
<path fill="none" stroke="black" d="M2027,-951.7C2027,-858.95 2027,-535.07 2027,-438.85"/>
<polygon fill="black" stroke="black" points="2030.5,-438.77 2027,-428.77 2023.5,-438.77 2030.5,-438.77"/>
</g>
<!-- VLSM_Core_VLSMProjections_VLSMEquality_VLSM_eq_finite_valid_trace_from -->
<g id="node10" class="node">
<title>VLSM_Core_VLSMProjections_VLSMEquality_VLSM_eq_finite_valid_trace_from</title>
<g id="a_node10"><a xlink:href="VLSM.Core.VLSMProjections.VLSMEquality.html#VLSM_eq_finite_valid_trace_from" xlink:title="VLSM_eq_finite_valid_trace_from" target="_top">
<ellipse fill="#7fffd4" stroke="black" cx="1709" cy="-977.7" rx="136.48" ry="18"/>
<ellipse fill="none" stroke="black" cx="1709" cy="-977.7" rx="140.48" ry="22"/>
<ellipse fill="none" stroke="black" cx="1709" cy="-977.7" rx="144.48" ry="26"/>
<text text-anchor="middle" x="1709" y="-974" font-family="Times,serif" font-size="14.00">VLSM_eq_finite_valid_trace_from</text>
</a>
</g>
</g>
<!-- VLSM_Core_VLSMProjections_VLSMEquality_VLSM_eq_finite_valid_trace_from&#45;&gt;VLSM_Core_VLSMProjections_VLSMEquality_VLSM_eq_part -->
<g id="edge10" class="edge">
<title>VLSM_Core_VLSMProjections_VLSMEquality_VLSM_eq_finite_valid_trace_from&#45;&gt;VLSM_Core_VLSMProjections_VLSMEquality_VLSM_eq_part</title>
<path fill="none" stroke="black" d="M1723.07,-951.7C1775.48,-858.58 1959.05,-532.43 2012.37,-437.69"/>
<polygon fill="black" stroke="black" points="2015.54,-439.2 2017.39,-428.77 2009.44,-435.77 2015.54,-439.2"/>
</g>
<!-- VLSM_Core_VLSMProjections_VLSMEquality_VLSM_eq_initial_state -->
<g id="node11" class="node">
<title>VLSM_Core_VLSMProjections_VLSMEquality_VLSM_eq_initial_state</title>
<g id="a_node11"><a xlink:href="VLSM.Core.VLSMProjections.VLSMEquality.html#VLSM_eq_initial_state" xlink:title="VLSM_eq_initial_state" target="_top">
<ellipse fill="#7fffd4" stroke="black" cx="1445" cy="-977.7" rx="93.68" ry="18"/>
<ellipse fill="none" stroke="black" cx="1445" cy="-977.7" rx="97.68" ry="22"/>
<ellipse fill="none" stroke="black" cx="1445" cy="-977.7" rx="101.68" ry="26"/>
<text text-anchor="middle" x="1445" y="-974" font-family="Times,serif" font-size="14.00">VLSM_eq_initial_state</text>
</a>
</g>
</g>
<!-- VLSM_Core_VLSMProjections_VLSMEquality_VLSM_eq_initial_state&#45;&gt;VLSM_Core_VLSMProjections_VLSMEquality_VLSM_eq_part -->
<g id="edge11" class="edge">
<title>VLSM_Core_VLSMProjections_VLSMEquality_VLSM_eq_initial_state&#45;&gt;VLSM_Core_VLSMProjections_VLSMEquality_VLSM_eq_part</title>
<path fill="none" stroke="black" d="M1470.01,-952.43C1565.66,-859.56 1907.73,-527.49 2002.5,-435.49"/>
<polygon fill="black" stroke="black" points="2005.16,-437.78 2009.9,-428.31 2000.28,-432.76 2005.16,-437.78"/>
</g>
<!-- VLSM_Core_VLSMProjections_VLSMEquality_VLSM_eq_valid_state -->
<g id="node12" class="node">
<title>VLSM_Core_VLSMProjections_VLSMEquality_VLSM_eq_valid_state</title>
<g id="a_node12"><a xlink:href="VLSM.Core.VLSMProjections.VLSMEquality.html#VLSM_eq_valid_state" xlink:title="VLSM_eq_valid_state" target="_top">
<ellipse fill="#7fffd4" stroke="black" cx="1226" cy="-977.7" rx="90.98" ry="18"/>
<ellipse fill="none" stroke="black" cx="1226" cy="-977.7" rx="94.98" ry="22"/>
<ellipse fill="none" stroke="black" cx="1226" cy="-977.7" rx="98.98" ry="26"/>
<text text-anchor="middle" x="1226" y="-974" font-family="Times,serif" font-size="14.00">VLSM_eq_valid_state</text>
</a>
</g>
</g>
<!-- VLSM_Core_VLSMProjections_VLSMEquality_VLSM_eq_valid_state&#45;&gt;VLSM_Core_VLSMProjections_VLSMEquality_VLSM_eq_part -->
<g id="edge12" class="edge">
<title>VLSM_Core_VLSMProjections_VLSMEquality_VLSM_eq_valid_state&#45;&gt;VLSM_Core_VLSMProjections_VLSMEquality_VLSM_eq_part</title>
<path fill="none" stroke="black" d="M1259.4,-953.14C1390.51,-860.66 1869.02,-523.13 1995.93,-433.62"/>
<polygon fill="black" stroke="black" points="1997.96,-436.47 2004.11,-427.85 1993.92,-430.75 1997.96,-436.47"/>
</g>
<!-- VLSM_Core_VLSMProjections_VLSMEquality_VLSM_eq_finite_valid_trace_init_to -->
<g id="node13" class="node">
<title>VLSM_Core_VLSMProjections_VLSMEquality_VLSM_eq_finite_valid_trace_init_to</title>
<g id="a_node13"><a xlink:href="VLSM.Core.VLSMProjections.VLSMEquality.html#VLSM_eq_finite_valid_trace_init_to" xlink:title="VLSM_eq_finite_valid_trace_init_to" target="_top">
<ellipse fill="#7fffd4" stroke="black" cx="959" cy="-977.7" rx="141.87" ry="18"/>
<ellipse fill="none" stroke="black" cx="959" cy="-977.7" rx="145.87" ry="22"/>
<ellipse fill="none" stroke="black" cx="959" cy="-977.7" rx="149.88" ry="26"/>
<text text-anchor="middle" x="959" y="-974" font-family="Times,serif" font-size="14.00">VLSM_eq_finite_valid_trace_init_to</text>
</a>
</g>
</g>
<!-- VLSM_Core_VLSMProjections_VLSMEquality_VLSM_eq_finite_valid_trace_init_to&#45;&gt;VLSM_Core_VLSMProjections_VLSMEquality_VLSM_eq_part -->
<g id="edge13" class="edge">
<title>VLSM_Core_VLSMProjections_VLSMEquality_VLSM_eq_finite_valid_trace_init_to&#45;&gt;VLSM_Core_VLSMProjections_VLSMEquality_VLSM_eq_part</title>
<path fill="none" stroke="black" d="M1004.21,-952.79C1181.13,-859.19 1824.87,-518.63 1988.81,-431.91"/>
<polygon fill="black" stroke="black" points="1990.82,-434.8 1998.03,-427.03 1987.55,-428.61 1990.82,-434.8"/>
</g>
<!-- VLSM_Core_VLSMProjections_VLSMEquality_VLSM_eq_finite_valid_trace -->
<g id="node14" class="node">
<title>VLSM_Core_VLSMProjections_VLSMEquality_VLSM_eq_finite_valid_trace</title>
<g id="a_node14"><a xlink:href="VLSM.Core.VLSMProjections.VLSMEquality.html#VLSM_eq_finite_valid_trace" xlink:title="VLSM_eq_finite_valid_trace" target="_top">
<ellipse fill="#7fffd4" stroke="black" cx="669" cy="-977.7" rx="114.29" ry="18"/>
<ellipse fill="none" stroke="black" cx="669" cy="-977.7" rx="118.28" ry="22"/>
<ellipse fill="none" stroke="black" cx="669" cy="-977.7" rx="122.28" ry="26"/>
<text text-anchor="middle" x="669" y="-974" font-family="Times,serif" font-size="14.00">VLSM_eq_finite_valid_trace</text>
</a>
</g>
</g>
<!-- VLSM_Core_VLSMProjections_VLSMEquality_VLSM_eq_finite_valid_trace&#45;&gt;VLSM_Core_VLSMProjections_VLSMEquality_VLSM_eq_part -->
<g id="edge14" class="edge">
<title>VLSM_Core_VLSMProjections_VLSMEquality_VLSM_eq_finite_valid_trace&#45;&gt;VLSM_Core_VLSMProjections_VLSMEquality_VLSM_eq_part</title>
<path fill="none" stroke="black" d="M723.07,-954.21C944.64,-862.02 1780.9,-514.09 1982.89,-430.06"/>
<polygon fill="black" stroke="black" points="1984.41,-433.21 1992.3,-426.14 1981.72,-426.75 1984.41,-433.21"/>
</g>
<!-- VLSM_Core_VLSMProjections_VLSMEquality_VLSM_eq_trans -->
<g id="node15" class="node">
<title>VLSM_Core_VLSMProjections_VLSMEquality_VLSM_eq_trans</title>
<g id="a_node15"><a xlink:href="VLSM.Core.VLSMProjections.VLSMEquality.html#VLSM_eq_trans" xlink:title="VLSM_eq_trans" target="_top">
<ellipse fill="#7fffd4" stroke="black" cx="451" cy="-977.7" rx="69.58" ry="18"/>
<ellipse fill="none" stroke="black" cx="451" cy="-977.7" rx="73.59" ry="22"/>
<ellipse fill="none" stroke="black" cx="451" cy="-977.7" rx="77.59" ry="26"/>
<text text-anchor="middle" x="451" y="-974" font-family="Times,serif" font-size="14.00">VLSM_eq_trans</text>
</a>
</g>
</g>
<!-- VLSM_Core_VLSMProjections_VLSMEquality_VLSM_eq_trans&#45;&gt;VLSM_Core_VLSMProjections_VLSMEquality_VLSM_eq_part -->
<g id="edge15" class="edge">
<title>VLSM_Core_VLSMProjections_VLSMEquality_VLSM_eq_trans&#45;&gt;VLSM_Core_VLSMProjections_VLSMEquality_VLSM_eq_part</title>
<path fill="none" stroke="black" d="M502.54,-958.23C742.33,-872.26 1746.87,-512.13 1978.99,-428.91"/>
<polygon fill="black" stroke="black" points="1980.28,-432.17 1988.51,-425.5 1977.92,-425.58 1980.28,-432.17"/>
</g>
<!-- VLSM_Core_VLSMProjections_VLSMEquality_VLSM_eq_sym -->
<g id="node16" class="node">
<title>VLSM_Core_VLSMProjections_VLSMEquality_VLSM_eq_sym</title>
<g id="a_node16"><a xlink:href="VLSM.Core.VLSMProjections.VLSMEquality.html#VLSM_eq_sym" xlink:title="VLSM_eq_sym" target="_top">
<ellipse fill="#7fffd4" stroke="black" cx="280" cy="-977.7" rx="67.68" ry="18"/>
<ellipse fill="none" stroke="black" cx="280" cy="-977.7" rx="71.68" ry="22"/>
<ellipse fill="none" stroke="black" cx="280" cy="-977.7" rx="75.69" ry="26"/>
<text text-anchor="middle" x="280" y="-974" font-family="Times,serif" font-size="14.00">VLSM_eq_sym</text>
</a>
</g>
</g>
<!-- VLSM_Core_VLSMProjections_VLSMEquality_VLSM_eq_sym&#45;&gt;VLSM_Core_VLSMProjections_VLSMEquality_VLSM_eq_part -->
<g id="edge16" class="edge">
<title>VLSM_Core_VLSMProjections_VLSMEquality_VLSM_eq_sym&#45;&gt;VLSM_Core_VLSMProjections_VLSMEquality_VLSM_eq_part</title>
<path fill="none" stroke="black" d="M333.72,-959.33C594.08,-875.12 1722.58,-510.16 1976.24,-428.12"/>
<polygon fill="black" stroke="black" points="1977.5,-431.39 1985.94,-424.98 1975.35,-424.73 1977.5,-431.39"/>
</g>
<!-- VLSM_Core_VLSMProjections_VLSMEquality_VLSM_eq_refl -->
<g id="node17" class="node">
<title>VLSM_Core_VLSMProjections_VLSMEquality_VLSM_eq_refl</title>
<g id="a_node17"><a xlink:href="VLSM.Core.VLSMProjections.VLSMEquality.html#VLSM_eq_refl" xlink:title="VLSM_eq_refl" target="_top">
<ellipse fill="#7fffd4" stroke="black" cx="113" cy="-977.7" rx="64.99" ry="18"/>
<ellipse fill="none" stroke="black" cx="113" cy="-977.7" rx="68.99" ry="22"/>
<ellipse fill="none" stroke="black" cx="113" cy="-977.7" rx="72.99" ry="26"/>
<text text-anchor="middle" x="113" y="-974" font-family="Times,serif" font-size="14.00">VLSM_eq_refl</text>
</a>
</g>
</g>
<!-- VLSM_Core_VLSMProjections_VLSMEquality_VLSM_eq_refl&#45;&gt;VLSM_Core_VLSMProjections_VLSMEquality_VLSM_eq_part -->
<g id="edge17" class="edge">
<title>VLSM_Core_VLSMProjections_VLSMEquality_VLSM_eq_refl&#45;&gt;VLSM_Core_VLSMProjections_VLSMEquality_VLSM_eq_part</title>
<path fill="none" stroke="black" d="M167.23,-960.09C176.49,-957.28 186.02,-954.4 195,-951.7 897.65,-741.04 1753.98,-491.21 1973.67,-427.23"/>
<polygon fill="black" stroke="black" points="1974.72,-430.57 1983.34,-424.41 1972.76,-423.85 1974.72,-430.57"/>
</g>
</g>
</svg>
