<?xml version="1.0" encoding="UTF-8" standalone="no"?>
<!DOCTYPE svg PUBLIC "-//W3C//DTD SVG 1.1//EN"
 "http://www.w3.org/Graphics/SVG/1.1/DTD/svg11.dtd">
<!-- Generated by graphviz version 2.43.0 (0)
 -->
<!-- Title: rvdpdgraph Pages: 1 -->
<svg width="827pt" height="418pt"
 viewBox="0.00 0.00 827.00 417.50" xmlns="http://www.w3.org/2000/svg" xmlns:xlink="http://www.w3.org/1999/xlink">
<g id="graph0" class="graph" transform="scale(1 1) rotate(0) translate(4 413.5)">
<title>rvdpdgraph</title>
<polygon fill="white" stroke="transparent" points="-4,4 -4,-413.5 823,-413.5 823,4 -4,4"/>
<g id="clust1" class="cluster">
<title>cluster_VLSM</title>
<polygon fill="#ffffc3" stroke="black" points="8,-8.17 8,-401.33 811,-401.33 811,-8.17 8,-8.17"/>
<text text-anchor="middle" x="35.5" y="-386.13" font-family="Times,serif" font-size="14.00">VLSM</text>
</g>
<g id="clust2" class="cluster">
<title>cluster_VLSM_Lib</title>
<polygon fill="#ffffa3" stroke="black" points="16,-16.34 16,-369.67 803,-369.67 803,-16.34 16,-16.34"/>
<text text-anchor="middle" x="33.5" y="-354.47" font-family="Times,serif" font-size="14.00">Lib</text>
</g>
<g id="clust3" class="cluster">
<title>cluster_VLSM_Lib_TraceClassicalProperties</title>
<polygon fill="#ffff83" stroke="black" points="24,-24.51 24,-338.02 795,-338.02 795,-24.51 24,-24.51"/>
<text text-anchor="middle" x="99.5" y="-322.82" font-family="Times,serif" font-size="14.00">TraceClassicalProperties</text>
</g>
<!-- VLSM_Lib_TraceClassicalProperties_AppendT_assoc_R -->
<g id="node1" class="node">
<title>VLSM_Lib_TraceClassicalProperties_AppendT_assoc_R</title>
<g id="a_node1"><a xlink:href="VLSM.Lib.TraceClassicalProperties.html#AppendT_assoc_R" xlink:title="AppendT_assoc_R" target="_top">
<ellipse fill="#7fffd4" stroke="black" cx="702" cy="-280.17" rx="77.2" ry="18"/>
<ellipse fill="none" stroke="black" cx="702" cy="-280.17" rx="81.19" ry="22"/>
<ellipse fill="none" stroke="black" cx="702" cy="-280.17" rx="85.19" ry="26"/>
<text text-anchor="middle" x="702" y="-276.47" font-family="Times,serif" font-size="14.00">AppendT_assoc_R</text>
</a>
</g>
</g>
<!-- VLSM_Lib_TraceClassicalProperties_appendT_assoc_R -->
<g id="node2" class="node">
<title>VLSM_Lib_TraceClassicalProperties_appendT_assoc_R</title>
<g id="a_node2"><a xlink:href="VLSM.Lib.TraceClassicalProperties.html#appendT_assoc_R" xlink:title="appendT_assoc_R" target="_top">
<ellipse fill="#7fffd4" stroke="black" cx="702" cy="-198.17" rx="75.29" ry="18"/>
<text text-anchor="middle" x="702" y="-194.47" font-family="Times,serif" font-size="14.00">appendT_assoc_R</text>
</a>
</g>
</g>
<!-- VLSM_Lib_TraceClassicalProperties_AppendT_assoc_R&#45;&gt;VLSM_Lib_TraceClassicalProperties_appendT_assoc_R -->
<g id="edge1" class="edge">
<title>VLSM_Lib_TraceClassicalProperties_AppendT_assoc_R&#45;&gt;VLSM_Lib_TraceClassicalProperties_appendT_assoc_R</title>
<path fill="none" stroke="black" d="M702,-253.86C702,-245.14 702,-235.33 702,-226.46"/>
<polygon fill="black" stroke="black" points="705.5,-226.23 702,-216.23 698.5,-226.23 705.5,-226.23"/>
</g>
<!-- VLSM_Lib_TraceClassicalProperties_midpointT_midp -->
<g id="node3" class="node">
<title>VLSM_Lib_TraceClassicalProperties_midpointT_midp</title>
<g id="a_node3"><a xlink:href="VLSM.Lib.TraceClassicalProperties.html#midpointT_midp" xlink:title="midpointT_midp" target="_top">
<ellipse fill="#7fffd4" stroke="black" cx="702" cy="-124.17" rx="71.49" ry="18"/>
<text text-anchor="middle" x="702" y="-120.47" font-family="Times,serif" font-size="14.00">midpointT_midp</text>
</a>
</g>
</g>
<!-- VLSM_Lib_TraceClassicalProperties_appendT_assoc_R&#45;&gt;VLSM_Lib_TraceClassicalProperties_midpointT_midp -->
<g id="edge2" class="edge">
<title>VLSM_Lib_TraceClassicalProperties_appendT_assoc_R&#45;&gt;VLSM_Lib_TraceClassicalProperties_midpointT_midp</title>
<path fill="none" stroke="black" d="M702,-180.11C702,-171.98 702,-162.05 702,-152.87"/>
<polygon fill="black" stroke="black" points="705.5,-152.61 702,-142.61 698.5,-152.61 705.5,-152.61"/>
</g>
<!-- VLSM_Lib_TraceClassicalProperties_midp -->
<g id="node4" class="node">
<title>VLSM_Lib_TraceClassicalProperties_midp</title>
<g id="a_node4"><a xlink:href="VLSM.Lib.TraceClassicalProperties.html#midp" xlink:title="midp" target="_top">
<ellipse fill="#f070d1" stroke="black" cx="702" cy="-51.17" rx="29.5" ry="18"/>
<text text-anchor="middle" x="702" y="-47.47" font-family="Times,serif" font-size="14.00">midp</text>
</a>
</g>
</g>
<!-- VLSM_Lib_TraceClassicalProperties_midpointT_midp&#45;&gt;VLSM_Lib_TraceClassicalProperties_midp -->
<g id="edge3" class="edge">
<title>VLSM_Lib_TraceClassicalProperties_midpointT_midp&#45;&gt;VLSM_Lib_TraceClassicalProperties_midp</title>
<path fill="none" stroke="black" d="M702,-105.98C702,-97.96 702,-88.22 702,-79.24"/>
<polygon fill="black" stroke="black" points="705.5,-79.2 702,-69.2 698.5,-79.2 705.5,-79.2"/>
</g>
<!-- VLSM_Lib_TraceClassicalProperties_finiteT_infiniteT_dec -->
<g id="node5" class="node">
<title>VLSM_Lib_TraceClassicalProperties_finiteT_infiniteT_dec</title>
<g id="a_node5"><a xlink:href="VLSM.Lib.TraceClassicalProperties.html#finiteT_infiniteT_dec" xlink:title="finiteT_infiniteT_dec" target="_top">
<ellipse fill="#f070d1" stroke="black" cx="504" cy="-280.17" rx="86.39" ry="18"/>
<ellipse fill="none" stroke="black" cx="504" cy="-280.17" rx="90.39" ry="22"/>
<ellipse fill="none" stroke="black" cx="504" cy="-280.17" rx="94.38" ry="26"/>
<text text-anchor="middle" x="504" y="-276.47" font-family="Times,serif" font-size="14.00">finiteT_infiniteT_dec</text>
</a>
</g>
</g>
<!-- VLSM_Lib_TraceClassicalProperties_finiteT_infiniteT -->
<g id="node6" class="node">
<title>VLSM_Lib_TraceClassicalProperties_finiteT_infiniteT</title>
<g id="a_node6"><a xlink:href="VLSM.Lib.TraceClassicalProperties.html#finiteT_infiniteT" xlink:title="finiteT_infiniteT" target="_top">
<ellipse fill="#7fffd4" stroke="black" cx="314" cy="-280.17" rx="69.58" ry="18"/>
<ellipse fill="none" stroke="black" cx="314" cy="-280.17" rx="73.59" ry="22"/>
<ellipse fill="none" stroke="black" cx="314" cy="-280.17" rx="77.59" ry="26"/>
<text text-anchor="middle" x="314" y="-276.47" font-family="Times,serif" font-size="14.00">finiteT_infiniteT</text>
</a>
</g>
</g>
<!-- VLSM_Lib_TraceClassicalProperties_not_infiniteT_finiteT -->
<g id="node7" class="node">
<title>VLSM_Lib_TraceClassicalProperties_not_infiniteT_finiteT</title>
<g id="a_node7"><a xlink:href="VLSM.Lib.TraceClassicalProperties.html#not_infiniteT_finiteT" xlink:title="not_infiniteT_finiteT" target="_top">
<ellipse fill="#7fffd4" stroke="black" cx="125" cy="-280.17" rx="85.27" ry="18"/>
<ellipse fill="none" stroke="black" cx="125" cy="-280.17" rx="89.28" ry="22"/>
<ellipse fill="none" stroke="black" cx="125" cy="-280.17" rx="93.29" ry="26"/>
<text text-anchor="middle" x="125" y="-276.47" font-family="Times,serif" font-size="14.00">not_infiniteT_finiteT</text>
</a>
</g>
</g>
</g>
</svg>
