<?xml version="1.0" encoding="UTF-8" standalone="no"?>
<!DOCTYPE svg PUBLIC "-//W3C//DTD SVG 1.1//EN"
 "http://www.w3.org/Graphics/SVG/1.1/DTD/svg11.dtd">
<!-- Generated by graphviz version 2.43.0 (0)
 -->
<!-- Title: rvdpdgraph Pages: 1 -->
<svg width="1512pt" height="760pt"
 viewBox="0.00 0.00 1512.00 760.00" xmlns="http://www.w3.org/2000/svg" xmlns:xlink="http://www.w3.org/1999/xlink">
<g id="graph0" class="graph" transform="scale(1 1) rotate(0) translate(4 756)">
<title>rvdpdgraph</title>
<polygon fill="white" stroke="transparent" points="-4,4 -4,-756 1508,-756 1508,4 -4,4"/>
<g id="clust1" class="cluster">
<title>cluster_VLSM</title>
<polygon fill="#ffffc3" stroke="black" points="8,-13.89 8,-738.11 1496,-738.11 1496,-13.89 8,-13.89"/>
<text text-anchor="middle" x="35.5" y="-722.91" font-family="Times,serif" font-size="14.00">VLSM</text>
</g>
<g id="clust2" class="cluster">
<title>cluster_VLSM_Lib</title>
<polygon fill="#ffffa3" stroke="black" points="16,-27.79 16,-684.27 1488,-684.27 1488,-27.79 16,-27.79"/>
<text text-anchor="middle" x="33.5" y="-669.07" font-family="Times,serif" font-size="14.00">Lib</text>
</g>
<g id="clust3" class="cluster">
<title>cluster_VLSM_Lib_SortedLists</title>
<polygon fill="#ffff83" stroke="black" points="24,-41.68 24,-630.43 1480,-630.43 1480,-41.68 24,-41.68"/>
<text text-anchor="middle" x="63" y="-615.23" font-family="Times,serif" font-size="14.00">SortedLists</text>
</g>
<!-- VLSM_Lib_SortedLists_lsorted_pair_wise_unordered -->
<g id="node1" class="node">
<title>VLSM_Lib_SortedLists_lsorted_pair_wise_unordered</title>
<g id="a_node1"><a xlink:href="VLSM.Lib.SortedLists.html#lsorted_pair_wise_unordered" xlink:title="lsorted_pair_wise_unordered" target="_top">
<ellipse fill="#7fffd4" stroke="black" cx="1351" cy="-531.89" rx="113.17" ry="18"/>
<ellipse fill="none" stroke="black" cx="1351" cy="-531.89" rx="117.18" ry="22"/>
<ellipse fill="none" stroke="black" cx="1351" cy="-531.89" rx="121.18" ry="26"/>
<text text-anchor="middle" x="1351" y="-528.19" font-family="Times,serif" font-size="14.00">lsorted_pair_wise_unordered</text>
</a>
</g>
</g>
<!-- VLSM_Lib_SortedLists_lsorted_pairwise_ordered -->
<g id="node2" class="node">
<title>VLSM_Lib_SortedLists_lsorted_pairwise_ordered</title>
<g id="a_node2"><a xlink:href="VLSM.Lib.SortedLists.html#lsorted_pairwise_ordered" xlink:title="lsorted_pairwise_ordered" target="_top">
<ellipse fill="#7fffd4" stroke="black" cx="1372" cy="-378.89" rx="100.18" ry="18"/>
<text text-anchor="middle" x="1372" y="-375.19" font-family="Times,serif" font-size="14.00">lsorted_pairwise_ordered</text>
</a>
</g>
</g>
<!-- VLSM_Lib_SortedLists_lsorted_pair_wise_unordered&#45;&gt;VLSM_Lib_SortedLists_lsorted_pairwise_ordered -->
<g id="edge1" class="edge">
<title>VLSM_Lib_SortedLists_lsorted_pair_wise_unordered&#45;&gt;VLSM_Lib_SortedLists_lsorted_pairwise_ordered</title>
<path fill="none" stroke="black" d="M1354.51,-505.62C1358.3,-478.37 1364.32,-435.15 1368.21,-407.16"/>
<polygon fill="black" stroke="black" points="1371.68,-407.62 1369.59,-397.24 1364.74,-406.66 1371.68,-407.62"/>
</g>
<!-- VLSM_Lib_SortedLists_lsorted_app -->
<g id="node3" class="node">
<title>VLSM_Lib_SortedLists_lsorted_app</title>
<g id="a_node3"><a xlink:href="VLSM.Lib.SortedLists.html#lsorted_app" xlink:title="lsorted_app" target="_top">
<ellipse fill="#7fffd4" stroke="black" cx="1420" cy="-225.89" rx="51.99" ry="18"/>
<text text-anchor="middle" x="1420" y="-222.19" font-family="Times,serif" font-size="14.00">lsorted_app</text>
</a>
</g>
</g>
<!-- VLSM_Lib_SortedLists_lsorted_pairwise_ordered&#45;&gt;VLSM_Lib_SortedLists_lsorted_app -->
<g id="edge2" class="edge">
<title>VLSM_Lib_SortedLists_lsorted_pairwise_ordered&#45;&gt;VLSM_Lib_SortedLists_lsorted_app</title>
<path fill="none" stroke="black" d="M1377.41,-360.87C1385.7,-334.81 1401.59,-284.82 1411.44,-253.81"/>
<polygon fill="black" stroke="black" points="1414.84,-254.68 1414.53,-244.09 1408.17,-252.56 1414.84,-254.68"/>
</g>
<!-- VLSM_Lib_SortedLists_set_equality_predicate -->
<g id="node4" class="node">
<title>VLSM_Lib_SortedLists_set_equality_predicate</title>
<g id="a_node4"><a xlink:href="VLSM.Lib.SortedLists.html#set_equality_predicate" xlink:title="set_equality_predicate" target="_top">
<ellipse fill="#7fffd4" stroke="black" cx="1156" cy="-378.89" rx="89.87" ry="18"/>
<ellipse fill="none" stroke="black" cx="1156" cy="-378.89" rx="93.88" ry="22"/>
<ellipse fill="none" stroke="black" cx="1156" cy="-378.89" rx="97.88" ry="26"/>
<text text-anchor="middle" x="1156" y="-375.19" font-family="Times,serif" font-size="14.00">set_equality_predicate</text>
</a>
</g>
</g>
<!-- VLSM_Lib_SortedLists_set_eq_first_equal -->
<g id="node5" class="node">
<title>VLSM_Lib_SortedLists_set_eq_first_equal</title>
<g id="a_node5"><a xlink:href="VLSM.Lib.SortedLists.html#set_eq_first_equal" xlink:title="set_eq_first_equal" target="_top">
<ellipse fill="#7fffd4" stroke="black" cx="1275" cy="-225.89" rx="75.29" ry="18"/>
<text text-anchor="middle" x="1275" y="-222.19" font-family="Times,serif" font-size="14.00">set_eq_first_equal</text>
</a>
</g>
</g>
<!-- VLSM_Lib_SortedLists_set_equality_predicate&#45;&gt;VLSM_Lib_SortedLists_set_eq_first_equal -->
<g id="edge3" class="edge">
<title>VLSM_Lib_SortedLists_set_equality_predicate&#45;&gt;VLSM_Lib_SortedLists_set_eq_first_equal</title>
<path fill="none" stroke="black" d="M1175.38,-353.3C1197.35,-325.43 1232.96,-280.23 1255.13,-252.11"/>
<polygon fill="black" stroke="black" points="1258.1,-253.99 1261.54,-243.97 1252.61,-249.66 1258.1,-253.99"/>
</g>
<!-- VLSM_Lib_SortedLists_LocallySorted_elem_of_lt -->
<g id="node7" class="node">
<title>VLSM_Lib_SortedLists_LocallySorted_elem_of_lt</title>
<g id="a_node7"><a xlink:href="VLSM.Lib.SortedLists.html#LocallySorted_elem_of_lt" xlink:title="LocallySorted_elem_of_lt" target="_top">
<ellipse fill="#7fffd4" stroke="black" cx="1266" cy="-86.89" rx="103.18" ry="18"/>
<text text-anchor="middle" x="1266" y="-83.19" font-family="Times,serif" font-size="14.00">LocallySorted_elem_of_lt</text>
</a>
</g>
</g>
<!-- VLSM_Lib_SortedLists_set_eq_first_equal&#45;&gt;VLSM_Lib_SortedLists_LocallySorted_elem_of_lt -->
<g id="edge4" class="edge">
<title>VLSM_Lib_SortedLists_set_eq_first_equal&#45;&gt;VLSM_Lib_SortedLists_LocallySorted_elem_of_lt</title>
<path fill="none" stroke="black" d="M1273.88,-207.82C1272.36,-184.64 1269.62,-142.96 1267.8,-115.35"/>
<polygon fill="black" stroke="black" points="1271.28,-114.93 1267.14,-105.18 1264.3,-115.39 1271.28,-114.93"/>
</g>
<!-- VLSM_Lib_SortedLists_add_in_sorted_list_existing -->
<g id="node6" class="node">
<title>VLSM_Lib_SortedLists_add_in_sorted_list_existing</title>
<g id="a_node6"><a xlink:href="VLSM.Lib.SortedLists.html#add_in_sorted_list_existing" xlink:title="add_in_sorted_list_existing" target="_top">
<ellipse fill="#7fffd4" stroke="black" cx="1066" cy="-225.89" rx="107.79" ry="18"/>
<ellipse fill="none" stroke="black" cx="1066" cy="-225.89" rx="111.78" ry="22"/>
<ellipse fill="none" stroke="black" cx="1066" cy="-225.89" rx="115.78" ry="26"/>
<text text-anchor="middle" x="1066" y="-222.19" font-family="Times,serif" font-size="14.00">add_in_sorted_list_existing</text>
</a>
</g>
</g>
<!-- VLSM_Lib_SortedLists_add_in_sorted_list_existing&#45;&gt;VLSM_Lib_SortedLists_LocallySorted_elem_of_lt -->
<g id="edge5" class="edge">
<title>VLSM_Lib_SortedLists_add_in_sorted_list_existing&#45;&gt;VLSM_Lib_SortedLists_LocallySorted_elem_of_lt</title>
<path fill="none" stroke="black" d="M1100.84,-201.03C1138.14,-175.48 1196.86,-135.25 1233.31,-110.29"/>
<polygon fill="black" stroke="black" points="1235.35,-113.13 1241.63,-104.59 1231.4,-107.35 1235.35,-113.13"/>
</g>
<!-- VLSM_Lib_SortedLists_LocallySorted_tl -->
<g id="node9" class="node">
<title>VLSM_Lib_SortedLists_LocallySorted_tl</title>
<g id="a_node9"><a xlink:href="VLSM.Lib.SortedLists.html#LocallySorted_tl" xlink:title="LocallySorted_tl" target="_top">
<ellipse fill="#7fffd4" stroke="black" cx="1066" cy="-86.89" rx="69.59" ry="18"/>
<text text-anchor="middle" x="1066" y="-83.19" font-family="Times,serif" font-size="14.00">LocallySorted_tl</text>
</a>
</g>
</g>
<!-- VLSM_Lib_SortedLists_add_in_sorted_list_existing&#45;&gt;VLSM_Lib_SortedLists_LocallySorted_tl -->
<g id="edge6" class="edge">
<title>VLSM_Lib_SortedLists_add_in_sorted_list_existing&#45;&gt;VLSM_Lib_SortedLists_LocallySorted_tl</title>
<path fill="none" stroke="black" d="M1066,-199.77C1066,-175.81 1066,-139.83 1066,-115.19"/>
<polygon fill="black" stroke="black" points="1069.5,-115.06 1066,-105.06 1062.5,-115.06 1069.5,-115.06"/>
</g>
<!-- VLSM_Lib_SortedLists_add_in_sorted_list_fn -->
<g id="node18" class="node">
<title>VLSM_Lib_SortedLists_add_in_sorted_list_fn</title>
<g id="a_node18"><a xlink:href="VLSM.Lib.SortedLists.html#add_in_sorted_list_fn" xlink:title="add_in_sorted_list_fn" target="_top">
<ellipse fill="#f070d1" stroke="black" cx="593" cy="-86.89" rx="87.18" ry="18"/>
<text text-anchor="middle" x="593" y="-83.19" font-family="Times,serif" font-size="14.00">add_in_sorted_list_fn</text>
</a>
</g>
</g>
<!-- VLSM_Lib_SortedLists_add_in_sorted_list_existing&#45;&gt;VLSM_Lib_SortedLists_add_in_sorted_list_fn -->
<g id="edge7" class="edge">
<title>VLSM_Lib_SortedLists_add_in_sorted_list_existing&#45;&gt;VLSM_Lib_SortedLists_add_in_sorted_list_fn</title>
<path fill="none" stroke="black" d="M996.97,-204.9C903.52,-177.83 738.42,-130.01 651.03,-104.7"/>
<polygon fill="black" stroke="black" points="651.86,-101.3 641.28,-101.88 649.91,-108.02 651.86,-101.3"/>
</g>
<!-- VLSM_Lib_SortedLists_add_in_sorted_list_sorted -->
<g id="node8" class="node">
<title>VLSM_Lib_SortedLists_add_in_sorted_list_sorted</title>
<g id="a_node8"><a xlink:href="VLSM.Lib.SortedLists.html#add_in_sorted_list_sorted" xlink:title="add_in_sorted_list_sorted" target="_top">
<ellipse fill="#7fffd4" stroke="black" cx="823" cy="-225.89" rx="101.29" ry="18"/>
<ellipse fill="none" stroke="black" cx="823" cy="-225.89" rx="105.29" ry="22"/>
<ellipse fill="none" stroke="black" cx="823" cy="-225.89" rx="109.28" ry="26"/>
<text text-anchor="middle" x="823" y="-222.19" font-family="Times,serif" font-size="14.00">add_in_sorted_list_sorted</text>
</a>
</g>
</g>
<!-- VLSM_Lib_SortedLists_add_in_sorted_list_sorted&#45;&gt;VLSM_Lib_SortedLists_add_in_sorted_list_fn -->
<g id="edge8" class="edge">
<title>VLSM_Lib_SortedLists_add_in_sorted_list_sorted&#45;&gt;VLSM_Lib_SortedLists_add_in_sorted_list_fn</title>
<path fill="none" stroke="black" d="M783.72,-201.5C740.33,-175.65 671.05,-134.39 629.02,-109.35"/>
<polygon fill="black" stroke="black" points="630.61,-106.22 620.22,-104.11 627.02,-112.23 630.61,-106.22"/>
</g>
<!-- VLSM_Lib_SortedLists_LocallySorted_filter -->
<g id="node10" class="node">
<title>VLSM_Lib_SortedLists_LocallySorted_filter</title>
<g id="a_node10"><a xlink:href="VLSM.Lib.SortedLists.html#LocallySorted_filter" xlink:title="LocallySorted_filter" target="_top">
<ellipse fill="#7fffd4" stroke="black" cx="825" cy="-531.89" rx="81.8" ry="18"/>
<ellipse fill="none" stroke="black" cx="825" cy="-531.89" rx="85.79" ry="22"/>
<ellipse fill="none" stroke="black" cx="825" cy="-531.89" rx="89.79" ry="26"/>
<text text-anchor="middle" x="825" y="-528.19" font-family="Times,serif" font-size="14.00">LocallySorted_filter</text>
</a>
</g>
</g>
<!-- VLSM_Lib_SortedLists_LocallySorted_ForAll2 -->
<g id="node11" class="node">
<title>VLSM_Lib_SortedLists_LocallySorted_ForAll2</title>
<g id="a_node11"><a xlink:href="VLSM.Lib.SortedLists.html#LocallySorted_ForAll2" xlink:title="LocallySorted_ForAll2" target="_top">
<ellipse fill="#7fffd4" stroke="black" cx="825" cy="-378.89" rx="92.88" ry="18"/>
<text text-anchor="middle" x="825" y="-375.19" font-family="Times,serif" font-size="14.00">LocallySorted_ForAll2</text>
</a>
</g>
</g>
<!-- VLSM_Lib_SortedLists_LocallySorted_filter&#45;&gt;VLSM_Lib_SortedLists_LocallySorted_ForAll2 -->
<g id="edge9" class="edge">
<title>VLSM_Lib_SortedLists_LocallySorted_filter&#45;&gt;VLSM_Lib_SortedLists_LocallySorted_ForAll2</title>
<path fill="none" stroke="black" d="M825,-505.62C825,-478.49 825,-435.53 825,-407.53"/>
<polygon fill="black" stroke="black" points="828.5,-407.24 825,-397.24 821.5,-407.24 828.5,-407.24"/>
</g>
<!-- VLSM_Lib_SortedLists_add_in_sorted_list_tail -->
<g id="node12" class="node">
<title>VLSM_Lib_SortedLists_add_in_sorted_list_tail</title>
<g id="a_node12"><a xlink:href="VLSM.Lib.SortedLists.html#add_in_sorted_list_tail" xlink:title="add_in_sorted_list_tail" target="_top">
<ellipse fill="#7fffd4" stroke="black" cx="557" cy="-531.89" rx="90.98" ry="18"/>
<ellipse fill="none" stroke="black" cx="557" cy="-531.89" rx="94.98" ry="22"/>
<ellipse fill="none" stroke="black" cx="557" cy="-531.89" rx="98.98" ry="26"/>
<text text-anchor="middle" x="557" y="-528.19" font-family="Times,serif" font-size="14.00">add_in_sorted_list_tail</text>
</a>
</g>
</g>
<!-- VLSM_Lib_SortedLists_add_in_sorted_list_iff -->
<g id="node14" class="node">
<title>VLSM_Lib_SortedLists_add_in_sorted_list_iff</title>
<g id="a_node14"><a xlink:href="VLSM.Lib.SortedLists.html#add_in_sorted_list_iff" xlink:title="add_in_sorted_list_iff" target="_top">
<ellipse fill="#7fffd4" stroke="black" cx="446" cy="-378.89" rx="88.28" ry="18"/>
<text text-anchor="middle" x="446" y="-375.19" font-family="Times,serif" font-size="14.00">add_in_sorted_list_iff</text>
</a>
</g>
</g>
<!-- VLSM_Lib_SortedLists_add_in_sorted_list_tail&#45;&gt;VLSM_Lib_SortedLists_add_in_sorted_list_iff -->
<g id="edge10" class="edge">
<title>VLSM_Lib_SortedLists_add_in_sorted_list_tail&#45;&gt;VLSM_Lib_SortedLists_add_in_sorted_list_iff</title>
<path fill="none" stroke="black" d="M538.92,-506.3C518.43,-478.43 485.21,-433.23 464.54,-405.11"/>
<polygon fill="black" stroke="black" points="467.29,-402.95 458.55,-396.97 461.65,-407.1 467.29,-402.95"/>
</g>
<!-- VLSM_Lib_SortedLists_add_in_sorted_list_head -->
<g id="node13" class="node">
<title>VLSM_Lib_SortedLists_add_in_sorted_list_head</title>
<g id="a_node13"><a xlink:href="VLSM.Lib.SortedLists.html#add_in_sorted_list_head" xlink:title="add_in_sorted_list_head" target="_top">
<ellipse fill="#7fffd4" stroke="black" cx="335" cy="-531.89" rx="96.7" ry="18"/>
<ellipse fill="none" stroke="black" cx="335" cy="-531.89" rx="100.69" ry="22"/>
<ellipse fill="none" stroke="black" cx="335" cy="-531.89" rx="104.68" ry="26"/>
<text text-anchor="middle" x="335" y="-528.19" font-family="Times,serif" font-size="14.00">add_in_sorted_list_head</text>
</a>
</g>
</g>
<!-- VLSM_Lib_SortedLists_add_in_sorted_list_head&#45;&gt;VLSM_Lib_SortedLists_add_in_sorted_list_iff -->
<g id="edge11" class="edge">
<title>VLSM_Lib_SortedLists_add_in_sorted_list_head&#45;&gt;VLSM_Lib_SortedLists_add_in_sorted_list_iff</title>
<path fill="none" stroke="black" d="M353.33,-505.96C373.87,-478.02 406.97,-432.99 427.55,-404.99"/>
<polygon fill="black" stroke="black" points="430.41,-407.02 433.51,-396.89 424.77,-402.87 430.41,-407.02"/>
</g>
<!-- VLSM_Lib_SortedLists_add_in_sorted_list_in_rev -->
<g id="node15" class="node">
<title>VLSM_Lib_SortedLists_add_in_sorted_list_in_rev</title>
<g id="a_node15"><a xlink:href="VLSM.Lib.SortedLists.html#add_in_sorted_list_in_rev" xlink:title="add_in_sorted_list_in_rev" target="_top">
<ellipse fill="#7fffd4" stroke="black" cx="593" cy="-225.89" rx="102.88" ry="18"/>
<text text-anchor="middle" x="593" y="-222.19" font-family="Times,serif" font-size="14.00">add_in_sorted_list_in_rev</text>
</a>
</g>
</g>
<!-- VLSM_Lib_SortedLists_add_in_sorted_list_iff&#45;&gt;VLSM_Lib_SortedLists_add_in_sorted_list_in_rev -->
<g id="edge12" class="edge">
<title>VLSM_Lib_SortedLists_add_in_sorted_list_iff&#45;&gt;VLSM_Lib_SortedLists_add_in_sorted_list_in_rev</title>
<path fill="none" stroke="black" d="M462.29,-361.16C488.34,-334.4 539.48,-281.87 569.49,-251.05"/>
<polygon fill="black" stroke="black" points="572.17,-253.31 576.63,-243.71 567.15,-248.43 572.17,-253.31"/>
</g>
<!-- VLSM_Lib_SortedLists_add_in_sorted_list_in -->
<g id="node16" class="node">
<title>VLSM_Lib_SortedLists_add_in_sorted_list_in</title>
<g id="a_node16"><a xlink:href="VLSM.Lib.SortedLists.html#add_in_sorted_list_in" xlink:title="add_in_sorted_list_in" target="_top">
<ellipse fill="#7fffd4" stroke="black" cx="385" cy="-225.89" rx="87.18" ry="18"/>
<text text-anchor="middle" x="385" y="-222.19" font-family="Times,serif" font-size="14.00">add_in_sorted_list_in</text>
</a>
</g>
</g>
<!-- VLSM_Lib_SortedLists_add_in_sorted_list_iff&#45;&gt;VLSM_Lib_SortedLists_add_in_sorted_list_in -->
<g id="edge13" class="edge">
<title>VLSM_Lib_SortedLists_add_in_sorted_list_iff&#45;&gt;VLSM_Lib_SortedLists_add_in_sorted_list_in</title>
<path fill="none" stroke="black" d="M439.12,-360.87C428.55,-334.7 408.22,-284.38 395.71,-253.41"/>
<polygon fill="black" stroke="black" points="398.94,-252.05 391.95,-244.09 392.45,-254.67 398.94,-252.05"/>
</g>
<!-- VLSM_Lib_SortedLists_add_in_sorted_list_in_rev&#45;&gt;VLSM_Lib_SortedLists_add_in_sorted_list_fn -->
<g id="edge14" class="edge">
<title>VLSM_Lib_SortedLists_add_in_sorted_list_in_rev&#45;&gt;VLSM_Lib_SortedLists_add_in_sorted_list_fn</title>
<path fill="none" stroke="black" d="M593,-207.82C593,-184.64 593,-142.96 593,-115.35"/>
<polygon fill="black" stroke="black" points="596.5,-115.18 593,-105.18 589.5,-115.18 596.5,-115.18"/>
</g>
<!-- VLSM_Lib_SortedLists_add_in_sorted_list_in&#45;&gt;VLSM_Lib_SortedLists_add_in_sorted_list_fn -->
<g id="edge15" class="edge">
<title>VLSM_Lib_SortedLists_add_in_sorted_list_in&#45;&gt;VLSM_Lib_SortedLists_add_in_sorted_list_fn</title>
<path fill="none" stroke="black" d="M410.09,-208.37C447.51,-183.72 518.01,-137.29 559.71,-109.82"/>
<polygon fill="black" stroke="black" points="561.72,-112.69 568.15,-104.26 557.87,-106.84 561.72,-112.69"/>
</g>
<!-- VLSM_Lib_SortedLists_add_in_sorted_list_no_empty -->
<g id="node17" class="node">
<title>VLSM_Lib_SortedLists_add_in_sorted_list_no_empty</title>
<g id="a_node17"><a xlink:href="VLSM.Lib.SortedLists.html#add_in_sorted_list_no_empty" xlink:title="add_in_sorted_list_no_empty" target="_top">
<ellipse fill="#7fffd4" stroke="black" cx="156" cy="-225.89" rx="115.87" ry="18"/>
<ellipse fill="none" stroke="black" cx="156" cy="-225.89" rx="119.87" ry="22"/>
<ellipse fill="none" stroke="black" cx="156" cy="-225.89" rx="123.88" ry="26"/>
<text text-anchor="middle" x="156" y="-222.19" font-family="Times,serif" font-size="14.00">add_in_sorted_list_no_empty</text>
</a>
</g>
</g>
<!-- VLSM_Lib_SortedLists_add_in_sorted_list_no_empty&#45;&gt;VLSM_Lib_SortedLists_add_in_sorted_list_fn -->
<g id="edge16" class="edge">
<title>VLSM_Lib_SortedLists_add_in_sorted_list_no_empty&#45;&gt;VLSM_Lib_SortedLists_add_in_sorted_list_fn</title>
<path fill="none" stroke="black" d="M222.85,-203.94C308.94,-176.95 457.03,-130.52 537.32,-105.35"/>
<polygon fill="black" stroke="black" points="538.75,-108.57 547.24,-102.24 536.66,-101.89 538.75,-108.57"/>
</g>
</g>
</svg>
