<?xml version="1.0" encoding="UTF-8" standalone="no"?>
<!DOCTYPE svg PUBLIC "-//W3C//DTD SVG 1.1//EN"
 "http://www.w3.org/Graphics/SVG/1.1/DTD/svg11.dtd">
<!-- Generated by graphviz version 2.43.0 (0)
 -->
<!-- Title: rvdpdgraph Pages: 1 -->
<svg width="1482pt" height="745pt"
 viewBox="0.00 0.00 1482.00 745.00" xmlns="http://www.w3.org/2000/svg" xmlns:xlink="http://www.w3.org/1999/xlink">
<g id="graph0" class="graph" transform="scale(1 1) rotate(0) translate(4 741)">
<title>rvdpdgraph</title>
<polygon fill="white" stroke="transparent" points="-4,4 -4,-741 1478,-741 1478,4 -4,4"/>
<g id="clust1" class="cluster">
<title>cluster_VLSM</title>
<polygon fill="#ffffc3" stroke="black" points="10.49,-8 10.49,-729 1463.51,-729 1463.51,-8 10.49,-8"/>
<text text-anchor="middle" x="37.99" y="-713.8" font-family="Times,serif" font-size="14.00">VLSM</text>
</g>
<g id="clust2" class="cluster">
<title>cluster_VLSM_Lib</title>
<polygon fill="#ffffa3" stroke="black" points="20.98,-16 20.98,-698 1453.02,-698 1453.02,-16 20.98,-16"/>
<text text-anchor="middle" x="38.48" y="-682.8" font-family="Times,serif" font-size="14.00">Lib</text>
</g>
<g id="clust3" class="cluster">
<title>cluster_VLSM_Lib_Measurable</title>
<polygon fill="#ffff83" stroke="black" points="31.47,-24 31.47,-667 1442.53,-667 1442.53,-24 31.47,-24"/>
<text text-anchor="middle" x="71.47" y="-651.8" font-family="Times,serif" font-size="14.00">Measurable</text>
</g>
<!-- VLSM_Lib_Measurable_sum_weights_union_empty -->
<g id="node1" class="node">
<title>VLSM_Lib_Measurable_sum_weights_union_empty</title>
<g id="a_node1"><a xlink:href="VLSM.Lib.Measurable.html#sum_weights_union_empty" xlink:title="sum_weights_union_empty" target="_top">
<ellipse fill="#7fffd4" stroke="black" cx="1121.61" cy="-522" rx="108.58" ry="18"/>
<ellipse fill="none" stroke="black" cx="1121.61" cy="-522" rx="112.58" ry="22"/>
<ellipse fill="none" stroke="black" cx="1121.61" cy="-522" rx="116.58" ry="26"/>
<text text-anchor="middle" x="1121.61" y="-518.3" font-family="Times,serif" font-size="14.00">sum_weights_union_empty</text>
</a>
</g>
</g>
<!-- VLSM_Lib_Measurable_sum_weights_disj_union -->
<g id="node2" class="node">
<title>VLSM_Lib_Measurable_sum_weights_disj_union</title>
<g id="a_node2"><a xlink:href="VLSM.Lib.Measurable.html#sum_weights_disj_union" xlink:title="sum_weights_disj_union" target="_top">
<ellipse fill="#7fffd4" stroke="black" cx="765.61" cy="-434" rx="98.58" ry="18"/>
<text text-anchor="middle" x="765.61" y="-430.3" font-family="Times,serif" font-size="14.00">sum_weights_disj_union</text>
</a>
</g>
</g>
<!-- VLSM_Lib_Measurable_sum_weights_union_empty&#45;&gt;VLSM_Lib_Measurable_sum_weights_disj_union -->
<g id="edge1" class="edge">
<title>VLSM_Lib_Measurable_sum_weights_union_empty&#45;&gt;VLSM_Lib_Measurable_sum_weights_disj_union</title>
<path fill="none" stroke="black" d="M1044.8,-502.45C981.49,-487.15 892.6,-465.68 832.25,-451.1"/>
<polygon fill="black" stroke="black" points="832.99,-447.68 822.44,-448.73 831.34,-454.48 832.99,-447.68"/>
</g>
<!-- VLSM_Lib_Measurable_sum_weights_empty -->
<g id="node13" class="node">
<title>VLSM_Lib_Measurable_sum_weights_empty</title>
<g id="a_node13"><a xlink:href="VLSM.Lib.Measurable.html#sum_weights_empty" xlink:title="sum_weights_empty" target="_top">
<ellipse fill="#7fffd4" stroke="black" cx="1321.61" cy="-434" rx="84.49" ry="18"/>
<text text-anchor="middle" x="1321.61" y="-430.3" font-family="Times,serif" font-size="14.00">sum_weights_empty</text>
</a>
</g>
</g>
<!-- VLSM_Lib_Measurable_sum_weights_union_empty&#45;&gt;VLSM_Lib_Measurable_sum_weights_empty -->
<g id="edge2" class="edge">
<title>VLSM_Lib_Measurable_sum_weights_union_empty&#45;&gt;VLSM_Lib_Measurable_sum_weights_empty</title>
<path fill="none" stroke="black" d="M1173.64,-498.63C1205.49,-484.93 1245.86,-467.58 1276.38,-454.45"/>
<polygon fill="black" stroke="black" points="1278.11,-457.51 1285.92,-450.35 1275.35,-451.08 1278.11,-457.51"/>
</g>
<!-- VLSM_Lib_Measurable_sum_weights_list_permutation_proper -->
<g id="node3" class="node">
<title>VLSM_Lib_Measurable_sum_weights_list_permutation_proper</title>
<g id="a_node3"><a xlink:href="VLSM.Lib.Measurable.html#sum_weights_list_permutation_proper" xlink:title="sum_weights_list_permutation_proper" target="_top">
<ellipse fill="#7fffd4" stroke="black" cx="803.61" cy="-354" rx="147.57" ry="18"/>
<text text-anchor="middle" x="803.61" y="-350.3" font-family="Times,serif" font-size="14.00">sum_weights_list_permutation_proper</text>
</a>
</g>
</g>
<!-- VLSM_Lib_Measurable_sum_weights_disj_union&#45;&gt;VLSM_Lib_Measurable_sum_weights_list_permutation_proper -->
<g id="edge3" class="edge">
<title>VLSM_Lib_Measurable_sum_weights_disj_union&#45;&gt;VLSM_Lib_Measurable_sum_weights_list_permutation_proper</title>
<path fill="none" stroke="black" d="M774.05,-415.69C779,-405.52 785.36,-392.47 790.91,-381.07"/>
<polygon fill="black" stroke="black" points="794.1,-382.52 795.33,-371.99 787.81,-379.45 794.1,-382.52"/>
</g>
<!-- VLSM_Lib_Measurable_sum_weights_app_list -->
<g id="node4" class="node">
<title>VLSM_Lib_Measurable_sum_weights_app_list</title>
<g id="a_node4"><a xlink:href="VLSM.Lib.Measurable.html#sum_weights_app_list" xlink:title="sum_weights_app_list" target="_top">
<ellipse fill="#7fffd4" stroke="black" cx="1138.61" cy="-354" rx="89.88" ry="18"/>
<text text-anchor="middle" x="1138.61" y="-350.3" font-family="Times,serif" font-size="14.00">sum_weights_app_list</text>
</a>
</g>
</g>
<!-- VLSM_Lib_Measurable_sum_weights_disj_union&#45;&gt;VLSM_Lib_Measurable_sum_weights_app_list -->
<g id="edge4" class="edge">
<title>VLSM_Lib_Measurable_sum_weights_disj_union&#45;&gt;VLSM_Lib_Measurable_sum_weights_app_list</title>
<path fill="none" stroke="black" d="M828.04,-419.94C894.56,-406.04 999.61,-384.07 1068.81,-369.6"/>
<polygon fill="black" stroke="black" points="1069.68,-372.99 1078.76,-367.52 1068.25,-366.14 1069.68,-372.99"/>
</g>
<!-- VLSM_Lib_Measurable_sum_weights -->
<g id="node16" class="node">
<title>VLSM_Lib_Measurable_sum_weights</title>
<g id="a_node16"><a xlink:href="VLSM.Lib.Measurable.html#sum_weights" xlink:title="sum_weights" target="_top">
<ellipse fill="#f070d1" stroke="black" cx="1355.61" cy="-354" rx="57.69" ry="18"/>
<text text-anchor="middle" x="1355.61" y="-350.3" font-family="Times,serif" font-size="14.00">sum_weights</text>
</a>
</g>
</g>
<!-- VLSM_Lib_Measurable_sum_weights_disj_union&#45;&gt;VLSM_Lib_Measurable_sum_weights -->
<g id="edge5" class="edge">
<title>VLSM_Lib_Measurable_sum_weights_disj_union&#45;&gt;VLSM_Lib_Measurable_sum_weights</title>
<path fill="none" stroke="black" d="M840.07,-422.09C871.4,-417.58 908.26,-412.4 941.61,-408 1073,-390.68 1106.24,-389.45 1237.61,-372 1256.14,-369.54 1276.27,-366.7 1294.57,-364.06"/>
<polygon fill="black" stroke="black" points="1295.14,-367.51 1304.53,-362.61 1294.13,-360.58 1295.14,-367.51"/>
</g>
<!-- VLSM_Lib_Measurable_sum_weights_list -->
<g id="node15" class="node">
<title>VLSM_Lib_Measurable_sum_weights_list</title>
<g id="a_node15"><a xlink:href="VLSM.Lib.Measurable.html#sum_weights_list" xlink:title="sum_weights_list" target="_top">
<ellipse fill="#f070d1" stroke="black" cx="693.61" cy="-282" rx="72.59" ry="18"/>
<text text-anchor="middle" x="693.61" y="-278.3" font-family="Times,serif" font-size="14.00">sum_weights_list</text>
</a>
</g>
</g>
<!-- VLSM_Lib_Measurable_sum_weights_list_permutation_proper&#45;&gt;VLSM_Lib_Measurable_sum_weights_list -->
<g id="edge6" class="edge">
<title>VLSM_Lib_Measurable_sum_weights_list_permutation_proper&#45;&gt;VLSM_Lib_Measurable_sum_weights_list</title>
<path fill="none" stroke="black" d="M777.26,-336.23C762.25,-326.68 743.28,-314.61 727.2,-304.38"/>
<polygon fill="black" stroke="black" points="728.93,-301.32 718.61,-298.91 725.17,-307.23 728.93,-301.32"/>
</g>
<!-- VLSM_Lib_Measurable_sum_weights_app_list&#45;&gt;VLSM_Lib_Measurable_sum_weights_list -->
<g id="edge7" class="edge">
<title>VLSM_Lib_Measurable_sum_weights_app_list&#45;&gt;VLSM_Lib_Measurable_sum_weights_list</title>
<path fill="none" stroke="black" d="M1070.06,-342.22C986.77,-329.11 847.04,-307.13 763.26,-293.96"/>
<polygon fill="black" stroke="black" points="763.75,-290.49 753.33,-292.39 762.67,-297.41 763.75,-290.49"/>
</g>
<!-- VLSM_Lib_Measurable_sum_weights_in -->
<g id="node5" class="node">
<title>VLSM_Lib_Measurable_sum_weights_in</title>
<g id="a_node5"><a xlink:href="VLSM.Lib.Measurable.html#sum_weights_in" xlink:title="sum_weights_in" target="_top">
<ellipse fill="#7fffd4" stroke="black" cx="688.61" cy="-522" rx="68.8" ry="18"/>
<ellipse fill="none" stroke="black" cx="688.61" cy="-522" rx="72.79" ry="22"/>
<ellipse fill="none" stroke="black" cx="688.61" cy="-522" rx="76.79" ry="26"/>
<text text-anchor="middle" x="688.61" y="-518.3" font-family="Times,serif" font-size="14.00">sum_weights_in</text>
</a>
</g>
</g>
<!-- VLSM_Lib_Measurable_sum_weights_subseteq_list -->
<g id="node8" class="node">
<title>VLSM_Lib_Measurable_sum_weights_subseteq_list</title>
<g id="a_node8"><a xlink:href="VLSM.Lib.Measurable.html#sum_weights_subseteq_list" xlink:title="sum_weights_subseteq_list" target="_top">
<ellipse fill="#7fffd4" stroke="black" cx="211.61" cy="-434" rx="107.48" ry="18"/>
<text text-anchor="middle" x="211.61" y="-430.3" font-family="Times,serif" font-size="14.00">sum_weights_subseteq_list</text>
</a>
</g>
</g>
<!-- VLSM_Lib_Measurable_sum_weights_in&#45;&gt;VLSM_Lib_Measurable_sum_weights_subseteq_list -->
<g id="edge8" class="edge">
<title>VLSM_Lib_Measurable_sum_weights_in&#45;&gt;VLSM_Lib_Measurable_sum_weights_subseteq_list</title>
<path fill="none" stroke="black" d="M621.79,-508.95C535.2,-493.34 384.4,-466.15 291.75,-449.45"/>
<polygon fill="black" stroke="black" points="292.33,-446 281.86,-447.67 291.09,-452.88 292.33,-446"/>
</g>
<!-- VLSM_Lib_Measurable_sum_weights_list_rew -->
<g id="node14" class="node">
<title>VLSM_Lib_Measurable_sum_weights_list_rew</title>
<g id="a_node14"><a xlink:href="VLSM.Lib.Measurable.html#sum_weights_list_rew" xlink:title="sum_weights_list_rew" target="_top">
<ellipse fill="#7fffd4" stroke="black" cx="494.61" cy="-434" rx="90.18" ry="18"/>
<text text-anchor="middle" x="494.61" y="-430.3" font-family="Times,serif" font-size="14.00">sum_weights_list_rew</text>
</a>
</g>
</g>
<!-- VLSM_Lib_Measurable_sum_weights_in&#45;&gt;VLSM_Lib_Measurable_sum_weights_list_rew -->
<g id="edge9" class="edge">
<title>VLSM_Lib_Measurable_sum_weights_in&#45;&gt;VLSM_Lib_Measurable_sum_weights_list_rew</title>
<path fill="none" stroke="black" d="M643.13,-500.84C611.77,-486.93 570.28,-468.54 539.13,-454.74"/>
<polygon fill="black" stroke="black" points="540.38,-451.46 529.82,-450.61 537.54,-457.86 540.38,-451.46"/>
</g>
<!-- VLSM_Lib_Measurable_sum_weights_proper -->
<g id="node6" class="node">
<title>VLSM_Lib_Measurable_sum_weights_proper</title>
<g id="a_node6"><a xlink:href="VLSM.Lib.Measurable.html#sum_weights_proper" xlink:title="sum_weights_proper" target="_top">
<ellipse fill="#7fffd4" stroke="black" cx="443.61" cy="-610" rx="85.27" ry="18"/>
<ellipse fill="none" stroke="black" cx="443.61" cy="-610" rx="89.28" ry="22"/>
<ellipse fill="none" stroke="black" cx="443.61" cy="-610" rx="93.29" ry="26"/>
<text text-anchor="middle" x="443.61" y="-606.3" font-family="Times,serif" font-size="14.00">sum_weights_proper</text>
</a>
</g>
</g>
<!-- VLSM_Lib_Measurable_sum_weights_subseteq -->
<g id="node7" class="node">
<title>VLSM_Lib_Measurable_sum_weights_subseteq</title>
<g id="a_node7"><a xlink:href="VLSM.Lib.Measurable.html#sum_weights_subseteq" xlink:title="sum_weights_subseteq" target="_top">
<ellipse fill="#7fffd4" stroke="black" cx="443.61" cy="-522" rx="92.08" ry="18"/>
<text text-anchor="middle" x="443.61" y="-518.3" font-family="Times,serif" font-size="14.00">sum_weights_subseteq</text>
</a>
</g>
</g>
<!-- VLSM_Lib_Measurable_sum_weights_proper&#45;&gt;VLSM_Lib_Measurable_sum_weights_subseteq -->
<g id="edge10" class="edge">
<title>VLSM_Lib_Measurable_sum_weights_proper&#45;&gt;VLSM_Lib_Measurable_sum_weights_subseteq</title>
<path fill="none" stroke="black" d="M443.61,-583.66C443.61,-573.11 443.61,-560.84 443.61,-550.1"/>
<polygon fill="black" stroke="black" points="447.11,-550 443.61,-540 440.11,-550 447.11,-550"/>
</g>
<!-- VLSM_Lib_Measurable_sum_weights_subseteq&#45;&gt;VLSM_Lib_Measurable_sum_weights_subseteq_list -->
<g id="edge11" class="edge">
<title>VLSM_Lib_Measurable_sum_weights_subseteq&#45;&gt;VLSM_Lib_Measurable_sum_weights_subseteq_list</title>
<path fill="none" stroke="black" d="M402.67,-505.82C363.81,-491.42 305.26,-469.71 263.22,-454.13"/>
<polygon fill="black" stroke="black" points="264.3,-450.8 253.71,-450.61 261.87,-457.36 264.3,-450.8"/>
</g>
<!-- VLSM_Lib_Measurable_sum_weights_subseteq&#45;&gt;VLSM_Lib_Measurable_sum_weights_list_rew -->
<g id="edge12" class="edge">
<title>VLSM_Lib_Measurable_sum_weights_subseteq&#45;&gt;VLSM_Lib_Measurable_sum_weights_list_rew</title>
<path fill="none" stroke="black" d="M453.69,-504.01C461.02,-491.64 471.08,-474.68 479.39,-460.66"/>
<polygon fill="black" stroke="black" points="482.47,-462.34 484.56,-451.96 476.45,-458.77 482.47,-462.34"/>
</g>
<!-- VLSM_Lib_Measurable_sum_weights_in_list -->
<g id="node9" class="node">
<title>VLSM_Lib_Measurable_sum_weights_in_list</title>
<g id="a_node9"><a xlink:href="VLSM.Lib.Measurable.html#sum_weights_in_list" xlink:title="sum_weights_in_list" target="_top">
<ellipse fill="#7fffd4" stroke="black" cx="449.61" cy="-354" rx="83.69" ry="18"/>
<text text-anchor="middle" x="449.61" y="-350.3" font-family="Times,serif" font-size="14.00">sum_weights_in_list</text>
</a>
</g>
</g>
<!-- VLSM_Lib_Measurable_sum_weights_subseteq_list&#45;&gt;VLSM_Lib_Measurable_sum_weights_in_list -->
<g id="edge13" class="edge">
<title>VLSM_Lib_Measurable_sum_weights_subseteq_list&#45;&gt;VLSM_Lib_Measurable_sum_weights_in_list</title>
<path fill="none" stroke="black" d="M258.07,-417.78C297.64,-404.81 354.53,-386.16 396.02,-372.56"/>
<polygon fill="black" stroke="black" points="397.27,-375.84 405.69,-369.4 395.09,-369.18 397.27,-375.84"/>
</g>
<!-- VLSM_Lib_Measurable_sum_weights_positive_list -->
<g id="node11" class="node">
<title>VLSM_Lib_Measurable_sum_weights_positive_list</title>
<g id="a_node11"><a xlink:href="VLSM.Lib.Measurable.html#sum_weights_positive_list" xlink:title="sum_weights_positive_list" target="_top">
<ellipse fill="#7fffd4" stroke="black" cx="179.61" cy="-354" rx="104.78" ry="18"/>
<text text-anchor="middle" x="179.61" y="-350.3" font-family="Times,serif" font-size="14.00">sum_weights_positive_list</text>
</a>
</g>
</g>
<!-- VLSM_Lib_Measurable_sum_weights_subseteq_list&#45;&gt;VLSM_Lib_Measurable_sum_weights_positive_list -->
<g id="edge14" class="edge">
<title>VLSM_Lib_Measurable_sum_weights_subseteq_list&#45;&gt;VLSM_Lib_Measurable_sum_weights_positive_list</title>
<path fill="none" stroke="black" d="M204.51,-415.69C200.38,-405.62 195.09,-392.73 190.45,-381.42"/>
<polygon fill="black" stroke="black" points="193.62,-379.92 186.58,-371.99 187.14,-382.57 193.62,-379.92"/>
</g>
<!-- VLSM_Lib_Measurable_sum_weights_in_list&#45;&gt;VLSM_Lib_Measurable_sum_weights_list -->
<g id="edge15" class="edge">
<title>VLSM_Lib_Measurable_sum_weights_in_list&#45;&gt;VLSM_Lib_Measurable_sum_weights_list</title>
<path fill="none" stroke="black" d="M497.82,-339.17C538.19,-327.59 595.84,-311.05 638.12,-298.92"/>
<polygon fill="black" stroke="black" points="639.33,-302.21 647.98,-296.09 637.4,-295.48 639.33,-302.21"/>
</g>
<!-- VLSM_Lib_Measurable_sum_weights_positive -->
<g id="node10" class="node">
<title>VLSM_Lib_Measurable_sum_weights_positive</title>
<g id="a_node10"><a xlink:href="VLSM.Lib.Measurable.html#sum_weights_positive" xlink:title="sum_weights_positive" target="_top">
<ellipse fill="#7fffd4" stroke="black" cx="170.61" cy="-522" rx="89.87" ry="18"/>
<ellipse fill="none" stroke="black" cx="170.61" cy="-522" rx="93.88" ry="22"/>
<ellipse fill="none" stroke="black" cx="170.61" cy="-522" rx="97.88" ry="26"/>
<text text-anchor="middle" x="170.61" y="-518.3" font-family="Times,serif" font-size="14.00">sum_weights_positive</text>
</a>
</g>
</g>
<!-- VLSM_Lib_Measurable_sum_weights_positive&#45;&gt;VLSM_Lib_Measurable_sum_weights_positive_list -->
<g id="edge16" class="edge">
<title>VLSM_Lib_Measurable_sum_weights_positive&#45;&gt;VLSM_Lib_Measurable_sum_weights_positive_list</title>
<path fill="none" stroke="black" d="M129.83,-498.12C116.37,-488.28 102.97,-475.46 95.61,-460 85.68,-439.13 84.45,-428.24 95.61,-408 103.19,-394.25 116.01,-383.58 129.38,-375.53"/>
<polygon fill="black" stroke="black" points="131.16,-378.54 138.19,-370.62 127.75,-372.43 131.16,-378.54"/>
</g>
<!-- VLSM_Lib_Measurable_sum_weights_positive&#45;&gt;VLSM_Lib_Measurable_sum_weights_list_rew -->
<g id="edge17" class="edge">
<title>VLSM_Lib_Measurable_sum_weights_positive&#45;&gt;VLSM_Lib_Measurable_sum_weights_list_rew</title>
<path fill="none" stroke="black" d="M238.14,-503.08C295.52,-487.84 377.22,-466.16 432.88,-451.38"/>
<polygon fill="black" stroke="black" points="433.85,-454.75 442.62,-448.8 432.05,-447.98 433.85,-454.75"/>
</g>
<!-- VLSM_Lib_Measurable_sum_weights_positive_list&#45;&gt;VLSM_Lib_Measurable_sum_weights_list -->
<g id="edge18" class="edge">
<title>VLSM_Lib_Measurable_sum_weights_positive_list&#45;&gt;VLSM_Lib_Measurable_sum_weights_list</title>
<path fill="none" stroke="black" d="M258.8,-342.22C357.7,-328.75 525.51,-305.89 621.15,-292.87"/>
<polygon fill="black" stroke="black" points="621.88,-296.3 631.32,-291.48 620.93,-289.37 621.88,-296.3"/>
</g>
<!-- VLSM_Lib_Measurable_sum_weights_singleton -->
<g id="node12" class="node">
<title>VLSM_Lib_Measurable_sum_weights_singleton</title>
<g id="a_node12"><a xlink:href="VLSM.Lib.Measurable.html#sum_weights_singleton" xlink:title="sum_weights_singleton" target="_top">
<ellipse fill="#7fffd4" stroke="black" cx="1052.61" cy="-434" rx="94.46" ry="18"/>
<ellipse fill="none" stroke="black" cx="1052.61" cy="-434" rx="98.47" ry="22"/>
<ellipse fill="none" stroke="black" cx="1052.61" cy="-434" rx="102.48" ry="26"/>
<text text-anchor="middle" x="1052.61" y="-430.3" font-family="Times,serif" font-size="14.00">sum_weights_singleton</text>
</a>
</g>
</g>
<!-- VLSM_Lib_Measurable_sum_weights_singleton&#45;&gt;VLSM_Lib_Measurable_sum_weights -->
<g id="edge19" class="edge">
<title>VLSM_Lib_Measurable_sum_weights_singleton&#45;&gt;VLSM_Lib_Measurable_sum_weights</title>
<path fill="none" stroke="black" d="M1122.51,-415.01C1177.28,-400.91 1252.34,-381.58 1302.33,-368.72"/>
<polygon fill="black" stroke="black" points="1303.48,-372.03 1312.29,-366.15 1301.73,-365.26 1303.48,-372.03"/>
</g>
<!-- VLSM_Lib_Measurable_sum_weights_empty&#45;&gt;VLSM_Lib_Measurable_sum_weights -->
<g id="edge20" class="edge">
<title>VLSM_Lib_Measurable_sum_weights_empty&#45;&gt;VLSM_Lib_Measurable_sum_weights</title>
<path fill="none" stroke="black" d="M1329.16,-415.69C1333.55,-405.62 1339.17,-392.73 1344.1,-381.42"/>
<polygon fill="black" stroke="black" points="1347.42,-382.56 1348.2,-371.99 1341,-379.76 1347.42,-382.56"/>
</g>
<!-- VLSM_Lib_Measurable_sum_weights_list_rew&#45;&gt;VLSM_Lib_Measurable_sum_weights_list -->
<g id="edge21" class="edge">
<title>VLSM_Lib_Measurable_sum_weights_list_rew&#45;&gt;VLSM_Lib_Measurable_sum_weights_list</title>
<path fill="none" stroke="black" d="M516.67,-416.37C552.57,-389.31 623.67,-335.72 663.96,-305.35"/>
<polygon fill="black" stroke="black" points="666.18,-308.06 672.06,-299.24 661.97,-302.47 666.18,-308.06"/>
</g>
<!-- VLSM_Lib_Measurable_sum_weights_list_rew&#45;&gt;VLSM_Lib_Measurable_sum_weights -->
<g id="edge22" class="edge">
<title>VLSM_Lib_Measurable_sum_weights_list_rew&#45;&gt;VLSM_Lib_Measurable_sum_weights</title>
<path fill="none" stroke="black" d="M560.26,-421.55C589.92,-416.73 625.45,-411.46 657.61,-408 914.41,-380.39 980.69,-398.44 1237.61,-372 1256.46,-370.06 1276.92,-367.33 1295.42,-364.63"/>
<polygon fill="black" stroke="black" points="1296.1,-368.07 1305.48,-363.14 1295.08,-361.15 1296.1,-368.07"/>
</g>
<!-- VLSM_Lib_Measurable_weight -->
<g id="node17" class="node">
<title>VLSM_Lib_Measurable_weight</title>
<g id="a_node17"><a xlink:href="VLSM.Lib.Measurable.html#weight" xlink:title="weight" target="_top">
<ellipse fill="#f070d1" stroke="black" cx="916.61" cy="-210" rx="34.39" ry="18"/>
<text text-anchor="middle" x="916.61" y="-206.3" font-family="Times,serif" font-size="14.00">weight</text>
</a>
</g>
</g>
<!-- VLSM_Lib_Measurable_sum_weights_list&#45;&gt;VLSM_Lib_Measurable_weight -->
<g id="edge23" class="edge">
<title>VLSM_Lib_Measurable_sum_weights_list&#45;&gt;VLSM_Lib_Measurable_weight</title>
<path fill="none" stroke="black" d="M736.87,-267.42C777.77,-254.58 838.57,-235.5 877.9,-223.15"/>
<polygon fill="black" stroke="black" points="879.17,-226.42 887.66,-220.09 877.07,-219.74 879.17,-226.42"/>
</g>
<!-- VLSM_Lib_Measurable_sum_weights&#45;&gt;VLSM_Lib_Measurable_weight -->
<g id="edge24" class="edge">
<title>VLSM_Lib_Measurable_sum_weights&#45;&gt;VLSM_Lib_Measurable_weight</title>
<path fill="none" stroke="black" d="M1317.04,-340.52C1233.7,-313.57 1037.69,-250.16 954.75,-223.34"/>
<polygon fill="black" stroke="black" points="955.8,-220 945.21,-220.25 953.65,-226.66 955.8,-220"/>
</g>
<!-- VLSM_Lib_Measurable_Measurable -->
<g id="node18" class="node">
<title>VLSM_Lib_Measurable_Measurable</title>
<g id="a_node18"><a xlink:href="VLSM.Lib.Measurable.html#Measurable" xlink:title="Measurable" target="_top">
<ellipse fill="#f070d1" stroke="black" cx="916.61" cy="-130" rx="51.99" ry="18"/>
<text text-anchor="middle" x="916.61" y="-126.3" font-family="Times,serif" font-size="14.00">Measurable</text>
</a>
</g>
</g>
<!-- VLSM_Lib_Measurable_weight&#45;&gt;VLSM_Lib_Measurable_Measurable -->
<g id="edge25" class="edge">
<title>VLSM_Lib_Measurable_weight&#45;&gt;VLSM_Lib_Measurable_Measurable</title>
<path fill="none" stroke="black" d="M916.61,-191.69C916.61,-181.89 916.61,-169.42 916.61,-158.33"/>
<polygon fill="black" stroke="black" points="920.11,-158.26 916.61,-148.26 913.11,-158.26 920.11,-158.26"/>
</g>
<!-- VLSM_Lib_Measurable_pos_R -->
<g id="node20" class="node">
<title>VLSM_Lib_Measurable_pos_R</title>
<g id="a_node20"><a xlink:href="VLSM.Lib.Measurable.html#pos_R" xlink:title="pos_R" target="_top">
<ellipse fill="#f070d1" stroke="black" cx="818.61" cy="-50" rx="33.29" ry="18"/>
<text text-anchor="middle" x="818.61" y="-46.3" font-family="Times,serif" font-size="14.00">pos_R</text>
</a>
</g>
</g>
<!-- VLSM_Lib_Measurable_Measurable&#45;&gt;VLSM_Lib_Measurable_pos_R -->
<g id="edge26" class="edge">
<title>VLSM_Lib_Measurable_Measurable&#45;&gt;VLSM_Lib_Measurable_pos_R</title>
<path fill="none" stroke="black" d="M896.78,-113.22C881.73,-101.24 860.91,-84.66 844.54,-71.63"/>
<polygon fill="black" stroke="black" points="846.44,-68.68 836.44,-65.19 842.08,-74.15 846.44,-68.68"/>
</g>
<!-- VLSM_Lib_Measurable_weight_proj1_sig -->
<g id="node19" class="node">
<title>VLSM_Lib_Measurable_weight_proj1_sig</title>
<g id="a_node19"><a xlink:href="VLSM.Lib.Measurable.html#weight_proj1_sig" xlink:title="weight_proj1_sig" target="_top">
<ellipse fill="#f070d1" stroke="black" cx="719.61" cy="-130" rx="72.27" ry="18"/>
<ellipse fill="none" stroke="black" cx="719.61" cy="-130" rx="76.28" ry="22"/>
<ellipse fill="none" stroke="black" cx="719.61" cy="-130" rx="80.29" ry="26"/>
<text text-anchor="middle" x="719.61" y="-126.3" font-family="Times,serif" font-size="14.00">weight_proj1_sig</text>
</a>
</g>
</g>
<!-- VLSM_Lib_Measurable_weight_proj1_sig&#45;&gt;VLSM_Lib_Measurable_pos_R -->
<g id="edge27" class="edge">
<title>VLSM_Lib_Measurable_weight_proj1_sig&#45;&gt;VLSM_Lib_Measurable_pos_R</title>
<path fill="none" stroke="black" d="M749.05,-105.81C762.92,-94.88 779.33,-81.95 792.73,-71.39"/>
<polygon fill="black" stroke="black" points="794.94,-74.1 800.63,-65.17 790.61,-68.61 794.94,-74.1"/>
</g>
</g>
</svg>
