<?xml version="1.0" encoding="UTF-8" standalone="no"?>
<!DOCTYPE svg PUBLIC "-//W3C//DTD SVG 1.1//EN"
 "http://www.w3.org/Graphics/SVG/1.1/DTD/svg11.dtd">
<!-- Generated by graphviz version 2.43.0 (0)
 -->
<!-- Title: rvdpdgraph Pages: 1 -->
<svg width="1834pt" height="921pt"
 viewBox="0.00 0.00 1834.00 921.00" xmlns="http://www.w3.org/2000/svg" xmlns:xlink="http://www.w3.org/1999/xlink">
<g id="graph0" class="graph" transform="scale(1 1) rotate(0) translate(4 917)">
<title>rvdpdgraph</title>
<polygon fill="white" stroke="transparent" points="-4,4 -4,-917 1830,-917 1830,4 -4,4"/>
<g id="clust1" class="cluster">
<title>cluster_VLSM</title>
<polygon fill="#ffffc3" stroke="black" points="9.36,-8 9.36,-905 1816.64,-905 1816.64,-8 9.36,-8"/>
<text text-anchor="middle" x="36.86" y="-889.8" font-family="Times,serif" font-size="14.00">VLSM</text>
</g>
<g id="clust2" class="cluster">
<title>cluster_VLSM_Lib</title>
<polygon fill="#ffffa3" stroke="black" points="18.73,-16 18.73,-874 1807.27,-874 1807.27,-16 18.73,-16"/>
<text text-anchor="middle" x="36.23" y="-858.8" font-family="Times,serif" font-size="14.00">Lib</text>
</g>
<g id="clust3" class="cluster">
<title>cluster_VLSM_Lib_TopSort</title>
<polygon fill="#ffff83" stroke="black" points="28.09,-24 28.09,-843 1797.91,-843 1797.91,-24 28.09,-24"/>
<text text-anchor="middle" x="58.59" y="-827.8" font-family="Times,serif" font-size="14.00">TopSort</text>
</g>
<!-- VLSM_Lib_TopSort_simple_get_maximal_element_some -->
<g id="node1" class="node">
<title>VLSM_Lib_TopSort_simple_get_maximal_element_some</title>
<g id="a_node1"><a xlink:href="VLSM.Lib.TopSort.html#simple_get_maximal_element_some" xlink:title="simple_get_maximal_element_some" target="_top">
<ellipse fill="#7fffd4" stroke="black" cx="1613.46" cy="-610" rx="141.87" ry="18"/>
<ellipse fill="none" stroke="black" cx="1613.46" cy="-610" rx="145.87" ry="22"/>
<ellipse fill="none" stroke="black" cx="1613.46" cy="-610" rx="149.88" ry="26"/>
<text text-anchor="middle" x="1613.46" y="-606.3" font-family="Times,serif" font-size="14.00">simple_get_maximal_element_some</text>
</a>
</g>
</g>
<!-- VLSM_Lib_TopSort_Forall_True -->
<g id="node6" class="node">
<title>VLSM_Lib_TopSort_Forall_True</title>
<g id="a_node6"><a xlink:href="VLSM.Lib.TopSort.html#Forall_True" xlink:title="Forall_True" target="_top">
<ellipse fill="#7fffd4" stroke="black" cx="1381.46" cy="-522" rx="52.79" ry="18"/>
<text text-anchor="middle" x="1381.46" y="-518.3" font-family="Times,serif" font-size="14.00">Forall_True</text>
</a>
</g>
</g>
<!-- VLSM_Lib_TopSort_simple_get_maximal_element_some&#45;&gt;VLSM_Lib_TopSort_Forall_True -->
<g id="edge1" class="edge">
<title>VLSM_Lib_TopSort_simple_get_maximal_element_some&#45;&gt;VLSM_Lib_TopSort_Forall_True</title>
<path fill="none" stroke="black" d="M1551.89,-586.18C1512.14,-571.44 1461.35,-552.62 1425.59,-539.36"/>
<polygon fill="black" stroke="black" points="1426.52,-535.97 1415.93,-535.78 1424.09,-542.54 1426.52,-535.97"/>
</g>
<!-- VLSM_Lib_TopSort_get_maximal_element_some -->
<g id="node7" class="node">
<title>VLSM_Lib_TopSort_get_maximal_element_some</title>
<g id="a_node7"><a xlink:href="VLSM.Lib.TopSort.html#get_maximal_element_some" xlink:title="get_maximal_element_some" target="_top">
<ellipse fill="#7fffd4" stroke="black" cx="1621.46" cy="-522" rx="113.98" ry="18"/>
<text text-anchor="middle" x="1621.46" y="-518.3" font-family="Times,serif" font-size="14.00">get_maximal_element_some</text>
</a>
</g>
</g>
<!-- VLSM_Lib_TopSort_simple_get_maximal_element_some&#45;&gt;VLSM_Lib_TopSort_get_maximal_element_some -->
<g id="edge2" class="edge">
<title>VLSM_Lib_TopSort_simple_get_maximal_element_some&#45;&gt;VLSM_Lib_TopSort_get_maximal_element_some</title>
<path fill="none" stroke="black" d="M1615.81,-583.66C1616.8,-573.11 1617.94,-560.84 1618.94,-550.1"/>
<polygon fill="black" stroke="black" points="1622.43,-550.28 1619.87,-540 1615.46,-549.64 1622.43,-550.28"/>
</g>
<!-- VLSM_Lib_TopSort_simple_get_maximal_element_correct -->
<g id="node2" class="node">
<title>VLSM_Lib_TopSort_simple_get_maximal_element_correct</title>
<g id="a_node2"><a xlink:href="VLSM.Lib.TopSort.html#simple_get_maximal_element_correct" xlink:title="simple_get_maximal_element_correct" target="_top">
<ellipse fill="#7fffd4" stroke="black" cx="1253.46" cy="-786" rx="147.57" ry="18"/>
<ellipse fill="none" stroke="black" cx="1253.46" cy="-786" rx="151.57" ry="22"/>
<ellipse fill="none" stroke="black" cx="1253.46" cy="-786" rx="155.57" ry="26"/>
<text text-anchor="middle" x="1253.46" y="-782.3" font-family="Times,serif" font-size="14.00">simple_get_maximal_element_correct</text>
</a>
</g>
</g>
<!-- VLSM_Lib_TopSort_simple_get_maximal_element_correct&#45;&gt;VLSM_Lib_TopSort_Forall_True -->
<g id="edge3" class="edge">
<title>VLSM_Lib_TopSort_simple_get_maximal_element_correct&#45;&gt;VLSM_Lib_TopSort_Forall_True</title>
<path fill="none" stroke="black" d="M1331.75,-763.35C1350.99,-754.28 1369.48,-741.61 1381.46,-724 1417.45,-671.06 1401.86,-590.77 1390.13,-549.52"/>
<polygon fill="black" stroke="black" points="1393.47,-548.5 1387.26,-539.92 1386.77,-550.5 1393.47,-548.5"/>
</g>
<!-- VLSM_Lib_TopSort_get_maximal_element_correct -->
<g id="node8" class="node">
<title>VLSM_Lib_TopSort_get_maximal_element_correct</title>
<g id="a_node8"><a xlink:href="VLSM.Lib.TopSort.html#get_maximal_element_correct" xlink:title="get_maximal_element_correct" target="_top">
<ellipse fill="#7fffd4" stroke="black" cx="1253.46" cy="-698" rx="118.88" ry="18"/>
<text text-anchor="middle" x="1253.46" y="-694.3" font-family="Times,serif" font-size="14.00">get_maximal_element_correct</text>
</a>
</g>
</g>
<!-- VLSM_Lib_TopSort_simple_get_maximal_element_correct&#45;&gt;VLSM_Lib_TopSort_get_maximal_element_correct -->
<g id="edge4" class="edge">
<title>VLSM_Lib_TopSort_simple_get_maximal_element_correct&#45;&gt;VLSM_Lib_TopSort_get_maximal_element_correct</title>
<path fill="none" stroke="black" d="M1253.46,-759.66C1253.46,-749.11 1253.46,-736.84 1253.46,-726.1"/>
<polygon fill="black" stroke="black" points="1256.96,-726 1253.46,-716 1249.96,-726 1256.96,-726"/>
</g>
<!-- VLSM_Lib_TopSort_precedes_P_strict -->
<g id="node26" class="node">
<title>VLSM_Lib_TopSort_precedes_P_strict</title>
<g id="a_node26"><a xlink:href="VLSM.Lib.TopSort.html#precedes_P_strict" xlink:title="precedes_P_strict" target="_top">
<ellipse fill="#7fffd4" stroke="black" cx="122.46" cy="-522" rx="72.59" ry="18"/>
<text text-anchor="middle" x="122.46" y="-518.3" font-family="Times,serif" font-size="14.00">precedes_P_strict</text>
</a>
</g>
</g>
<!-- VLSM_Lib_TopSort_simple_get_maximal_element_correct&#45;&gt;VLSM_Lib_TopSort_precedes_P_strict -->
<g id="edge5" class="edge">
<title>VLSM_Lib_TopSort_simple_get_maximal_element_correct&#45;&gt;VLSM_Lib_TopSort_precedes_P_strict</title>
<path fill="none" stroke="black" d="M1108.15,-776.63C814.87,-758.25 174.44,-710 109.46,-636 88.75,-612.42 98.76,-574.58 109.33,-549.26"/>
<polygon fill="black" stroke="black" points="112.63,-550.46 113.5,-539.9 106.23,-547.61 112.63,-550.46"/>
</g>
<!-- VLSM_Lib_TopSort_simple_maximal_element_in -->
<g id="node3" class="node">
<title>VLSM_Lib_TopSort_simple_maximal_element_in</title>
<g id="a_node3"><a xlink:href="VLSM.Lib.TopSort.html#simple_maximal_element_in" xlink:title="simple_maximal_element_in" target="_top">
<ellipse fill="#7fffd4" stroke="black" cx="950.46" cy="-698" rx="114.29" ry="18"/>
<ellipse fill="none" stroke="black" cx="950.46" cy="-698" rx="118.28" ry="22"/>
<ellipse fill="none" stroke="black" cx="950.46" cy="-698" rx="122.28" ry="26"/>
<text text-anchor="middle" x="950.46" y="-694.3" font-family="Times,serif" font-size="14.00">simple_maximal_element_in</text>
</a>
</g>
</g>
<!-- VLSM_Lib_TopSort_simple_maximal_element_in&#45;&gt;VLSM_Lib_TopSort_Forall_True -->
<g id="edge6" class="edge">
<title>VLSM_Lib_TopSort_simple_maximal_element_in&#45;&gt;VLSM_Lib_TopSort_Forall_True</title>
<path fill="none" stroke="black" d="M1031.69,-678.48C1065.98,-668.71 1105.52,-654.78 1138.46,-636 1168.82,-618.69 1167.15,-601.41 1197.46,-584 1209.6,-577.03 1283.7,-553.35 1334.08,-537.62"/>
<polygon fill="black" stroke="black" points="1335.31,-540.91 1343.82,-534.59 1333.23,-534.22 1335.31,-540.91"/>
</g>
<!-- VLSM_Lib_TopSort_maximal_element_in -->
<g id="node9" class="node">
<title>VLSM_Lib_TopSort_maximal_element_in</title>
<g id="a_node9"><a xlink:href="VLSM.Lib.TopSort.html#maximal_element_in" xlink:title="maximal_element_in" target="_top">
<ellipse fill="#7fffd4" stroke="black" cx="1292.46" cy="-610" rx="86.38" ry="18"/>
<text text-anchor="middle" x="1292.46" y="-606.3" font-family="Times,serif" font-size="14.00">maximal_element_in</text>
</a>
</g>
</g>
<!-- VLSM_Lib_TopSort_simple_maximal_element_in&#45;&gt;VLSM_Lib_TopSort_maximal_element_in -->
<g id="edge7" class="edge">
<title>VLSM_Lib_TopSort_simple_maximal_element_in&#45;&gt;VLSM_Lib_TopSort_maximal_element_in</title>
<path fill="none" stroke="black" d="M1027.21,-677.7C1088.24,-662.35 1172.56,-641.15 1229.62,-626.8"/>
<polygon fill="black" stroke="black" points="1230.75,-630.13 1239.6,-624.29 1229.04,-623.34 1230.75,-630.13"/>
</g>
<!-- VLSM_Lib_TopSort_simple_maximal_element_in&#45;&gt;VLSM_Lib_TopSort_precedes_P_strict -->
<g id="edge8" class="edge">
<title>VLSM_Lib_TopSort_simple_maximal_element_in&#45;&gt;VLSM_Lib_TopSort_precedes_P_strict</title>
<path fill="none" stroke="black" d="M828.16,-696.38C612.34,-694.05 181.99,-683.45 133.46,-636 111.04,-614.08 112.23,-575.77 116.35,-549.9"/>
<polygon fill="black" stroke="black" points="119.81,-550.46 118.17,-539.99 112.92,-549.2 119.81,-550.46"/>
</g>
<!-- VLSM_Lib_TopSort_simple_top_sort_correct -->
<g id="node4" class="node">
<title>VLSM_Lib_TopSort_simple_top_sort_correct</title>
<g id="a_node4"><a xlink:href="VLSM.Lib.TopSort.html#simple_top_sort_correct" xlink:title="simple_top_sort_correct" target="_top">
<ellipse fill="#7fffd4" stroke="black" cx="1024.46" cy="-610" rx="96.7" ry="18"/>
<ellipse fill="none" stroke="black" cx="1024.46" cy="-610" rx="100.69" ry="22"/>
<ellipse fill="none" stroke="black" cx="1024.46" cy="-610" rx="104.68" ry="26"/>
<text text-anchor="middle" x="1024.46" y="-606.3" font-family="Times,serif" font-size="14.00">simple_top_sort_correct</text>
</a>
</g>
</g>
<!-- VLSM_Lib_TopSort_simple_top_sort_correct&#45;&gt;VLSM_Lib_TopSort_Forall_True -->
<g id="edge9" class="edge">
<title>VLSM_Lib_TopSort_simple_top_sort_correct&#45;&gt;VLSM_Lib_TopSort_Forall_True</title>
<path fill="none" stroke="black" d="M1103.03,-592.65C1157.29,-581.03 1231.01,-564.6 1295.46,-548 1307.93,-544.79 1321.34,-541.03 1333.77,-537.43"/>
<polygon fill="black" stroke="black" points="1334.88,-540.75 1343.49,-534.58 1332.91,-534.03 1334.88,-540.75"/>
</g>
<!-- VLSM_Lib_TopSort_top_sort_correct -->
<g id="node11" class="node">
<title>VLSM_Lib_TopSort_top_sort_correct</title>
<g id="a_node11"><a xlink:href="VLSM.Lib.TopSort.html#top_sort_correct" xlink:title="top_sort_correct" target="_top">
<ellipse fill="#7fffd4" stroke="black" cx="1218.46" cy="-522" rx="68.49" ry="18"/>
<text text-anchor="middle" x="1218.46" y="-518.3" font-family="Times,serif" font-size="14.00">top_sort_correct</text>
</a>
</g>
</g>
<!-- VLSM_Lib_TopSort_simple_top_sort_correct&#45;&gt;VLSM_Lib_TopSort_top_sort_correct -->
<g id="edge10" class="edge">
<title>VLSM_Lib_TopSort_simple_top_sort_correct&#45;&gt;VLSM_Lib_TopSort_top_sort_correct</title>
<path fill="none" stroke="black" d="M1074.16,-586.96C1105.57,-573.04 1145.73,-555.24 1175.7,-541.95"/>
<polygon fill="black" stroke="black" points="1177.33,-545.06 1185.05,-537.81 1174.49,-538.66 1177.33,-545.06"/>
</g>
<!-- VLSM_Lib_TopSort_simple_top_sort_correct&#45;&gt;VLSM_Lib_TopSort_precedes_P_strict -->
<g id="edge11" class="edge">
<title>VLSM_Lib_TopSort_simple_top_sort_correct&#45;&gt;VLSM_Lib_TopSort_precedes_P_strict</title>
<path fill="none" stroke="black" d="M938.34,-595.16C910.37,-591.05 879.15,-586.89 850.46,-584 576.27,-556.38 504.27,-586.94 231.46,-548 214.58,-545.59 196.47,-541.9 179.94,-538.08"/>
<polygon fill="black" stroke="black" points="180.42,-534.59 169.88,-535.7 178.81,-541.41 180.42,-534.59"/>
</g>
<!-- VLSM_Lib_TopSort_simple_topologically_sorted_precedes_closed_remove_last -->
<g id="node5" class="node">
<title>VLSM_Lib_TopSort_simple_topologically_sorted_precedes_closed_remove_last</title>
<g id="a_node5"><a xlink:href="VLSM.Lib.TopSort.html#simple_topologically_sorted_precedes_closed_remove_last" xlink:title="simple_topologically_sorted_precedes_closed_remove_last" target="_top">
<ellipse fill="#7fffd4" stroke="black" cx="612.46" cy="-610" rx="220.96" ry="18"/>
<ellipse fill="none" stroke="black" cx="612.46" cy="-610" rx="224.96" ry="22"/>
<ellipse fill="none" stroke="black" cx="612.46" cy="-610" rx="228.96" ry="26"/>
<text text-anchor="middle" x="612.46" y="-606.3" font-family="Times,serif" font-size="14.00">simple_topologically_sorted_precedes_closed_remove_last</text>
</a>
</g>
</g>
<!-- VLSM_Lib_TopSort_simple_topologically_sorted_precedes_closed_remove_last&#45;&gt;VLSM_Lib_TopSort_Forall_True -->
<g id="edge12" class="edge">
<title>VLSM_Lib_TopSort_simple_topologically_sorted_precedes_closed_remove_last&#45;&gt;VLSM_Lib_TopSort_Forall_True</title>
<path fill="none" stroke="black" d="M792.11,-593.82C986.12,-577.3 1270.96,-552.61 1295.46,-548 1308.73,-545.5 1322.9,-541.82 1335.82,-538.05"/>
<polygon fill="black" stroke="black" points="1336.86,-541.39 1345.43,-535.16 1334.84,-534.69 1336.86,-541.39"/>
</g>
<!-- VLSM_Lib_TopSort_topologically_sorted_precedes_closed_remove_last -->
<g id="node18" class="node">
<title>VLSM_Lib_TopSort_topologically_sorted_precedes_closed_remove_last</title>
<g id="a_node18"><a xlink:href="VLSM.Lib.TopSort.html#topologically_sorted_precedes_closed_remove_last" xlink:title="topologically_sorted_precedes_closed_remove_last" target="_top">
<ellipse fill="#7fffd4" stroke="black" cx="630.46" cy="-522" rx="192.27" ry="18"/>
<text text-anchor="middle" x="630.46" y="-518.3" font-family="Times,serif" font-size="14.00">topologically_sorted_precedes_closed_remove_last</text>
</a>
</g>
</g>
<!-- VLSM_Lib_TopSort_simple_topologically_sorted_precedes_closed_remove_last&#45;&gt;VLSM_Lib_TopSort_topologically_sorted_precedes_closed_remove_last -->
<g id="edge13" class="edge">
<title>VLSM_Lib_TopSort_simple_topologically_sorted_precedes_closed_remove_last&#45;&gt;VLSM_Lib_TopSort_topologically_sorted_precedes_closed_remove_last</title>
<path fill="none" stroke="black" d="M617.76,-583.66C619.97,-573.11 622.54,-560.84 624.78,-550.1"/>
<polygon fill="black" stroke="black" points="628.27,-550.51 626.9,-540 621.42,-549.07 628.27,-550.51"/>
</g>
<!-- VLSM_Lib_TopSort_simple_topologically_sorted_precedes_closed_remove_last&#45;&gt;VLSM_Lib_TopSort_precedes_P_strict -->
<g id="edge14" class="edge">
<title>VLSM_Lib_TopSort_simple_topologically_sorted_precedes_closed_remove_last&#45;&gt;VLSM_Lib_TopSort_precedes_P_strict</title>
<path fill="none" stroke="black" d="M474.51,-589.18C401.97,-578.19 311.68,-563.6 231.46,-548 215.36,-544.87 198.02,-541.08 182,-537.41"/>
<polygon fill="black" stroke="black" points="182.76,-534 172.23,-535.15 181.18,-540.82 182.76,-534"/>
</g>
<!-- VLSM_Lib_TopSort_get_maximal_element -->
<g id="node10" class="node">
<title>VLSM_Lib_TopSort_get_maximal_element</title>
<g id="a_node10"><a xlink:href="VLSM.Lib.TopSort.html#get_maximal_element" xlink:title="get_maximal_element" target="_top">
<ellipse fill="#f070d1" stroke="black" cx="1488.46" cy="-434" rx="90.18" ry="18"/>
<text text-anchor="middle" x="1488.46" y="-430.3" font-family="Times,serif" font-size="14.00">get_maximal_element</text>
</a>
</g>
</g>
<!-- VLSM_Lib_TopSort_get_maximal_element_some&#45;&gt;VLSM_Lib_TopSort_get_maximal_element -->
<g id="edge15" class="edge">
<title>VLSM_Lib_TopSort_get_maximal_element_some&#45;&gt;VLSM_Lib_TopSort_get_maximal_element</title>
<path fill="none" stroke="black" d="M1595.81,-504.42C1575.02,-490.97 1545.53,-471.91 1522.72,-457.15"/>
<polygon fill="black" stroke="black" points="1524.32,-454.02 1514.02,-451.53 1520.52,-459.9 1524.32,-454.02"/>
</g>
<!-- VLSM_Lib_TopSort_get_maximal_element_correct&#45;&gt;VLSM_Lib_TopSort_maximal_element_in -->
<g id="edge16" class="edge">
<title>VLSM_Lib_TopSort_get_maximal_element_correct&#45;&gt;VLSM_Lib_TopSort_maximal_element_in</title>
<path fill="none" stroke="black" d="M1261.16,-680.01C1266.66,-667.88 1274.17,-651.32 1280.45,-637.46"/>
<polygon fill="black" stroke="black" points="1283.82,-638.51 1284.77,-627.96 1277.45,-635.62 1283.82,-638.51"/>
</g>
<!-- VLSM_Lib_TopSort_maximal_element_in&#45;&gt;VLSM_Lib_TopSort_get_maximal_element -->
<g id="edge17" class="edge">
<title>VLSM_Lib_TopSort_maximal_element_in&#45;&gt;VLSM_Lib_TopSort_get_maximal_element</title>
<path fill="none" stroke="black" d="M1351.77,-596.89C1382.53,-587.94 1418.73,-572.85 1443.46,-548 1466.79,-524.56 1478.41,-487.5 1483.92,-462.26"/>
<polygon fill="black" stroke="black" points="1487.4,-462.74 1485.93,-452.25 1480.53,-461.37 1487.4,-462.74"/>
</g>
<!-- VLSM_Lib_TopSort_maximal_element_in&#45;&gt;VLSM_Lib_TopSort_top_sort_correct -->
<g id="edge18" class="edge">
<title>VLSM_Lib_TopSort_maximal_element_in&#45;&gt;VLSM_Lib_TopSort_top_sort_correct</title>
<path fill="none" stroke="black" d="M1277.84,-592.01C1266.92,-579.32 1251.84,-561.8 1239.61,-547.59"/>
<polygon fill="black" stroke="black" points="1241.97,-544.96 1232.79,-539.66 1236.66,-549.53 1241.97,-544.96"/>
</g>
<!-- VLSM_Lib_TopSort_top_sort -->
<g id="node16" class="node">
<title>VLSM_Lib_TopSort_top_sort</title>
<g id="a_node16"><a xlink:href="VLSM.Lib.TopSort.html#top_sort" xlink:title="top_sort" target="_top">
<ellipse fill="#f070d1" stroke="black" cx="1464.46" cy="-282" rx="39.79" ry="18"/>
<text text-anchor="middle" x="1464.46" y="-278.3" font-family="Times,serif" font-size="14.00">top_sort</text>
</a>
</g>
</g>
<!-- VLSM_Lib_TopSort_get_maximal_element&#45;&gt;VLSM_Lib_TopSort_top_sort -->
<g id="edge19" class="edge">
<title>VLSM_Lib_TopSort_get_maximal_element&#45;&gt;VLSM_Lib_TopSort_top_sort</title>
<path fill="none" stroke="black" d="M1485.7,-415.79C1481.56,-389.91 1473.69,-340.73 1468.78,-310.03"/>
<polygon fill="black" stroke="black" points="1472.21,-309.33 1467.18,-300.01 1465.3,-310.43 1472.21,-309.33"/>
</g>
<!-- VLSM_Lib_TopSort_topological_sorting -->
<g id="node12" class="node">
<title>VLSM_Lib_TopSort_topological_sorting</title>
<g id="a_node12"><a xlink:href="VLSM.Lib.TopSort.html#topological_sorting" xlink:title="topological_sorting" target="_top">
<ellipse fill="#f070d1" stroke="black" cx="1094.46" cy="-434" rx="79.09" ry="18"/>
<text text-anchor="middle" x="1094.46" y="-430.3" font-family="Times,serif" font-size="14.00">topological_sorting</text>
</a>
</g>
</g>
<!-- VLSM_Lib_TopSort_top_sort_correct&#45;&gt;VLSM_Lib_TopSort_topological_sorting -->
<g id="edge20" class="edge">
<title>VLSM_Lib_TopSort_top_sort_correct&#45;&gt;VLSM_Lib_TopSort_topological_sorting</title>
<path fill="none" stroke="black" d="M1195.42,-505.03C1176.01,-491.56 1148.02,-472.15 1126.43,-457.18"/>
<polygon fill="black" stroke="black" points="1128.42,-454.3 1118.21,-451.47 1124.43,-460.05 1128.42,-454.3"/>
</g>
<!-- VLSM_Lib_TopSort_top_sort_sorted -->
<g id="node13" class="node">
<title>VLSM_Lib_TopSort_top_sort_sorted</title>
<g id="a_node13"><a xlink:href="VLSM.Lib.TopSort.html#top_sort_sorted" xlink:title="top_sort_sorted" target="_top">
<ellipse fill="#7fffd4" stroke="black" cx="1285.46" cy="-434" rx="65.79" ry="18"/>
<text text-anchor="middle" x="1285.46" y="-430.3" font-family="Times,serif" font-size="14.00">top_sort_sorted</text>
</a>
</g>
</g>
<!-- VLSM_Lib_TopSort_top_sort_correct&#45;&gt;VLSM_Lib_TopSort_top_sort_sorted -->
<g id="edge21" class="edge">
<title>VLSM_Lib_TopSort_top_sort_correct&#45;&gt;VLSM_Lib_TopSort_top_sort_sorted</title>
<path fill="none" stroke="black" d="M1231.69,-504.01C1241.58,-491.32 1255.23,-473.8 1266.3,-459.59"/>
<polygon fill="black" stroke="black" points="1269.09,-461.7 1272.47,-451.66 1263.57,-457.4 1269.09,-461.7"/>
</g>
<!-- VLSM_Lib_TopSort_topologically_sorted -->
<g id="node25" class="node">
<title>VLSM_Lib_TopSort_topologically_sorted</title>
<g id="a_node25"><a xlink:href="VLSM.Lib.TopSort.html#topologically_sorted" xlink:title="topologically_sorted" target="_top">
<ellipse fill="#f070d1" stroke="black" cx="868.46" cy="-354" rx="83.39" ry="18"/>
<text text-anchor="middle" x="868.46" y="-350.3" font-family="Times,serif" font-size="14.00">topologically_sorted</text>
</a>
</g>
</g>
<!-- VLSM_Lib_TopSort_topological_sorting&#45;&gt;VLSM_Lib_TopSort_topologically_sorted -->
<g id="edge22" class="edge">
<title>VLSM_Lib_TopSort_topological_sorting&#45;&gt;VLSM_Lib_TopSort_topologically_sorted</title>
<path fill="none" stroke="black" d="M1052.74,-418.6C1015.39,-405.71 960.48,-386.76 920.31,-372.9"/>
<polygon fill="black" stroke="black" points="921.29,-369.53 910.69,-369.58 919.01,-376.15 921.29,-369.53"/>
</g>
<!-- VLSM_Lib_TopSort_top_sort_set_eq -->
<g id="node15" class="node">
<title>VLSM_Lib_TopSort_top_sort_set_eq</title>
<g id="a_node15"><a xlink:href="VLSM.Lib.TopSort.html#top_sort_set_eq" xlink:title="top_sort_set_eq" target="_top">
<ellipse fill="#7fffd4" stroke="black" cx="1563.46" cy="-354" rx="66.09" ry="18"/>
<text text-anchor="middle" x="1563.46" y="-350.3" font-family="Times,serif" font-size="14.00">top_sort_set_eq</text>
</a>
</g>
</g>
<!-- VLSM_Lib_TopSort_top_sort_sorted&#45;&gt;VLSM_Lib_TopSort_top_sort_set_eq -->
<g id="edge23" class="edge">
<title>VLSM_Lib_TopSort_top_sort_sorted&#45;&gt;VLSM_Lib_TopSort_top_sort_set_eq</title>
<path fill="none" stroke="black" d="M1329.51,-420.64C1378.27,-406.96 1456.88,-384.9 1509.35,-370.18"/>
<polygon fill="black" stroke="black" points="1510.47,-373.5 1519.15,-367.43 1508.58,-366.76 1510.47,-373.5"/>
</g>
<!-- VLSM_Lib_TopSort_top_sort_sorted&#45;&gt;VLSM_Lib_TopSort_topologically_sorted -->
<g id="edge24" class="edge">
<title>VLSM_Lib_TopSort_top_sort_sorted&#45;&gt;VLSM_Lib_TopSort_topologically_sorted</title>
<path fill="none" stroke="black" d="M1239.47,-421.1C1221.72,-416.7 1201.2,-411.85 1182.46,-408 1101.88,-391.44 1008.9,-376.23 945.15,-366.39"/>
<polygon fill="black" stroke="black" points="945.59,-362.92 935.17,-364.86 944.53,-369.83 945.59,-362.92"/>
</g>
<!-- VLSM_Lib_TopSort_min_predecessors_zero -->
<g id="node29" class="node">
<title>VLSM_Lib_TopSort_min_predecessors_zero</title>
<g id="a_node29"><a xlink:href="VLSM.Lib.TopSort.html#min_predecessors_zero" xlink:title="min_predecessors_zero" target="_top">
<ellipse fill="#7fffd4" stroke="black" cx="1142.46" cy="-354" rx="93.68" ry="18"/>
<text text-anchor="middle" x="1142.46" y="-350.3" font-family="Times,serif" font-size="14.00">min_predecessors_zero</text>
</a>
</g>
</g>
<!-- VLSM_Lib_TopSort_top_sort_sorted&#45;&gt;VLSM_Lib_TopSort_min_predecessors_zero -->
<g id="edge25" class="edge">
<title>VLSM_Lib_TopSort_top_sort_sorted&#45;&gt;VLSM_Lib_TopSort_min_predecessors_zero</title>
<path fill="none" stroke="black" d="M1257.2,-417.59C1235.41,-405.7 1205.02,-389.13 1180.99,-376.02"/>
<polygon fill="black" stroke="black" points="1182.58,-372.9 1172.13,-371.18 1179.23,-379.05 1182.58,-372.9"/>
</g>
<!-- VLSM_Lib_TopSort_zero_predecessors -->
<g id="node38" class="node">
<title>VLSM_Lib_TopSort_zero_predecessors</title>
<g id="a_node38"><a xlink:href="VLSM.Lib.TopSort.html#zero_predecessors" xlink:title="zero_predecessors" target="_top">
<ellipse fill="#7fffd4" stroke="black" cx="1191.46" cy="-122" rx="75.29" ry="18"/>
<text text-anchor="middle" x="1191.46" y="-118.3" font-family="Times,serif" font-size="14.00">zero_predecessors</text>
</a>
</g>
</g>
<!-- VLSM_Lib_TopSort_top_sort_sorted&#45;&gt;VLSM_Lib_TopSort_zero_predecessors -->
<g id="edge26" class="edge">
<title>VLSM_Lib_TopSort_top_sort_sorted&#45;&gt;VLSM_Lib_TopSort_zero_predecessors</title>
<path fill="none" stroke="black" d="M1283.69,-415.89C1280.19,-385 1271.25,-318.13 1254.46,-264 1241.59,-222.54 1219.8,-177.12 1205.52,-149.34"/>
<polygon fill="black" stroke="black" points="1208.53,-147.54 1200.81,-140.28 1202.32,-150.77 1208.53,-147.54"/>
</g>
<!-- VLSM_Lib_TopSort_top_sort_nodup -->
<g id="node14" class="node">
<title>VLSM_Lib_TopSort_top_sort_nodup</title>
<g id="a_node14"><a xlink:href="VLSM.Lib.TopSort.html#top_sort_nodup" xlink:title="top_sort_nodup" target="_top">
<ellipse fill="#7fffd4" stroke="black" cx="1701.46" cy="-434" rx="65.77" ry="18"/>
<ellipse fill="none" stroke="black" cx="1701.46" cy="-434" rx="69.78" ry="22"/>
<ellipse fill="none" stroke="black" cx="1701.46" cy="-434" rx="73.79" ry="26"/>
<text text-anchor="middle" x="1701.46" y="-430.3" font-family="Times,serif" font-size="14.00">top_sort_nodup</text>
</a>
</g>
</g>
<!-- VLSM_Lib_TopSort_top_sort_nodup&#45;&gt;VLSM_Lib_TopSort_top_sort_set_eq -->
<g id="edge27" class="edge">
<title>VLSM_Lib_TopSort_top_sort_nodup&#45;&gt;VLSM_Lib_TopSort_top_sort_set_eq</title>
<path fill="none" stroke="black" d="M1663.38,-411.48C1643.55,-400.27 1619.41,-386.63 1599.83,-375.56"/>
<polygon fill="black" stroke="black" points="1601.33,-372.39 1590.91,-370.52 1597.89,-378.48 1601.33,-372.39"/>
</g>
<!-- VLSM_Lib_TopSort_top_sort_set_eq&#45;&gt;VLSM_Lib_TopSort_top_sort -->
<g id="edge28" class="edge">
<title>VLSM_Lib_TopSort_top_sort_set_eq&#45;&gt;VLSM_Lib_TopSort_top_sort</title>
<path fill="none" stroke="black" d="M1540.49,-336.76C1526.46,-326.84 1508.38,-314.05 1493.37,-303.44"/>
<polygon fill="black" stroke="black" points="1495.13,-300.4 1484.94,-297.48 1491.08,-306.11 1495.13,-300.4"/>
</g>
<!-- VLSM_Lib_TopSort_min_predecessors_in -->
<g id="node36" class="node">
<title>VLSM_Lib_TopSort_min_predecessors_in</title>
<g id="a_node36"><a xlink:href="VLSM.Lib.TopSort.html#min_predecessors_in" xlink:title="min_predecessors_in" target="_top">
<ellipse fill="#7fffd4" stroke="black" cx="1563.46" cy="-202" rx="85.29" ry="18"/>
<text text-anchor="middle" x="1563.46" y="-198.3" font-family="Times,serif" font-size="14.00">min_predecessors_in</text>
</a>
</g>
</g>
<!-- VLSM_Lib_TopSort_top_sort_set_eq&#45;&gt;VLSM_Lib_TopSort_min_predecessors_in -->
<g id="edge29" class="edge">
<title>VLSM_Lib_TopSort_top_sort_set_eq&#45;&gt;VLSM_Lib_TopSort_min_predecessors_in</title>
<path fill="none" stroke="black" d="M1563.46,-335.79C1563.46,-309.91 1563.46,-260.73 1563.46,-230.03"/>
<polygon fill="black" stroke="black" points="1566.96,-230.01 1563.46,-220.01 1559.96,-230.01 1566.96,-230.01"/>
</g>
<!-- VLSM_Lib_TopSort_top_sort_n -->
<g id="node17" class="node">
<title>VLSM_Lib_TopSort_top_sort_n</title>
<g id="a_node17"><a xlink:href="VLSM.Lib.TopSort.html#top_sort_n" xlink:title="top_sort_n" target="_top">
<ellipse fill="#f070d1" stroke="black" cx="1387.46" cy="-202" rx="48.19" ry="18"/>
<text text-anchor="middle" x="1387.46" y="-198.3" font-family="Times,serif" font-size="14.00">top_sort_n</text>
</a>
</g>
</g>
<!-- VLSM_Lib_TopSort_top_sort&#45;&gt;VLSM_Lib_TopSort_top_sort_n -->
<g id="edge30" class="edge">
<title>VLSM_Lib_TopSort_top_sort&#45;&gt;VLSM_Lib_TopSort_top_sort_n</title>
<path fill="none" stroke="black" d="M1448.87,-265.22C1437.88,-254.08 1422.98,-238.98 1410.6,-226.44"/>
<polygon fill="black" stroke="black" points="1412.8,-223.69 1403.28,-219.03 1407.81,-228.6 1412.8,-223.69"/>
</g>
<!-- VLSM_Lib_TopSort_min_predecessors -->
<g id="node37" class="node">
<title>VLSM_Lib_TopSort_min_predecessors</title>
<g id="a_node37"><a xlink:href="VLSM.Lib.TopSort.html#min_predecessors" xlink:title="min_predecessors" target="_top">
<ellipse fill="#f070d1" stroke="black" cx="1387.46" cy="-122" rx="74.19" ry="18"/>
<text text-anchor="middle" x="1387.46" y="-118.3" font-family="Times,serif" font-size="14.00">min_predecessors</text>
</a>
</g>
</g>
<!-- VLSM_Lib_TopSort_top_sort_n&#45;&gt;VLSM_Lib_TopSort_min_predecessors -->
<g id="edge31" class="edge">
<title>VLSM_Lib_TopSort_top_sort_n&#45;&gt;VLSM_Lib_TopSort_min_predecessors</title>
<path fill="none" stroke="black" d="M1387.46,-183.69C1387.46,-173.89 1387.46,-161.42 1387.46,-150.33"/>
<polygon fill="black" stroke="black" points="1390.96,-150.26 1387.46,-140.26 1383.96,-150.26 1390.96,-150.26"/>
</g>
<!-- VLSM_Lib_TopSort_precedes_closed -->
<g id="node20" class="node">
<title>VLSM_Lib_TopSort_precedes_closed</title>
<g id="a_node20"><a xlink:href="VLSM.Lib.TopSort.html#precedes_closed" xlink:title="precedes_closed" target="_top">
<ellipse fill="#f070d1" stroke="black" cx="566.46" cy="-434" rx="68.49" ry="18"/>
<text text-anchor="middle" x="566.46" y="-430.3" font-family="Times,serif" font-size="14.00">precedes_closed</text>
</a>
</g>
</g>
<!-- VLSM_Lib_TopSort_topologically_sorted_precedes_closed_remove_last&#45;&gt;VLSM_Lib_TopSort_precedes_closed -->
<g id="edge32" class="edge">
<title>VLSM_Lib_TopSort_topologically_sorted_precedes_closed_remove_last&#45;&gt;VLSM_Lib_TopSort_precedes_closed</title>
<path fill="none" stroke="black" d="M617.81,-504.01C608.52,-491.52 595.74,-474.35 585.26,-460.26"/>
<polygon fill="black" stroke="black" points="587.85,-457.89 579.07,-451.96 582.24,-462.07 587.85,-457.89"/>
</g>
<!-- VLSM_Lib_TopSort_topologically_sorted_occurrences_ordering -->
<g id="node24" class="node">
<title>VLSM_Lib_TopSort_topologically_sorted_occurrences_ordering</title>
<g id="a_node24"><a xlink:href="VLSM.Lib.TopSort.html#topologically_sorted_occurrences_ordering" xlink:title="topologically_sorted_occurrences_ordering" target="_top">
<ellipse fill="#7fffd4" stroke="black" cx="275.46" cy="-434" rx="163.27" ry="18"/>
<text text-anchor="middle" x="275.46" y="-430.3" font-family="Times,serif" font-size="14.00">topologically_sorted_occurrences_ordering</text>
</a>
</g>
</g>
<!-- VLSM_Lib_TopSort_topologically_sorted_precedes_closed_remove_last&#45;&gt;VLSM_Lib_TopSort_topologically_sorted_occurrences_ordering -->
<g id="edge33" class="edge">
<title>VLSM_Lib_TopSort_topologically_sorted_precedes_closed_remove_last&#45;&gt;VLSM_Lib_TopSort_topologically_sorted_occurrences_ordering</title>
<path fill="none" stroke="black" d="M564.52,-505.03C503.61,-490.27 413.23,-468.38 349.79,-453.01"/>
<polygon fill="black" stroke="black" points="350.39,-449.55 339.85,-450.6 348.74,-456.35 350.39,-449.55"/>
</g>
<!-- VLSM_Lib_TopSort_precedes_closed_set_eq -->
<g id="node19" class="node">
<title>VLSM_Lib_TopSort_precedes_closed_set_eq</title>
<g id="a_node19"><a xlink:href="VLSM.Lib.TopSort.html#precedes_closed_set_eq" xlink:title="precedes_closed_set_eq" target="_top">
<ellipse fill="#7fffd4" stroke="black" cx="997.46" cy="-522" rx="94.79" ry="18"/>
<ellipse fill="none" stroke="black" cx="997.46" cy="-522" rx="98.79" ry="22"/>
<ellipse fill="none" stroke="black" cx="997.46" cy="-522" rx="102.78" ry="26"/>
<text text-anchor="middle" x="997.46" y="-518.3" font-family="Times,serif" font-size="14.00">precedes_closed_set_eq</text>
</a>
</g>
</g>
<!-- VLSM_Lib_TopSort_precedes_closed_set_eq&#45;&gt;VLSM_Lib_TopSort_precedes_closed -->
<g id="edge34" class="edge">
<title>VLSM_Lib_TopSort_precedes_closed_set_eq&#45;&gt;VLSM_Lib_TopSort_precedes_closed</title>
<path fill="none" stroke="black" d="M916.5,-505.91C852.6,-493.87 761.23,-476.37 681.46,-460 663.72,-456.36 644.49,-452.25 626.91,-448.42"/>
<polygon fill="black" stroke="black" points="627.3,-444.92 616.78,-446.21 625.81,-451.76 627.3,-444.92"/>
</g>
<!-- VLSM_Lib_TopSort_toplogically_sorted_remove_last -->
<g id="node21" class="node">
<title>VLSM_Lib_TopSort_toplogically_sorted_remove_last</title>
<g id="a_node21"><a xlink:href="VLSM.Lib.TopSort.html#toplogically_sorted_remove_last" xlink:title="toplogically_sorted_remove_last" target="_top">
<ellipse fill="#7fffd4" stroke="black" cx="824.46" cy="-434" rx="126.17" ry="18"/>
<ellipse fill="none" stroke="black" cx="824.46" cy="-434" rx="130.18" ry="22"/>
<ellipse fill="none" stroke="black" cx="824.46" cy="-434" rx="134.18" ry="26"/>
<text text-anchor="middle" x="824.46" y="-430.3" font-family="Times,serif" font-size="14.00">toplogically_sorted_remove_last</text>
</a>
</g>
</g>
<!-- VLSM_Lib_TopSort_toplogically_sorted_remove_last&#45;&gt;VLSM_Lib_TopSort_topologically_sorted -->
<g id="edge35" class="edge">
<title>VLSM_Lib_TopSort_toplogically_sorted_remove_last&#45;&gt;VLSM_Lib_TopSort_topologically_sorted</title>
<path fill="none" stroke="black" d="M838.62,-407.89C843.49,-399.26 848.95,-389.58 853.86,-380.88"/>
<polygon fill="black" stroke="black" points="857.04,-382.36 858.91,-371.93 850.94,-378.92 857.04,-382.36"/>
</g>
<!-- VLSM_Lib_TopSort_top_sort_precedes -->
<g id="node22" class="node">
<title>VLSM_Lib_TopSort_top_sort_precedes</title>
<g id="a_node22"><a xlink:href="VLSM.Lib.TopSort.html#top_sort_precedes" xlink:title="top_sort_precedes" target="_top">
<ellipse fill="#7fffd4" stroke="black" cx="225.46" cy="-610" rx="74.96" ry="18"/>
<ellipse fill="none" stroke="black" cx="225.46" cy="-610" rx="78.98" ry="22"/>
<ellipse fill="none" stroke="black" cx="225.46" cy="-610" rx="82.99" ry="26"/>
<text text-anchor="middle" x="225.46" y="-606.3" font-family="Times,serif" font-size="14.00">top_sort_precedes</text>
</a>
</g>
</g>
<!-- VLSM_Lib_TopSort_top_sort_before -->
<g id="node23" class="node">
<title>VLSM_Lib_TopSort_top_sort_before</title>
<g id="a_node23"><a xlink:href="VLSM.Lib.TopSort.html#top_sort_before" xlink:title="top_sort_before" target="_top">
<ellipse fill="#7fffd4" stroke="black" cx="306.46" cy="-522" rx="66.09" ry="18"/>
<text text-anchor="middle" x="306.46" y="-518.3" font-family="Times,serif" font-size="14.00">top_sort_before</text>
</a>
</g>
</g>
<!-- VLSM_Lib_TopSort_top_sort_precedes&#45;&gt;VLSM_Lib_TopSort_top_sort_before -->
<g id="edge36" class="edge">
<title>VLSM_Lib_TopSort_top_sort_precedes&#45;&gt;VLSM_Lib_TopSort_top_sort_before</title>
<path fill="none" stroke="black" d="M248.45,-584.59C259.58,-572.77 272.89,-558.64 283.95,-546.9"/>
<polygon fill="black" stroke="black" points="286.54,-549.25 290.85,-539.57 281.44,-544.45 286.54,-549.25"/>
</g>
<!-- VLSM_Lib_TopSort_top_sort_before&#45;&gt;VLSM_Lib_TopSort_topologically_sorted_occurrences_ordering -->
<g id="edge37" class="edge">
<title>VLSM_Lib_TopSort_top_sort_before&#45;&gt;VLSM_Lib_TopSort_topologically_sorted_occurrences_ordering</title>
<path fill="none" stroke="black" d="M300.33,-504.01C295.99,-491.96 290.07,-475.53 285.09,-461.74"/>
<polygon fill="black" stroke="black" points="288.36,-460.47 281.67,-452.25 281.77,-462.84 288.36,-460.47"/>
</g>
<!-- VLSM_Lib_TopSort_topologically_sorted_occurrences_ordering&#45;&gt;VLSM_Lib_TopSort_topologically_sorted -->
<g id="edge38" class="edge">
<title>VLSM_Lib_TopSort_topologically_sorted_occurrences_ordering&#45;&gt;VLSM_Lib_TopSort_topologically_sorted</title>
<path fill="none" stroke="black" d="M376.05,-419.77C492.73,-404.42 682.68,-379.44 789.34,-365.41"/>
<polygon fill="black" stroke="black" points="789.93,-368.86 799.39,-364.08 789.02,-361.92 789.93,-368.86"/>
</g>
<!-- VLSM_Lib_TopSort_precedes_irreflexive -->
<g id="node33" class="node">
<title>VLSM_Lib_TopSort_precedes_irreflexive</title>
<g id="a_node33"><a xlink:href="VLSM.Lib.TopSort.html#precedes_irreflexive" xlink:title="precedes_irreflexive" target="_top">
<ellipse fill="#7fffd4" stroke="black" cx="529.46" cy="-202" rx="82.59" ry="18"/>
<text text-anchor="middle" x="529.46" y="-198.3" font-family="Times,serif" font-size="14.00">precedes_irreflexive</text>
</a>
</g>
</g>
<!-- VLSM_Lib_TopSort_topologically_sorted_occurrences_ordering&#45;&gt;VLSM_Lib_TopSort_precedes_irreflexive -->
<g id="edge39" class="edge">
<title>VLSM_Lib_TopSort_topologically_sorted_occurrences_ordering&#45;&gt;VLSM_Lib_TopSort_precedes_irreflexive</title>
<path fill="none" stroke="black" d="M294.13,-416.09C338.83,-375.61 452.04,-273.1 503.4,-226.59"/>
<polygon fill="black" stroke="black" points="506.03,-228.93 511.09,-219.63 501.33,-223.74 506.03,-228.93"/>
</g>
<!-- VLSM_Lib_TopSort_precedes_P_irreflexive -->
<g id="node27" class="node">
<title>VLSM_Lib_TopSort_precedes_P_irreflexive</title>
<g id="a_node27"><a xlink:href="VLSM.Lib.TopSort.html#precedes_P_irreflexive" xlink:title="precedes_P_irreflexive" target="_top">
<ellipse fill="#7fffd4" stroke="black" cx="236.46" cy="-354" rx="91.78" ry="18"/>
<text text-anchor="middle" x="236.46" y="-350.3" font-family="Times,serif" font-size="14.00">precedes_P_irreflexive</text>
</a>
</g>
</g>
<!-- VLSM_Lib_TopSort_precedes_P_strict&#45;&gt;VLSM_Lib_TopSort_precedes_P_irreflexive -->
<g id="edge40" class="edge">
<title>VLSM_Lib_TopSort_precedes_P_strict&#45;&gt;VLSM_Lib_TopSort_precedes_P_irreflexive</title>
<path fill="none" stroke="black" d="M112.71,-504.08C100.53,-480.49 83.59,-437.31 103.46,-408 116.16,-389.27 136.65,-377.15 157.78,-369.32"/>
<polygon fill="black" stroke="black" points="159.17,-372.55 167.51,-366.02 156.92,-365.92 159.17,-372.55"/>
</g>
<!-- VLSM_Lib_TopSort_precedes_P_transitive -->
<g id="node28" class="node">
<title>VLSM_Lib_TopSort_precedes_P_transitive</title>
<g id="a_node28"><a xlink:href="VLSM.Lib.TopSort.html#precedes_P_transitive" xlink:title="precedes_P_transitive" target="_top">
<ellipse fill="#7fffd4" stroke="black" cx="140.46" cy="-282" rx="87.99" ry="18"/>
<text text-anchor="middle" x="140.46" y="-278.3" font-family="Times,serif" font-size="14.00">precedes_P_transitive</text>
</a>
</g>
</g>
<!-- VLSM_Lib_TopSort_precedes_P_strict&#45;&gt;VLSM_Lib_TopSort_precedes_P_transitive -->
<g id="edge41" class="edge">
<title>VLSM_Lib_TopSort_precedes_P_strict&#45;&gt;VLSM_Lib_TopSort_precedes_P_transitive</title>
<path fill="none" stroke="black" d="M110.32,-504.08C102.67,-492.34 93.5,-475.99 89.46,-460 83.78,-437.6 85.01,-430.68 89.46,-408 96.47,-372.26 113.75,-333.86 126.26,-309.19"/>
<polygon fill="black" stroke="black" points="129.46,-310.62 130.95,-300.13 123.25,-307.4 129.46,-310.62"/>
</g>
<!-- VLSM_Lib_TopSort_precedes_P -->
<g id="node34" class="node">
<title>VLSM_Lib_TopSort_precedes_P</title>
<g id="a_node34"><a xlink:href="VLSM.Lib.TopSort.html#precedes_P" xlink:title="precedes_P" target="_top">
<ellipse fill="#f070d1" stroke="black" cx="409.46" cy="-122" rx="50.89" ry="18"/>
<text text-anchor="middle" x="409.46" y="-118.3" font-family="Times,serif" font-size="14.00">precedes_P</text>
</a>
</g>
</g>
<!-- VLSM_Lib_TopSort_precedes_P_irreflexive&#45;&gt;VLSM_Lib_TopSort_precedes_P -->
<g id="edge42" class="edge">
<title>VLSM_Lib_TopSort_precedes_P_irreflexive&#45;&gt;VLSM_Lib_TopSort_precedes_P</title>
<path fill="none" stroke="black" d="M263.55,-336.65C296.15,-315.57 350.26,-275.88 380.46,-228 395.46,-204.22 402.81,-172.65 406.35,-150.35"/>
<polygon fill="black" stroke="black" points="409.84,-150.62 407.79,-140.23 402.91,-149.63 409.84,-150.62"/>
</g>
<!-- VLSM_Lib_TopSort_precedes_P_transitive&#45;&gt;VLSM_Lib_TopSort_precedes_P -->
<g id="edge43" class="edge">
<title>VLSM_Lib_TopSort_precedes_P_transitive&#45;&gt;VLSM_Lib_TopSort_precedes_P</title>
<path fill="none" stroke="black" d="M140.28,-263.75C141.04,-240.39 146.03,-199 170.46,-176 196.18,-151.78 289.28,-136.67 351.41,-129.05"/>
<polygon fill="black" stroke="black" points="351.96,-132.5 361.48,-127.84 351.13,-125.55 351.96,-132.5"/>
</g>
<!-- VLSM_Lib_TopSort_count_predecessors_zero -->
<g id="node30" class="node">
<title>VLSM_Lib_TopSort_count_predecessors_zero</title>
<g id="a_node30"><a xlink:href="VLSM.Lib.TopSort.html#count_predecessors_zero" xlink:title="count_predecessors_zero" target="_top">
<ellipse fill="#7fffd4" stroke="black" cx="812.46" cy="-282" rx="98.58" ry="18"/>
<text text-anchor="middle" x="812.46" y="-278.3" font-family="Times,serif" font-size="14.00">count_predecessors_zero</text>
</a>
</g>
</g>
<!-- VLSM_Lib_TopSort_min_predecessors_zero&#45;&gt;VLSM_Lib_TopSort_count_predecessors_zero -->
<g id="edge44" class="edge">
<title>VLSM_Lib_TopSort_min_predecessors_zero&#45;&gt;VLSM_Lib_TopSort_count_predecessors_zero</title>
<path fill="none" stroke="black" d="M1081.93,-340.16C1026.17,-328.33 943.37,-310.77 884.29,-298.24"/>
<polygon fill="black" stroke="black" points="884.79,-294.77 874.28,-296.11 883.33,-301.61 884.79,-294.77"/>
</g>
<!-- VLSM_Lib_TopSort_min_predecessors_correct -->
<g id="node35" class="node">
<title>VLSM_Lib_TopSort_min_predecessors_correct</title>
<g id="a_node35"><a xlink:href="VLSM.Lib.TopSort.html#min_predecessors_correct" xlink:title="min_predecessors_correct" target="_top">
<ellipse fill="#7fffd4" stroke="black" cx="1142.46" cy="-282" rx="102.88" ry="18"/>
<text text-anchor="middle" x="1142.46" y="-278.3" font-family="Times,serif" font-size="14.00">min_predecessors_correct</text>
</a>
</g>
</g>
<!-- VLSM_Lib_TopSort_min_predecessors_zero&#45;&gt;VLSM_Lib_TopSort_min_predecessors_correct -->
<g id="edge45" class="edge">
<title>VLSM_Lib_TopSort_min_predecessors_zero&#45;&gt;VLSM_Lib_TopSort_min_predecessors_correct</title>
<path fill="none" stroke="black" d="M1142.46,-335.7C1142.46,-327.98 1142.46,-318.71 1142.46,-310.11"/>
<polygon fill="black" stroke="black" points="1145.96,-310.1 1142.46,-300.1 1138.96,-310.1 1145.96,-310.1"/>
</g>
<!-- VLSM_Lib_TopSort_precedes_transitive -->
<g id="node31" class="node">
<title>VLSM_Lib_TopSort_precedes_transitive</title>
<g id="a_node31"><a xlink:href="VLSM.Lib.TopSort.html#precedes_transitive" xlink:title="precedes_transitive" target="_top">
<ellipse fill="#7fffd4" stroke="black" cx="776.46" cy="-202" rx="78.79" ry="18"/>
<text text-anchor="middle" x="776.46" y="-198.3" font-family="Times,serif" font-size="14.00">precedes_transitive</text>
</a>
</g>
</g>
<!-- VLSM_Lib_TopSort_count_predecessors_zero&#45;&gt;VLSM_Lib_TopSort_precedes_transitive -->
<g id="edge46" class="edge">
<title>VLSM_Lib_TopSort_count_predecessors_zero&#45;&gt;VLSM_Lib_TopSort_precedes_transitive</title>
<path fill="none" stroke="black" d="M804.47,-263.69C799.77,-253.52 793.75,-240.47 788.49,-229.07"/>
<polygon fill="black" stroke="black" points="791.67,-227.61 784.3,-219.99 785.31,-230.54 791.67,-227.61"/>
</g>
<!-- VLSM_Lib_TopSort_count_predecessors_zero&#45;&gt;VLSM_Lib_TopSort_precedes_irreflexive -->
<g id="edge47" class="edge">
<title>VLSM_Lib_TopSort_count_predecessors_zero&#45;&gt;VLSM_Lib_TopSort_precedes_irreflexive</title>
<path fill="none" stroke="black" d="M760.22,-266.6C711.56,-253.19 639.09,-233.22 588.39,-219.24"/>
<polygon fill="black" stroke="black" points="589.12,-215.81 578.55,-216.53 587.26,-222.56 589.12,-215.81"/>
</g>
<!-- VLSM_Lib_TopSort_count_predecessors -->
<g id="node39" class="node">
<title>VLSM_Lib_TopSort_count_predecessors</title>
<g id="a_node39"><a xlink:href="VLSM.Lib.TopSort.html#count_predecessors" xlink:title="count_predecessors" target="_top">
<ellipse fill="#f070d1" stroke="black" cx="1191.46" cy="-50" rx="79.09" ry="18"/>
<text text-anchor="middle" x="1191.46" y="-46.3" font-family="Times,serif" font-size="14.00">count_predecessors</text>
</a>
</g>
</g>
<!-- VLSM_Lib_TopSort_count_predecessors_zero&#45;&gt;VLSM_Lib_TopSort_count_predecessors -->
<g id="edge48" class="edge">
<title>VLSM_Lib_TopSort_count_predecessors_zero&#45;&gt;VLSM_Lib_TopSort_count_predecessors</title>
<path fill="none" stroke="black" d="M839.41,-264.64C906.52,-223.91 1081.11,-117.96 1156.24,-72.37"/>
<polygon fill="black" stroke="black" points="1158.16,-75.3 1164.89,-67.12 1154.53,-69.32 1158.16,-75.3"/>
</g>
<!-- VLSM_Lib_TopSort_precedes_transitive&#45;&gt;VLSM_Lib_TopSort_precedes_P -->
<g id="edge49" class="edge">
<title>VLSM_Lib_TopSort_precedes_transitive&#45;&gt;VLSM_Lib_TopSort_precedes_P</title>
<path fill="none" stroke="black" d="M720.72,-189.15C650.43,-174.22 530.51,-148.73 461.84,-134.13"/>
<polygon fill="black" stroke="black" points="462.2,-130.63 451.69,-131.98 460.74,-137.48 462.2,-130.63"/>
</g>
<!-- VLSM_Lib_TopSort_precedes_asymmetric -->
<g id="node32" class="node">
<title>VLSM_Lib_TopSort_precedes_asymmetric</title>
<g id="a_node32"><a xlink:href="VLSM.Lib.TopSort.html#precedes_asymmetric" xlink:title="precedes_asymmetric" target="_top">
<ellipse fill="#7fffd4" stroke="black" cx="275.46" cy="-202" rx="87.96" ry="18"/>
<ellipse fill="none" stroke="black" cx="275.46" cy="-202" rx="91.97" ry="22"/>
<ellipse fill="none" stroke="black" cx="275.46" cy="-202" rx="95.99" ry="26"/>
<text text-anchor="middle" x="275.46" y="-198.3" font-family="Times,serif" font-size="14.00">precedes_asymmetric</text>
</a>
</g>
</g>
<!-- VLSM_Lib_TopSort_precedes_asymmetric&#45;&gt;VLSM_Lib_TopSort_precedes_P -->
<g id="edge50" class="edge">
<title>VLSM_Lib_TopSort_precedes_asymmetric&#45;&gt;VLSM_Lib_TopSort_precedes_P</title>
<path fill="none" stroke="black" d="M314.57,-178.23C333.83,-167.02 356.82,-153.64 375.35,-142.86"/>
<polygon fill="black" stroke="black" points="377.16,-145.85 384.05,-137.79 373.64,-139.8 377.16,-145.85"/>
</g>
<!-- VLSM_Lib_TopSort_precedes_irreflexive&#45;&gt;VLSM_Lib_TopSort_precedes_P -->
<g id="edge51" class="edge">
<title>VLSM_Lib_TopSort_precedes_irreflexive&#45;&gt;VLSM_Lib_TopSort_precedes_P</title>
<path fill="none" stroke="black" d="M504.3,-184.65C486.06,-172.79 461.25,-156.67 441.58,-143.88"/>
<polygon fill="black" stroke="black" points="443.24,-140.79 432.95,-138.27 439.43,-146.65 443.24,-140.79"/>
</g>
<!-- VLSM_Lib_TopSort_min_predecessors_correct&#45;&gt;VLSM_Lib_TopSort_min_predecessors -->
<g id="edge52" class="edge">
<title>VLSM_Lib_TopSort_min_predecessors_correct&#45;&gt;VLSM_Lib_TopSort_min_predecessors</title>
<path fill="none" stroke="black" d="M1168.21,-264.39C1212.83,-235.61 1304.47,-176.52 1353.97,-144.6"/>
<polygon fill="black" stroke="black" points="1355.9,-147.51 1362.41,-139.15 1352.11,-141.63 1355.9,-147.51"/>
</g>
<!-- VLSM_Lib_TopSort_min_predecessors_in&#45;&gt;VLSM_Lib_TopSort_min_predecessors -->
<g id="edge53" class="edge">
<title>VLSM_Lib_TopSort_min_predecessors_in&#45;&gt;VLSM_Lib_TopSort_min_predecessors</title>
<path fill="none" stroke="black" d="M1528.26,-185.4C1500.2,-172.97 1460.77,-155.49 1430.77,-142.2"/>
<polygon fill="black" stroke="black" points="1431.95,-138.89 1421.39,-138.04 1429.12,-145.29 1431.95,-138.89"/>
</g>
<!-- VLSM_Lib_TopSort_min_predecessors&#45;&gt;VLSM_Lib_TopSort_count_predecessors -->
<g id="edge54" class="edge">
<title>VLSM_Lib_TopSort_min_predecessors&#45;&gt;VLSM_Lib_TopSort_count_predecessors</title>
<path fill="none" stroke="black" d="M1347.32,-106.67C1316.74,-95.74 1274.45,-80.64 1241.63,-68.92"/>
<polygon fill="black" stroke="black" points="1242.81,-65.62 1232.21,-65.56 1240.45,-72.22 1242.81,-65.62"/>
</g>
<!-- VLSM_Lib_TopSort_zero_predecessors&#45;&gt;VLSM_Lib_TopSort_count_predecessors -->
<g id="edge55" class="edge">
<title>VLSM_Lib_TopSort_zero_predecessors&#45;&gt;VLSM_Lib_TopSort_count_predecessors</title>
<path fill="none" stroke="black" d="M1191.46,-103.7C1191.46,-95.98 1191.46,-86.71 1191.46,-78.11"/>
<polygon fill="black" stroke="black" points="1194.96,-78.1 1191.46,-68.1 1187.96,-78.1 1194.96,-78.1"/>
</g>
</g>
</svg>
