<?xml version="1.0" encoding="UTF-8" standalone="no"?>
<!DOCTYPE svg PUBLIC "-//W3C//DTD SVG 1.1//EN"
 "http://www.w3.org/Graphics/SVG/1.1/DTD/svg11.dtd">
<!-- Generated by graphviz version 2.43.0 (0)
 -->
<!-- Title: rvdpdgraph Pages: 1 -->
<svg width="1299pt" height="654pt"
 viewBox="0.00 0.00 1299.00 653.50" xmlns="http://www.w3.org/2000/svg" xmlns:xlink="http://www.w3.org/1999/xlink">
<g id="graph0" class="graph" transform="scale(1 1) rotate(0) translate(4 649.5)">
<title>rvdpdgraph</title>
<polygon fill="white" stroke="transparent" points="-4,4 -4,-649.5 1295,-649.5 1295,4 -4,4"/>
<g id="clust1" class="cluster">
<title>cluster_VLSM</title>
<polygon fill="#ffffc3" stroke="black" points="8,-8.38 8,-637.12 1283,-637.12 1283,-8.38 8,-8.38"/>
<text text-anchor="middle" x="35.5" y="-621.92" font-family="Times,serif" font-size="14.00">VLSM</text>
</g>
<g id="clust2" class="cluster">
<title>cluster_VLSM_Examples</title>
<polygon fill="#ffffa3" stroke="black" points="16,-16.77 16,-604.63 1275,-604.63 1275,-16.77 16,-16.77"/>
<text text-anchor="middle" x="51.5" y="-589.43" font-family="Times,serif" font-size="14.00">Examples</text>
</g>
<g id="clust3" class="cluster">
<title>cluster_VLSM_Examples_Paxos</title>
<polygon fill="#ffff83" stroke="black" points="24,-25.15 24,-572.15 1267,-572.15 1267,-25.15 24,-25.15"/>
<text text-anchor="middle" x="48.5" y="-556.95" font-family="Times,serif" font-size="14.00">Paxos</text>
</g>
<g id="clust4" class="cluster">
<title>cluster_VLSM_Examples_Paxos_Consensus</title>
<polygon fill="#ffff63" stroke="black" points="32,-33.53 32,-539.66 1259,-539.66 1259,-33.53 32,-33.53"/>
<text text-anchor="middle" x="69" y="-524.46" font-family="Times,serif" font-size="14.00">Consensus</text>
</g>
<!-- VLSM_Examples_Paxos_Consensus_consensus_invariant -->
<g id="node1" class="node">
<title>VLSM_Examples_Paxos_Consensus_consensus_invariant</title>
<g id="a_node1"><a xlink:href="VLSM.Examples.Paxos.Consensus.html#consensus_invariant" xlink:title="consensus_invariant" target="_top">
<ellipse fill="#7fffd4" stroke="black" cx="1080" cy="-480.38" rx="81.8" ry="18"/>
<ellipse fill="none" stroke="black" cx="1080" cy="-480.38" rx="85.79" ry="22"/>
<ellipse fill="none" stroke="black" cx="1080" cy="-480.38" rx="89.79" ry="26"/>
<text text-anchor="middle" x="1080" y="-476.68" font-family="Times,serif" font-size="14.00">consensus_invariant</text>
</a>
</g>
</g>
<!-- VLSM_Examples_Paxos_Consensus_consensus_vlsm -->
<g id="node2" class="node">
<title>VLSM_Examples_Paxos_Consensus_consensus_vlsm</title>
<g id="a_node2"><a xlink:href="VLSM.Examples.Paxos.Consensus.html#consensus_vlsm" xlink:title="consensus_vlsm" target="_top">
<ellipse fill="#f070d1" stroke="black" cx="757" cy="-396.38" rx="68.49" ry="18"/>
<text text-anchor="middle" x="757" y="-392.68" font-family="Times,serif" font-size="14.00">consensus_vlsm</text>
</a>
</g>
</g>
<!-- VLSM_Examples_Paxos_Consensus_consensus_invariant&#45;&gt;VLSM_Examples_Paxos_Consensus_consensus_vlsm -->
<g id="edge1" class="edge">
<title>VLSM_Examples_Paxos_Consensus_consensus_invariant&#45;&gt;VLSM_Examples_Paxos_Consensus_consensus_vlsm</title>
<path fill="none" stroke="black" d="M1013.86,-462.59C955.18,-447.7 870.34,-426.16 814.45,-411.97"/>
<polygon fill="black" stroke="black" points="815.26,-408.56 804.71,-409.5 813.54,-415.35 815.26,-408.56"/>
</g>
<!-- VLSM_Examples_Paxos_Consensus_Decided -->
<g id="node14" class="node">
<title>VLSM_Examples_Paxos_Consensus_Decided</title>
<g id="a_node14"><a xlink:href="VLSM.Examples.Paxos.Consensus.html#Decided" xlink:title="Decided" target="_top">
<ellipse fill="#7faaff" stroke="black" cx="1028" cy="-60.38" rx="40.09" ry="18"/>
<text text-anchor="middle" x="1028" y="-56.68" font-family="Times,serif" font-size="14.00">Decided</text>
</a>
</g>
</g>
<!-- VLSM_Examples_Paxos_Consensus_consensus_invariant&#45;&gt;VLSM_Examples_Paxos_Consensus_Decided -->
<g id="edge2" class="edge">
<title>VLSM_Examples_Paxos_Consensus_consensus_invariant&#45;&gt;VLSM_Examples_Paxos_Consensus_Decided</title>
<path fill="none" stroke="black" d="M1129.63,-458.66C1179.81,-434 1250,-387.66 1250,-321.38 1250,-321.38 1250,-321.38 1250,-235.38 1250,-183.19 1273.49,-158.41 1240,-118.38 1219.16,-93.48 1132.14,-76.47 1076.27,-67.89"/>
<polygon fill="black" stroke="black" points="1076.64,-64.4 1066.23,-66.38 1075.6,-71.33 1076.64,-64.4"/>
</g>
<!-- VLSM_Examples_Paxos_Consensus_consensus_vlsm_machine -->
<g id="node3" class="node">
<title>VLSM_Examples_Paxos_Consensus_consensus_vlsm_machine</title>
<g id="a_node3"><a xlink:href="VLSM.Examples.Paxos.Consensus.html#consensus_vlsm_machine" xlink:title="consensus_vlsm_machine" target="_top">
<ellipse fill="#f070d1" stroke="black" cx="596" cy="-320.38" rx="102.88" ry="18"/>
<text text-anchor="middle" x="596" y="-316.68" font-family="Times,serif" font-size="14.00">consensus_vlsm_machine</text>
</a>
</g>
</g>
<!-- VLSM_Examples_Paxos_Consensus_consensus_vlsm&#45;&gt;VLSM_Examples_Paxos_Consensus_consensus_vlsm_machine -->
<g id="edge3" class="edge">
<title>VLSM_Examples_Paxos_Consensus_consensus_vlsm&#45;&gt;VLSM_Examples_Paxos_Consensus_consensus_vlsm_machine</title>
<path fill="none" stroke="black" d="M724.42,-380.41C700.09,-369.23 666.58,-353.82 639.89,-341.56"/>
<polygon fill="black" stroke="black" points="641.31,-338.36 630.76,-337.36 638.39,-344.72 641.31,-338.36"/>
</g>
<!-- VLSM_Examples_Paxos_Consensus_consensus_transition -->
<g id="node4" class="node">
<title>VLSM_Examples_Paxos_Consensus_consensus_transition</title>
<g id="a_node4"><a xlink:href="VLSM.Examples.Paxos.Consensus.html#consensus_transition" xlink:title="consensus_transition" target="_top">
<ellipse fill="#f070d1" stroke="black" cx="515" cy="-236.38" rx="83.69" ry="18"/>
<text text-anchor="middle" x="515" y="-232.68" font-family="Times,serif" font-size="14.00">consensus_transition</text>
</a>
</g>
</g>
<!-- VLSM_Examples_Paxos_Consensus_consensus_vlsm_machine&#45;&gt;VLSM_Examples_Paxos_Consensus_consensus_transition -->
<g id="edge4" class="edge">
<title>VLSM_Examples_Paxos_Consensus_consensus_vlsm_machine&#45;&gt;VLSM_Examples_Paxos_Consensus_consensus_transition</title>
<path fill="none" stroke="black" d="M579.22,-302.39C567.52,-290.55 551.74,-274.58 538.76,-261.43"/>
<polygon fill="black" stroke="black" points="541,-258.73 531.48,-254.07 536.02,-263.65 541,-258.73"/>
</g>
<!-- VLSM_Examples_Paxos_Consensus_consensus_valid -->
<g id="node5" class="node">
<title>VLSM_Examples_Paxos_Consensus_consensus_valid</title>
<g id="a_node5"><a xlink:href="VLSM.Examples.Paxos.Consensus.html#consensus_valid" xlink:title="consensus_valid" target="_top">
<ellipse fill="#f070d1" stroke="black" cx="685" cy="-236.38" rx="68.49" ry="18"/>
<text text-anchor="middle" x="685" y="-232.68" font-family="Times,serif" font-size="14.00">consensus_valid</text>
</a>
</g>
</g>
<!-- VLSM_Examples_Paxos_Consensus_consensus_vlsm_machine&#45;&gt;VLSM_Examples_Paxos_Consensus_consensus_valid -->
<g id="edge5" class="edge">
<title>VLSM_Examples_Paxos_Consensus_consensus_vlsm_machine&#45;&gt;VLSM_Examples_Paxos_Consensus_consensus_valid</title>
<path fill="none" stroke="black" d="M614.44,-302.39C627.5,-290.36 645.18,-274.07 659.58,-260.8"/>
<polygon fill="black" stroke="black" points="662.21,-263.14 667.19,-253.79 657.46,-257.99 662.21,-263.14"/>
</g>
<!-- VLSM_Examples_Paxos_Consensus_consensus_initial_message_prop -->
<g id="node6" class="node">
<title>VLSM_Examples_Paxos_Consensus_consensus_initial_message_prop</title>
<g id="a_node6"><a xlink:href="VLSM.Examples.Paxos.Consensus.html#consensus_initial_message_prop" xlink:title="consensus_initial_message_prop" target="_top">
<ellipse fill="#f070d1" stroke="black" cx="897" cy="-236.38" rx="126.18" ry="18"/>
<text text-anchor="middle" x="897" y="-232.68" font-family="Times,serif" font-size="14.00">consensus_initial_message_prop</text>
</a>
</g>
</g>
<!-- VLSM_Examples_Paxos_Consensus_consensus_vlsm_machine&#45;&gt;VLSM_Examples_Paxos_Consensus_consensus_initial_message_prop -->
<g id="edge6" class="edge">
<title>VLSM_Examples_Paxos_Consensus_consensus_vlsm_machine&#45;&gt;VLSM_Examples_Paxos_Consensus_consensus_initial_message_prop</title>
<path fill="none" stroke="black" d="M649.12,-304.91C699.96,-291.06 776.79,-270.13 831.42,-255.25"/>
<polygon fill="black" stroke="black" points="832.62,-258.55 841.35,-252.54 830.78,-251.79 832.62,-258.55"/>
</g>
<!-- VLSM_Examples_Paxos_Consensus_consensus_initial_state_prop -->
<g id="node7" class="node">
<title>VLSM_Examples_Paxos_Consensus_consensus_initial_state_prop</title>
<g id="a_node7"><a xlink:href="VLSM.Examples.Paxos.Consensus.html#consensus_initial_state_prop" xlink:title="consensus_initial_state_prop" target="_top">
<ellipse fill="#f070d1" stroke="black" cx="152" cy="-236.38" rx="112.38" ry="18"/>
<text text-anchor="middle" x="152" y="-232.68" font-family="Times,serif" font-size="14.00">consensus_initial_state_prop</text>
</a>
</g>
</g>
<!-- VLSM_Examples_Paxos_Consensus_consensus_vlsm_machine&#45;&gt;VLSM_Examples_Paxos_Consensus_consensus_initial_state_prop -->
<g id="edge7" class="edge">
<title>VLSM_Examples_Paxos_Consensus_consensus_vlsm_machine&#45;&gt;VLSM_Examples_Paxos_Consensus_consensus_initial_state_prop</title>
<path fill="none" stroke="black" d="M524.69,-307.41C459.16,-296.27 359.41,-278.93 273,-262.38 258.05,-259.52 242.09,-256.32 226.83,-253.2"/>
<polygon fill="black" stroke="black" points="227.43,-249.75 216.92,-251.16 226.01,-256.6 227.43,-249.75"/>
</g>
<!-- VLSM_Examples_Paxos_Consensus_consensus_type -->
<g id="node8" class="node">
<title>VLSM_Examples_Paxos_Consensus_consensus_type</title>
<g id="a_node8"><a xlink:href="VLSM.Examples.Paxos.Consensus.html#consensus_type" xlink:title="consensus_type" target="_top">
<ellipse fill="#f070d1" stroke="black" cx="348" cy="-236.38" rx="65.79" ry="18"/>
<text text-anchor="middle" x="348" y="-232.68" font-family="Times,serif" font-size="14.00">consensus_type</text>
</a>
</g>
</g>
<!-- VLSM_Examples_Paxos_Consensus_consensus_vlsm_machine&#45;&gt;VLSM_Examples_Paxos_Consensus_consensus_type -->
<g id="edge8" class="edge">
<title>VLSM_Examples_Paxos_Consensus_consensus_vlsm_machine&#45;&gt;VLSM_Examples_Paxos_Consensus_consensus_type</title>
<path fill="none" stroke="black" d="M549.43,-304.26C514.37,-292.84 465.13,-276.73 422,-262.38 413.95,-259.71 405.42,-256.85 397.13,-254.05"/>
<polygon fill="black" stroke="black" points="398.13,-250.69 387.53,-250.81 395.89,-257.33 398.13,-250.69"/>
</g>
<!-- VLSM_Examples_Paxos_Consensus_consensus_label -->
<g id="node9" class="node">
<title>VLSM_Examples_Paxos_Consensus_consensus_label</title>
<g id="a_node9"><a xlink:href="VLSM.Examples.Paxos.Consensus.html#consensus_label" xlink:title="consensus_label" target="_top">
<ellipse fill="#f070d1" stroke="black" cx="359" cy="-144.38" rx="67.69" ry="18"/>
<text text-anchor="middle" x="359" y="-140.68" font-family="Times,serif" font-size="14.00">consensus_label</text>
</a>
</g>
</g>
<!-- VLSM_Examples_Paxos_Consensus_consensus_transition&#45;&gt;VLSM_Examples_Paxos_Consensus_consensus_label -->
<g id="edge9" class="edge">
<title>VLSM_Examples_Paxos_Consensus_consensus_transition&#45;&gt;VLSM_Examples_Paxos_Consensus_consensus_label</title>
<path fill="none" stroke="black" d="M487.11,-219.29C461.33,-204.42 422.88,-182.24 394.84,-166.06"/>
<polygon fill="black" stroke="black" points="396.54,-163 386.13,-161.03 393.04,-169.06 396.54,-163"/>
</g>
<!-- VLSM_Examples_Paxos_Consensus_consensus_message -->
<g id="node16" class="node">
<title>VLSM_Examples_Paxos_Consensus_consensus_message</title>
<g id="a_node16"><a xlink:href="VLSM.Examples.Paxos.Consensus.html#consensus_message" xlink:title="consensus_message" target="_top">
<ellipse fill="#f070d1" stroke="black" cx="526" cy="-144.38" rx="81.49" ry="18"/>
<text text-anchor="middle" x="526" y="-140.68" font-family="Times,serif" font-size="14.00">consensus_message</text>
</a>
</g>
</g>
<!-- VLSM_Examples_Paxos_Consensus_consensus_transition&#45;&gt;VLSM_Examples_Paxos_Consensus_consensus_message -->
<g id="edge10" class="edge">
<title>VLSM_Examples_Paxos_Consensus_consensus_transition&#45;&gt;VLSM_Examples_Paxos_Consensus_consensus_message</title>
<path fill="none" stroke="black" d="M517.12,-218.03C518.7,-205.12 520.88,-187.26 522.69,-172.48"/>
<polygon fill="black" stroke="black" points="526.18,-172.73 523.92,-162.38 519.24,-171.88 526.18,-172.73"/>
</g>
<!-- VLSM_Examples_Paxos_Consensus_consensus_state -->
<g id="node17" class="node">
<title>VLSM_Examples_Paxos_Consensus_consensus_state</title>
<g id="a_node17"><a xlink:href="VLSM.Examples.Paxos.Consensus.html#consensus_state" xlink:title="consensus_state" target="_top">
<ellipse fill="#f070d1" stroke="black" cx="206" cy="-144.38" rx="66.89" ry="18"/>
<text text-anchor="middle" x="206" y="-140.68" font-family="Times,serif" font-size="14.00">consensus_state</text>
</a>
</g>
</g>
<!-- VLSM_Examples_Paxos_Consensus_consensus_transition&#45;&gt;VLSM_Examples_Paxos_Consensus_consensus_state -->
<g id="edge11" class="edge">
<title>VLSM_Examples_Paxos_Consensus_consensus_transition&#45;&gt;VLSM_Examples_Paxos_Consensus_consensus_state</title>
<path fill="none" stroke="black" d="M465.35,-221.82C407.7,-206.02 316.16,-180.76 282,-170.38 273.5,-167.8 264.51,-164.95 255.8,-162.12"/>
<polygon fill="black" stroke="black" points="256.71,-158.74 246.12,-158.96 254.54,-165.4 256.71,-158.74"/>
</g>
<!-- VLSM_Examples_Paxos_Consensus_consensus_valid&#45;&gt;VLSM_Examples_Paxos_Consensus_consensus_label -->
<g id="edge12" class="edge">
<title>VLSM_Examples_Paxos_Consensus_consensus_valid&#45;&gt;VLSM_Examples_Paxos_Consensus_consensus_label</title>
<path fill="none" stroke="black" d="M645.23,-221.75C633.32,-217.87 620.19,-213.77 608,-210.38 532.38,-189.36 511.62,-191.41 436,-170.38 427.05,-167.89 417.59,-165.02 408.48,-162.14"/>
<polygon fill="black" stroke="black" points="409.36,-158.74 398.77,-159.01 407.21,-165.41 409.36,-158.74"/>
</g>
<!-- VLSM_Examples_Paxos_Consensus_consensus_valid&#45;&gt;VLSM_Examples_Paxos_Consensus_consensus_message -->
<g id="edge13" class="edge">
<title>VLSM_Examples_Paxos_Consensus_consensus_valid&#45;&gt;VLSM_Examples_Paxos_Consensus_consensus_message</title>
<path fill="none" stroke="black" d="M657.3,-219.71C631.21,-204.94 591.93,-182.7 563.13,-166.4"/>
<polygon fill="black" stroke="black" points="564.61,-163.21 554.18,-161.33 561.16,-169.31 564.61,-163.21"/>
</g>
<!-- VLSM_Examples_Paxos_Consensus_consensus_valid&#45;&gt;VLSM_Examples_Paxos_Consensus_consensus_state -->
<g id="edge14" class="edge">
<title>VLSM_Examples_Paxos_Consensus_consensus_valid&#45;&gt;VLSM_Examples_Paxos_Consensus_consensus_state</title>
<path fill="none" stroke="black" d="M646.62,-221.32C634.41,-217.28 620.76,-213.21 608,-210.38 465.48,-178.81 424.46,-202.23 282,-170.38 272.54,-168.27 262.6,-165.45 253.13,-162.47"/>
<polygon fill="black" stroke="black" points="254.07,-159.09 243.48,-159.32 251.9,-165.75 254.07,-159.09"/>
</g>
<!-- VLSM_Examples_Paxos_Consensus_consensus_initial_message_prop&#45;&gt;VLSM_Examples_Paxos_Consensus_consensus_message -->
<g id="edge15" class="edge">
<title>VLSM_Examples_Paxos_Consensus_consensus_initial_message_prop&#45;&gt;VLSM_Examples_Paxos_Consensus_consensus_message</title>
<path fill="none" stroke="black" d="M831.23,-221.02C774.15,-208.35 689.4,-189.06 616,-170.38 605.41,-167.69 594.16,-164.68 583.33,-161.71"/>
<polygon fill="black" stroke="black" points="584.11,-158.3 573.54,-159.01 582.25,-165.04 584.11,-158.3"/>
</g>
<!-- VLSM_Examples_Paxos_Consensus_consensus_initial_state_prop&#45;&gt;VLSM_Examples_Paxos_Consensus_consensus_state -->
<g id="edge16" class="edge">
<title>VLSM_Examples_Paxos_Consensus_consensus_initial_state_prop&#45;&gt;VLSM_Examples_Paxos_Consensus_consensus_state</title>
<path fill="none" stroke="black" d="M162.16,-218.45C170.15,-205.13 181.43,-186.34 190.54,-171.15"/>
<polygon fill="black" stroke="black" points="193.74,-172.61 195.89,-162.24 187.74,-169.01 193.74,-172.61"/>
</g>
<!-- VLSM_Examples_Paxos_Consensus_consensus_type&#45;&gt;VLSM_Examples_Paxos_Consensus_consensus_label -->
<g id="edge17" class="edge">
<title>VLSM_Examples_Paxos_Consensus_consensus_type&#45;&gt;VLSM_Examples_Paxos_Consensus_consensus_label</title>
<path fill="none" stroke="black" d="M350.12,-218.03C351.7,-205.12 353.88,-187.26 355.69,-172.48"/>
<polygon fill="black" stroke="black" points="359.18,-172.73 356.92,-162.38 352.24,-171.88 359.18,-172.73"/>
</g>
<!-- VLSM_Examples_Paxos_Consensus_consensus_type&#45;&gt;VLSM_Examples_Paxos_Consensus_consensus_state -->
<g id="edge18" class="edge">
<title>VLSM_Examples_Paxos_Consensus_consensus_type&#45;&gt;VLSM_Examples_Paxos_Consensus_consensus_state</title>
<path fill="none" stroke="black" d="M323.27,-219.71C300.09,-205.02 265.28,-182.95 239.6,-166.68"/>
<polygon fill="black" stroke="black" points="241.25,-163.58 230.93,-161.18 237.5,-169.49 241.25,-163.58"/>
</g>
<!-- VLSM_Examples_Paxos_Consensus_consensus_action -->
<g id="node15" class="node">
<title>VLSM_Examples_Paxos_Consensus_consensus_action</title>
<g id="a_node15"><a xlink:href="VLSM.Examples.Paxos.Consensus.html#consensus_action" xlink:title="consensus_action" target="_top">
<ellipse fill="#e2cdfa" stroke="black" cx="806" cy="-60.38" rx="72.29" ry="18"/>
<text text-anchor="middle" x="806" y="-56.68" font-family="Times,serif" font-size="14.00">consensus_action</text>
</a>
</g>
</g>
<!-- VLSM_Examples_Paxos_Consensus_consensus_label&#45;&gt;VLSM_Examples_Paxos_Consensus_consensus_action -->
<g id="edge19" class="edge">
<title>VLSM_Examples_Paxos_Consensus_consensus_label&#45;&gt;VLSM_Examples_Paxos_Consensus_consensus_action</title>
<path fill="none" stroke="black" d="M397.43,-129.56C409.64,-125.53 423.28,-121.41 436,-118.38 536.7,-94.44 655.31,-78.23 730.56,-69.39"/>
<polygon fill="black" stroke="black" points="731.36,-72.83 740.89,-68.2 730.55,-65.87 731.36,-72.83"/>
</g>
<!-- VLSM_Examples_Paxos_Consensus_consensus_action_sind -->
<g id="node10" class="node">
<title>VLSM_Examples_Paxos_Consensus_consensus_action_sind</title>
<g id="a_node10"><a xlink:href="VLSM.Examples.Paxos.Consensus.html#consensus_action_sind" xlink:title="consensus_action_sind" target="_top">
<ellipse fill="#f070d1" stroke="black" cx="922" cy="-144.38" rx="90.98" ry="18"/>
<ellipse fill="none" stroke="black" cx="922" cy="-144.38" rx="94.98" ry="22"/>
<ellipse fill="none" stroke="black" cx="922" cy="-144.38" rx="98.98" ry="26"/>
<text text-anchor="middle" x="922" y="-140.68" font-family="Times,serif" font-size="14.00">consensus_action_sind</text>
</a>
</g>
</g>
<!-- VLSM_Examples_Paxos_Consensus_consensus_action_sind&#45;&gt;VLSM_Examples_Paxos_Consensus_Decided -->
<g id="edge20" class="edge">
<title>VLSM_Examples_Paxos_Consensus_consensus_action_sind&#45;&gt;VLSM_Examples_Paxos_Consensus_Decided</title>
<path fill="none" stroke="black" d="M952.94,-119.44C967.96,-107.83 985.86,-93.98 1000.41,-82.73"/>
<polygon fill="black" stroke="black" points="1002.77,-85.33 1008.54,-76.44 998.49,-79.79 1002.77,-85.33"/>
</g>
<!-- VLSM_Examples_Paxos_Consensus_consensus_action_sind&#45;&gt;VLSM_Examples_Paxos_Consensus_consensus_action -->
<g id="edge21" class="edge">
<title>VLSM_Examples_Paxos_Consensus_consensus_action_sind&#45;&gt;VLSM_Examples_Paxos_Consensus_consensus_action</title>
<path fill="none" stroke="black" d="M888.76,-119.89C872.6,-108.46 853.29,-94.81 837.39,-83.57"/>
<polygon fill="black" stroke="black" points="839.13,-80.52 828.95,-77.6 835.09,-86.23 839.13,-80.52"/>
</g>
<!-- VLSM_Examples_Paxos_Consensus_consensus_action_rec -->
<g id="node11" class="node">
<title>VLSM_Examples_Paxos_Consensus_consensus_action_rec</title>
<g id="a_node11"><a xlink:href="VLSM.Examples.Paxos.Consensus.html#consensus_action_rec" xlink:title="consensus_action_rec" target="_top">
<ellipse fill="#f070d1" stroke="black" cx="1136" cy="-236.38" rx="87.18" ry="18"/>
<ellipse fill="none" stroke="black" cx="1136" cy="-236.38" rx="91.18" ry="22"/>
<ellipse fill="none" stroke="black" cx="1136" cy="-236.38" rx="95.18" ry="26"/>
<text text-anchor="middle" x="1136" y="-232.68" font-family="Times,serif" font-size="14.00">consensus_action_rec</text>
</a>
</g>
</g>
<!-- VLSM_Examples_Paxos_Consensus_consensus_action_rect -->
<g id="node13" class="node">
<title>VLSM_Examples_Paxos_Consensus_consensus_action_rect</title>
<g id="a_node13"><a xlink:href="VLSM.Examples.Paxos.Consensus.html#consensus_action_rect" xlink:title="consensus_action_rect" target="_top">
<ellipse fill="#f070d1" stroke="black" cx="715" cy="-144.38" rx="89.88" ry="18"/>
<text text-anchor="middle" x="715" y="-140.68" font-family="Times,serif" font-size="14.00">consensus_action_rect</text>
</a>
</g>
</g>
<!-- VLSM_Examples_Paxos_Consensus_consensus_action_rec&#45;&gt;VLSM_Examples_Paxos_Consensus_consensus_action_rect -->
<g id="edge22" class="edge">
<title>VLSM_Examples_Paxos_Consensus_consensus_action_rec&#45;&gt;VLSM_Examples_Paxos_Consensus_consensus_action_rect</title>
<path fill="none" stroke="black" d="M1067.31,-218.31C1055.56,-215.55 1043.45,-212.81 1032,-210.38 935.63,-189.97 910.25,-191.34 814,-170.38 801.84,-167.73 788.9,-164.66 776.52,-161.59"/>
<polygon fill="black" stroke="black" points="777.29,-158.17 766.74,-159.13 775.59,-164.96 777.29,-158.17"/>
</g>
<!-- VLSM_Examples_Paxos_Consensus_consensus_action_ind -->
<g id="node12" class="node">
<title>VLSM_Examples_Paxos_Consensus_consensus_action_ind</title>
<g id="a_node12"><a xlink:href="VLSM.Examples.Paxos.Consensus.html#consensus_action_ind" xlink:title="consensus_action_ind" target="_top">
<ellipse fill="#7fffd4" stroke="black" cx="1135" cy="-144.38" rx="87.96" ry="18"/>
<ellipse fill="none" stroke="black" cx="1135" cy="-144.38" rx="91.97" ry="22"/>
<ellipse fill="none" stroke="black" cx="1135" cy="-144.38" rx="95.99" ry="26"/>
<text text-anchor="middle" x="1135" y="-140.68" font-family="Times,serif" font-size="14.00">consensus_action_ind</text>
</a>
</g>
</g>
<!-- VLSM_Examples_Paxos_Consensus_consensus_action_ind&#45;&gt;VLSM_Examples_Paxos_Consensus_Decided -->
<g id="edge23" class="edge">
<title>VLSM_Examples_Paxos_Consensus_consensus_action_ind&#45;&gt;VLSM_Examples_Paxos_Consensus_Decided</title>
<path fill="none" stroke="black" d="M1104.05,-119.67C1088.78,-107.96 1070.51,-93.96 1055.7,-82.61"/>
<polygon fill="black" stroke="black" points="1057.5,-79.58 1047.43,-76.27 1053.24,-85.14 1057.5,-79.58"/>
</g>
<!-- VLSM_Examples_Paxos_Consensus_consensus_action_ind&#45;&gt;VLSM_Examples_Paxos_Consensus_consensus_action -->
<g id="edge24" class="edge">
<title>VLSM_Examples_Paxos_Consensus_consensus_action_ind&#45;&gt;VLSM_Examples_Paxos_Consensus_consensus_action</title>
<path fill="none" stroke="black" d="M1066.03,-126.19C1006.48,-111.35 921.38,-90.14 864.95,-76.08"/>
<polygon fill="black" stroke="black" points="865.66,-72.65 855.11,-73.62 863.97,-79.44 865.66,-72.65"/>
</g>
<!-- VLSM_Examples_Paxos_Consensus_consensus_action_rect&#45;&gt;VLSM_Examples_Paxos_Consensus_Decided -->
<g id="edge25" class="edge">
<title>VLSM_Examples_Paxos_Consensus_consensus_action_rect&#45;&gt;VLSM_Examples_Paxos_Consensus_Decided</title>
<path fill="none" stroke="black" d="M767.39,-129.66C828.13,-113.74 927.17,-87.8 984.07,-72.89"/>
<polygon fill="black" stroke="black" points="985.05,-76.25 993.84,-70.33 983.28,-69.48 985.05,-76.25"/>
</g>
<!-- VLSM_Examples_Paxos_Consensus_consensus_action_rect&#45;&gt;VLSM_Examples_Paxos_Consensus_consensus_action -->
<g id="edge26" class="edge">
<title>VLSM_Examples_Paxos_Consensus_consensus_action_rect&#45;&gt;VLSM_Examples_Paxos_Consensus_consensus_action</title>
<path fill="none" stroke="black" d="M733.86,-126.39C747.12,-114.44 765.05,-98.28 779.72,-85.07"/>
<polygon fill="black" stroke="black" points="782.39,-87.37 787.48,-78.07 777.71,-82.17 782.39,-87.37"/>
</g>
</g>
</svg>
