<?xml version="1.0" encoding="UTF-8" standalone="no"?>
<!DOCTYPE svg PUBLIC "-//W3C//DTD SVG 1.1//EN"
 "http://www.w3.org/Graphics/SVG/1.1/DTD/svg11.dtd">
<!-- Generated by graphviz version 2.43.0 (0)
 -->
<!-- Title: rvdpdgraph Pages: 1 -->
<svg width="1989pt" height="999pt"
 viewBox="0.00 0.00 1989.00 998.50" xmlns="http://www.w3.org/2000/svg" xmlns:xlink="http://www.w3.org/1999/xlink">
<g id="graph0" class="graph" transform="scale(1 1) rotate(0) translate(4 994.5)">
<title>rvdpdgraph</title>
<polygon fill="white" stroke="transparent" points="-4,4 -4,-994.5 1985,-994.5 1985,4 -4,4"/>
<g id="clust1" class="cluster">
<title>cluster_VLSM</title>
<polygon fill="#ffffc3" stroke="black" points="8,-10.75 8,-979.75 1973,-979.75 1973,-10.75 8,-10.75"/>
<text text-anchor="middle" x="35.5" y="-964.55" font-family="Times,serif" font-size="14.00">VLSM</text>
</g>
<g id="clust2" class="cluster">
<title>cluster_VLSM_Core</title>
<polygon fill="#ffffa3" stroke="black" points="16,-21.5 16,-938.09 1965,-938.09 1965,-21.5 16,-21.5"/>
<text text-anchor="middle" x="37.5" y="-922.89" font-family="Times,serif" font-size="14.00">Core</text>
</g>
<g id="clust3" class="cluster">
<title>cluster_VLSM_Core_Plans</title>
<polygon fill="#ffff83" stroke="black" points="24,-32.26 24,-896.42 1957,-896.42 1957,-32.26 24,-32.26"/>
<text text-anchor="middle" x="47" y="-881.22" font-family="Times,serif" font-size="14.00">Plans</text>
</g>
<!-- VLSM_Core_Plans_plan_independence -->
<g id="node1" class="node">
<title>VLSM_Core_Plans_plan_independence</title>
<g id="a_node1"><a xlink:href="VLSM.Core.Plans.html#plan_independence" xlink:title="plan_independence" target="_top">
<ellipse fill="#7fffd4" stroke="black" cx="1026" cy="-701.75" rx="78.77" ry="18"/>
<ellipse fill="none" stroke="black" cx="1026" cy="-701.75" rx="82.78" ry="22"/>
<ellipse fill="none" stroke="black" cx="1026" cy="-701.75" rx="86.79" ry="26"/>
<text text-anchor="middle" x="1026" y="-698.05" font-family="Times,serif" font-size="14.00">plan_independence</text>
</a>
</g>
</g>
<!-- VLSM_Core_Plans_ensures -->
<g id="node2" class="node">
<title>VLSM_Core_Plans_ensures</title>
<g id="a_node2"><a xlink:href="VLSM.Core.Plans.html#ensures" xlink:title="ensures" target="_top">
<ellipse fill="#f070d1" stroke="black" cx="1201" cy="-583.75" rx="37.09" ry="18"/>
<text text-anchor="middle" x="1201" y="-580.05" font-family="Times,serif" font-size="14.00">ensures</text>
</a>
</g>
</g>
<!-- VLSM_Core_Plans_plan_independence&#45;&gt;VLSM_Core_Plans_ensures -->
<g id="edge1" class="edge">
<title>VLSM_Core_Plans_plan_independence&#45;&gt;VLSM_Core_Plans_ensures</title>
<path fill="none" stroke="black" d="M1060.57,-677.83C1092.85,-656.44 1140.51,-624.85 1171.16,-604.53"/>
<polygon fill="black" stroke="black" points="1173.31,-607.31 1179.71,-598.86 1169.44,-601.47 1173.31,-607.31"/>
</g>
<!-- VLSM_Core_Plans_preserves -->
<g id="node3" class="node">
<title>VLSM_Core_Plans_preserves</title>
<g id="a_node3"><a xlink:href="VLSM.Core.Plans.html#preserves" xlink:title="preserves" target="_top">
<ellipse fill="#f070d1" stroke="black" cx="1102" cy="-583.75" rx="44.39" ry="18"/>
<text text-anchor="middle" x="1102" y="-580.05" font-family="Times,serif" font-size="14.00">preserves</text>
</a>
</g>
</g>
<!-- VLSM_Core_Plans_plan_independence&#45;&gt;VLSM_Core_Plans_preserves -->
<g id="edge2" class="edge">
<title>VLSM_Core_Plans_plan_independence&#45;&gt;VLSM_Core_Plans_preserves</title>
<path fill="none" stroke="black" d="M1042.12,-676.15C1054.89,-656.66 1072.66,-629.53 1085.53,-609.9"/>
<polygon fill="black" stroke="black" points="1088.5,-611.74 1091.06,-601.46 1082.65,-607.9 1088.5,-611.74"/>
</g>
<!-- VLSM_Core_Plans_apply_plan_last_valid -->
<g id="node11" class="node">
<title>VLSM_Core_Plans_apply_plan_last_valid</title>
<g id="a_node11"><a xlink:href="VLSM.Core.Plans.html#apply_plan_last_valid" xlink:title="apply_plan_last_valid" target="_top">
<ellipse fill="#7fffd4" stroke="black" cx="951" cy="-583.75" rx="88.28" ry="18"/>
<text text-anchor="middle" x="951" y="-580.05" font-family="Times,serif" font-size="14.00">apply_plan_last_valid</text>
</a>
</g>
</g>
<!-- VLSM_Core_Plans_plan_independence&#45;&gt;VLSM_Core_Plans_apply_plan_last_valid -->
<g id="edge3" class="edge">
<title>VLSM_Core_Plans_plan_independence&#45;&gt;VLSM_Core_Plans_apply_plan_last_valid</title>
<path fill="none" stroke="black" d="M1010.09,-676.15C997.57,-656.77 980.16,-629.85 967.48,-610.24"/>
<polygon fill="black" stroke="black" points="970.39,-608.3 962.03,-601.81 964.52,-612.1 970.39,-608.3"/>
</g>
<!-- VLSM_Core_Plans_finite_valid_plan_from_app_iff -->
<g id="node13" class="node">
<title>VLSM_Core_Plans_finite_valid_plan_from_app_iff</title>
<g id="a_node13"><a xlink:href="VLSM.Core.Plans.html#finite_valid_plan_from_app_iff" xlink:title="finite_valid_plan_from_app_iff" target="_top">
<ellipse fill="#7fffd4" stroke="black" cx="722" cy="-583.75" rx="122.38" ry="18"/>
<text text-anchor="middle" x="722" y="-580.05" font-family="Times,serif" font-size="14.00">finite_valid_plan_from_app_iff</text>
</a>
</g>
</g>
<!-- VLSM_Core_Plans_plan_independence&#45;&gt;VLSM_Core_Plans_finite_valid_plan_from_app_iff -->
<g id="edge4" class="edge">
<title>VLSM_Core_Plans_plan_independence&#45;&gt;VLSM_Core_Plans_finite_valid_plan_from_app_iff</title>
<path fill="none" stroke="black" d="M973.74,-680.81C917.69,-659.42 829.24,-625.67 773.49,-604.4"/>
<polygon fill="black" stroke="black" points="774.4,-601 763.81,-600.71 771.91,-607.54 774.4,-601"/>
</g>
<!-- VLSM_Core_Plans_finite_valid_plan_from -->
<g id="node14" class="node">
<title>VLSM_Core_Plans_finite_valid_plan_from</title>
<g id="a_node14"><a xlink:href="VLSM.Core.Plans.html#finite_valid_plan_from" xlink:title="finite_valid_plan_from" target="_top">
<ellipse fill="#f070d1" stroke="black" cx="1076" cy="-464.75" rx="92.88" ry="18"/>
<text text-anchor="middle" x="1076" y="-461.05" font-family="Times,serif" font-size="14.00">finite_valid_plan_from</text>
</a>
</g>
</g>
<!-- VLSM_Core_Plans_ensures&#45;&gt;VLSM_Core_Plans_finite_valid_plan_from -->
<g id="edge5" class="edge">
<title>VLSM_Core_Plans_ensures&#45;&gt;VLSM_Core_Plans_finite_valid_plan_from</title>
<path fill="none" stroke="black" d="M1184.66,-567.46C1163.52,-547.67 1126.46,-512.99 1101.58,-489.69"/>
<polygon fill="black" stroke="black" points="1103.66,-486.84 1093.96,-482.57 1098.87,-491.95 1103.66,-486.84"/>
</g>
<!-- VLSM_Core_Plans_preserves&#45;&gt;VLSM_Core_Plans_finite_valid_plan_from -->
<g id="edge6" class="edge">
<title>VLSM_Core_Plans_preserves&#45;&gt;VLSM_Core_Plans_finite_valid_plan_from</title>
<path fill="none" stroke="black" d="M1098.22,-565.74C1093.96,-546.59 1086.99,-515.22 1081.99,-492.72"/>
<polygon fill="black" stroke="black" points="1085.37,-491.79 1079.79,-482.79 1078.54,-493.31 1085.37,-491.79"/>
</g>
<!-- VLSM_Core_Plans_finite_valid_plan_from_one -->
<g id="node4" class="node">
<title>VLSM_Core_Plans_finite_valid_plan_from_one</title>
<g id="a_node4"><a xlink:href="VLSM.Core.Plans.html#finite_valid_plan_from_one" xlink:title="finite_valid_plan_from_one" target="_top">
<ellipse fill="#7fffd4" stroke="black" cx="1791" cy="-583.75" rx="109.69" ry="18"/>
<ellipse fill="none" stroke="black" cx="1791" cy="-583.75" rx="113.69" ry="22"/>
<ellipse fill="none" stroke="black" cx="1791" cy="-583.75" rx="117.68" ry="26"/>
<text text-anchor="middle" x="1791" y="-580.05" font-family="Times,serif" font-size="14.00">finite_valid_plan_from_one</text>
</a>
</g>
</g>
<!-- VLSM_Core_Plans_finite_valid_plan_from_one&#45;&gt;VLSM_Core_Plans_finite_valid_plan_from -->
<g id="edge7" class="edge">
<title>VLSM_Core_Plans_finite_valid_plan_from_one&#45;&gt;VLSM_Core_Plans_finite_valid_plan_from</title>
<path fill="none" stroke="black" d="M1700.49,-566.98C1681.82,-563.84 1662.29,-560.62 1644,-557.75 1437.29,-525.32 1383.41,-530.59 1178,-490.75 1165.09,-488.25 1151.36,-485.17 1138.3,-482.04"/>
<polygon fill="black" stroke="black" points="1139,-478.61 1128.46,-479.65 1137.35,-485.41 1139,-478.61"/>
</g>
<!-- VLSM_Core_Plans_input_a -->
<g id="node29" class="node">
<title>VLSM_Core_Plans_input_a</title>
<g id="a_node29"><a xlink:href="VLSM.Core.Plans.html#input_a" xlink:title="input_a" target="_top">
<ellipse fill="#f070d1" stroke="black" cx="1612" cy="-464.75" rx="37.09" ry="18"/>
<text text-anchor="middle" x="1612" y="-461.05" font-family="Times,serif" font-size="14.00">input_a</text>
</a>
</g>
</g>
<!-- VLSM_Core_Plans_finite_valid_plan_from_one&#45;&gt;VLSM_Core_Plans_input_a -->
<g id="edge8" class="edge">
<title>VLSM_Core_Plans_finite_valid_plan_from_one&#45;&gt;VLSM_Core_Plans_input_a</title>
<path fill="none" stroke="black" d="M1754.34,-558.79C1721.11,-537.07 1672.73,-505.45 1641.81,-485.24"/>
<polygon fill="black" stroke="black" points="1643.48,-482.15 1633.2,-479.61 1639.65,-488.01 1643.48,-482.15"/>
</g>
<!-- VLSM_Core_Plans_label_a -->
<g id="node30" class="node">
<title>VLSM_Core_Plans_label_a</title>
<g id="a_node30"><a xlink:href="VLSM.Core.Plans.html#label_a" xlink:title="label_a" target="_top">
<ellipse fill="#f070d1" stroke="black" cx="1913" cy="-464.75" rx="36.29" ry="18"/>
<text text-anchor="middle" x="1913" y="-461.05" font-family="Times,serif" font-size="14.00">label_a</text>
</a>
</g>
</g>
<!-- VLSM_Core_Plans_finite_valid_plan_from_one&#45;&gt;VLSM_Core_Plans_label_a -->
<g id="edge9" class="edge">
<title>VLSM_Core_Plans_finite_valid_plan_from_one&#45;&gt;VLSM_Core_Plans_label_a</title>
<path fill="none" stroke="black" d="M1816.58,-558.22C1838.23,-537.46 1869,-507.95 1889.92,-487.89"/>
<polygon fill="black" stroke="black" points="1892.35,-490.41 1897.14,-480.96 1887.5,-485.35 1892.35,-490.41"/>
</g>
<!-- VLSM_Core_Plans_Build_plan_item -->
<g id="node31" class="node">
<title>VLSM_Core_Plans_Build_plan_item</title>
<g id="a_node31"><a xlink:href="VLSM.Core.Plans.html#Build_plan_item" xlink:title="Build_plan_item" target="_top">
<ellipse fill="#7faaff" stroke="black" cx="1791" cy="-163.75" rx="70.39" ry="18"/>
<text text-anchor="middle" x="1791" y="-160.05" font-family="Times,serif" font-size="14.00">Build_plan_item</text>
</a>
</g>
</g>
<!-- VLSM_Core_Plans_finite_valid_plan_from_one&#45;&gt;VLSM_Core_Plans_Build_plan_item -->
<g id="edge10" class="edge">
<title>VLSM_Core_Plans_finite_valid_plan_from_one&#45;&gt;VLSM_Core_Plans_Build_plan_item</title>
<path fill="none" stroke="black" d="M1791,-557.55C1791,-483.86 1791,-269.2 1791,-192.44"/>
<polygon fill="black" stroke="black" points="1794.5,-192.15 1791,-182.15 1787.5,-192.15 1794.5,-192.15"/>
</g>
<!-- VLSM_Core_Plans_finite_valid_plan_iff -->
<g id="node5" class="node">
<title>VLSM_Core_Plans_finite_valid_plan_iff</title>
<g id="a_node5"><a xlink:href="VLSM.Core.Plans.html#finite_valid_plan_iff" xlink:title="finite_valid_plan_iff" target="_top">
<ellipse fill="#7fffd4" stroke="black" cx="1756" cy="-701.75" rx="83.37" ry="18"/>
<ellipse fill="none" stroke="black" cx="1756" cy="-701.75" rx="87.38" ry="22"/>
<ellipse fill="none" stroke="black" cx="1756" cy="-701.75" rx="91.39" ry="26"/>
<text text-anchor="middle" x="1756" y="-698.05" font-family="Times,serif" font-size="14.00">finite_valid_plan_iff</text>
</a>
</g>
</g>
<!-- VLSM_Core_Plans_finite_valid_plan_iff&#45;&gt;VLSM_Core_Plans_finite_valid_plan_from_app_iff -->
<g id="edge11" class="edge">
<title>VLSM_Core_Plans_finite_valid_plan_iff&#45;&gt;VLSM_Core_Plans_finite_valid_plan_from_app_iff</title>
<path fill="none" stroke="black" d="M1668.3,-694.44C1506.72,-682.25 1151.32,-652.82 854,-609.75 836.54,-607.22 817.87,-604 800.23,-600.73"/>
<polygon fill="black" stroke="black" points="800.46,-597.21 789.98,-598.79 799.16,-604.09 800.46,-597.21"/>
</g>
<!-- VLSM_Core_Plans_finite_valid_plan_iff&#45;&gt;VLSM_Core_Plans_input_a -->
<g id="edge12" class="edge">
<title>VLSM_Core_Plans_finite_valid_plan_iff&#45;&gt;VLSM_Core_Plans_input_a</title>
<path fill="none" stroke="black" d="M1725.59,-676.85C1705.76,-659.92 1680.58,-635.69 1664,-609.75 1660.7,-604.59 1635.18,-532.17 1621.16,-492.05"/>
<polygon fill="black" stroke="black" points="1624.46,-490.89 1617.86,-482.61 1617.85,-493.2 1624.46,-490.89"/>
</g>
<!-- VLSM_Core_Plans_finite_valid_plan_iff&#45;&gt;VLSM_Core_Plans_label_a -->
<g id="edge13" class="edge">
<title>VLSM_Core_Plans_finite_valid_plan_iff&#45;&gt;VLSM_Core_Plans_label_a</title>
<path fill="none" stroke="black" d="M1824.52,-684.49C1863.62,-671.31 1909.42,-648.39 1933,-609.75 1955.31,-573.2 1939.27,-521.86 1925.91,-491.38"/>
<polygon fill="black" stroke="black" points="1929.07,-489.89 1921.72,-482.26 1922.71,-492.81 1929.07,-489.89"/>
</g>
<!-- VLSM_Core_Plans_finite_valid_plan_iff&#45;&gt;VLSM_Core_Plans_Build_plan_item -->
<g id="edge14" class="edge">
<title>VLSM_Core_Plans_finite_valid_plan_iff&#45;&gt;VLSM_Core_Plans_Build_plan_item</title>
<path fill="none" stroke="black" d="M1819.3,-682.78C1855.05,-669.02 1896.74,-646.08 1918,-609.75 1929.67,-589.81 1925.28,-579.69 1918,-557.75 1906.29,-522.49 1883.71,-524.42 1868,-490.75 1819.49,-386.78 1800.02,-249.45 1793.64,-191.92"/>
<polygon fill="black" stroke="black" points="1797.1,-191.4 1792.56,-181.83 1790.14,-192.14 1797.1,-191.4"/>
</g>
<!-- VLSM_Core_Plans_finite_valid_trace_from_to_plan -->
<g id="node6" class="node">
<title>VLSM_Core_Plans_finite_valid_trace_from_to_plan</title>
<g id="a_node6"><a xlink:href="VLSM.Core.Plans.html#finite_valid_trace_from_to_plan" xlink:title="finite_valid_trace_from_to_plan" target="_top">
<ellipse fill="#7fffd4" stroke="black" cx="825" cy="-819.75" rx="125.38" ry="18"/>
<ellipse fill="none" stroke="black" cx="825" cy="-819.75" rx="129.38" ry="22"/>
<ellipse fill="none" stroke="black" cx="825" cy="-819.75" rx="133.38" ry="26"/>
<text text-anchor="middle" x="825" y="-816.05" font-family="Times,serif" font-size="14.00">finite_valid_trace_from_to_plan</text>
</a>
</g>
</g>
<!-- VLSM_Core_Plans_trace_to_plan_to_trace -->
<g id="node7" class="node">
<title>VLSM_Core_Plans_trace_to_plan_to_trace</title>
<g id="a_node7"><a xlink:href="VLSM.Core.Plans.html#trace_to_plan_to_trace" xlink:title="trace_to_plan_to_trace" target="_top">
<ellipse fill="#7fffd4" stroke="black" cx="455" cy="-701.75" rx="90.98" ry="18"/>
<text text-anchor="middle" x="455" y="-698.05" font-family="Times,serif" font-size="14.00">trace_to_plan_to_trace</text>
</a>
</g>
</g>
<!-- VLSM_Core_Plans_finite_valid_trace_from_to_plan&#45;&gt;VLSM_Core_Plans_trace_to_plan_to_trace -->
<g id="edge15" class="edge">
<title>VLSM_Core_Plans_finite_valid_trace_from_to_plan&#45;&gt;VLSM_Core_Plans_trace_to_plan_to_trace</title>
<path fill="none" stroke="black" d="M756.71,-797.34C686,-775.17 576.85,-740.95 511.04,-720.32"/>
<polygon fill="black" stroke="black" points="511.84,-716.91 501.26,-717.25 509.75,-723.58 511.84,-716.91"/>
</g>
<!-- VLSM_Core_Plans_finite_valid_trace_from_to_plan&#45;&gt;VLSM_Core_Plans_finite_valid_plan_from -->
<g id="edge16" class="edge">
<title>VLSM_Core_Plans_finite_valid_trace_from_to_plan&#45;&gt;VLSM_Core_Plans_finite_valid_plan_from</title>
<path fill="none" stroke="black" d="M922.28,-801.94C1087.26,-771.21 1410.45,-700.69 1476,-609.75 1539.43,-521.75 1340.62,-528.96 1178,-490.75 1165.89,-487.91 1152.98,-484.8 1140.57,-481.78"/>
<polygon fill="black" stroke="black" points="1141.29,-478.35 1130.74,-479.37 1139.62,-485.15 1141.29,-478.35"/>
</g>
<!-- VLSM_Core_Plans_trace_to_plan_to_trace_from_to -->
<g id="node8" class="node">
<title>VLSM_Core_Plans_trace_to_plan_to_trace_from_to</title>
<g id="a_node8"><a xlink:href="VLSM.Core.Plans.html#trace_to_plan_to_trace_from_to" xlink:title="trace_to_plan_to_trace_from_to" target="_top">
<ellipse fill="#7fffd4" stroke="black" cx="156" cy="-583.75" rx="124.28" ry="18"/>
<text text-anchor="middle" x="156" y="-580.05" font-family="Times,serif" font-size="14.00">trace_to_plan_to_trace_from_to</text>
</a>
</g>
</g>
<!-- VLSM_Core_Plans_trace_to_plan_to_trace&#45;&gt;VLSM_Core_Plans_trace_to_plan_to_trace_from_to -->
<g id="edge17" class="edge">
<title>VLSM_Core_Plans_trace_to_plan_to_trace&#45;&gt;VLSM_Core_Plans_trace_to_plan_to_trace_from_to</title>
<path fill="none" stroke="black" d="M415.6,-685.47C361.98,-664.66 265.94,-627.4 206.91,-604.5"/>
<polygon fill="black" stroke="black" points="207.99,-601.17 197.41,-600.82 205.46,-607.7 207.99,-601.17"/>
</g>
<!-- VLSM_Core_Plans_apply_plan_app -->
<g id="node16" class="node">
<title>VLSM_Core_Plans_apply_plan_app</title>
<g id="a_node16"><a xlink:href="VLSM.Core.Plans.html#apply_plan_app" xlink:title="apply_plan_app" target="_top">
<ellipse fill="#7fffd4" stroke="black" cx="735" cy="-464.75" rx="66.89" ry="18"/>
<text text-anchor="middle" x="735" y="-461.05" font-family="Times,serif" font-size="14.00">apply_plan_app</text>
</a>
</g>
</g>
<!-- VLSM_Core_Plans_trace_to_plan_to_trace_from_to&#45;&gt;VLSM_Core_Plans_apply_plan_app -->
<g id="edge18" class="edge">
<title>VLSM_Core_Plans_trace_to_plan_to_trace_from_to&#45;&gt;VLSM_Core_Plans_apply_plan_app</title>
<path fill="none" stroke="black" d="M228.46,-569.04C248.1,-565.35 269.36,-561.38 289,-557.75 453.34,-527.43 497.01,-531.85 659,-490.75 668.1,-488.44 677.68,-485.61 686.87,-482.7"/>
<polygon fill="black" stroke="black" points="688.22,-485.94 696.64,-479.52 686.05,-479.28 688.22,-485.94"/>
</g>
<!-- VLSM_Core_Plans_trace_to_plan -->
<g id="node17" class="node">
<title>VLSM_Core_Plans_trace_to_plan</title>
<g id="a_node17"><a xlink:href="VLSM.Core.Plans.html#trace_to_plan" xlink:title="trace_to_plan" target="_top">
<ellipse fill="#f070d1" stroke="black" cx="254" cy="-464.75" rx="58.49" ry="18"/>
<text text-anchor="middle" x="254" y="-461.05" font-family="Times,serif" font-size="14.00">trace_to_plan</text>
</a>
</g>
</g>
<!-- VLSM_Core_Plans_trace_to_plan_to_trace_from_to&#45;&gt;VLSM_Core_Plans_trace_to_plan -->
<g id="edge19" class="edge">
<title>VLSM_Core_Plans_trace_to_plan_to_trace_from_to&#45;&gt;VLSM_Core_Plans_trace_to_plan</title>
<path fill="none" stroke="black" d="M170.25,-565.74C186.89,-545.87 214.55,-512.85 233.5,-490.23"/>
<polygon fill="black" stroke="black" points="236.31,-492.32 240.05,-482.41 230.95,-487.82 236.31,-492.32"/>
</g>
<!-- VLSM_Core_Plans_finite_valid_plan_from_to_app_iff -->
<g id="node9" class="node">
<title>VLSM_Core_Plans_finite_valid_plan_from_to_app_iff</title>
<g id="a_node9"><a xlink:href="VLSM.Core.Plans.html#finite_valid_plan_from_to_app_iff" xlink:title="finite_valid_plan_from_to_app_iff" target="_top">
<ellipse fill="#7fffd4" stroke="black" cx="440" cy="-583.75" rx="133.78" ry="18"/>
<ellipse fill="none" stroke="black" cx="440" cy="-583.75" rx="137.78" ry="22"/>
<ellipse fill="none" stroke="black" cx="440" cy="-583.75" rx="141.78" ry="26"/>
<text text-anchor="middle" x="440" y="-580.05" font-family="Times,serif" font-size="14.00">finite_valid_plan_from_to_app_iff</text>
</a>
</g>
</g>
<!-- VLSM_Core_Plans_finite_valid_plan_from_to -->
<g id="node10" class="node">
<title>VLSM_Core_Plans_finite_valid_plan_from_to</title>
<g id="a_node10"><a xlink:href="VLSM.Core.Plans.html#finite_valid_plan_from_to" xlink:title="finite_valid_plan_from_to" target="_top">
<ellipse fill="#f070d1" stroke="black" cx="546" cy="-464.75" rx="103.98" ry="18"/>
<text text-anchor="middle" x="546" y="-461.05" font-family="Times,serif" font-size="14.00">finite_valid_plan_from_to</text>
</a>
</g>
</g>
<!-- VLSM_Core_Plans_finite_valid_plan_from_to_app_iff&#45;&gt;VLSM_Core_Plans_finite_valid_plan_from_to -->
<g id="edge20" class="edge">
<title>VLSM_Core_Plans_finite_valid_plan_from_to_app_iff&#45;&gt;VLSM_Core_Plans_finite_valid_plan_from_to</title>
<path fill="none" stroke="black" d="M462.48,-557.94C480.61,-537.92 505.98,-509.93 523.99,-490.05"/>
<polygon fill="black" stroke="black" points="526.61,-492.36 530.74,-482.6 521.43,-487.66 526.61,-492.36"/>
</g>
<!-- VLSM_Core_Plans_apply_plan_last -->
<g id="node15" class="node">
<title>VLSM_Core_Plans_apply_plan_last</title>
<g id="a_node15"><a xlink:href="VLSM.Core.Plans.html#apply_plan_last" xlink:title="apply_plan_last" target="_top">
<ellipse fill="#7fffd4" stroke="black" cx="886" cy="-464.75" rx="66.09" ry="18"/>
<text text-anchor="middle" x="886" y="-461.05" font-family="Times,serif" font-size="14.00">apply_plan_last</text>
</a>
</g>
</g>
<!-- VLSM_Core_Plans_finite_valid_plan_from_to_app_iff&#45;&gt;VLSM_Core_Plans_apply_plan_last -->
<g id="edge21" class="edge">
<title>VLSM_Core_Plans_finite_valid_plan_from_to_app_iff&#45;&gt;VLSM_Core_Plans_apply_plan_last</title>
<path fill="none" stroke="black" d="M527.1,-563.2C602.61,-545.76 714.61,-518.72 811,-490.75 819.52,-488.28 828.53,-485.46 837.22,-482.63"/>
<polygon fill="black" stroke="black" points="838.47,-485.9 846.87,-479.44 836.28,-479.25 838.47,-485.9"/>
</g>
<!-- VLSM_Core_Plans_finite_valid_plan_from_to_app_iff&#45;&gt;VLSM_Core_Plans_apply_plan_app -->
<g id="edge22" class="edge">
<title>VLSM_Core_Plans_finite_valid_plan_from_to_app_iff&#45;&gt;VLSM_Core_Plans_apply_plan_app</title>
<path fill="none" stroke="black" d="M497.58,-559.92C553.66,-537.67 637.78,-504.31 689.38,-483.85"/>
<polygon fill="black" stroke="black" points="690.93,-487 698.93,-480.06 688.35,-480.49 690.93,-487"/>
</g>
<!-- VLSM_Core_Plans_apply_plan -->
<g id="node18" class="node">
<title>VLSM_Core_Plans_apply_plan</title>
<g id="a_node18"><a xlink:href="VLSM.Core.Plans.html#apply_plan" xlink:title="apply_plan" target="_top">
<ellipse fill="#f070d1" stroke="black" cx="886" cy="-357.75" rx="50.09" ry="18"/>
<text text-anchor="middle" x="886" y="-354.05" font-family="Times,serif" font-size="14.00">apply_plan</text>
</a>
</g>
</g>
<!-- VLSM_Core_Plans_finite_valid_plan_from_to&#45;&gt;VLSM_Core_Plans_apply_plan -->
<g id="edge23" class="edge">
<title>VLSM_Core_Plans_finite_valid_plan_from_to&#45;&gt;VLSM_Core_Plans_apply_plan</title>
<path fill="none" stroke="black" d="M594.71,-448.71C660.07,-428.52 775.34,-392.92 839.54,-373.1"/>
<polygon fill="black" stroke="black" points="840.86,-376.35 849.38,-370.06 838.8,-369.67 840.86,-376.35"/>
</g>
<!-- VLSM_Core_Plans_plan -->
<g id="node19" class="node">
<title>VLSM_Core_Plans_plan</title>
<g id="a_node19"><a xlink:href="VLSM.Core.Plans.html#plan" xlink:title="plan" target="_top">
<ellipse fill="#f070d1" stroke="black" cx="791" cy="-357.75" rx="27" ry="18"/>
<text text-anchor="middle" x="791" y="-354.05" font-family="Times,serif" font-size="14.00">plan</text>
</a>
</g>
</g>
<!-- VLSM_Core_Plans_finite_valid_plan_from_to&#45;&gt;VLSM_Core_Plans_plan -->
<g id="edge24" class="edge">
<title>VLSM_Core_Plans_finite_valid_plan_from_to&#45;&gt;VLSM_Core_Plans_plan</title>
<path fill="none" stroke="black" d="M582.94,-447.92C631.02,-427.32 714.2,-391.67 759.46,-372.27"/>
<polygon fill="black" stroke="black" points="760.96,-375.43 768.78,-368.28 758.21,-369 760.96,-375.43"/>
</g>
<!-- VLSM_Core_Plans_apply_plan_last_valid&#45;&gt;VLSM_Core_Plans_finite_valid_plan_from -->
<g id="edge25" class="edge">
<title>VLSM_Core_Plans_apply_plan_last_valid&#45;&gt;VLSM_Core_Plans_finite_valid_plan_from</title>
<path fill="none" stroke="black" d="M968.91,-565.99C990.35,-545.92 1026.4,-512.17 1050.69,-489.45"/>
<polygon fill="black" stroke="black" points="1053.21,-491.87 1058.12,-482.48 1048.43,-486.76 1053.21,-491.87"/>
</g>
<!-- VLSM_Core_Plans_apply_plan_last_valid&#45;&gt;VLSM_Core_Plans_apply_plan_last -->
<g id="edge26" class="edge">
<title>VLSM_Core_Plans_apply_plan_last_valid&#45;&gt;VLSM_Core_Plans_apply_plan_last</title>
<path fill="none" stroke="black" d="M941.55,-565.74C930.77,-546.33 913.01,-514.37 900.48,-491.81"/>
<polygon fill="black" stroke="black" points="903.38,-489.83 895.46,-482.79 897.26,-493.23 903.38,-489.83"/>
</g>
<!-- VLSM_Core_Plans_finite_valid_plan_empty -->
<g id="node12" class="node">
<title>VLSM_Core_Plans_finite_valid_plan_empty</title>
<g id="a_node12"><a xlink:href="VLSM.Core.Plans.html#finite_valid_plan_empty" xlink:title="finite_valid_plan_empty" target="_top">
<ellipse fill="#7fffd4" stroke="black" cx="1362" cy="-583.75" rx="97.48" ry="18"/>
<ellipse fill="none" stroke="black" cx="1362" cy="-583.75" rx="101.48" ry="22"/>
<ellipse fill="none" stroke="black" cx="1362" cy="-583.75" rx="105.48" ry="26"/>
<text text-anchor="middle" x="1362" y="-580.05" font-family="Times,serif" font-size="14.00">finite_valid_plan_empty</text>
</a>
</g>
</g>
<!-- VLSM_Core_Plans_finite_valid_plan_empty&#45;&gt;VLSM_Core_Plans_finite_valid_plan_from -->
<g id="edge27" class="edge">
<title>VLSM_Core_Plans_finite_valid_plan_empty&#45;&gt;VLSM_Core_Plans_finite_valid_plan_from</title>
<path fill="none" stroke="black" d="M1309.21,-561.16C1255.99,-539.38 1174.59,-506.08 1123.38,-485.13"/>
<polygon fill="black" stroke="black" points="1124.45,-481.79 1113.87,-481.24 1121.8,-488.27 1124.45,-481.79"/>
</g>
<!-- VLSM_Core_Plans_finite_valid_plan_from_app_iff&#45;&gt;VLSM_Core_Plans_finite_valid_plan_from -->
<g id="edge28" class="edge">
<title>VLSM_Core_Plans_finite_valid_plan_from_app_iff&#45;&gt;VLSM_Core_Plans_finite_valid_plan_from</title>
<path fill="none" stroke="black" d="M769.37,-567.09C834.74,-545.49 952.31,-506.63 1021.32,-483.82"/>
<polygon fill="black" stroke="black" points="1022.74,-487.04 1031.14,-480.58 1020.55,-480.39 1022.74,-487.04"/>
</g>
<!-- VLSM_Core_Plans_finite_valid_plan_from_app_iff&#45;&gt;VLSM_Core_Plans_apply_plan_last -->
<g id="edge29" class="edge">
<title>VLSM_Core_Plans_finite_valid_plan_from_app_iff&#45;&gt;VLSM_Core_Plans_apply_plan_last</title>
<path fill="none" stroke="black" d="M745.5,-565.99C774.32,-545.43 823.26,-510.51 855.1,-487.79"/>
<polygon fill="black" stroke="black" points="857.49,-490.39 863.6,-481.73 853.43,-484.69 857.49,-490.39"/>
</g>
<!-- VLSM_Core_Plans_finite_valid_plan_from_app_iff&#45;&gt;VLSM_Core_Plans_apply_plan_app -->
<g id="edge30" class="edge">
<title>VLSM_Core_Plans_finite_valid_plan_from_app_iff&#45;&gt;VLSM_Core_Plans_apply_plan_app</title>
<path fill="none" stroke="black" d="M723.89,-565.74C726.01,-546.68 729.47,-515.5 731.97,-493.03"/>
<polygon fill="black" stroke="black" points="735.48,-493.11 733.11,-482.79 728.52,-492.34 735.48,-493.11"/>
</g>
<!-- VLSM_Core_Plans_finite_valid_plan_from&#45;&gt;VLSM_Core_Plans_apply_plan -->
<g id="edge31" class="edge">
<title>VLSM_Core_Plans_finite_valid_plan_from&#45;&gt;VLSM_Core_Plans_apply_plan</title>
<path fill="none" stroke="black" d="M1046.73,-447.58C1013,-428.93 957.58,-398.31 921.44,-378.34"/>
<polygon fill="black" stroke="black" points="922.69,-375.03 912.24,-373.25 919.3,-381.15 922.69,-375.03"/>
</g>
<!-- VLSM_Core_Plans_finite_valid_plan_from&#45;&gt;VLSM_Core_Plans_plan -->
<g id="edge32" class="edge">
<title>VLSM_Core_Plans_finite_valid_plan_from&#45;&gt;VLSM_Core_Plans_plan</title>
<path fill="none" stroke="black" d="M1030.04,-449.06C979.67,-432.61 896.75,-404.46 827,-375.75 825.18,-375 823.32,-374.21 821.45,-373.39"/>
<polygon fill="black" stroke="black" points="822.71,-370.12 812.16,-369.18 819.82,-376.5 822.71,-370.12"/>
</g>
<!-- VLSM_Core_Plans_apply_plan_last&#45;&gt;VLSM_Core_Plans_apply_plan -->
<g id="edge33" class="edge">
<title>VLSM_Core_Plans_apply_plan_last&#45;&gt;VLSM_Core_Plans_apply_plan</title>
<path fill="none" stroke="black" d="M886,-446.41C886,-429.98 886,-405.03 886,-385.95"/>
<polygon fill="black" stroke="black" points="889.5,-385.77 886,-375.77 882.5,-385.77 889.5,-385.77"/>
</g>
<!-- VLSM_Core_Plans_apply_plan_last&#45;&gt;VLSM_Core_Plans_plan -->
<g id="edge34" class="edge">
<title>VLSM_Core_Plans_apply_plan_last&#45;&gt;VLSM_Core_Plans_plan</title>
<path fill="none" stroke="black" d="M870.74,-446.88C854.6,-429.05 829.07,-400.83 811.26,-381.15"/>
<polygon fill="black" stroke="black" points="813.69,-378.61 804.38,-373.54 808.5,-383.31 813.69,-378.61"/>
</g>
<!-- VLSM_Core_Plans__apply_plan_last -->
<g id="node25" class="node">
<title>VLSM_Core_Plans__apply_plan_last</title>
<g id="a_node25"><a xlink:href="VLSM.Core.Plans.html#_apply_plan_last" xlink:title="_apply_plan_last" target="_top">
<ellipse fill="#7fffd4" stroke="black" cx="1025" cy="-357.75" rx="70.69" ry="18"/>
<text text-anchor="middle" x="1025" y="-354.05" font-family="Times,serif" font-size="14.00">_apply_plan_last</text>
</a>
</g>
</g>
<!-- VLSM_Core_Plans_apply_plan_last&#45;&gt;VLSM_Core_Plans__apply_plan_last -->
<g id="edge35" class="edge">
<title>VLSM_Core_Plans_apply_plan_last&#45;&gt;VLSM_Core_Plans__apply_plan_last</title>
<path fill="none" stroke="black" d="M907.41,-447.58C930.92,-429.82 968.8,-401.2 995.2,-381.26"/>
<polygon fill="black" stroke="black" points="997.46,-383.94 1003.33,-375.12 993.24,-378.35 997.46,-383.94"/>
</g>
<!-- VLSM_Core_Plans_apply_plan_app&#45;&gt;VLSM_Core_Plans_apply_plan -->
<g id="edge36" class="edge">
<title>VLSM_Core_Plans_apply_plan_app&#45;&gt;VLSM_Core_Plans_apply_plan</title>
<path fill="none" stroke="black" d="M757.93,-447.8C783.95,-429.71 826.51,-400.12 855.36,-380.06"/>
<polygon fill="black" stroke="black" points="857.62,-382.75 863.84,-374.16 853.63,-377 857.62,-382.75"/>
</g>
<!-- VLSM_Core_Plans_apply_plan_app&#45;&gt;VLSM_Core_Plans_plan -->
<g id="edge37" class="edge">
<title>VLSM_Core_Plans_apply_plan_app&#45;&gt;VLSM_Core_Plans_plan</title>
<path fill="none" stroke="black" d="M744,-446.88C753.08,-429.84 767.23,-403.33 777.63,-383.83"/>
<polygon fill="black" stroke="black" points="780.78,-385.36 782.39,-374.89 774.6,-382.07 780.78,-385.36"/>
</g>
<!-- VLSM_Core_Plans__apply_plan_app -->
<g id="node24" class="node">
<title>VLSM_Core_Plans__apply_plan_app</title>
<g id="a_node24"><a xlink:href="VLSM.Core.Plans.html#_apply_plan_app" xlink:title="_apply_plan_app" target="_top">
<ellipse fill="#7fffd4" stroke="black" cx="1197" cy="-357.75" rx="71.49" ry="18"/>
<text text-anchor="middle" x="1197" y="-354.05" font-family="Times,serif" font-size="14.00">_apply_plan_app</text>
</a>
</g>
</g>
<!-- VLSM_Core_Plans_apply_plan_app&#45;&gt;VLSM_Core_Plans__apply_plan_app -->
<g id="edge38" class="edge">
<title>VLSM_Core_Plans_apply_plan_app&#45;&gt;VLSM_Core_Plans__apply_plan_app</title>
<path fill="none" stroke="black" d="M773.8,-450.05C785.66,-446.12 798.79,-442.01 811,-438.75 870.81,-422.77 1038.85,-389.43 1132.29,-371.24"/>
<polygon fill="black" stroke="black" points="1133.05,-374.66 1142.19,-369.31 1131.71,-367.79 1133.05,-374.66"/>
</g>
<!-- VLSM_Core_Plans__trace_to_plan -->
<g id="node21" class="node">
<title>VLSM_Core_Plans__trace_to_plan</title>
<g id="a_node21"><a xlink:href="VLSM.Core.Plans.html#_trace_to_plan" xlink:title="_trace_to_plan" target="_top">
<ellipse fill="#f070d1" stroke="black" cx="426" cy="-357.75" rx="63.09" ry="18"/>
<text text-anchor="middle" x="426" y="-354.05" font-family="Times,serif" font-size="14.00">_trace_to_plan</text>
</a>
</g>
</g>
<!-- VLSM_Core_Plans_trace_to_plan&#45;&gt;VLSM_Core_Plans__trace_to_plan -->
<g id="edge39" class="edge">
<title>VLSM_Core_Plans_trace_to_plan&#45;&gt;VLSM_Core_Plans__trace_to_plan</title>
<path fill="none" stroke="black" d="M279.38,-448.26C309.1,-430.11 358.49,-399.97 391.63,-379.73"/>
<polygon fill="black" stroke="black" points="393.81,-382.51 400.52,-374.31 390.16,-376.53 393.81,-382.51"/>
</g>
<!-- VLSM_Core_Plans__apply_plan -->
<g id="node26" class="node">
<title>VLSM_Core_Plans__apply_plan</title>
<g id="a_node26"><a xlink:href="VLSM.Core.Plans.html#_apply_plan" xlink:title="_apply_plan" target="_top">
<ellipse fill="#f070d1" stroke="black" cx="1025" cy="-260.75" rx="53.89" ry="18"/>
<text text-anchor="middle" x="1025" y="-257.05" font-family="Times,serif" font-size="14.00">_apply_plan</text>
</a>
</g>
</g>
<!-- VLSM_Core_Plans_apply_plan&#45;&gt;VLSM_Core_Plans__apply_plan -->
<g id="edge40" class="edge">
<title>VLSM_Core_Plans_apply_plan&#45;&gt;VLSM_Core_Plans__apply_plan</title>
<path fill="none" stroke="black" d="M908.33,-341.49C931.5,-325.66 967.9,-300.77 993.88,-283.02"/>
<polygon fill="black" stroke="black" points="995.98,-285.83 1002.26,-277.29 992.03,-280.05 995.98,-285.83"/>
</g>
<!-- VLSM_Core_Plans_plan_item -->
<g id="node32" class="node">
<title>VLSM_Core_Plans_plan_item</title>
<g id="a_node32"><a xlink:href="VLSM.Core.Plans.html#plan_item" xlink:title="plan_item" target="_top">
<ellipse fill="#e2cdfa" stroke="black" cx="1129" cy="-66.75" rx="46.29" ry="18"/>
<text text-anchor="middle" x="1129" y="-63.05" font-family="Times,serif" font-size="14.00">plan_item</text>
</a>
</g>
</g>
<!-- VLSM_Core_Plans_plan&#45;&gt;VLSM_Core_Plans_plan_item -->
<g id="edge41" class="edge">
<title>VLSM_Core_Plans_plan&#45;&gt;VLSM_Core_Plans_plan_item</title>
<path fill="none" stroke="black" d="M812.38,-346.56C851.56,-327.76 931.81,-288.64 942,-278.75 955.14,-266.01 951.74,-257.91 962,-242.75 993.18,-196.72 1002.51,-185.88 1041,-145.75 1060.24,-125.69 1083.91,-104.91 1101.85,-89.84"/>
<polygon fill="black" stroke="black" points="1104.2,-92.43 1109.65,-83.35 1099.73,-87.05 1104.2,-92.43"/>
</g>
<!-- VLSM_Core_Plans__messages_a -->
<g id="node20" class="node">
<title>VLSM_Core_Plans__messages_a</title>
<g id="a_node20"><a xlink:href="VLSM.Core.Plans.html#_messages_a" xlink:title="_messages_a" target="_top">
<ellipse fill="#f070d1" stroke="black" cx="1570" cy="-583.75" rx="57.37" ry="18"/>
<ellipse fill="none" stroke="black" cx="1570" cy="-583.75" rx="61.38" ry="22"/>
<ellipse fill="none" stroke="black" cx="1570" cy="-583.75" rx="65.39" ry="26"/>
<text text-anchor="middle" x="1570" y="-580.05" font-family="Times,serif" font-size="14.00">_messages_a</text>
</a>
</g>
</g>
<!-- VLSM_Core_Plans__messages_a&#45;&gt;VLSM_Core_Plans_input_a -->
<g id="edge42" class="edge">
<title>VLSM_Core_Plans__messages_a&#45;&gt;VLSM_Core_Plans_input_a</title>
<path fill="none" stroke="black" d="M1578.91,-557.94C1585.84,-538.63 1595.43,-511.9 1602.51,-492.19"/>
<polygon fill="black" stroke="black" points="1605.87,-493.2 1605.95,-482.6 1599.28,-490.83 1605.87,-493.2"/>
</g>
<!-- VLSM_Core_Plans__transition_item_to_plan_item -->
<g id="node22" class="node">
<title>VLSM_Core_Plans__transition_item_to_plan_item</title>
<g id="a_node22"><a xlink:href="VLSM.Core.Plans.html#_transition_item_to_plan_item" xlink:title="_transition_item_to_plan_item" target="_top">
<ellipse fill="#f070d1" stroke="black" cx="813" cy="-260.75" rx="120.48" ry="18"/>
<text text-anchor="middle" x="813" y="-257.05" font-family="Times,serif" font-size="14.00">_transition_item_to_plan_item</text>
</a>
</g>
</g>
<!-- VLSM_Core_Plans__trace_to_plan&#45;&gt;VLSM_Core_Plans__transition_item_to_plan_item -->
<g id="edge43" class="edge">
<title>VLSM_Core_Plans__trace_to_plan&#45;&gt;VLSM_Core_Plans__transition_item_to_plan_item</title>
<path fill="none" stroke="black" d="M472.3,-345.39C539.64,-328.86 665.11,-298.06 743.55,-278.8"/>
<polygon fill="black" stroke="black" points="744.47,-282.18 753.35,-276.39 742.8,-275.38 744.47,-282.18"/>
</g>
<!-- VLSM_Core_Plans__transition_item_to_plan_item&#45;&gt;VLSM_Core_Plans_Build_plan_item -->
<g id="edge44" class="edge">
<title>VLSM_Core_Plans__transition_item_to_plan_item&#45;&gt;VLSM_Core_Plans_Build_plan_item</title>
<path fill="none" stroke="black" d="M904.38,-249.04C923.41,-246.89 943.35,-244.69 962,-242.75 1239.49,-213.87 1569.74,-184.2 1715.5,-171.35"/>
<polygon fill="black" stroke="black" points="1716.01,-174.82 1725.67,-170.46 1715.4,-167.85 1716.01,-174.82"/>
</g>
<!-- VLSM_Core_Plans__transition_item_to_plan_item&#45;&gt;VLSM_Core_Plans_plan_item -->
<g id="edge45" class="edge">
<title>VLSM_Core_Plans__transition_item_to_plan_item&#45;&gt;VLSM_Core_Plans_plan_item</title>
<path fill="none" stroke="black" d="M829.46,-242.83C853.53,-218.82 900.53,-174.56 947,-145.75 991.26,-118.32 1046.85,-96.04 1084.88,-82.42"/>
<polygon fill="black" stroke="black" points="1086.37,-85.61 1094.63,-78.98 1084.04,-79.01 1086.37,-85.61"/>
</g>
<!-- VLSM_Core_Plans__apply_plan_cons -->
<g id="node23" class="node">
<title>VLSM_Core_Plans__apply_plan_cons</title>
<g id="a_node23"><a xlink:href="VLSM.Core.Plans.html#_apply_plan_cons" xlink:title="_apply_plan_cons" target="_top">
<ellipse fill="#7fffd4" stroke="black" cx="1270" cy="-464.75" rx="74.96" ry="18"/>
<ellipse fill="none" stroke="black" cx="1270" cy="-464.75" rx="78.98" ry="22"/>
<ellipse fill="none" stroke="black" cx="1270" cy="-464.75" rx="82.99" ry="26"/>
<text text-anchor="middle" x="1270" y="-461.05" font-family="Times,serif" font-size="14.00">_apply_plan_cons</text>
</a>
</g>
</g>
<!-- VLSM_Core_Plans__apply_plan_cons&#45;&gt;VLSM_Core_Plans__apply_plan_app -->
<g id="edge46" class="edge">
<title>VLSM_Core_Plans__apply_plan_cons&#45;&gt;VLSM_Core_Plans__apply_plan_app</title>
<path fill="none" stroke="black" d="M1252.88,-439.13C1241.33,-422.51 1226.12,-400.64 1214.49,-383.91"/>
<polygon fill="black" stroke="black" points="1217.35,-381.89 1208.77,-375.68 1211.6,-385.89 1217.35,-381.89"/>
</g>
<!-- VLSM_Core_Plans__apply_plan_app&#45;&gt;VLSM_Core_Plans__apply_plan -->
<g id="edge47" class="edge">
<title>VLSM_Core_Plans__apply_plan_app&#45;&gt;VLSM_Core_Plans__apply_plan</title>
<path fill="none" stroke="black" d="M1168.6,-341.06C1139.07,-324.76 1092.78,-299.19 1060.78,-281.51"/>
<polygon fill="black" stroke="black" points="1062.19,-278.29 1051.75,-276.52 1058.81,-284.42 1062.19,-278.29"/>
</g>
<!-- VLSM_Core_Plans__apply_plan_folder_additive -->
<g id="node27" class="node">
<title>VLSM_Core_Plans__apply_plan_folder_additive</title>
<g id="a_node27"><a xlink:href="VLSM.Core.Plans.html#_apply_plan_folder_additive" xlink:title="_apply_plan_folder_additive" target="_top">
<ellipse fill="#7fffd4" stroke="black" cx="1209" cy="-260.75" rx="112.38" ry="18"/>
<text text-anchor="middle" x="1209" y="-257.05" font-family="Times,serif" font-size="14.00">_apply_plan_folder_additive</text>
</a>
</g>
</g>
<!-- VLSM_Core_Plans__apply_plan_app&#45;&gt;VLSM_Core_Plans__apply_plan_folder_additive -->
<g id="edge48" class="edge">
<title>VLSM_Core_Plans__apply_plan_app&#45;&gt;VLSM_Core_Plans__apply_plan_folder_additive</title>
<path fill="none" stroke="black" d="M1199.2,-339.33C1200.98,-325.27 1203.51,-305.23 1205.55,-289.05"/>
<polygon fill="black" stroke="black" points="1209.03,-289.43 1206.81,-279.07 1202.09,-288.55 1209.03,-289.43"/>
</g>
<!-- VLSM_Core_Plans__apply_plan_last&#45;&gt;VLSM_Core_Plans__apply_plan -->
<g id="edge49" class="edge">
<title>VLSM_Core_Plans__apply_plan_last&#45;&gt;VLSM_Core_Plans__apply_plan</title>
<path fill="none" stroke="black" d="M1025,-339.33C1025,-325.4 1025,-305.61 1025,-289.51"/>
<polygon fill="black" stroke="black" points="1028.5,-289.07 1025,-279.07 1021.5,-289.07 1028.5,-289.07"/>
</g>
<!-- VLSM_Core_Plans__apply_plan_folder -->
<g id="node28" class="node">
<title>VLSM_Core_Plans__apply_plan_folder</title>
<g id="a_node28"><a xlink:href="VLSM.Core.Plans.html#_apply_plan_folder" xlink:title="_apply_plan_folder" target="_top">
<ellipse fill="#f070d1" stroke="black" cx="1129" cy="-163.75" rx="79.09" ry="18"/>
<text text-anchor="middle" x="1129" y="-160.05" font-family="Times,serif" font-size="14.00">_apply_plan_folder</text>
</a>
</g>
</g>
<!-- VLSM_Core_Plans__apply_plan&#45;&gt;VLSM_Core_Plans__apply_plan_folder -->
<g id="edge50" class="edge">
<title>VLSM_Core_Plans__apply_plan&#45;&gt;VLSM_Core_Plans__apply_plan_folder</title>
<path fill="none" stroke="black" d="M1042.64,-243.64C1059.17,-228.54 1084.09,-205.78 1102.92,-188.58"/>
<polygon fill="black" stroke="black" points="1105.55,-190.92 1110.57,-181.59 1100.83,-185.75 1105.55,-190.92"/>
</g>
<!-- VLSM_Core_Plans__apply_plan_folder_additive&#45;&gt;VLSM_Core_Plans__apply_plan_folder -->
<g id="edge51" class="edge">
<title>VLSM_Core_Plans__apply_plan_folder_additive&#45;&gt;VLSM_Core_Plans__apply_plan_folder</title>
<path fill="none" stroke="black" d="M1194.7,-242.77C1182.18,-227.91 1163.85,-206.14 1149.73,-189.37"/>
<polygon fill="black" stroke="black" points="1152.3,-186.98 1143.18,-181.59 1146.94,-191.49 1152.3,-186.98"/>
</g>
<!-- VLSM_Core_Plans__apply_plan_folder&#45;&gt;VLSM_Core_Plans_plan_item -->
<g id="edge52" class="edge">
<title>VLSM_Core_Plans__apply_plan_folder&#45;&gt;VLSM_Core_Plans_plan_item</title>
<path fill="none" stroke="black" d="M1129,-145.33C1129,-131.4 1129,-111.61 1129,-95.51"/>
<polygon fill="black" stroke="black" points="1132.5,-95.07 1129,-85.07 1125.5,-95.07 1132.5,-95.07"/>
</g>
<!-- VLSM_Core_Plans_input_a&#45;&gt;VLSM_Core_Plans_plan_item -->
<g id="edge53" class="edge">
<title>VLSM_Core_Plans_input_a&#45;&gt;VLSM_Core_Plans_plan_item</title>
<path fill="none" stroke="black" d="M1593.95,-448.95C1520.45,-388.69 1243.5,-161.63 1155.81,-89.73"/>
<polygon fill="black" stroke="black" points="1157.88,-86.9 1147.92,-83.27 1153.44,-92.31 1157.88,-86.9"/>
</g>
<!-- VLSM_Core_Plans_label_a&#45;&gt;VLSM_Core_Plans_plan_item -->
<g id="edge54" class="edge">
<title>VLSM_Core_Plans_label_a&#45;&gt;VLSM_Core_Plans_plan_item</title>
<path fill="none" stroke="black" d="M1916.97,-446.85C1928.37,-393.66 1955.14,-228.41 1870,-145.75 1821.04,-98.22 1349.43,-76.05 1185.12,-69.73"/>
<polygon fill="black" stroke="black" points="1184.87,-66.22 1174.75,-69.34 1184.61,-73.21 1184.87,-66.22"/>
</g>
</g>
</svg>
