<?xml version="1.0" encoding="UTF-8" standalone="no"?>
<!DOCTYPE svg PUBLIC "-//W3C//DTD SVG 1.1//EN"
 "http://www.w3.org/Graphics/SVG/1.1/DTD/svg11.dtd">
<!-- Generated by graphviz version 2.43.0 (0)
 -->
<!-- Title: rvdpdgraph Pages: 1 -->
<svg width="1338pt" height="673pt"
 viewBox="0.00 0.00 1338.00 673.00" xmlns="http://www.w3.org/2000/svg" xmlns:xlink="http://www.w3.org/1999/xlink">
<g id="graph0" class="graph" transform="scale(1 1) rotate(0) translate(4 669)">
<title>rvdpdgraph</title>
<polygon fill="white" stroke="transparent" points="-4,4 -4,-669 1334,-669 1334,4 -4,4"/>
<g id="clust1" class="cluster">
<title>cluster_VLSM</title>
<polygon fill="#ffffc3" stroke="black" points="9.33,-8 9.33,-657 1320.67,-657 1320.67,-8 9.33,-8"/>
<text text-anchor="middle" x="36.83" y="-641.8" font-family="Times,serif" font-size="14.00">VLSM</text>
</g>
<g id="clust2" class="cluster">
<title>cluster_VLSM_Lib</title>
<polygon fill="#ffffa3" stroke="black" points="18.67,-16 18.67,-626 1311.33,-626 1311.33,-16 18.67,-16"/>
<text text-anchor="middle" x="36.17" y="-610.8" font-family="Times,serif" font-size="14.00">Lib</text>
</g>
<g id="clust3" class="cluster">
<title>cluster_VLSM_Lib_StdppListSet</title>
<polygon fill="#ffff83" stroke="black" points="28,-24 28,-595 1302,-595 1302,-24 28,-24"/>
<text text-anchor="middle" x="71" y="-579.8" font-family="Times,serif" font-size="14.00">StdppListSet</text>
</g>
<!-- VLSM_Lib_StdppListSet_set_map -->
<g id="node1" class="node">
<title>VLSM_Lib_StdppListSet_set_map</title>
<g id="a_node1"><a xlink:href="VLSM.Lib.StdppListSet.html#set_map" xlink:title="set_map" target="_top">
<ellipse fill="#f070d1" stroke="black" cx="616.5" cy="-218" rx="40.13" ry="18"/>
<ellipse fill="none" stroke="black" cx="616.5" cy="-218" rx="44.11" ry="22"/>
<ellipse fill="none" stroke="black" cx="616.5" cy="-218" rx="48.09" ry="26"/>
<text text-anchor="middle" x="616.5" y="-214.3" font-family="Times,serif" font-size="14.00">set_map</text>
</a>
</g>
</g>
<!-- VLSM_Lib_StdppListSet_set_fold_right -->
<g id="node2" class="node">
<title>VLSM_Lib_StdppListSet_set_fold_right</title>
<g id="a_node2"><a xlink:href="VLSM.Lib.StdppListSet.html#set_fold_right" xlink:title="set_fold_right" target="_top">
<ellipse fill="#f070d1" stroke="black" cx="582.5" cy="-130" rx="59.59" ry="18"/>
<text text-anchor="middle" x="582.5" y="-126.3" font-family="Times,serif" font-size="14.00">set_fold_right</text>
</a>
</g>
</g>
<!-- VLSM_Lib_StdppListSet_set_map&#45;&gt;VLSM_Lib_StdppListSet_set_fold_right -->
<g id="edge1" class="edge">
<title>VLSM_Lib_StdppListSet_set_map&#45;&gt;VLSM_Lib_StdppListSet_set_fold_right</title>
<path fill="none" stroke="black" d="M606.67,-192.13C602.37,-181.26 597.33,-168.51 592.97,-157.47"/>
<polygon fill="black" stroke="black" points="596.12,-155.93 589.19,-147.92 589.61,-158.51 596.12,-155.93"/>
</g>
<!-- VLSM_Lib_StdppListSet_set_add -->
<g id="node28" class="node">
<title>VLSM_Lib_StdppListSet_set_add</title>
<g id="a_node28"><a xlink:href="VLSM.Lib.StdppListSet.html#set_add" xlink:title="set_add" target="_top">
<ellipse fill="#f070d1" stroke="black" cx="852.5" cy="-130" rx="37.89" ry="18"/>
<text text-anchor="middle" x="852.5" y="-126.3" font-family="Times,serif" font-size="14.00">set_add</text>
</a>
</g>
</g>
<!-- VLSM_Lib_StdppListSet_set_map&#45;&gt;VLSM_Lib_StdppListSet_set_add -->
<g id="edge2" class="edge">
<title>VLSM_Lib_StdppListSet_set_map&#45;&gt;VLSM_Lib_StdppListSet_set_add</title>
<path fill="none" stroke="black" d="M656.6,-203.18C691.54,-191.04 743.52,-172.76 788.5,-156 797.11,-152.79 806.33,-149.25 815.02,-145.87"/>
<polygon fill="black" stroke="black" points="816.5,-149.05 824.54,-142.14 813.95,-142.53 816.5,-149.05"/>
</g>
<!-- VLSM_Lib_StdppListSet_empty_set -->
<g id="node29" class="node">
<title>VLSM_Lib_StdppListSet_empty_set</title>
<g id="a_node29"><a xlink:href="VLSM.Lib.StdppListSet.html#empty_set" xlink:title="empty_set" target="_top">
<ellipse fill="#f070d1" stroke="black" cx="436.5" cy="-130" rx="47.39" ry="18"/>
<text text-anchor="middle" x="436.5" y="-126.3" font-family="Times,serif" font-size="14.00">empty_set</text>
</a>
</g>
</g>
<!-- VLSM_Lib_StdppListSet_set_map&#45;&gt;VLSM_Lib_StdppListSet_empty_set -->
<g id="edge3" class="edge">
<title>VLSM_Lib_StdppListSet_set_map&#45;&gt;VLSM_Lib_StdppListSet_empty_set</title>
<path fill="none" stroke="black" d="M580.94,-200.01C550.11,-185.28 505.64,-164.03 474.2,-149.01"/>
<polygon fill="black" stroke="black" points="475.42,-145.72 464.89,-144.56 472.41,-152.03 475.42,-145.72"/>
</g>
<!-- VLSM_Lib_StdppListSet_set -->
<g id="node30" class="node">
<title>VLSM_Lib_StdppListSet_set</title>
<g id="a_node30"><a xlink:href="VLSM.Lib.StdppListSet.html#set" xlink:title="set" target="_top">
<ellipse fill="#f070d1" stroke="black" cx="655.5" cy="-50" rx="27" ry="18"/>
<text text-anchor="middle" x="655.5" y="-46.3" font-family="Times,serif" font-size="14.00">set</text>
</a>
</g>
</g>
<!-- VLSM_Lib_StdppListSet_set_fold_right&#45;&gt;VLSM_Lib_StdppListSet_set -->
<g id="edge4" class="edge">
<title>VLSM_Lib_StdppListSet_set_fold_right&#45;&gt;VLSM_Lib_StdppListSet_set</title>
<path fill="none" stroke="black" d="M597.98,-112.46C608.73,-100.98 623.16,-85.56 634.87,-73.04"/>
<polygon fill="black" stroke="black" points="637.49,-75.37 641.76,-65.68 632.38,-70.59 637.49,-75.37"/>
</g>
<!-- VLSM_Lib_StdppListSet_set_prod -->
<g id="node3" class="node">
<title>VLSM_Lib_StdppListSet_set_prod</title>
<g id="a_node3"><a xlink:href="VLSM.Lib.StdppListSet.html#set_prod" xlink:title="set_prod" target="_top">
<ellipse fill="#f070d1" stroke="black" cx="730.5" cy="-130" rx="40.9" ry="18"/>
<ellipse fill="none" stroke="black" cx="730.5" cy="-130" rx="44.9" ry="22"/>
<ellipse fill="none" stroke="black" cx="730.5" cy="-130" rx="48.89" ry="26"/>
<text text-anchor="middle" x="730.5" y="-126.3" font-family="Times,serif" font-size="14.00">set_prod</text>
</a>
</g>
</g>
<!-- VLSM_Lib_StdppListSet_set_prod&#45;&gt;VLSM_Lib_StdppListSet_set -->
<g id="edge5" class="edge">
<title>VLSM_Lib_StdppListSet_set_prod&#45;&gt;VLSM_Lib_StdppListSet_set</title>
<path fill="none" stroke="black" d="M708.81,-106.44C698.64,-95.87 686.58,-83.32 676.5,-72.84"/>
<polygon fill="black" stroke="black" points="679.03,-70.42 669.57,-65.63 673.98,-75.27 679.03,-70.42"/>
</g>
<!-- VLSM_Lib_StdppListSet_set_diff_nodup -->
<g id="node4" class="node">
<title>VLSM_Lib_StdppListSet_set_diff_nodup</title>
<g id="a_node4"><a xlink:href="VLSM.Lib.StdppListSet.html#set_diff_nodup" xlink:title="set_diff_nodup" target="_top">
<ellipse fill="#7fffd4" stroke="black" cx="299.5" cy="-538" rx="63.87" ry="18"/>
<ellipse fill="none" stroke="black" cx="299.5" cy="-538" rx="67.88" ry="22"/>
<ellipse fill="none" stroke="black" cx="299.5" cy="-538" rx="71.89" ry="26"/>
<text text-anchor="middle" x="299.5" y="-534.3" font-family="Times,serif" font-size="14.00">set_diff_nodup</text>
</a>
</g>
</g>
<!-- VLSM_Lib_StdppListSet_set_add_nodup -->
<g id="node18" class="node">
<title>VLSM_Lib_StdppListSet_set_add_nodup</title>
<g id="a_node18"><a xlink:href="VLSM.Lib.StdppListSet.html#set_add_nodup" xlink:title="set_add_nodup" target="_top">
<ellipse fill="#7fffd4" stroke="black" cx="847.5" cy="-450" rx="63.89" ry="18"/>
<text text-anchor="middle" x="847.5" y="-446.3" font-family="Times,serif" font-size="14.00">set_add_nodup</text>
</a>
</g>
</g>
<!-- VLSM_Lib_StdppListSet_set_diff_nodup&#45;&gt;VLSM_Lib_StdppListSet_set_add_nodup -->
<g id="edge6" class="edge">
<title>VLSM_Lib_StdppListSet_set_diff_nodup&#45;&gt;VLSM_Lib_StdppListSet_set_add_nodup</title>
<path fill="none" stroke="black" d="M362.63,-525.45C388.29,-520.95 418.27,-515.94 445.5,-512 580.59,-492.47 616.33,-501.09 750.5,-476 764.81,-473.32 780.12,-469.73 794.26,-466.1"/>
<polygon fill="black" stroke="black" points="795.54,-469.38 804.32,-463.46 793.76,-462.61 795.54,-469.38"/>
</g>
<!-- VLSM_Lib_StdppListSet_set_diff -->
<g id="node25" class="node">
<title>VLSM_Lib_StdppListSet_set_diff</title>
<g id="a_node25"><a xlink:href="VLSM.Lib.StdppListSet.html#set_diff" xlink:title="set_diff" target="_top">
<ellipse fill="#f070d1" stroke="black" cx="512.5" cy="-370" rx="37.89" ry="18"/>
<text text-anchor="middle" x="512.5" y="-366.3" font-family="Times,serif" font-size="14.00">set_diff</text>
</a>
</g>
</g>
<!-- VLSM_Lib_StdppListSet_set_diff_nodup&#45;&gt;VLSM_Lib_StdppListSet_set_diff -->
<g id="edge7" class="edge">
<title>VLSM_Lib_StdppListSet_set_diff_nodup&#45;&gt;VLSM_Lib_StdppListSet_set_diff</title>
<path fill="none" stroke="black" d="M286,-512.19C274.46,-487.24 262.61,-448.99 282.5,-424 304.93,-395.81 405.05,-381.34 465.56,-375.04"/>
<polygon fill="black" stroke="black" points="466.04,-378.51 475.64,-374.03 465.34,-371.55 466.04,-378.51"/>
</g>
<!-- VLSM_Lib_StdppListSet_set_diff_iff -->
<g id="node5" class="node">
<title>VLSM_Lib_StdppListSet_set_diff_iff</title>
<g id="a_node5"><a xlink:href="VLSM.Lib.StdppListSet.html#set_diff_iff" xlink:title="set_diff_iff" target="_top">
<ellipse fill="#7fffd4" stroke="black" cx="512.5" cy="-538" rx="50.08" ry="18"/>
<ellipse fill="none" stroke="black" cx="512.5" cy="-538" rx="54.09" ry="22"/>
<ellipse fill="none" stroke="black" cx="512.5" cy="-538" rx="58.09" ry="26"/>
<text text-anchor="middle" x="512.5" y="-534.3" font-family="Times,serif" font-size="14.00">set_diff_iff</text>
</a>
</g>
</g>
<!-- VLSM_Lib_StdppListSet_set_diff_elim2 -->
<g id="node6" class="node">
<title>VLSM_Lib_StdppListSet_set_diff_elim2</title>
<g id="a_node6"><a xlink:href="VLSM.Lib.StdppListSet.html#set_diff_elim2" xlink:title="set_diff_elim2" target="_top">
<ellipse fill="#7fffd4" stroke="black" cx="512.5" cy="-450" rx="62.29" ry="18"/>
<text text-anchor="middle" x="512.5" y="-446.3" font-family="Times,serif" font-size="14.00">set_diff_elim2</text>
</a>
</g>
</g>
<!-- VLSM_Lib_StdppListSet_set_diff_iff&#45;&gt;VLSM_Lib_StdppListSet_set_diff_elim2 -->
<g id="edge8" class="edge">
<title>VLSM_Lib_StdppListSet_set_diff_iff&#45;&gt;VLSM_Lib_StdppListSet_set_diff_elim2</title>
<path fill="none" stroke="black" d="M512.5,-511.66C512.5,-501.11 512.5,-488.84 512.5,-478.1"/>
<polygon fill="black" stroke="black" points="516,-478 512.5,-468 509,-478 516,-478"/>
</g>
<!-- VLSM_Lib_StdppListSet_set_diff_elim1 -->
<g id="node7" class="node">
<title>VLSM_Lib_StdppListSet_set_diff_elim1</title>
<g id="a_node7"><a xlink:href="VLSM.Lib.StdppListSet.html#set_diff_elim1" xlink:title="set_diff_elim1" target="_top">
<ellipse fill="#7fffd4" stroke="black" cx="679.5" cy="-450" rx="62.29" ry="18"/>
<text text-anchor="middle" x="679.5" y="-446.3" font-family="Times,serif" font-size="14.00">set_diff_elim1</text>
</a>
</g>
</g>
<!-- VLSM_Lib_StdppListSet_set_diff_iff&#45;&gt;VLSM_Lib_StdppListSet_set_diff_elim1 -->
<g id="edge9" class="edge">
<title>VLSM_Lib_StdppListSet_set_diff_iff&#45;&gt;VLSM_Lib_StdppListSet_set_diff_elim1</title>
<path fill="none" stroke="black" d="M549.56,-517.91C576.84,-503.86 613.82,-484.82 641.36,-470.64"/>
<polygon fill="black" stroke="black" points="643.02,-473.73 650.3,-466.04 639.81,-467.5 643.02,-473.73"/>
</g>
<!-- VLSM_Lib_StdppListSet_set_diff_intro -->
<g id="node8" class="node">
<title>VLSM_Lib_StdppListSet_set_diff_intro</title>
<g id="a_node8"><a xlink:href="VLSM.Lib.StdppListSet.html#set_diff_intro" xlink:title="set_diff_intro" target="_top">
<ellipse fill="#7fffd4" stroke="black" cx="349.5" cy="-450" rx="58.49" ry="18"/>
<text text-anchor="middle" x="349.5" y="-446.3" font-family="Times,serif" font-size="14.00">set_diff_intro</text>
</a>
</g>
</g>
<!-- VLSM_Lib_StdppListSet_set_diff_iff&#45;&gt;VLSM_Lib_StdppListSet_set_diff_intro -->
<g id="edge10" class="edge">
<title>VLSM_Lib_StdppListSet_set_diff_iff&#45;&gt;VLSM_Lib_StdppListSet_set_diff_intro</title>
<path fill="none" stroke="black" d="M475.92,-517.7C449.3,-503.66 413.39,-484.71 386.64,-470.6"/>
<polygon fill="black" stroke="black" points="388.07,-467.39 377.6,-465.82 384.81,-473.59 388.07,-467.39"/>
</g>
<!-- VLSM_Lib_StdppListSet_set_add_iff -->
<g id="node19" class="node">
<title>VLSM_Lib_StdppListSet_set_add_iff</title>
<g id="a_node19"><a xlink:href="VLSM.Lib.StdppListSet.html#set_add_iff" xlink:title="set_add_iff" target="_top">
<ellipse fill="#7fffd4" stroke="black" cx="847.5" cy="-370" rx="50.09" ry="18"/>
<text text-anchor="middle" x="847.5" y="-366.3" font-family="Times,serif" font-size="14.00">set_add_iff</text>
</a>
</g>
</g>
<!-- VLSM_Lib_StdppListSet_set_diff_elim2&#45;&gt;VLSM_Lib_StdppListSet_set_add_iff -->
<g id="edge11" class="edge">
<title>VLSM_Lib_StdppListSet_set_diff_elim2&#45;&gt;VLSM_Lib_StdppListSet_set_add_iff</title>
<path fill="none" stroke="black" d="M556.86,-437.09C573.08,-432.83 591.59,-428.08 608.5,-424 672.73,-408.52 747.07,-392.3 795.57,-381.94"/>
<polygon fill="black" stroke="black" points="796.46,-385.33 805.51,-379.83 795,-378.49 796.46,-385.33"/>
</g>
<!-- VLSM_Lib_StdppListSet_set_diff_elim2&#45;&gt;VLSM_Lib_StdppListSet_set_diff -->
<g id="edge12" class="edge">
<title>VLSM_Lib_StdppListSet_set_diff_elim2&#45;&gt;VLSM_Lib_StdppListSet_set_diff</title>
<path fill="none" stroke="black" d="M512.5,-431.69C512.5,-421.89 512.5,-409.42 512.5,-398.33"/>
<polygon fill="black" stroke="black" points="516,-398.26 512.5,-388.26 509,-398.26 516,-398.26"/>
</g>
<!-- VLSM_Lib_StdppListSet_set_diff_elim1&#45;&gt;VLSM_Lib_StdppListSet_set_add_iff -->
<g id="edge13" class="edge">
<title>VLSM_Lib_StdppListSet_set_diff_elim1&#45;&gt;VLSM_Lib_StdppListSet_set_add_iff</title>
<path fill="none" stroke="black" d="M711.1,-434.33C738.8,-421.47 779.17,-402.73 808.8,-388.97"/>
<polygon fill="black" stroke="black" points="810.42,-392.08 818.01,-384.69 807.47,-385.73 810.42,-392.08"/>
</g>
<!-- VLSM_Lib_StdppListSet_set_diff_elim1&#45;&gt;VLSM_Lib_StdppListSet_set_diff -->
<g id="edge14" class="edge">
<title>VLSM_Lib_StdppListSet_set_diff_elim1&#45;&gt;VLSM_Lib_StdppListSet_set_diff</title>
<path fill="none" stroke="black" d="M648.09,-434.33C619.53,-420.99 577.43,-401.33 547.73,-387.46"/>
<polygon fill="black" stroke="black" points="549.1,-384.23 538.56,-383.17 546.14,-390.58 549.1,-384.23"/>
</g>
<!-- VLSM_Lib_StdppListSet_set_diff_intro&#45;&gt;VLSM_Lib_StdppListSet_set_add_iff -->
<g id="edge15" class="edge">
<title>VLSM_Lib_StdppListSet_set_diff_intro&#45;&gt;VLSM_Lib_StdppListSet_set_add_iff</title>
<path fill="none" stroke="black" d="M389.52,-436.86C405.57,-432.32 424.3,-427.44 441.5,-424 564.07,-399.46 709.83,-383.63 789.08,-376.12"/>
<polygon fill="black" stroke="black" points="789.71,-379.57 799.34,-375.16 789.06,-372.6 789.71,-379.57"/>
</g>
<!-- VLSM_Lib_StdppListSet_set_diff_intro&#45;&gt;VLSM_Lib_StdppListSet_set_diff -->
<g id="edge16" class="edge">
<title>VLSM_Lib_StdppListSet_set_diff_intro&#45;&gt;VLSM_Lib_StdppListSet_set_diff</title>
<path fill="none" stroke="black" d="M379.78,-434.51C407.49,-421.25 448.48,-401.63 477.57,-387.72"/>
<polygon fill="black" stroke="black" points="479.43,-390.71 486.94,-383.23 476.41,-384.39 479.43,-390.71"/>
</g>
<!-- VLSM_Lib_StdppListSet_set_union_nodup -->
<g id="node9" class="node">
<title>VLSM_Lib_StdppListSet_set_union_nodup</title>
<g id="a_node9"><a xlink:href="VLSM.Lib.StdppListSet.html#set_union_nodup" xlink:title="set_union_nodup" target="_top">
<ellipse fill="#7fffd4" stroke="black" cx="1200.5" cy="-538" rx="71.49" ry="18"/>
<ellipse fill="none" stroke="black" cx="1200.5" cy="-538" rx="75.49" ry="22"/>
<ellipse fill="none" stroke="black" cx="1200.5" cy="-538" rx="79.49" ry="26"/>
<text text-anchor="middle" x="1200.5" y="-534.3" font-family="Times,serif" font-size="14.00">set_union_nodup</text>
</a>
</g>
</g>
<!-- VLSM_Lib_StdppListSet_set_union_nodup&#45;&gt;VLSM_Lib_StdppListSet_set_add_nodup -->
<g id="edge17" class="edge">
<title>VLSM_Lib_StdppListSet_set_union_nodup&#45;&gt;VLSM_Lib_StdppListSet_set_add_nodup</title>
<path fill="none" stroke="black" d="M1137.04,-522.34C1084.97,-510.22 1009.36,-492.39 943.5,-476 930.18,-472.69 915.85,-469.01 902.43,-465.52"/>
<polygon fill="black" stroke="black" points="902.94,-462.04 892.38,-462.9 901.17,-468.81 902.94,-462.04"/>
</g>
<!-- VLSM_Lib_StdppListSet_set_union -->
<g id="node26" class="node">
<title>VLSM_Lib_StdppListSet_set_union</title>
<g id="a_node26"><a xlink:href="VLSM.Lib.StdppListSet.html#set_union" xlink:title="set_union" target="_top">
<ellipse fill="#f070d1" stroke="black" cx="1176.5" cy="-370" rx="44.69" ry="18"/>
<text text-anchor="middle" x="1176.5" y="-366.3" font-family="Times,serif" font-size="14.00">set_union</text>
</a>
</g>
</g>
<!-- VLSM_Lib_StdppListSet_set_union_nodup&#45;&gt;VLSM_Lib_StdppListSet_set_union -->
<g id="edge18" class="edge">
<title>VLSM_Lib_StdppListSet_set_union_nodup&#45;&gt;VLSM_Lib_StdppListSet_set_union</title>
<path fill="none" stroke="black" d="M1235.61,-514.42C1248.11,-504.33 1260.76,-491.25 1267.5,-476 1276.84,-454.86 1279.02,-444.04 1267.5,-424 1257.26,-406.18 1238.47,-393.79 1220.61,-385.5"/>
<polygon fill="black" stroke="black" points="1221.97,-382.28 1211.4,-381.53 1219.2,-388.71 1221.97,-382.28"/>
</g>
<!-- VLSM_Lib_StdppListSet_set_union_iff -->
<g id="node10" class="node">
<title>VLSM_Lib_StdppListSet_set_union_iff</title>
<g id="a_node10"><a xlink:href="VLSM.Lib.StdppListSet.html#set_union_iff" xlink:title="set_union_iff" target="_top">
<ellipse fill="#7fffd4" stroke="black" cx="1010.5" cy="-538" rx="57.71" ry="18"/>
<ellipse fill="none" stroke="black" cx="1010.5" cy="-538" rx="61.7" ry="22"/>
<ellipse fill="none" stroke="black" cx="1010.5" cy="-538" rx="65.69" ry="26"/>
<text text-anchor="middle" x="1010.5" y="-534.3" font-family="Times,serif" font-size="14.00">set_union_iff</text>
</a>
</g>
</g>
<!-- VLSM_Lib_StdppListSet_set_union_elim -->
<g id="node11" class="node">
<title>VLSM_Lib_StdppListSet_set_union_elim</title>
<g id="a_node11"><a xlink:href="VLSM.Lib.StdppListSet.html#set_union_elim" xlink:title="set_union_elim" target="_top">
<ellipse fill="#7fffd4" stroke="black" cx="1192.5" cy="-450" rx="65.79" ry="18"/>
<text text-anchor="middle" x="1192.5" y="-446.3" font-family="Times,serif" font-size="14.00">set_union_elim</text>
</a>
</g>
</g>
<!-- VLSM_Lib_StdppListSet_set_union_iff&#45;&gt;VLSM_Lib_StdppListSet_set_union_elim -->
<g id="edge19" class="edge">
<title>VLSM_Lib_StdppListSet_set_union_iff&#45;&gt;VLSM_Lib_StdppListSet_set_union_elim</title>
<path fill="none" stroke="black" d="M1051.8,-517.49C1081.7,-503.35 1121.94,-484.34 1151.72,-470.27"/>
<polygon fill="black" stroke="black" points="1153.45,-473.32 1161,-465.88 1150.46,-466.99 1153.45,-473.32"/>
</g>
<!-- VLSM_Lib_StdppListSet_set_union_intro -->
<g id="node12" class="node">
<title>VLSM_Lib_StdppListSet_set_union_intro</title>
<g id="a_node12"><a xlink:href="VLSM.Lib.StdppListSet.html#set_union_intro" xlink:title="set_union_intro" target="_top">
<ellipse fill="#7fffd4" stroke="black" cx="1018.5" cy="-450" rx="65.79" ry="18"/>
<text text-anchor="middle" x="1018.5" y="-446.3" font-family="Times,serif" font-size="14.00">set_union_intro</text>
</a>
</g>
</g>
<!-- VLSM_Lib_StdppListSet_set_union_iff&#45;&gt;VLSM_Lib_StdppListSet_set_union_intro -->
<g id="edge20" class="edge">
<title>VLSM_Lib_StdppListSet_set_union_iff&#45;&gt;VLSM_Lib_StdppListSet_set_union_intro</title>
<path fill="none" stroke="black" d="M1012.86,-511.66C1013.84,-501.11 1014.98,-488.84 1015.98,-478.1"/>
<polygon fill="black" stroke="black" points="1019.48,-478.28 1016.92,-468 1012.51,-477.64 1019.48,-478.28"/>
</g>
<!-- VLSM_Lib_StdppListSet_set_union_elim&#45;&gt;VLSM_Lib_StdppListSet_set_add_iff -->
<g id="edge21" class="edge">
<title>VLSM_Lib_StdppListSet_set_union_elim&#45;&gt;VLSM_Lib_StdppListSet_set_add_iff</title>
<path fill="none" stroke="black" d="M1146.74,-437.09C1130.02,-432.83 1110.93,-428.08 1093.5,-424 1026.84,-408.41 949.61,-392.04 899.73,-381.7"/>
<polygon fill="black" stroke="black" points="900.33,-378.25 889.82,-379.65 898.91,-385.1 900.33,-378.25"/>
</g>
<!-- VLSM_Lib_StdppListSet_set_union_elim&#45;&gt;VLSM_Lib_StdppListSet_set_union -->
<g id="edge22" class="edge">
<title>VLSM_Lib_StdppListSet_set_union_elim&#45;&gt;VLSM_Lib_StdppListSet_set_union</title>
<path fill="none" stroke="black" d="M1188.95,-431.69C1186.93,-421.83 1184.35,-409.25 1182.06,-398.1"/>
<polygon fill="black" stroke="black" points="1185.42,-397.09 1179.99,-387.99 1178.57,-398.49 1185.42,-397.09"/>
</g>
<!-- VLSM_Lib_StdppListSet_set_union_intro&#45;&gt;VLSM_Lib_StdppListSet_set_add_iff -->
<g id="edge23" class="edge">
<title>VLSM_Lib_StdppListSet_set_union_intro&#45;&gt;VLSM_Lib_StdppListSet_set_add_iff</title>
<path fill="none" stroke="black" d="M985.93,-434.15C957.69,-421.26 916.74,-402.58 886.71,-388.88"/>
<polygon fill="black" stroke="black" points="887.92,-385.59 877.37,-384.62 885.01,-391.96 887.92,-385.59"/>
</g>
<!-- VLSM_Lib_StdppListSet_set_union_intro&#45;&gt;VLSM_Lib_StdppListSet_set_union -->
<g id="edge24" class="edge">
<title>VLSM_Lib_StdppListSet_set_union_intro&#45;&gt;VLSM_Lib_StdppListSet_set_union</title>
<path fill="none" stroke="black" d="M1048.96,-433.96C1074.95,-421.13 1112.39,-402.65 1139.98,-389.03"/>
<polygon fill="black" stroke="black" points="1141.88,-392 1149.29,-384.43 1138.78,-385.72 1141.88,-392"/>
</g>
<!-- VLSM_Lib_StdppListSet_set_remove_nodup -->
<g id="node13" class="node">
<title>VLSM_Lib_StdppListSet_set_remove_nodup</title>
<g id="a_node13"><a xlink:href="VLSM.Lib.StdppListSet.html#set_remove_nodup" xlink:title="set_remove_nodup" target="_top">
<ellipse fill="#7fffd4" stroke="black" cx="137.5" cy="-450" rx="77.99" ry="18"/>
<ellipse fill="none" stroke="black" cx="137.5" cy="-450" rx="81.99" ry="22"/>
<ellipse fill="none" stroke="black" cx="137.5" cy="-450" rx="85.99" ry="26"/>
<text text-anchor="middle" x="137.5" y="-446.3" font-family="Times,serif" font-size="14.00">set_remove_nodup</text>
</a>
</g>
</g>
<!-- VLSM_Lib_StdppListSet_set_remove_iff -->
<g id="node14" class="node">
<title>VLSM_Lib_StdppListSet_set_remove_iff</title>
<g id="a_node14"><a xlink:href="VLSM.Lib.StdppListSet.html#set_remove_iff" xlink:title="set_remove_iff" target="_top">
<ellipse fill="#7fffd4" stroke="black" cx="202.5" cy="-370" rx="64.19" ry="18"/>
<text text-anchor="middle" x="202.5" y="-366.3" font-family="Times,serif" font-size="14.00">set_remove_iff</text>
</a>
</g>
</g>
<!-- VLSM_Lib_StdppListSet_set_remove_nodup&#45;&gt;VLSM_Lib_StdppListSet_set_remove_iff -->
<g id="edge25" class="edge">
<title>VLSM_Lib_StdppListSet_set_remove_nodup&#45;&gt;VLSM_Lib_StdppListSet_set_remove_iff</title>
<path fill="none" stroke="black" d="M158.07,-424.32C165.78,-415.07 174.53,-404.57 182.21,-395.35"/>
<polygon fill="black" stroke="black" points="184.92,-397.56 188.64,-387.64 179.54,-393.08 184.92,-397.56"/>
</g>
<!-- VLSM_Lib_StdppListSet_set_remove_3 -->
<g id="node15" class="node">
<title>VLSM_Lib_StdppListSet_set_remove_3</title>
<g id="a_node15"><a xlink:href="VLSM.Lib.StdppListSet.html#set_remove_3" xlink:title="set_remove_3" target="_top">
<ellipse fill="#7fffd4" stroke="black" cx="269.5" cy="-298" rx="60.39" ry="18"/>
<text text-anchor="middle" x="269.5" y="-294.3" font-family="Times,serif" font-size="14.00">set_remove_3</text>
</a>
</g>
</g>
<!-- VLSM_Lib_StdppListSet_set_remove_iff&#45;&gt;VLSM_Lib_StdppListSet_set_remove_3 -->
<g id="edge26" class="edge">
<title>VLSM_Lib_StdppListSet_set_remove_iff&#45;&gt;VLSM_Lib_StdppListSet_set_remove_3</title>
<path fill="none" stroke="black" d="M218.38,-352.41C226.81,-343.61 237.31,-332.63 246.61,-322.92"/>
<polygon fill="black" stroke="black" points="249.35,-325.11 253.74,-315.47 244.29,-320.27 249.35,-325.11"/>
</g>
<!-- VLSM_Lib_StdppListSet_set_remove_2 -->
<g id="node16" class="node">
<title>VLSM_Lib_StdppListSet_set_remove_2</title>
<g id="a_node16"><a xlink:href="VLSM.Lib.StdppListSet.html#set_remove_2" xlink:title="set_remove_2" target="_top">
<ellipse fill="#7fffd4" stroke="black" cx="431.5" cy="-298" rx="60.39" ry="18"/>
<text text-anchor="middle" x="431.5" y="-294.3" font-family="Times,serif" font-size="14.00">set_remove_2</text>
</a>
</g>
</g>
<!-- VLSM_Lib_StdppListSet_set_remove_iff&#45;&gt;VLSM_Lib_StdppListSet_set_remove_2 -->
<g id="edge27" class="edge">
<title>VLSM_Lib_StdppListSet_set_remove_iff&#45;&gt;VLSM_Lib_StdppListSet_set_remove_2</title>
<path fill="none" stroke="black" d="M244.24,-356.24C282.73,-344.48 339.96,-326.98 381.02,-314.43"/>
<polygon fill="black" stroke="black" points="382.28,-317.71 390.82,-311.43 380.23,-311.01 382.28,-317.71"/>
</g>
<!-- VLSM_Lib_StdppListSet_set_remove_1 -->
<g id="node17" class="node">
<title>VLSM_Lib_StdppListSet_set_remove_1</title>
<g id="a_node17"><a xlink:href="VLSM.Lib.StdppListSet.html#set_remove_1" xlink:title="set_remove_1" target="_top">
<ellipse fill="#7fffd4" stroke="black" cx="107.5" cy="-298" rx="60.39" ry="18"/>
<text text-anchor="middle" x="107.5" y="-294.3" font-family="Times,serif" font-size="14.00">set_remove_1</text>
</a>
</g>
</g>
<!-- VLSM_Lib_StdppListSet_set_remove_iff&#45;&gt;VLSM_Lib_StdppListSet_set_remove_1 -->
<g id="edge28" class="edge">
<title>VLSM_Lib_StdppListSet_set_remove_iff&#45;&gt;VLSM_Lib_StdppListSet_set_remove_1</title>
<path fill="none" stroke="black" d="M180.47,-352.76C167.67,-343.33 151.36,-331.32 137.41,-321.04"/>
<polygon fill="black" stroke="black" points="139.21,-318.02 129.09,-314.91 135.06,-323.66 139.21,-318.02"/>
</g>
<!-- VLSM_Lib_StdppListSet_set_remove -->
<g id="node27" class="node">
<title>VLSM_Lib_StdppListSet_set_remove</title>
<g id="a_node27"><a xlink:href="VLSM.Lib.StdppListSet.html#set_remove" xlink:title="set_remove" target="_top">
<ellipse fill="#f070d1" stroke="black" cx="251.5" cy="-218" rx="51.99" ry="18"/>
<text text-anchor="middle" x="251.5" y="-214.3" font-family="Times,serif" font-size="14.00">set_remove</text>
</a>
</g>
</g>
<!-- VLSM_Lib_StdppListSet_set_remove_3&#45;&gt;VLSM_Lib_StdppListSet_set_remove -->
<g id="edge29" class="edge">
<title>VLSM_Lib_StdppListSet_set_remove_3&#45;&gt;VLSM_Lib_StdppListSet_set_remove</title>
<path fill="none" stroke="black" d="M265.51,-279.69C263.21,-269.72 260.27,-256.99 257.68,-245.76"/>
<polygon fill="black" stroke="black" points="261.08,-244.95 255.42,-235.99 254.26,-246.52 261.08,-244.95"/>
</g>
<!-- VLSM_Lib_StdppListSet_set_remove_2&#45;&gt;VLSM_Lib_StdppListSet_set_remove -->
<g id="edge30" class="edge">
<title>VLSM_Lib_StdppListSet_set_remove_2&#45;&gt;VLSM_Lib_StdppListSet_set_remove</title>
<path fill="none" stroke="black" d="M398.49,-282.69C368.59,-269.74 324.45,-250.61 292.35,-236.7"/>
<polygon fill="black" stroke="black" points="293.37,-233.33 282.8,-232.56 290.58,-239.75 293.37,-233.33"/>
</g>
<!-- VLSM_Lib_StdppListSet_set_remove_1&#45;&gt;VLSM_Lib_StdppListSet_set_remove -->
<g id="edge31" class="edge">
<title>VLSM_Lib_StdppListSet_set_remove_1&#45;&gt;VLSM_Lib_StdppListSet_set_remove</title>
<path fill="none" stroke="black" d="M135.26,-281.96C158.17,-269.56 190.81,-251.87 215.68,-238.4"/>
<polygon fill="black" stroke="black" points="217.67,-241.31 224.79,-233.47 214.33,-235.15 217.67,-241.31"/>
</g>
<!-- VLSM_Lib_StdppListSet_set_add_nodup&#45;&gt;VLSM_Lib_StdppListSet_set_add_iff -->
<g id="edge32" class="edge">
<title>VLSM_Lib_StdppListSet_set_add_nodup&#45;&gt;VLSM_Lib_StdppListSet_set_add_iff</title>
<path fill="none" stroke="black" d="M847.5,-431.69C847.5,-421.89 847.5,-409.42 847.5,-398.33"/>
<polygon fill="black" stroke="black" points="851,-398.26 847.5,-388.26 844,-398.26 851,-398.26"/>
</g>
<!-- VLSM_Lib_StdppListSet_set_add_elim -->
<g id="node21" class="node">
<title>VLSM_Lib_StdppListSet_set_add_elim</title>
<g id="a_node21"><a xlink:href="VLSM.Lib.StdppListSet.html#set_add_elim" xlink:title="set_add_elim" target="_top">
<ellipse fill="#7fffd4" stroke="black" cx="1037.5" cy="-298" rx="57.69" ry="18"/>
<text text-anchor="middle" x="1037.5" y="-294.3" font-family="Times,serif" font-size="14.00">set_add_elim</text>
</a>
</g>
</g>
<!-- VLSM_Lib_StdppListSet_set_add_iff&#45;&gt;VLSM_Lib_StdppListSet_set_add_elim -->
<g id="edge33" class="edge">
<title>VLSM_Lib_StdppListSet_set_add_iff&#45;&gt;VLSM_Lib_StdppListSet_set_add_elim</title>
<path fill="none" stroke="black" d="M881.47,-356.49C912.26,-345.14 957.9,-328.33 991.87,-315.81"/>
<polygon fill="black" stroke="black" points="993.39,-318.98 1001.57,-312.24 990.97,-312.41 993.39,-318.98"/>
</g>
<!-- VLSM_Lib_StdppListSet_set_add_intro -->
<g id="node22" class="node">
<title>VLSM_Lib_StdppListSet_set_add_intro</title>
<g id="a_node22"><a xlink:href="VLSM.Lib.StdppListSet.html#set_add_intro" xlink:title="set_add_intro" target="_top">
<ellipse fill="#7fffd4" stroke="black" cx="847.5" cy="-298" rx="58.49" ry="18"/>
<text text-anchor="middle" x="847.5" y="-294.3" font-family="Times,serif" font-size="14.00">set_add_intro</text>
</a>
</g>
</g>
<!-- VLSM_Lib_StdppListSet_set_add_iff&#45;&gt;VLSM_Lib_StdppListSet_set_add_intro -->
<g id="edge34" class="edge">
<title>VLSM_Lib_StdppListSet_set_add_iff&#45;&gt;VLSM_Lib_StdppListSet_set_add_intro</title>
<path fill="none" stroke="black" d="M847.5,-351.7C847.5,-343.98 847.5,-334.71 847.5,-326.11"/>
<polygon fill="black" stroke="black" points="851,-326.1 847.5,-316.1 844,-326.1 851,-326.1"/>
</g>
<!-- VLSM_Lib_StdppListSet_set_add_not_empty -->
<g id="node20" class="node">
<title>VLSM_Lib_StdppListSet_set_add_not_empty</title>
<g id="a_node20"><a xlink:href="VLSM.Lib.StdppListSet.html#set_add_not_empty" xlink:title="set_add_not_empty" target="_top">
<ellipse fill="#7fffd4" stroke="black" cx="436.5" cy="-218" rx="79.89" ry="18"/>
<ellipse fill="none" stroke="black" cx="436.5" cy="-218" rx="83.89" ry="22"/>
<ellipse fill="none" stroke="black" cx="436.5" cy="-218" rx="87.89" ry="26"/>
<text text-anchor="middle" x="436.5" y="-214.3" font-family="Times,serif" font-size="14.00">set_add_not_empty</text>
</a>
</g>
</g>
<!-- VLSM_Lib_StdppListSet_set_add_not_empty&#45;&gt;VLSM_Lib_StdppListSet_set_add -->
<g id="edge35" class="edge">
<title>VLSM_Lib_StdppListSet_set_add_not_empty&#45;&gt;VLSM_Lib_StdppListSet_set_add</title>
<path fill="none" stroke="black" d="M506.64,-202.18C523.9,-198.69 542.34,-195.09 559.5,-192 660.9,-173.73 689.05,-182.9 788.5,-156 797.72,-153.51 807.43,-150.13 816.42,-146.66"/>
<polygon fill="black" stroke="black" points="817.85,-149.86 825.84,-142.9 815.26,-143.36 817.85,-149.86"/>
</g>
<!-- VLSM_Lib_StdppListSet_set_add_not_empty&#45;&gt;VLSM_Lib_StdppListSet_empty_set -->
<g id="edge36" class="edge">
<title>VLSM_Lib_StdppListSet_set_add_not_empty&#45;&gt;VLSM_Lib_StdppListSet_empty_set</title>
<path fill="none" stroke="black" d="M436.5,-191.66C436.5,-181.11 436.5,-168.84 436.5,-158.1"/>
<polygon fill="black" stroke="black" points="440,-158 436.5,-148 433,-158 440,-158"/>
</g>
<!-- VLSM_Lib_StdppListSet_set_add_elim&#45;&gt;VLSM_Lib_StdppListSet_set_add -->
<g id="edge37" class="edge">
<title>VLSM_Lib_StdppListSet_set_add_elim&#45;&gt;VLSM_Lib_StdppListSet_set_add</title>
<path fill="none" stroke="black" d="M1041.48,-279.72C1045.61,-257.09 1049.05,-217.32 1029.5,-192 999.01,-152.51 941.45,-138.45 900.25,-133.51"/>
<polygon fill="black" stroke="black" points="900.46,-130.02 890.15,-132.45 899.73,-136.98 900.46,-130.02"/>
</g>
<!-- VLSM_Lib_StdppListSet_set_add_intro2 -->
<g id="node23" class="node">
<title>VLSM_Lib_StdppListSet_set_add_intro2</title>
<g id="a_node23"><a xlink:href="VLSM.Lib.StdppListSet.html#set_add_intro2" xlink:title="set_add_intro2" target="_top">
<ellipse fill="#7fffd4" stroke="black" cx="957.5" cy="-218" rx="63.09" ry="18"/>
<text text-anchor="middle" x="957.5" y="-214.3" font-family="Times,serif" font-size="14.00">set_add_intro2</text>
</a>
</g>
</g>
<!-- VLSM_Lib_StdppListSet_set_add_intro&#45;&gt;VLSM_Lib_StdppListSet_set_add_intro2 -->
<g id="edge38" class="edge">
<title>VLSM_Lib_StdppListSet_set_add_intro&#45;&gt;VLSM_Lib_StdppListSet_set_add_intro2</title>
<path fill="none" stroke="black" d="M869.76,-281.22C886.05,-269.66 908.37,-253.84 926.42,-241.04"/>
<polygon fill="black" stroke="black" points="928.76,-243.67 934.9,-235.03 924.71,-237.96 928.76,-243.67"/>
</g>
<!-- VLSM_Lib_StdppListSet_set_add_intro1 -->
<g id="node24" class="node">
<title>VLSM_Lib_StdppListSet_set_add_intro1</title>
<g id="a_node24"><a xlink:href="VLSM.Lib.StdppListSet.html#set_add_intro1" xlink:title="set_add_intro1" target="_top">
<ellipse fill="#7fffd4" stroke="black" cx="789.5" cy="-218" rx="63.09" ry="18"/>
<text text-anchor="middle" x="789.5" y="-214.3" font-family="Times,serif" font-size="14.00">set_add_intro1</text>
</a>
</g>
</g>
<!-- VLSM_Lib_StdppListSet_set_add_intro&#45;&gt;VLSM_Lib_StdppListSet_set_add_intro1 -->
<g id="edge39" class="edge">
<title>VLSM_Lib_StdppListSet_set_add_intro&#45;&gt;VLSM_Lib_StdppListSet_set_add_intro1</title>
<path fill="none" stroke="black" d="M834.91,-280.08C827.09,-269.55 816.88,-255.82 808.12,-244.05"/>
<polygon fill="black" stroke="black" points="810.84,-241.83 802.06,-235.89 805.22,-246 810.84,-241.83"/>
</g>
<!-- VLSM_Lib_StdppListSet_set_add_intro2&#45;&gt;VLSM_Lib_StdppListSet_set_add -->
<g id="edge40" class="edge">
<title>VLSM_Lib_StdppListSet_set_add_intro2&#45;&gt;VLSM_Lib_StdppListSet_set_add</title>
<path fill="none" stroke="black" d="M937.75,-200.82C921.06,-187.15 897.01,-167.46 878.71,-152.47"/>
<polygon fill="black" stroke="black" points="880.71,-149.58 870.76,-145.95 876.27,-155 880.71,-149.58"/>
</g>
<!-- VLSM_Lib_StdppListSet_set_add_intro1&#45;&gt;VLSM_Lib_StdppListSet_set_add -->
<g id="edge41" class="edge">
<title>VLSM_Lib_StdppListSet_set_add_intro1&#45;&gt;VLSM_Lib_StdppListSet_set_add</title>
<path fill="none" stroke="black" d="M801.95,-200.01C811.21,-187.36 824,-169.9 834.4,-155.71"/>
<polygon fill="black" stroke="black" points="837.42,-157.51 840.51,-147.37 831.77,-153.37 837.42,-157.51"/>
</g>
<!-- VLSM_Lib_StdppListSet_set_diff&#45;&gt;VLSM_Lib_StdppListSet_set_add -->
<g id="edge42" class="edge">
<title>VLSM_Lib_StdppListSet_set_diff&#45;&gt;VLSM_Lib_StdppListSet_set_add</title>
<path fill="none" stroke="black" d="M533.43,-354.88C565.25,-332.95 627.01,-288.57 673.5,-244 695.35,-223.05 693.33,-210.24 717.5,-192 733.57,-179.87 780.47,-159.77 814.48,-145.98"/>
<polygon fill="black" stroke="black" points="816.17,-149.07 824.14,-142.09 813.55,-142.58 816.17,-149.07"/>
</g>
<!-- VLSM_Lib_StdppListSet_set_union&#45;&gt;VLSM_Lib_StdppListSet_set_add -->
<g id="edge43" class="edge">
<title>VLSM_Lib_StdppListSet_set_union&#45;&gt;VLSM_Lib_StdppListSet_set_add</title>
<path fill="none" stroke="black" d="M1168.2,-352.14C1150.09,-317.08 1103.65,-235.97 1041.5,-192 998.17,-161.34 938.6,-145.5 898,-137.74"/>
<polygon fill="black" stroke="black" points="898.57,-134.28 888.1,-135.93 897.31,-141.17 898.57,-134.28"/>
</g>
<!-- VLSM_Lib_StdppListSet_set_remove&#45;&gt;VLSM_Lib_StdppListSet_empty_set -->
<g id="edge44" class="edge">
<title>VLSM_Lib_StdppListSet_set_remove&#45;&gt;VLSM_Lib_StdppListSet_empty_set</title>
<path fill="none" stroke="black" d="M281.22,-203.18C313.06,-188.38 363.68,-164.85 398.42,-148.7"/>
<polygon fill="black" stroke="black" points="400.17,-151.75 407.76,-144.36 397.22,-145.4 400.17,-151.75"/>
</g>
<!-- VLSM_Lib_StdppListSet_set_add&#45;&gt;VLSM_Lib_StdppListSet_set -->
<g id="edge45" class="edge">
<title>VLSM_Lib_StdppListSet_set_add&#45;&gt;VLSM_Lib_StdppListSet_set</title>
<path fill="none" stroke="black" d="M824.27,-117.82C788.14,-103.52 725.67,-78.78 687.71,-63.76"/>
<polygon fill="black" stroke="black" points="688.75,-60.4 678.16,-59.97 686.17,-66.91 688.75,-60.4"/>
</g>
<!-- VLSM_Lib_StdppListSet_empty_set&#45;&gt;VLSM_Lib_StdppListSet_set -->
<g id="edge46" class="edge">
<title>VLSM_Lib_StdppListSet_empty_set&#45;&gt;VLSM_Lib_StdppListSet_set</title>
<path fill="none" stroke="black" d="M469.76,-117.15C511.1,-102.43 581.23,-77.45 622.47,-62.76"/>
<polygon fill="black" stroke="black" points="623.8,-66.01 632.05,-59.35 621.45,-59.41 623.8,-66.01"/>
</g>
</g>
</svg>
