<?xml version="1.0" encoding="UTF-8" standalone="no"?>
<!DOCTYPE svg PUBLIC "-//W3C//DTD SVG 1.1//EN"
 "http://www.w3.org/Graphics/SVG/1.1/DTD/svg11.dtd">
<!-- Generated by graphviz version 2.43.0 (0)
 -->
<!-- Title: rvdpdgraph Pages: 1 -->
<svg width="1318pt" height="663pt"
 viewBox="0.00 0.00 1318.00 663.00" xmlns="http://www.w3.org/2000/svg" xmlns:xlink="http://www.w3.org/1999/xlink">
<g id="graph0" class="graph" transform="scale(1 1) rotate(0) translate(4 659)">
<title>rvdpdgraph</title>
<polygon fill="white" stroke="transparent" points="-4,4 -4,-659 1314,-659 1314,4 -4,4"/>
<g id="clust1" class="cluster">
<title>cluster_VLSM</title>
<polygon fill="#ffffc3" stroke="black" points="8,-10.06 8,-644.94 1302,-644.94 1302,-10.06 8,-10.06"/>
<text text-anchor="middle" x="35.5" y="-629.74" font-family="Times,serif" font-size="14.00">VLSM</text>
</g>
<g id="clust2" class="cluster">
<title>cluster_VLSM_Lib</title>
<polygon fill="#ffffa3" stroke="black" points="16,-20.12 16,-605.97 1294,-605.97 1294,-20.12 16,-20.12"/>
<text text-anchor="middle" x="33.5" y="-590.77" font-family="Times,serif" font-size="14.00">Lib</text>
</g>
<g id="clust3" class="cluster">
<title>cluster_VLSM_Lib_Temporal</title>
<polygon fill="#ffff83" stroke="black" points="24,-30.17 24,-567 1286,-567 1286,-30.17 24,-30.17"/>
<text text-anchor="middle" x="59" y="-551.8" font-family="Times,serif" font-size="14.00">Temporal</text>
</g>
<!-- VLSM_Lib_Temporal_stabilization -->
<g id="node1" class="node">
<title>VLSM_Lib_Temporal_stabilization</title>
<g id="a_node1"><a xlink:href="VLSM.Lib.Temporal.html#stabilization" xlink:title="stabilization" target="_top">
<ellipse fill="#7fffd4" stroke="black" cx="674" cy="-495.06" rx="53.9" ry="18"/>
<ellipse fill="none" stroke="black" cx="674" cy="-495.06" rx="57.89" ry="22"/>
<ellipse fill="none" stroke="black" cx="674" cy="-495.06" rx="61.89" ry="26"/>
<text text-anchor="middle" x="674" y="-491.36" font-family="Times,serif" font-size="14.00">stabilization</text>
</a>
</g>
</g>
<!-- VLSM_Lib_Temporal_not_forever -->
<g id="node2" class="node">
<title>VLSM_Lib_Temporal_not_forever</title>
<g id="a_node2"><a xlink:href="VLSM.Lib.Temporal.html#not_forever" xlink:title="not_forever" target="_top">
<ellipse fill="#7fffd4" stroke="black" cx="784" cy="-385.06" rx="51.99" ry="18"/>
<text text-anchor="middle" x="784" y="-381.36" font-family="Times,serif" font-size="14.00">not_forever</text>
</a>
</g>
</g>
<!-- VLSM_Lib_Temporal_stabilization&#45;&gt;VLSM_Lib_Temporal_not_forever -->
<g id="edge1" class="edge">
<title>VLSM_Lib_Temporal_stabilization&#45;&gt;VLSM_Lib_Temporal_not_forever</title>
<path fill="none" stroke="black" d="M697.6,-470.89C716.05,-452.78 741.59,-427.7 760.11,-409.51"/>
<polygon fill="black" stroke="black" points="762.89,-411.69 767.58,-402.18 757.99,-406.69 762.89,-411.69"/>
</g>
<!-- VLSM_Lib_Temporal_refutation -->
<g id="node4" class="node">
<title>VLSM_Lib_Temporal_refutation</title>
<g id="a_node4"><a xlink:href="VLSM.Lib.Temporal.html#refutation" xlink:title="refutation" target="_top">
<ellipse fill="#7fffd4" stroke="black" cx="288" cy="-385.06" rx="44.69" ry="18"/>
<text text-anchor="middle" x="288" y="-381.36" font-family="Times,serif" font-size="14.00">refutation</text>
</a>
</g>
</g>
<!-- VLSM_Lib_Temporal_stabilization&#45;&gt;VLSM_Lib_Temporal_refutation -->
<g id="edge2" class="edge">
<title>VLSM_Lib_Temporal_stabilization&#45;&gt;VLSM_Lib_Temporal_refutation</title>
<path fill="none" stroke="black" d="M618.43,-483.51C551.72,-470.09 436.96,-444.57 342,-411.06 336.05,-408.96 329.87,-406.44 323.91,-403.82"/>
<polygon fill="black" stroke="black" points="325.33,-400.62 314.78,-399.67 322.43,-406.99 325.33,-400.62"/>
</g>
<!-- VLSM_Lib_Temporal_progress -->
<g id="node10" class="node">
<title>VLSM_Lib_Temporal_progress</title>
<g id="a_node10"><a xlink:href="VLSM.Lib.Temporal.html#progress" xlink:title="progress" target="_top">
<ellipse fill="#f070d1" stroke="black" cx="674" cy="-385.06" rx="40.09" ry="18"/>
<text text-anchor="middle" x="674" y="-381.36" font-family="Times,serif" font-size="14.00">progress</text>
</a>
</g>
</g>
<!-- VLSM_Lib_Temporal_stabilization&#45;&gt;VLSM_Lib_Temporal_progress -->
<g id="edge3" class="edge">
<title>VLSM_Lib_Temporal_stabilization&#45;&gt;VLSM_Lib_Temporal_progress</title>
<path fill="none" stroke="black" d="M674,-469.01C674,-452.45 674,-430.73 674,-413.67"/>
<polygon fill="black" stroke="black" points="677.5,-413.23 674,-403.23 670.5,-413.23 677.5,-413.23"/>
</g>
<!-- VLSM_Lib_Temporal_forever_tauto -->
<g id="node6" class="node">
<title>VLSM_Lib_Temporal_forever_tauto</title>
<g id="a_node6"><a xlink:href="VLSM.Lib.Temporal.html#forever_tauto" xlink:title="forever_tauto" target="_top">
<ellipse fill="#7fffd4" stroke="black" cx="784" cy="-274.06" rx="57.69" ry="18"/>
<text text-anchor="middle" x="784" y="-270.36" font-family="Times,serif" font-size="14.00">forever_tauto</text>
</a>
</g>
</g>
<!-- VLSM_Lib_Temporal_not_forever&#45;&gt;VLSM_Lib_Temporal_forever_tauto -->
<g id="edge4" class="edge">
<title>VLSM_Lib_Temporal_not_forever&#45;&gt;VLSM_Lib_Temporal_forever_tauto</title>
<path fill="none" stroke="black" d="M784,-367.03C784,-349.77 784,-322.8 784,-302.52"/>
<polygon fill="black" stroke="black" points="787.5,-302.33 784,-292.33 780.5,-302.33 787.5,-302.33"/>
</g>
<!-- VLSM_Lib_Temporal_forever_impl -->
<g id="node8" class="node">
<title>VLSM_Lib_Temporal_forever_impl</title>
<g id="a_node8"><a xlink:href="VLSM.Lib.Temporal.html#forever_impl" xlink:title="forever_impl" target="_top">
<ellipse fill="#7fffd4" stroke="black" cx="1221" cy="-274.06" rx="57.39" ry="18"/>
<text text-anchor="middle" x="1221" y="-270.36" font-family="Times,serif" font-size="14.00">forever_impl</text>
</a>
</g>
</g>
<!-- VLSM_Lib_Temporal_not_forever&#45;&gt;VLSM_Lib_Temporal_forever_impl -->
<g id="edge5" class="edge">
<title>VLSM_Lib_Temporal_not_forever&#45;&gt;VLSM_Lib_Temporal_forever_impl</title>
<path fill="none" stroke="black" d="M829.07,-375.96C899.42,-362.85 1039.28,-334.89 1155,-300.06 1162.51,-297.8 1170.38,-295.11 1177.98,-292.34"/>
<polygon fill="black" stroke="black" points="1179.25,-295.6 1187.4,-288.82 1176.8,-289.04 1179.25,-295.6"/>
</g>
<!-- VLSM_Lib_Temporal_not_eventually -->
<g id="node9" class="node">
<title>VLSM_Lib_Temporal_not_eventually</title>
<g id="a_node9"><a xlink:href="VLSM.Lib.Temporal.html#not_eventually" xlink:title="not_eventually" target="_top">
<ellipse fill="#7fffd4" stroke="black" cx="473" cy="-274.06" rx="63.09" ry="18"/>
<text text-anchor="middle" x="473" y="-270.36" font-family="Times,serif" font-size="14.00">not_eventually</text>
</a>
</g>
</g>
<!-- VLSM_Lib_Temporal_not_forever&#45;&gt;VLSM_Lib_Temporal_not_eventually -->
<g id="edge6" class="edge">
<title>VLSM_Lib_Temporal_not_forever&#45;&gt;VLSM_Lib_Temporal_not_eventually</title>
<path fill="none" stroke="black" d="M752.5,-370.67C743.07,-366.78 732.66,-362.63 723,-359.06 644.84,-330.13 623.92,-326.84 545,-300.06 537.25,-297.43 529.04,-294.61 521.05,-291.85"/>
<polygon fill="black" stroke="black" points="522.05,-288.49 511.45,-288.52 519.76,-295.1 522.05,-288.49"/>
</g>
<!-- VLSM_Lib_Temporal_forall_forever -->
<g id="node3" class="node">
<title>VLSM_Lib_Temporal_forall_forever</title>
<g id="a_node3"><a xlink:href="VLSM.Lib.Temporal.html#forall_forever" xlink:title="forall_forever" target="_top">
<ellipse fill="#7fffd4" stroke="black" cx="1078" cy="-274.06" rx="59.61" ry="18"/>
<ellipse fill="none" stroke="black" cx="1078" cy="-274.06" rx="63.6" ry="22"/>
<ellipse fill="none" stroke="black" cx="1078" cy="-274.06" rx="67.59" ry="26"/>
<text text-anchor="middle" x="1078" y="-270.36" font-family="Times,serif" font-size="14.00">forall_forever</text>
</a>
</g>
</g>
<!-- VLSM_Lib_Temporal_fcons -->
<g id="node15" class="node">
<title>VLSM_Lib_Temporal_fcons</title>
<g id="a_node15"><a xlink:href="VLSM.Lib.Temporal.html#fcons" xlink:title="fcons" target="_top">
<ellipse fill="#7faaff" stroke="black" cx="926" cy="-163.06" rx="29.8" ry="18"/>
<text text-anchor="middle" x="926" y="-159.36" font-family="Times,serif" font-size="14.00">fcons</text>
</a>
</g>
</g>
<!-- VLSM_Lib_Temporal_forall_forever&#45;&gt;VLSM_Lib_Temporal_fcons -->
<g id="edge7" class="edge">
<title>VLSM_Lib_Temporal_forall_forever&#45;&gt;VLSM_Lib_Temporal_fcons</title>
<path fill="none" stroke="black" d="M1046.87,-250.74C1019.25,-230.93 979.3,-202.28 953,-183.42"/>
<polygon fill="black" stroke="black" points="954.81,-180.41 944.64,-177.43 950.73,-186.1 954.81,-180.41"/>
</g>
<!-- VLSM_Lib_Temporal_Forever -->
<g id="node16" class="node">
<title>VLSM_Lib_Temporal_Forever</title>
<g id="a_node16"><a xlink:href="VLSM.Lib.Temporal.html#Forever" xlink:title="Forever" target="_top">
<ellipse fill="#e2cdfa" stroke="black" cx="665" cy="-163.06" rx="38.19" ry="18"/>
<text text-anchor="middle" x="665" y="-159.36" font-family="Times,serif" font-size="14.00">Forever</text>
</a>
</g>
</g>
<!-- VLSM_Lib_Temporal_forall_forever&#45;&gt;VLSM_Lib_Temporal_Forever -->
<g id="edge8" class="edge">
<title>VLSM_Lib_Temporal_forall_forever&#45;&gt;VLSM_Lib_Temporal_Forever</title>
<path fill="none" stroke="black" d="M1028.54,-256.09C1019.43,-253.23 1009.97,-250.42 1001,-248.06 874.23,-214.65 835.36,-233.41 712,-189.06 707.02,-187.27 701.91,-185.03 696.99,-182.63"/>
<polygon fill="black" stroke="black" points="698.31,-179.37 687.82,-177.89 695.1,-185.59 698.31,-179.37"/>
</g>
<!-- VLSM_Lib_Temporal_use_eventually -->
<g id="node5" class="node">
<title>VLSM_Lib_Temporal_use_eventually</title>
<g id="a_node5"><a xlink:href="VLSM.Lib.Temporal.html#use_eventually" xlink:title="use_eventually" target="_top">
<ellipse fill="#7fffd4" stroke="black" cx="288" cy="-274.06" rx="63.89" ry="18"/>
<text text-anchor="middle" x="288" y="-270.36" font-family="Times,serif" font-size="14.00">use_eventually</text>
</a>
</g>
</g>
<!-- VLSM_Lib_Temporal_refutation&#45;&gt;VLSM_Lib_Temporal_use_eventually -->
<g id="edge9" class="edge">
<title>VLSM_Lib_Temporal_refutation&#45;&gt;VLSM_Lib_Temporal_use_eventually</title>
<path fill="none" stroke="black" d="M288,-367.03C288,-349.77 288,-322.8 288,-302.52"/>
<polygon fill="black" stroke="black" points="291.5,-302.33 288,-292.33 284.5,-302.33 291.5,-302.33"/>
</g>
<!-- VLSM_Lib_Temporal_use_eventually&#45;&gt;VLSM_Lib_Temporal_Forever -->
<g id="edge10" class="edge">
<title>VLSM_Lib_Temporal_use_eventually&#45;&gt;VLSM_Lib_Temporal_Forever</title>
<path fill="none" stroke="black" d="M330.88,-260.66C403.87,-239.56 551.34,-196.92 623.43,-176.08"/>
<polygon fill="black" stroke="black" points="624.45,-179.42 633.09,-173.28 622.51,-172.7 624.45,-179.42"/>
</g>
<!-- VLSM_Lib_Temporal_Eventually_ind -->
<g id="node18" class="node">
<title>VLSM_Lib_Temporal_Eventually_ind</title>
<g id="a_node18"><a xlink:href="VLSM.Lib.Temporal.html#Eventually_ind" xlink:title="Eventually_ind" target="_top">
<ellipse fill="#7fffd4" stroke="black" cx="172" cy="-163.06" rx="64.19" ry="18"/>
<text text-anchor="middle" x="172" y="-159.36" font-family="Times,serif" font-size="14.00">Eventually_ind</text>
</a>
</g>
</g>
<!-- VLSM_Lib_Temporal_use_eventually&#45;&gt;VLSM_Lib_Temporal_Eventually_ind -->
<g id="edge11" class="edge">
<title>VLSM_Lib_Temporal_use_eventually&#45;&gt;VLSM_Lib_Temporal_Eventually_ind</title>
<path fill="none" stroke="black" d="M270.63,-256.74C251.07,-238.36 219.12,-208.33 196.9,-187.46"/>
<polygon fill="black" stroke="black" points="199.17,-184.78 189.49,-180.49 194.38,-189.89 199.17,-184.78"/>
</g>
<!-- VLSM_Lib_Temporal_forever_tauto&#45;&gt;VLSM_Lib_Temporal_fcons -->
<g id="edge12" class="edge">
<title>VLSM_Lib_Temporal_forever_tauto&#45;&gt;VLSM_Lib_Temporal_fcons</title>
<path fill="none" stroke="black" d="M804.65,-257.21C829.88,-237.84 872.6,-205.05 900.04,-183.99"/>
<polygon fill="black" stroke="black" points="902.22,-186.72 908.03,-177.85 897.96,-181.17 902.22,-186.72"/>
</g>
<!-- VLSM_Lib_Temporal_forever_tauto&#45;&gt;VLSM_Lib_Temporal_Forever -->
<g id="edge13" class="edge">
<title>VLSM_Lib_Temporal_forever_tauto&#45;&gt;VLSM_Lib_Temporal_Forever</title>
<path fill="none" stroke="black" d="M766.18,-256.74C745.77,-238.04 712.19,-207.29 689.37,-186.38"/>
<polygon fill="black" stroke="black" points="691.52,-183.6 681.78,-179.43 686.79,-188.76 691.52,-183.6"/>
</g>
<!-- VLSM_Lib_Temporal_eventually_impl -->
<g id="node7" class="node">
<title>VLSM_Lib_Temporal_eventually_impl</title>
<g id="a_node7"><a xlink:href="VLSM.Lib.Temporal.html#eventually_impl" xlink:title="eventually_impl" target="_top">
<ellipse fill="#7fffd4" stroke="black" cx="427" cy="-385.06" rx="68.46" ry="18"/>
<ellipse fill="none" stroke="black" cx="427" cy="-385.06" rx="72.48" ry="22"/>
<ellipse fill="none" stroke="black" cx="427" cy="-385.06" rx="76.49" ry="26"/>
<text text-anchor="middle" x="427" y="-381.36" font-family="Times,serif" font-size="14.00">eventually_impl</text>
</a>
</g>
</g>
<!-- VLSM_Lib_Temporal_flater -->
<g id="node13" class="node">
<title>VLSM_Lib_Temporal_flater</title>
<g id="a_node13"><a xlink:href="VLSM.Lib.Temporal.html#flater" xlink:title="flater" target="_top">
<ellipse fill="#7fffd4" stroke="black" cx="659" cy="-274.06" rx="29.5" ry="18"/>
<text text-anchor="middle" x="659" y="-270.36" font-family="Times,serif" font-size="14.00">flater</text>
</a>
</g>
</g>
<!-- VLSM_Lib_Temporal_eventually_impl&#45;&gt;VLSM_Lib_Temporal_flater -->
<g id="edge14" class="edge">
<title>VLSM_Lib_Temporal_eventually_impl&#45;&gt;VLSM_Lib_Temporal_flater</title>
<path fill="none" stroke="black" d="M476.74,-365.29C516.61,-349.59 573.53,-325.7 621,-300.06 624.57,-298.13 628.24,-295.97 631.83,-293.74"/>
<polygon fill="black" stroke="black" points="633.94,-296.54 640.45,-288.18 630.15,-290.66 633.94,-296.54"/>
</g>
<!-- VLSM_Lib_Temporal_fhere -->
<g id="node14" class="node">
<title>VLSM_Lib_Temporal_fhere</title>
<g id="a_node14"><a xlink:href="VLSM.Lib.Temporal.html#fhere" xlink:title="fhere" target="_top">
<ellipse fill="#7fffd4" stroke="black" cx="583" cy="-274.06" rx="28.7" ry="18"/>
<text text-anchor="middle" x="583" y="-270.36" font-family="Times,serif" font-size="14.00">fhere</text>
</a>
</g>
</g>
<!-- VLSM_Lib_Temporal_eventually_impl&#45;&gt;VLSM_Lib_Temporal_fhere -->
<g id="edge15" class="edge">
<title>VLSM_Lib_Temporal_eventually_impl&#45;&gt;VLSM_Lib_Temporal_fhere</title>
<path fill="none" stroke="black" d="M459.32,-361.47C487.87,-341.53 529.01,-312.78 555.88,-294.01"/>
<polygon fill="black" stroke="black" points="558.21,-296.65 564.4,-288.05 554.2,-290.91 558.21,-296.65"/>
</g>
<!-- VLSM_Lib_Temporal_eventually_impl&#45;&gt;VLSM_Lib_Temporal_Eventually_ind -->
<g id="edge16" class="edge">
<title>VLSM_Lib_Temporal_eventually_impl&#45;&gt;VLSM_Lib_Temporal_Eventually_ind</title>
<path fill="none" stroke="black" d="M371.87,-367.05C361.97,-364.22 351.71,-361.44 342,-359.06 210.45,-326.8 129.01,-404.7 43,-300.06 28.32,-282.2 31.98,-268.37 43,-248.06 60.13,-216.47 94.84,-194.89 123.95,-181.52"/>
<polygon fill="black" stroke="black" points="125.43,-184.7 133.18,-177.47 122.61,-178.29 125.43,-184.7"/>
</g>
<!-- VLSM_Lib_Temporal_elater -->
<g id="node19" class="node">
<title>VLSM_Lib_Temporal_elater</title>
<g id="a_node19"><a xlink:href="VLSM.Lib.Temporal.html#elater" xlink:title="elater" target="_top">
<ellipse fill="#7faaff" stroke="black" cx="329" cy="-163.06" rx="30.59" ry="18"/>
<text text-anchor="middle" x="329" y="-159.36" font-family="Times,serif" font-size="14.00">elater</text>
</a>
</g>
</g>
<!-- VLSM_Lib_Temporal_eventually_impl&#45;&gt;VLSM_Lib_Temporal_elater -->
<g id="edge17" class="edge">
<title>VLSM_Lib_Temporal_eventually_impl&#45;&gt;VLSM_Lib_Temporal_elater</title>
<path fill="none" stroke="black" d="M415.95,-359.25C397.23,-317.23 359.49,-232.5 340.48,-189.84"/>
<polygon fill="black" stroke="black" points="343.67,-188.38 336.4,-180.67 337.27,-191.23 343.67,-188.38"/>
</g>
<!-- VLSM_Lib_Temporal_ehere -->
<g id="node20" class="node">
<title>VLSM_Lib_Temporal_ehere</title>
<g id="a_node20"><a xlink:href="VLSM.Lib.Temporal.html#ehere" xlink:title="ehere" target="_top">
<ellipse fill="#7faaff" stroke="black" cx="407" cy="-163.06" rx="29.8" ry="18"/>
<text text-anchor="middle" x="407" y="-159.36" font-family="Times,serif" font-size="14.00">ehere</text>
</a>
</g>
</g>
<!-- VLSM_Lib_Temporal_eventually_impl&#45;&gt;VLSM_Lib_Temporal_ehere -->
<g id="edge18" class="edge">
<title>VLSM_Lib_Temporal_eventually_impl&#45;&gt;VLSM_Lib_Temporal_ehere</title>
<path fill="none" stroke="black" d="M417.13,-359.16C411.14,-342.68 404.08,-320.43 401,-300.06 395.35,-262.72 399.09,-219.01 402.7,-191.42"/>
<polygon fill="black" stroke="black" points="406.19,-191.73 404.11,-181.35 399.26,-190.77 406.19,-191.73"/>
</g>
<!-- VLSM_Lib_Temporal_forever_impl&#45;&gt;VLSM_Lib_Temporal_fcons -->
<g id="edge19" class="edge">
<title>VLSM_Lib_Temporal_forever_impl&#45;&gt;VLSM_Lib_Temporal_fcons</title>
<path fill="none" stroke="black" d="M1186.09,-259.76C1176.06,-255.96 1165.1,-251.82 1155,-248.06 1086.2,-222.41 1005.55,-192.97 960.66,-176.64"/>
<polygon fill="black" stroke="black" points="961.7,-173.3 951.11,-173.17 959.31,-179.88 961.7,-173.3"/>
</g>
<!-- VLSM_Lib_Temporal_forever_impl&#45;&gt;VLSM_Lib_Temporal_Forever -->
<g id="edge20" class="edge">
<title>VLSM_Lib_Temporal_forever_impl&#45;&gt;VLSM_Lib_Temporal_Forever</title>
<path fill="none" stroke="black" d="M1188.58,-259.08C1178.03,-255 1166.17,-250.88 1155,-248.06 962.41,-199.45 901.12,-249.77 712,-189.06 706.72,-187.36 701.33,-185.09 696.18,-182.6"/>
<polygon fill="black" stroke="black" points="697.72,-179.46 687.23,-177.97 694.5,-185.67 697.72,-179.46"/>
</g>
<!-- VLSM_Lib_Temporal_not_eventually&#45;&gt;VLSM_Lib_Temporal_fcons -->
<g id="edge21" class="edge">
<title>VLSM_Lib_Temporal_not_eventually&#45;&gt;VLSM_Lib_Temporal_fcons</title>
<path fill="none" stroke="black" d="M509.28,-259.19C520.6,-255.2 533.22,-251.11 545,-248.06 692.19,-209.88 738.9,-240.48 882,-189.06 887.27,-187.16 892.65,-184.66 897.74,-181.97"/>
<polygon fill="black" stroke="black" points="899.55,-184.98 906.54,-177.02 896.11,-178.88 899.55,-184.98"/>
</g>
<!-- VLSM_Lib_Temporal_not_eventually&#45;&gt;VLSM_Lib_Temporal_Forever -->
<g id="edge22" class="edge">
<title>VLSM_Lib_Temporal_not_eventually&#45;&gt;VLSM_Lib_Temporal_Forever</title>
<path fill="none" stroke="black" d="M500.1,-257.67C534.88,-237.93 595.17,-203.7 632.41,-182.56"/>
<polygon fill="black" stroke="black" points="634.39,-185.46 641.36,-177.48 630.93,-179.37 634.39,-185.46"/>
</g>
<!-- VLSM_Lib_Temporal_not_eventually&#45;&gt;VLSM_Lib_Temporal_elater -->
<g id="edge23" class="edge">
<title>VLSM_Lib_Temporal_not_eventually&#45;&gt;VLSM_Lib_Temporal_elater</title>
<path fill="none" stroke="black" d="M451.75,-256.97C426.09,-237.55 382.91,-204.87 355.21,-183.9"/>
<polygon fill="black" stroke="black" points="357.23,-181.03 347.14,-177.79 353,-186.62 357.23,-181.03"/>
</g>
<!-- VLSM_Lib_Temporal_not_eventually&#45;&gt;VLSM_Lib_Temporal_ehere -->
<g id="edge24" class="edge">
<title>VLSM_Lib_Temporal_not_eventually&#45;&gt;VLSM_Lib_Temporal_ehere</title>
<path fill="none" stroke="black" d="M462.69,-256.03C451.81,-238.06 434.56,-209.57 422.14,-189.05"/>
<polygon fill="black" stroke="black" points="424.98,-187 416.81,-180.26 419,-190.63 424.98,-187"/>
</g>
<!-- VLSM_Lib_Temporal_Eventually -->
<g id="node21" class="node">
<title>VLSM_Lib_Temporal_Eventually</title>
<g id="a_node21"><a xlink:href="VLSM.Lib.Temporal.html#Eventually" xlink:title="Eventually" target="_top">
<ellipse fill="#e2cdfa" stroke="black" cx="473" cy="-63.06" rx="48.99" ry="18"/>
<text text-anchor="middle" x="473" y="-59.36" font-family="Times,serif" font-size="14.00">Eventually</text>
</a>
</g>
</g>
<!-- VLSM_Lib_Temporal_not_eventually&#45;&gt;VLSM_Lib_Temporal_Eventually -->
<g id="edge25" class="edge">
<title>VLSM_Lib_Temporal_not_eventually&#45;&gt;VLSM_Lib_Temporal_Eventually</title>
<path fill="none" stroke="black" d="M473,-255.95C473,-219.73 473,-135.04 473,-91.29"/>
<polygon fill="black" stroke="black" points="476.5,-91.1 473,-81.1 469.5,-91.1 476.5,-91.1"/>
</g>
<!-- VLSM_Lib_Temporal_progress&#45;&gt;VLSM_Lib_Temporal_Forever -->
<g id="edge26" class="edge">
<title>VLSM_Lib_Temporal_progress&#45;&gt;VLSM_Lib_Temporal_Forever</title>
<path fill="none" stroke="black" d="M680.63,-367.28C689.94,-341.58 704.89,-290.92 697,-248.06 693.3,-227.98 685.03,-206.48 677.82,-190.26"/>
<polygon fill="black" stroke="black" points="680.87,-188.53 673.52,-180.9 674.51,-191.45 680.87,-188.53"/>
</g>
<!-- VLSM_Lib_Temporal_Forever_map -->
<g id="node11" class="node">
<title>VLSM_Lib_Temporal_Forever_map</title>
<g id="a_node11"><a xlink:href="VLSM.Lib.Temporal.html#Forever_map" xlink:title="Forever_map" target="_top">
<ellipse fill="#7fffd4" stroke="black" cx="926" cy="-274.06" rx="57.71" ry="18"/>
<ellipse fill="none" stroke="black" cx="926" cy="-274.06" rx="61.7" ry="22"/>
<ellipse fill="none" stroke="black" cx="926" cy="-274.06" rx="65.69" ry="26"/>
<text text-anchor="middle" x="926" y="-270.36" font-family="Times,serif" font-size="14.00">Forever_map</text>
</a>
</g>
</g>
<!-- VLSM_Lib_Temporal_Forever_map&#45;&gt;VLSM_Lib_Temporal_fcons -->
<g id="edge27" class="edge">
<title>VLSM_Lib_Temporal_Forever_map&#45;&gt;VLSM_Lib_Temporal_fcons</title>
<path fill="none" stroke="black" d="M926,-248.05C926,-231.08 926,-208.66 926,-191.24"/>
<polygon fill="black" stroke="black" points="929.5,-191.15 926,-181.15 922.5,-191.15 929.5,-191.15"/>
</g>
<!-- VLSM_Lib_Temporal_Forever_map&#45;&gt;VLSM_Lib_Temporal_Forever -->
<g id="edge28" class="edge">
<title>VLSM_Lib_Temporal_Forever_map&#45;&gt;VLSM_Lib_Temporal_Forever</title>
<path fill="none" stroke="black" d="M878.17,-256.08C834.36,-240.1 768.01,-214.84 712,-189.06 707.29,-186.89 702.39,-184.47 697.61,-182.02"/>
<polygon fill="black" stroke="black" points="699.12,-178.86 688.64,-177.31 695.87,-185.06 699.12,-178.86"/>
</g>
<!-- VLSM_Lib_Temporal_Eventually_map -->
<g id="node12" class="node">
<title>VLSM_Lib_Temporal_Eventually_map</title>
<g id="a_node12"><a xlink:href="VLSM.Lib.Temporal.html#Eventually_map" xlink:title="Eventually_map" target="_top">
<ellipse fill="#7fffd4" stroke="black" cx="129" cy="-274.06" rx="68.8" ry="18"/>
<ellipse fill="none" stroke="black" cx="129" cy="-274.06" rx="72.79" ry="22"/>
<ellipse fill="none" stroke="black" cx="129" cy="-274.06" rx="76.79" ry="26"/>
<text text-anchor="middle" x="129" y="-270.36" font-family="Times,serif" font-size="14.00">Eventually_map</text>
</a>
</g>
</g>
<!-- VLSM_Lib_Temporal_Eventually_map&#45;&gt;VLSM_Lib_Temporal_Eventually_ind -->
<g id="edge29" class="edge">
<title>VLSM_Lib_Temporal_Eventually_map&#45;&gt;VLSM_Lib_Temporal_Eventually_ind</title>
<path fill="none" stroke="black" d="M138.87,-248.05C145.62,-230.92 154.57,-208.23 161.47,-190.75"/>
<polygon fill="black" stroke="black" points="164.84,-191.73 165.26,-181.15 158.33,-189.16 164.84,-191.73"/>
</g>
<!-- VLSM_Lib_Temporal_Eventually_map&#45;&gt;VLSM_Lib_Temporal_elater -->
<g id="edge30" class="edge">
<title>VLSM_Lib_Temporal_Eventually_map&#45;&gt;VLSM_Lib_Temporal_elater</title>
<path fill="none" stroke="black" d="M168.51,-251.52C206.49,-230.82 263.12,-199.96 297.97,-180.97"/>
<polygon fill="black" stroke="black" points="300.08,-183.81 307.18,-175.95 296.73,-177.66 300.08,-183.81"/>
</g>
<!-- VLSM_Lib_Temporal_Eventually_map&#45;&gt;VLSM_Lib_Temporal_ehere -->
<g id="edge31" class="edge">
<title>VLSM_Lib_Temporal_Eventually_map&#45;&gt;VLSM_Lib_Temporal_ehere</title>
<path fill="none" stroke="black" d="M183.6,-255.67C243.62,-236.26 335.91,-205.42 369,-189.06 372.64,-187.26 376.35,-185.17 379.95,-182.99"/>
<polygon fill="black" stroke="black" points="382.06,-185.8 388.6,-177.47 378.29,-179.9 382.06,-185.8"/>
</g>
<!-- VLSM_Lib_Temporal_flater&#45;&gt;VLSM_Lib_Temporal_Forever -->
<g id="edge32" class="edge">
<title>VLSM_Lib_Temporal_flater&#45;&gt;VLSM_Lib_Temporal_Forever</title>
<path fill="none" stroke="black" d="M659.94,-256.03C660.89,-238.77 662.37,-211.8 663.49,-191.52"/>
<polygon fill="black" stroke="black" points="666.99,-191.51 664.05,-181.33 660,-191.12 666.99,-191.51"/>
</g>
<!-- VLSM_Lib_Temporal_fhere&#45;&gt;VLSM_Lib_Temporal_Forever -->
<g id="edge33" class="edge">
<title>VLSM_Lib_Temporal_fhere&#45;&gt;VLSM_Lib_Temporal_Forever</title>
<path fill="none" stroke="black" d="M594.75,-257.44C608.29,-239.44 630.73,-209.62 646.59,-188.53"/>
<polygon fill="black" stroke="black" points="649.52,-190.45 652.74,-180.36 643.93,-186.24 649.52,-190.45"/>
</g>
<!-- VLSM_Lib_Temporal_Eventually_sind -->
<g id="node17" class="node">
<title>VLSM_Lib_Temporal_Eventually_sind</title>
<g id="a_node17"><a xlink:href="VLSM.Lib.Temporal.html#Eventually_sind" xlink:title="Eventually_sind" target="_top">
<ellipse fill="#f070d1" stroke="black" cx="797" cy="-163.06" rx="67.68" ry="18"/>
<ellipse fill="none" stroke="black" cx="797" cy="-163.06" rx="71.68" ry="22"/>
<ellipse fill="none" stroke="black" cx="797" cy="-163.06" rx="75.69" ry="26"/>
<text text-anchor="middle" x="797" y="-159.36" font-family="Times,serif" font-size="14.00">Eventually_sind</text>
</a>
</g>
</g>
<!-- VLSM_Lib_Temporal_Eventually_sind&#45;&gt;VLSM_Lib_Temporal_Eventually -->
<g id="edge34" class="edge">
<title>VLSM_Lib_Temporal_Eventually_sind&#45;&gt;VLSM_Lib_Temporal_Eventually</title>
<path fill="none" stroke="black" d="M741.67,-145.32C678.97,-126.36 577.88,-95.78 519.22,-78.04"/>
<polygon fill="black" stroke="black" points="520.07,-74.64 509.48,-75.09 518.04,-81.34 520.07,-74.64"/>
</g>
<!-- VLSM_Lib_Temporal_Eventually_ind&#45;&gt;VLSM_Lib_Temporal_Eventually -->
<g id="edge35" class="edge">
<title>VLSM_Lib_Temporal_Eventually_ind&#45;&gt;VLSM_Lib_Temporal_Eventually</title>
<path fill="none" stroke="black" d="M212.28,-148.94C268.31,-130.7 369.46,-97.77 427.94,-78.73"/>
<polygon fill="black" stroke="black" points="429.21,-81.99 437.64,-75.57 427.05,-75.34 429.21,-81.99"/>
</g>
</g>
</svg>
