<?xml version="1.0" encoding="UTF-8" standalone="no"?>
<!DOCTYPE svg PUBLIC "-//W3C//DTD SVG 1.1//EN"
 "http://www.w3.org/Graphics/SVG/1.1/DTD/svg11.dtd">
<!-- Generated by graphviz version 2.43.0 (0)
 -->
<!-- Title: rvdpdgraph Pages: 1 -->
<svg width="522pt" height="265pt"
 viewBox="0.00 0.00 522.00 265.00" xmlns="http://www.w3.org/2000/svg" xmlns:xlink="http://www.w3.org/1999/xlink">
<g id="graph0" class="graph" transform="scale(1 1) rotate(0) translate(4 261)">
<title>rvdpdgraph</title>
<polygon fill="white" stroke="transparent" points="-4,4 -4,-261 518,-261 518,4 -4,4"/>
<g id="clust1" class="cluster">
<title>cluster_VLSM</title>
<polygon fill="#ffffc3" stroke="black" points="10.03,-8 10.03,-249 503.97,-249 503.97,-8 10.03,-8"/>
<text text-anchor="middle" x="37.53" y="-233.8" font-family="Times,serif" font-size="14.00">VLSM</text>
</g>
<g id="clust2" class="cluster">
<title>cluster_VLSM_Lib</title>
<polygon fill="#ffffa3" stroke="black" points="20.06,-16 20.06,-218 493.94,-218 493.94,-16 20.06,-16"/>
<text text-anchor="middle" x="37.56" y="-202.8" font-family="Times,serif" font-size="14.00">Lib</text>
</g>
<g id="clust3" class="cluster">
<title>cluster_VLSM_Lib_FinExtras</title>
<polygon fill="#ffff83" stroke="black" points="30.09,-24 30.09,-187 483.91,-187 483.91,-24 30.09,-24"/>
<text text-anchor="middle" x="64.59" y="-171.8" font-family="Times,serif" font-size="14.00">FinExtras</text>
</g>
<!-- VLSM_Lib_FinExtras_up_to_n_full -->
<g id="node1" class="node">
<title>VLSM_Lib_FinExtras_up_to_n_full</title>
<g id="a_node1"><a xlink:href="VLSM.Lib.FinExtras.html#up_to_n_full" xlink:title="up_to_n_full" target="_top">
<ellipse fill="#7fffd4" stroke="black" cx="393.6" cy="-130" rx="55.8" ry="18"/>
<ellipse fill="none" stroke="black" cx="393.6" cy="-130" rx="59.8" ry="22"/>
<ellipse fill="none" stroke="black" cx="393.6" cy="-130" rx="63.79" ry="26"/>
<text text-anchor="middle" x="393.6" y="-126.3" font-family="Times,serif" font-size="14.00">up_to_n_full</text>
</a>
</g>
</g>
<!-- VLSM_Lib_FinExtras_up_to_n_listing -->
<g id="node3" class="node">
<title>VLSM_Lib_FinExtras_up_to_n_listing</title>
<g id="a_node3"><a xlink:href="VLSM.Lib.FinExtras.html#up_to_n_listing" xlink:title="up_to_n_listing" target="_top">
<ellipse fill="#f070d1" stroke="black" cx="278.6" cy="-50" rx="65.79" ry="18"/>
<text text-anchor="middle" x="278.6" y="-46.3" font-family="Times,serif" font-size="14.00">up_to_n_listing</text>
</a>
</g>
</g>
<!-- VLSM_Lib_FinExtras_up_to_n_full&#45;&gt;VLSM_Lib_FinExtras_up_to_n_listing -->
<g id="edge1" class="edge">
<title>VLSM_Lib_FinExtras_up_to_n_full&#45;&gt;VLSM_Lib_FinExtras_up_to_n_listing</title>
<path fill="none" stroke="black" d="M361.57,-107.27C345.65,-96.47 326.45,-83.45 310.54,-72.66"/>
<polygon fill="black" stroke="black" points="312.32,-69.64 302.08,-66.92 308.39,-75.43 312.32,-69.64"/>
</g>
<!-- VLSM_Lib_FinExtras_up_to_n_listing_length -->
<g id="node2" class="node">
<title>VLSM_Lib_FinExtras_up_to_n_listing_length</title>
<g id="a_node2"><a xlink:href="VLSM.Lib.FinExtras.html#up_to_n_listing_length" xlink:title="up_to_n_listing_length" target="_top">
<ellipse fill="#7fffd4" stroke="black" cx="165.6" cy="-130" rx="92.1" ry="18"/>
<ellipse fill="none" stroke="black" cx="165.6" cy="-130" rx="96.09" ry="22"/>
<ellipse fill="none" stroke="black" cx="165.6" cy="-130" rx="100.08" ry="26"/>
<text text-anchor="middle" x="165.6" y="-126.3" font-family="Times,serif" font-size="14.00">up_to_n_listing_length</text>
</a>
</g>
</g>
<!-- VLSM_Lib_FinExtras_up_to_n_listing_length&#45;&gt;VLSM_Lib_FinExtras_up_to_n_listing -->
<g id="edge2" class="edge">
<title>VLSM_Lib_FinExtras_up_to_n_listing_length&#45;&gt;VLSM_Lib_FinExtras_up_to_n_listing</title>
<path fill="none" stroke="black" d="M199.82,-105.39C214.91,-94.97 232.54,-82.8 247.28,-72.62"/>
<polygon fill="black" stroke="black" points="249.35,-75.45 255.59,-66.89 245.37,-69.69 249.35,-75.45"/>
</g>
</g>
</svg>
