<?xml version="1.0" encoding="UTF-8" standalone="no"?>
<!DOCTYPE svg PUBLIC "-//W3C//DTD SVG 1.1//EN"
 "http://www.w3.org/Graphics/SVG/1.1/DTD/svg11.dtd">
<!-- Generated by graphviz version 2.43.0 (0)
 -->
<!-- Title: rvdpdgraph Pages: 1 -->
<svg width="1687pt" height="848pt"
 viewBox="0.00 0.00 1687.00 847.50" xmlns="http://www.w3.org/2000/svg" xmlns:xlink="http://www.w3.org/1999/xlink">
<g id="graph0" class="graph" transform="scale(1 1) rotate(0) translate(4 843.5)">
<title>rvdpdgraph</title>
<polygon fill="white" stroke="transparent" points="-4,4 -4,-843.5 1683,-843.5 1683,4 -4,4"/>
<g id="clust1" class="cluster">
<title>cluster_VLSM</title>
<polygon fill="#ffffc3" stroke="black" points="8,-9.11 8,-830.39 1671,-830.39 1671,-9.11 8,-9.11"/>
<text text-anchor="middle" x="35.5" y="-815.19" font-family="Times,serif" font-size="14.00">VLSM</text>
</g>
<g id="clust2" class="cluster">
<title>cluster_VLSM_Core</title>
<polygon fill="#ffffa3" stroke="black" points="16,-18.23 16,-795.08 1663,-795.08 1663,-18.23 16,-18.23"/>
<text text-anchor="middle" x="37.5" y="-779.88" font-family="Times,serif" font-size="14.00">Core</text>
</g>
<g id="clust3" class="cluster">
<title>cluster_VLSM_Core_Plans</title>
<polygon fill="#ffff83" stroke="black" points="24,-27.34 24,-759.76 1655,-759.76 1655,-27.34 24,-27.34"/>
<text text-anchor="middle" x="47" y="-744.56" font-family="Times,serif" font-size="14.00">Plans</text>
</g>
<!-- VLSM_Core_Plans_plan_independence -->
<g id="node1" class="node">
<title>VLSM_Core_Plans_plan_independence</title>
<g id="a_node1"><a xlink:href="VLSM.Core.Plans.html#plan_independence" xlink:title="plan_independence" target="_top">
<ellipse fill="#7fffd4" stroke="black" cx="1182" cy="-594.11" rx="78.77" ry="18"/>
<ellipse fill="none" stroke="black" cx="1182" cy="-594.11" rx="82.78" ry="22"/>
<ellipse fill="none" stroke="black" cx="1182" cy="-594.11" rx="86.79" ry="26"/>
<text text-anchor="middle" x="1182" y="-590.41" font-family="Times,serif" font-size="14.00">plan_independence</text>
</a>
</g>
</g>
<!-- VLSM_Core_Plans_ensures -->
<g id="node2" class="node">
<title>VLSM_Core_Plans_ensures</title>
<g id="a_node2"><a xlink:href="VLSM.Core.Plans.html#ensures" xlink:title="ensures" target="_top">
<ellipse fill="#f070d1" stroke="black" cx="1254" cy="-494.11" rx="37.09" ry="18"/>
<text text-anchor="middle" x="1254" y="-490.41" font-family="Times,serif" font-size="14.00">ensures</text>
</a>
</g>
</g>
<!-- VLSM_Core_Plans_plan_independence&#45;&gt;VLSM_Core_Plans_ensures -->
<g id="edge1" class="edge">
<title>VLSM_Core_Plans_plan_independence&#45;&gt;VLSM_Core_Plans_ensures</title>
<path fill="none" stroke="black" d="M1199.98,-568.64C1210.99,-553.66 1225.01,-534.57 1236.02,-519.59"/>
<polygon fill="black" stroke="black" points="1239,-521.44 1242.1,-511.31 1233.36,-517.3 1239,-521.44"/>
</g>
<!-- VLSM_Core_Plans_preserves -->
<g id="node3" class="node">
<title>VLSM_Core_Plans_preserves</title>
<g id="a_node3"><a xlink:href="VLSM.Core.Plans.html#preserves" xlink:title="preserves" target="_top">
<ellipse fill="#f070d1" stroke="black" cx="1583" cy="-494.11" rx="44.39" ry="18"/>
<text text-anchor="middle" x="1583" y="-490.41" font-family="Times,serif" font-size="14.00">preserves</text>
</a>
</g>
</g>
<!-- VLSM_Core_Plans_plan_independence&#45;&gt;VLSM_Core_Plans_preserves -->
<g id="edge2" class="edge">
<title>VLSM_Core_Plans_plan_independence&#45;&gt;VLSM_Core_Plans_preserves</title>
<path fill="none" stroke="black" d="M1259.13,-582.03C1330.33,-570.59 1438.44,-550.17 1529,-520.11 1535.11,-518.08 1541.45,-515.56 1547.54,-512.9"/>
<polygon fill="black" stroke="black" points="1549.19,-516 1556.84,-508.67 1546.29,-509.63 1549.19,-516"/>
</g>
<!-- VLSM_Core_Plans_apply_plan_last_valid -->
<g id="node9" class="node">
<title>VLSM_Core_Plans_apply_plan_last_valid</title>
<g id="a_node9"><a xlink:href="VLSM.Core.Plans.html#apply_plan_last_valid" xlink:title="apply_plan_last_valid" target="_top">
<ellipse fill="#7fffd4" stroke="black" cx="1111" cy="-494.11" rx="88.28" ry="18"/>
<text text-anchor="middle" x="1111" y="-490.41" font-family="Times,serif" font-size="14.00">apply_plan_last_valid</text>
</a>
</g>
</g>
<!-- VLSM_Core_Plans_plan_independence&#45;&gt;VLSM_Core_Plans_apply_plan_last_valid -->
<g id="edge3" class="edge">
<title>VLSM_Core_Plans_plan_independence&#45;&gt;VLSM_Core_Plans_apply_plan_last_valid</title>
<path fill="none" stroke="black" d="M1164.27,-568.64C1153.62,-553.94 1140.11,-535.29 1129.36,-520.45"/>
<polygon fill="black" stroke="black" points="1132.09,-518.25 1123.39,-512.21 1126.42,-522.36 1132.09,-518.25"/>
</g>
<!-- VLSM_Core_Plans_finite_valid_plan_from_app_iff -->
<g id="node11" class="node">
<title>VLSM_Core_Plans_finite_valid_plan_from_app_iff</title>
<g id="a_node11"><a xlink:href="VLSM.Core.Plans.html#finite_valid_plan_from_app_iff" xlink:title="finite_valid_plan_from_app_iff" target="_top">
<ellipse fill="#7fffd4" stroke="black" cx="882" cy="-494.11" rx="122.38" ry="18"/>
<text text-anchor="middle" x="882" y="-490.41" font-family="Times,serif" font-size="14.00">finite_valid_plan_from_app_iff</text>
</a>
</g>
</g>
<!-- VLSM_Core_Plans_plan_independence&#45;&gt;VLSM_Core_Plans_finite_valid_plan_from_app_iff -->
<g id="edge4" class="edge">
<title>VLSM_Core_Plans_plan_independence&#45;&gt;VLSM_Core_Plans_finite_valid_plan_from_app_iff</title>
<path fill="none" stroke="black" d="M1124.87,-574.45C1071.73,-557.09 992.97,-531.36 939.66,-513.95"/>
<polygon fill="black" stroke="black" points="940.61,-510.58 930.02,-510.8 938.44,-517.23 940.61,-510.58"/>
</g>
<!-- VLSM_Core_Plans_finite_valid_plan_from -->
<g id="node12" class="node">
<title>VLSM_Core_Plans_finite_valid_plan_from</title>
<g id="a_node12"><a xlink:href="VLSM.Core.Plans.html#finite_valid_plan_from" xlink:title="finite_valid_plan_from" target="_top">
<ellipse fill="#f070d1" stroke="black" cx="1210" cy="-394.11" rx="92.88" ry="18"/>
<text text-anchor="middle" x="1210" y="-390.41" font-family="Times,serif" font-size="14.00">finite_valid_plan_from</text>
</a>
</g>
</g>
<!-- VLSM_Core_Plans_ensures&#45;&gt;VLSM_Core_Plans_finite_valid_plan_from -->
<g id="edge5" class="edge">
<title>VLSM_Core_Plans_ensures&#45;&gt;VLSM_Core_Plans_finite_valid_plan_from</title>
<path fill="none" stroke="black" d="M1246.34,-476.04C1239.63,-461.1 1229.77,-439.13 1222.01,-421.86"/>
<polygon fill="black" stroke="black" points="1225.01,-420.01 1217.72,-412.32 1218.63,-422.87 1225.01,-420.01"/>
</g>
<!-- VLSM_Core_Plans_preserves&#45;&gt;VLSM_Core_Plans_finite_valid_plan_from -->
<g id="edge6" class="edge">
<title>VLSM_Core_Plans_preserves&#45;&gt;VLSM_Core_Plans_finite_valid_plan_from</title>
<path fill="none" stroke="black" d="M1556.53,-479.52C1547.91,-475.46 1538.19,-471.25 1529,-468.11 1448.75,-440.69 1353.64,-420.43 1288.27,-408.3"/>
<polygon fill="black" stroke="black" points="1288.51,-404.79 1278.04,-406.42 1287.25,-411.67 1288.51,-404.79"/>
</g>
<!-- VLSM_Core_Plans_finite_valid_plan_from_one -->
<g id="node4" class="node">
<title>VLSM_Core_Plans_finite_valid_plan_from_one</title>
<g id="a_node4"><a xlink:href="VLSM.Core.Plans.html#finite_valid_plan_from_one" xlink:title="finite_valid_plan_from_one" target="_top">
<ellipse fill="#7fffd4" stroke="black" cx="338" cy="-494.11" rx="109.69" ry="18"/>
<ellipse fill="none" stroke="black" cx="338" cy="-494.11" rx="113.69" ry="22"/>
<ellipse fill="none" stroke="black" cx="338" cy="-494.11" rx="117.68" ry="26"/>
<text text-anchor="middle" x="338" y="-490.41" font-family="Times,serif" font-size="14.00">finite_valid_plan_from_one</text>
</a>
</g>
</g>
<!-- VLSM_Core_Plans_finite_valid_plan_from_one&#45;&gt;VLSM_Core_Plans_finite_valid_plan_from -->
<g id="edge7" class="edge">
<title>VLSM_Core_Plans_finite_valid_plan_from_one&#45;&gt;VLSM_Core_Plans_finite_valid_plan_from</title>
<path fill="none" stroke="black" d="M426.03,-476.79C445.41,-473.58 465.86,-470.47 485,-468.11 760.62,-434.13 833.78,-463.98 1108,-420.11 1121.62,-417.93 1136.09,-414.86 1149.73,-411.61"/>
<polygon fill="black" stroke="black" points="1150.61,-415 1159.49,-409.22 1148.94,-408.2 1150.61,-415"/>
</g>
<!-- VLSM_Core_Plans_input_a -->
<g id="node28" class="node">
<title>VLSM_Core_Plans_input_a</title>
<g id="a_node28"><a xlink:href="VLSM.Core.Plans.html#input_a" xlink:title="input_a" target="_top">
<ellipse fill="#f070d1" stroke="black" cx="145" cy="-394.11" rx="37.09" ry="18"/>
<text text-anchor="middle" x="145" y="-390.41" font-family="Times,serif" font-size="14.00">input_a</text>
</a>
</g>
</g>
<!-- VLSM_Core_Plans_finite_valid_plan_from_one&#45;&gt;VLSM_Core_Plans_input_a -->
<g id="edge8" class="edge">
<title>VLSM_Core_Plans_finite_valid_plan_from_one&#45;&gt;VLSM_Core_Plans_input_a</title>
<path fill="none" stroke="black" d="M292.26,-469.89C257.51,-452.24 210.48,-428.36 179.01,-412.38"/>
<polygon fill="black" stroke="black" points="180.28,-409.1 169.77,-407.69 177.11,-415.34 180.28,-409.1"/>
</g>
<!-- VLSM_Core_Plans_label_a -->
<g id="node29" class="node">
<title>VLSM_Core_Plans_label_a</title>
<g id="a_node29"><a xlink:href="VLSM.Core.Plans.html#label_a" xlink:title="label_a" target="_top">
<ellipse fill="#f070d1" stroke="black" cx="344" cy="-394.11" rx="36.29" ry="18"/>
<text text-anchor="middle" x="344" y="-390.41" font-family="Times,serif" font-size="14.00">label_a</text>
</a>
</g>
</g>
<!-- VLSM_Core_Plans_finite_valid_plan_from_one&#45;&gt;VLSM_Core_Plans_label_a -->
<g id="edge9" class="edge">
<title>VLSM_Core_Plans_finite_valid_plan_from_one&#45;&gt;VLSM_Core_Plans_label_a</title>
<path fill="none" stroke="black" d="M339.55,-467.88C340.4,-453.96 341.46,-436.66 342.33,-422.43"/>
<polygon fill="black" stroke="black" points="345.83,-422.44 342.95,-412.24 338.85,-422.01 345.83,-422.44"/>
</g>
<!-- VLSM_Core_Plans_Build_plan_item -->
<g id="node30" class="node">
<title>VLSM_Core_Plans_Build_plan_item</title>
<g id="a_node30"><a xlink:href="VLSM.Core.Plans.html#Build_plan_item" xlink:title="Build_plan_item" target="_top">
<ellipse fill="#7faaff" stroke="black" cx="255" cy="-139.11" rx="70.39" ry="18"/>
<text text-anchor="middle" x="255" y="-135.41" font-family="Times,serif" font-size="14.00">Build_plan_item</text>
</a>
</g>
</g>
<!-- VLSM_Core_Plans_finite_valid_plan_from_one&#45;&gt;VLSM_Core_Plans_Build_plan_item -->
<g id="edge10" class="edge">
<title>VLSM_Core_Plans_finite_valid_plan_from_one&#45;&gt;VLSM_Core_Plans_Build_plan_item</title>
<path fill="none" stroke="black" d="M321.9,-468.04C313.84,-454.38 304.61,-436.87 299,-420.11 269.07,-330.78 259.3,-218.46 256.27,-167.5"/>
<polygon fill="black" stroke="black" points="259.76,-167.1 255.71,-157.31 252.77,-167.49 259.76,-167.1"/>
</g>
<!-- VLSM_Core_Plans_finite_valid_plan_iff -->
<g id="node5" class="node">
<title>VLSM_Core_Plans_finite_valid_plan_iff</title>
<g id="a_node5"><a xlink:href="VLSM.Core.Plans.html#finite_valid_plan_iff" xlink:title="finite_valid_plan_iff" target="_top">
<ellipse fill="#7fffd4" stroke="black" cx="309" cy="-594.11" rx="83.37" ry="18"/>
<ellipse fill="none" stroke="black" cx="309" cy="-594.11" rx="87.38" ry="22"/>
<ellipse fill="none" stroke="black" cx="309" cy="-594.11" rx="91.39" ry="26"/>
<text text-anchor="middle" x="309" y="-590.41" font-family="Times,serif" font-size="14.00">finite_valid_plan_iff</text>
</a>
</g>
</g>
<!-- VLSM_Core_Plans_finite_valid_plan_iff&#45;&gt;VLSM_Core_Plans_finite_valid_plan_from_app_iff -->
<g id="edge11" class="edge">
<title>VLSM_Core_Plans_finite_valid_plan_iff&#45;&gt;VLSM_Core_Plans_finite_valid_plan_from_app_iff</title>
<path fill="none" stroke="black" d="M387.35,-580.78C475.78,-566.71 623.89,-542.73 751,-520.11 767.33,-517.21 784.78,-513.97 801.44,-510.81"/>
<polygon fill="black" stroke="black" points="802.52,-514.17 811.69,-508.86 801.22,-507.29 802.52,-514.17"/>
</g>
<!-- VLSM_Core_Plans_finite_valid_plan_iff&#45;&gt;VLSM_Core_Plans_input_a -->
<g id="edge12" class="edge">
<title>VLSM_Core_Plans_finite_valid_plan_iff&#45;&gt;VLSM_Core_Plans_input_a</title>
<path fill="none" stroke="black" d="M262.64,-571.62C240.05,-559.22 213.96,-541.78 196,-520.11 189.4,-512.15 167.64,-455.7 154.78,-421.45"/>
<polygon fill="black" stroke="black" points="158.03,-420.16 151.25,-412.02 151.47,-422.61 158.03,-420.16"/>
</g>
<!-- VLSM_Core_Plans_finite_valid_plan_iff&#45;&gt;VLSM_Core_Plans_label_a -->
<g id="edge13" class="edge">
<title>VLSM_Core_Plans_finite_valid_plan_iff&#45;&gt;VLSM_Core_Plans_label_a</title>
<path fill="none" stroke="black" d="M380.83,-577.89C412.32,-567.26 446.3,-549.51 465,-520.11 477.4,-500.61 476.36,-488.24 465,-468.11 447.84,-437.73 412.4,-418.57 384.29,-407.55"/>
<polygon fill="black" stroke="black" points="385.28,-404.18 374.69,-403.98 382.85,-410.75 385.28,-404.18"/>
</g>
<!-- VLSM_Core_Plans_finite_valid_plan_iff&#45;&gt;VLSM_Core_Plans_Build_plan_item -->
<g id="edge14" class="edge">
<title>VLSM_Core_Plans_finite_valid_plan_iff&#45;&gt;VLSM_Core_Plans_Build_plan_item</title>
<path fill="none" stroke="black" d="M264.58,-571.29C244.7,-559.09 223.06,-541.93 211,-520.11 184.03,-471.34 201,-450.85 201,-395.11 201,-395.11 201,-395.11 201,-302.11 201,-251.87 224.66,-197.16 240.66,-165.91"/>
<polygon fill="black" stroke="black" points="243.79,-167.47 245.35,-156.99 237.6,-164.22 243.79,-167.47"/>
</g>
<!-- VLSM_Core_Plans_finite_valid_trace_from_to_plan -->
<g id="node6" class="node">
<title>VLSM_Core_Plans_finite_valid_trace_from_to_plan</title>
<g id="a_node6"><a xlink:href="VLSM.Core.Plans.html#finite_valid_trace_from_to_plan" xlink:title="finite_valid_trace_from_to_plan" target="_top">
<ellipse fill="#7fffd4" stroke="black" cx="1250" cy="-695.11" rx="125.38" ry="18"/>
<ellipse fill="none" stroke="black" cx="1250" cy="-695.11" rx="129.38" ry="22"/>
<ellipse fill="none" stroke="black" cx="1250" cy="-695.11" rx="133.38" ry="26"/>
<text text-anchor="middle" x="1250" y="-691.41" font-family="Times,serif" font-size="14.00">finite_valid_trace_from_to_plan</text>
</a>
</g>
</g>
<!-- VLSM_Core_Plans_trace_to_plan_to_trace -->
<g id="node7" class="node">
<title>VLSM_Core_Plans_trace_to_plan_to_trace</title>
<g id="a_node7"><a xlink:href="VLSM.Core.Plans.html#trace_to_plan_to_trace" xlink:title="trace_to_plan_to_trace" target="_top">
<ellipse fill="#7fffd4" stroke="black" cx="802" cy="-594.11" rx="90.98" ry="18"/>
<text text-anchor="middle" x="802" y="-590.41" font-family="Times,serif" font-size="14.00">trace_to_plan_to_trace</text>
</a>
</g>
</g>
<!-- VLSM_Core_Plans_finite_valid_trace_from_to_plan&#45;&gt;VLSM_Core_Plans_trace_to_plan_to_trace -->
<g id="edge15" class="edge">
<title>VLSM_Core_Plans_finite_valid_trace_from_to_plan&#45;&gt;VLSM_Core_Plans_trace_to_plan_to_trace</title>
<path fill="none" stroke="black" d="M1164.15,-675.14C1078.63,-656.24 949.03,-627.6 870.27,-610.2"/>
<polygon fill="black" stroke="black" points="870.97,-606.77 860.45,-608.03 869.46,-613.61 870.97,-606.77"/>
</g>
<!-- VLSM_Core_Plans_finite_valid_trace_from_to_plan&#45;&gt;VLSM_Core_Plans_finite_valid_plan_from -->
<g id="edge16" class="edge">
<title>VLSM_Core_Plans_finite_valid_trace_from_to_plan&#45;&gt;VLSM_Core_Plans_finite_valid_plan_from</title>
<path fill="none" stroke="black" d="M1344.84,-676.77C1486.77,-646.78 1728.42,-577.72 1636,-468.11 1595.33,-419.88 1424.25,-403.51 1311.65,-397.96"/>
<polygon fill="black" stroke="black" points="1311.78,-394.46 1301.62,-397.49 1311.45,-401.46 1311.78,-394.46"/>
</g>
<!-- VLSM_Core_Plans_trace_to_plan_to_trace_from_to -->
<g id="node8" class="node">
<title>VLSM_Core_Plans_trace_to_plan_to_trace_from_to</title>
<g id="a_node8"><a xlink:href="VLSM.Core.Plans.html#trace_to_plan_to_trace_from_to" xlink:title="trace_to_plan_to_trace_from_to" target="_top">
<ellipse fill="#7fffd4" stroke="black" cx="618" cy="-494.11" rx="124.28" ry="18"/>
<text text-anchor="middle" x="618" y="-490.41" font-family="Times,serif" font-size="14.00">trace_to_plan_to_trace_from_to</text>
</a>
</g>
</g>
<!-- VLSM_Core_Plans_trace_to_plan_to_trace&#45;&gt;VLSM_Core_Plans_trace_to_plan_to_trace_from_to -->
<g id="edge17" class="edge">
<title>VLSM_Core_Plans_trace_to_plan_to_trace&#45;&gt;VLSM_Core_Plans_trace_to_plan_to_trace_from_to</title>
<path fill="none" stroke="black" d="M771.62,-576.93C740.64,-560.43 692.42,-534.75 658.27,-516.56"/>
<polygon fill="black" stroke="black" points="659.52,-513.26 649.04,-511.65 656.22,-519.44 659.52,-513.26"/>
</g>
<!-- VLSM_Core_Plans_apply_plan_app -->
<g id="node14" class="node">
<title>VLSM_Core_Plans_apply_plan_app</title>
<g id="a_node14"><a xlink:href="VLSM.Core.Plans.html#apply_plan_app" xlink:title="apply_plan_app" target="_top">
<ellipse fill="#7fffd4" stroke="black" cx="882" cy="-394.11" rx="66.89" ry="18"/>
<text text-anchor="middle" x="882" y="-390.41" font-family="Times,serif" font-size="14.00">apply_plan_app</text>
</a>
</g>
</g>
<!-- VLSM_Core_Plans_trace_to_plan_to_trace_from_to&#45;&gt;VLSM_Core_Plans_apply_plan_app -->
<g id="edge18" class="edge">
<title>VLSM_Core_Plans_trace_to_plan_to_trace_from_to&#45;&gt;VLSM_Core_Plans_apply_plan_app</title>
<path fill="none" stroke="black" d="M661,-477.15C708.67,-459.45 785.32,-431 834.67,-412.68"/>
<polygon fill="black" stroke="black" points="836,-415.92 844.15,-409.16 833.56,-409.36 836,-415.92"/>
</g>
<!-- VLSM_Core_Plans_trace_to_plan -->
<g id="node15" class="node">
<title>VLSM_Core_Plans_trace_to_plan</title>
<g id="a_node15"><a xlink:href="VLSM.Core.Plans.html#trace_to_plan" xlink:title="trace_to_plan" target="_top">
<ellipse fill="#f070d1" stroke="black" cx="537" cy="-394.11" rx="58.49" ry="18"/>
<text text-anchor="middle" x="537" y="-390.41" font-family="Times,serif" font-size="14.00">trace_to_plan</text>
</a>
</g>
</g>
<!-- VLSM_Core_Plans_trace_to_plan_to_trace_from_to&#45;&gt;VLSM_Core_Plans_trace_to_plan -->
<g id="edge19" class="edge">
<title>VLSM_Core_Plans_trace_to_plan_to_trace_from_to&#45;&gt;VLSM_Core_Plans_trace_to_plan</title>
<path fill="none" stroke="black" d="M603.89,-476.04C591.04,-460.49 571.9,-437.34 557.38,-419.78"/>
<polygon fill="black" stroke="black" points="559.75,-417.14 550.68,-411.66 554.35,-421.6 559.75,-417.14"/>
</g>
<!-- VLSM_Core_Plans_apply_plan_last_valid&#45;&gt;VLSM_Core_Plans_finite_valid_plan_from -->
<g id="edge20" class="edge">
<title>VLSM_Core_Plans_apply_plan_last_valid&#45;&gt;VLSM_Core_Plans_finite_valid_plan_from</title>
<path fill="none" stroke="black" d="M1128.24,-476.04C1144.14,-460.3 1167.91,-436.78 1185.72,-419.14"/>
<polygon fill="black" stroke="black" points="1188.31,-421.51 1192.95,-411.99 1183.38,-416.53 1188.31,-421.51"/>
</g>
<!-- VLSM_Core_Plans_apply_plan_last -->
<g id="node13" class="node">
<title>VLSM_Core_Plans_apply_plan_last</title>
<g id="a_node13"><a xlink:href="VLSM.Core.Plans.html#apply_plan_last" xlink:title="apply_plan_last" target="_top">
<ellipse fill="#7fffd4" stroke="black" cx="1033" cy="-394.11" rx="66.09" ry="18"/>
<text text-anchor="middle" x="1033" y="-390.41" font-family="Times,serif" font-size="14.00">apply_plan_last</text>
</a>
</g>
</g>
<!-- VLSM_Core_Plans_apply_plan_last_valid&#45;&gt;VLSM_Core_Plans_apply_plan_last -->
<g id="edge21" class="edge">
<title>VLSM_Core_Plans_apply_plan_last_valid&#45;&gt;VLSM_Core_Plans_apply_plan_last</title>
<path fill="none" stroke="black" d="M1097.41,-476.04C1085.11,-460.58 1066.83,-437.62 1052.88,-420.1"/>
<polygon fill="black" stroke="black" points="1055.4,-417.63 1046.43,-411.99 1049.92,-421.99 1055.4,-417.63"/>
</g>
<!-- VLSM_Core_Plans_finite_valid_plan_empty -->
<g id="node10" class="node">
<title>VLSM_Core_Plans_finite_valid_plan_empty</title>
<g id="a_node10"><a xlink:href="VLSM.Core.Plans.html#finite_valid_plan_empty" xlink:title="finite_valid_plan_empty" target="_top">
<ellipse fill="#7fffd4" stroke="black" cx="1415" cy="-494.11" rx="97.48" ry="18"/>
<ellipse fill="none" stroke="black" cx="1415" cy="-494.11" rx="101.48" ry="22"/>
<ellipse fill="none" stroke="black" cx="1415" cy="-494.11" rx="105.48" ry="26"/>
<text text-anchor="middle" x="1415" y="-490.41" font-family="Times,serif" font-size="14.00">finite_valid_plan_empty</text>
</a>
</g>
</g>
<!-- VLSM_Core_Plans_finite_valid_plan_empty&#45;&gt;VLSM_Core_Plans_finite_valid_plan_from -->
<g id="edge22" class="edge">
<title>VLSM_Core_Plans_finite_valid_plan_empty&#45;&gt;VLSM_Core_Plans_finite_valid_plan_from</title>
<path fill="none" stroke="black" d="M1368.23,-470.75C1333.34,-454.07 1286.07,-431.48 1252.31,-415.34"/>
<polygon fill="black" stroke="black" points="1253.69,-412.12 1243.16,-410.97 1250.67,-418.44 1253.69,-412.12"/>
</g>
<!-- VLSM_Core_Plans_finite_valid_plan_from_app_iff&#45;&gt;VLSM_Core_Plans_finite_valid_plan_from -->
<g id="edge23" class="edge">
<title>VLSM_Core_Plans_finite_valid_plan_from_app_iff&#45;&gt;VLSM_Core_Plans_finite_valid_plan_from</title>
<path fill="none" stroke="black" d="M933.61,-477.69C992.95,-459.96 1090.11,-430.93 1152.01,-412.44"/>
<polygon fill="black" stroke="black" points="1153.05,-415.78 1161.63,-409.57 1151.04,-409.07 1153.05,-415.78"/>
</g>
<!-- VLSM_Core_Plans_finite_valid_plan_from_app_iff&#45;&gt;VLSM_Core_Plans_apply_plan_last -->
<g id="edge24" class="edge">
<title>VLSM_Core_Plans_finite_valid_plan_from_app_iff&#45;&gt;VLSM_Core_Plans_apply_plan_last</title>
<path fill="none" stroke="black" d="M907.62,-476.49C933.05,-459.98 972.16,-434.6 999.93,-416.58"/>
<polygon fill="black" stroke="black" points="1002.03,-419.39 1008.51,-411.01 998.22,-413.51 1002.03,-419.39"/>
</g>
<!-- VLSM_Core_Plans_finite_valid_plan_from_app_iff&#45;&gt;VLSM_Core_Plans_apply_plan_app -->
<g id="edge25" class="edge">
<title>VLSM_Core_Plans_finite_valid_plan_from_app_iff&#45;&gt;VLSM_Core_Plans_apply_plan_app</title>
<path fill="none" stroke="black" d="M882,-476.04C882,-461.24 882,-439.54 882,-422.34"/>
<polygon fill="black" stroke="black" points="885.5,-422.32 882,-412.32 878.5,-422.32 885.5,-422.32"/>
</g>
<!-- VLSM_Core_Plans_apply_plan -->
<g id="node16" class="node">
<title>VLSM_Core_Plans_apply_plan</title>
<g id="a_node16"><a xlink:href="VLSM.Core.Plans.html#apply_plan" xlink:title="apply_plan" target="_top">
<ellipse fill="#f070d1" stroke="black" cx="1033" cy="-303.11" rx="50.09" ry="18"/>
<text text-anchor="middle" x="1033" y="-299.41" font-family="Times,serif" font-size="14.00">apply_plan</text>
</a>
</g>
</g>
<!-- VLSM_Core_Plans_finite_valid_plan_from&#45;&gt;VLSM_Core_Plans_apply_plan -->
<g id="edge26" class="edge">
<title>VLSM_Core_Plans_finite_valid_plan_from&#45;&gt;VLSM_Core_Plans_apply_plan</title>
<path fill="none" stroke="black" d="M1177.95,-377C1147.57,-361.72 1101.97,-338.79 1070.05,-322.74"/>
<polygon fill="black" stroke="black" points="1071.53,-319.57 1061.03,-318.2 1068.39,-325.82 1071.53,-319.57"/>
</g>
<!-- VLSM_Core_Plans_plan -->
<g id="node17" class="node">
<title>VLSM_Core_Plans_plan</title>
<g id="a_node17"><a xlink:href="VLSM.Core.Plans.html#plan" xlink:title="plan" target="_top">
<ellipse fill="#f070d1" stroke="black" cx="1128" cy="-303.11" rx="27" ry="18"/>
<text text-anchor="middle" x="1128" y="-299.41" font-family="Times,serif" font-size="14.00">plan</text>
</a>
</g>
</g>
<!-- VLSM_Core_Plans_finite_valid_plan_from&#45;&gt;VLSM_Core_Plans_plan -->
<g id="edge27" class="edge">
<title>VLSM_Core_Plans_finite_valid_plan_from&#45;&gt;VLSM_Core_Plans_plan</title>
<path fill="none" stroke="black" d="M1194.19,-375.95C1181.19,-361.84 1162.68,-341.75 1148.53,-326.4"/>
<polygon fill="black" stroke="black" points="1150.94,-323.84 1141.59,-318.86 1145.79,-328.59 1150.94,-323.84"/>
</g>
<!-- VLSM_Core_Plans_apply_plan_last&#45;&gt;VLSM_Core_Plans_apply_plan -->
<g id="edge28" class="edge">
<title>VLSM_Core_Plans_apply_plan_last&#45;&gt;VLSM_Core_Plans_apply_plan</title>
<path fill="none" stroke="black" d="M1033,-375.95C1033,-363.39 1033,-346.09 1033,-331.61"/>
<polygon fill="black" stroke="black" points="1036.5,-331.22 1033,-321.22 1029.5,-331.22 1036.5,-331.22"/>
</g>
<!-- VLSM_Core_Plans_apply_plan_last&#45;&gt;VLSM_Core_Plans_plan -->
<g id="edge29" class="edge">
<title>VLSM_Core_Plans_apply_plan_last&#45;&gt;VLSM_Core_Plans_plan</title>
<path fill="none" stroke="black" d="M1050.87,-376.37C1066.3,-361.92 1088.67,-340.96 1105.35,-325.33"/>
<polygon fill="black" stroke="black" points="1108.12,-327.53 1113.02,-318.14 1103.33,-322.43 1108.12,-327.53"/>
</g>
<!-- VLSM_Core_Plans__apply_plan_last -->
<g id="node24" class="node">
<title>VLSM_Core_Plans__apply_plan_last</title>
<g id="a_node24"><a xlink:href="VLSM.Core.Plans.html#_apply_plan_last" xlink:title="_apply_plan_last" target="_top">
<ellipse fill="#7fffd4" stroke="black" cx="894" cy="-303.11" rx="70.69" ry="18"/>
<text text-anchor="middle" x="894" y="-299.41" font-family="Times,serif" font-size="14.00">_apply_plan_last</text>
</a>
</g>
</g>
<!-- VLSM_Core_Plans_apply_plan_last&#45;&gt;VLSM_Core_Plans__apply_plan_last -->
<g id="edge30" class="edge">
<title>VLSM_Core_Plans_apply_plan_last&#45;&gt;VLSM_Core_Plans__apply_plan_last</title>
<path fill="none" stroke="black" d="M1008.15,-377.2C985.76,-362.86 952.64,-341.66 927.83,-325.77"/>
<polygon fill="black" stroke="black" points="929.41,-322.63 919.1,-320.19 925.64,-328.53 929.41,-322.63"/>
</g>
<!-- VLSM_Core_Plans_apply_plan_app&#45;&gt;VLSM_Core_Plans_apply_plan -->
<g id="edge31" class="edge">
<title>VLSM_Core_Plans_apply_plan_app&#45;&gt;VLSM_Core_Plans_apply_plan</title>
<path fill="none" stroke="black" d="M908.65,-377.41C933.9,-362.52 971.94,-340.1 999.29,-323.98"/>
<polygon fill="black" stroke="black" points="1001.28,-326.87 1008.12,-318.78 997.73,-320.84 1001.28,-326.87"/>
</g>
<!-- VLSM_Core_Plans_apply_plan_app&#45;&gt;VLSM_Core_Plans_plan -->
<g id="edge32" class="edge">
<title>VLSM_Core_Plans_apply_plan_app&#45;&gt;VLSM_Core_Plans_plan</title>
<path fill="none" stroke="black" d="M922.83,-379.71C974.59,-362.62 1060.84,-333.76 1092,-321.11 1093.83,-320.37 1095.69,-319.58 1097.56,-318.77"/>
<polygon fill="black" stroke="black" points="1099.18,-321.88 1106.85,-314.58 1096.3,-315.5 1099.18,-321.88"/>
</g>
<!-- VLSM_Core_Plans__apply_plan_app -->
<g id="node23" class="node">
<title>VLSM_Core_Plans__apply_plan_app</title>
<g id="a_node23"><a xlink:href="VLSM.Core.Plans.html#_apply_plan_app" xlink:title="_apply_plan_app" target="_top">
<ellipse fill="#7fffd4" stroke="black" cx="734" cy="-303.11" rx="71.49" ry="18"/>
<text text-anchor="middle" x="734" y="-299.41" font-family="Times,serif" font-size="14.00">_apply_plan_app</text>
</a>
</g>
</g>
<!-- VLSM_Core_Plans_apply_plan_app&#45;&gt;VLSM_Core_Plans__apply_plan_app -->
<g id="edge33" class="edge">
<title>VLSM_Core_Plans_apply_plan_app&#45;&gt;VLSM_Core_Plans__apply_plan_app</title>
<path fill="none" stroke="black" d="M855.88,-377.41C831.73,-362.88 795.64,-341.18 769,-325.16"/>
<polygon fill="black" stroke="black" points="770.73,-322.12 760.36,-319.96 767.12,-328.11 770.73,-322.12"/>
</g>
<!-- VLSM_Core_Plans__trace_to_plan -->
<g id="node20" class="node">
<title>VLSM_Core_Plans__trace_to_plan</title>
<g id="a_node20"><a xlink:href="VLSM.Core.Plans.html#_trace_to_plan" xlink:title="_trace_to_plan" target="_top">
<ellipse fill="#f070d1" stroke="black" cx="501" cy="-303.11" rx="63.09" ry="18"/>
<text text-anchor="middle" x="501" y="-299.41" font-family="Times,serif" font-size="14.00">_trace_to_plan</text>
</a>
</g>
</g>
<!-- VLSM_Core_Plans_trace_to_plan&#45;&gt;VLSM_Core_Plans__trace_to_plan -->
<g id="edge34" class="edge">
<title>VLSM_Core_Plans_trace_to_plan&#45;&gt;VLSM_Core_Plans__trace_to_plan</title>
<path fill="none" stroke="black" d="M530.06,-375.95C524.88,-363.15 517.71,-345.41 511.78,-330.77"/>
<polygon fill="black" stroke="black" points="514.91,-329.18 507.92,-321.22 508.43,-331.8 514.91,-329.18"/>
</g>
<!-- VLSM_Core_Plans__apply_plan -->
<g id="node25" class="node">
<title>VLSM_Core_Plans__apply_plan</title>
<g id="a_node25"><a xlink:href="VLSM.Core.Plans.html#_apply_plan" xlink:title="_apply_plan" target="_top">
<ellipse fill="#f070d1" stroke="black" cx="918" cy="-221.11" rx="53.89" ry="18"/>
<text text-anchor="middle" x="918" y="-217.41" font-family="Times,serif" font-size="14.00">_apply_plan</text>
</a>
</g>
</g>
<!-- VLSM_Core_Plans_apply_plan&#45;&gt;VLSM_Core_Plans__apply_plan -->
<g id="edge35" class="edge">
<title>VLSM_Core_Plans_apply_plan&#45;&gt;VLSM_Core_Plans__apply_plan</title>
<path fill="none" stroke="black" d="M1011.1,-286.88C993.39,-274.56 968.25,-257.07 948.55,-243.37"/>
<polygon fill="black" stroke="black" points="950.42,-240.4 940.21,-237.56 946.42,-246.15 950.42,-240.4"/>
</g>
<!-- VLSM_Core_Plans_vplan_item -->
<g id="node18" class="node">
<title>VLSM_Core_Plans_vplan_item</title>
<g id="a_node18"><a xlink:href="VLSM.Core.Plans.html#vplan_item" xlink:title="vplan_item" target="_top">
<ellipse fill="#f070d1" stroke="black" cx="1005" cy="-139.11" rx="50.89" ry="18"/>
<text text-anchor="middle" x="1005" y="-135.41" font-family="Times,serif" font-size="14.00">vplan_item</text>
</a>
</g>
</g>
<!-- VLSM_Core_Plans_plan&#45;&gt;VLSM_Core_Plans_vplan_item -->
<g id="edge36" class="edge">
<title>VLSM_Core_Plans_plan&#45;&gt;VLSM_Core_Plans_vplan_item</title>
<path fill="none" stroke="black" d="M1116.21,-286.58C1094.81,-258.4 1049.44,-198.64 1023.75,-164.81"/>
<polygon fill="black" stroke="black" points="1026.51,-162.65 1017.67,-156.8 1020.93,-166.88 1026.51,-162.65"/>
</g>
<!-- VLSM_Core_Plans_plan_item -->
<g id="node31" class="node">
<title>VLSM_Core_Plans_plan_item</title>
<g id="a_node31"><a xlink:href="VLSM.Core.Plans.html#plan_item" xlink:title="plan_item" target="_top">
<ellipse fill="#e2cdfa" stroke="black" cx="483" cy="-57.11" rx="46.29" ry="18"/>
<text text-anchor="middle" x="483" y="-53.41" font-family="Times,serif" font-size="14.00">plan_item</text>
</a>
</g>
</g>
<!-- VLSM_Core_Plans_vplan_item&#45;&gt;VLSM_Core_Plans_plan_item -->
<g id="edge37" class="edge">
<title>VLSM_Core_Plans_vplan_item&#45;&gt;VLSM_Core_Plans_plan_item</title>
<path fill="none" stroke="black" d="M959.13,-131.08C862.32,-116.25 637.63,-81.81 535.37,-66.14"/>
<polygon fill="black" stroke="black" points="535.69,-62.65 525.28,-64.59 534.63,-69.57 535.69,-62.65"/>
</g>
<!-- VLSM_Core_Plans__messages_a -->
<g id="node19" class="node">
<title>VLSM_Core_Plans__messages_a</title>
<g id="a_node19"><a xlink:href="VLSM.Core.Plans.html#_messages_a" xlink:title="_messages_a" target="_top">
<ellipse fill="#f070d1" stroke="black" cx="97" cy="-494.11" rx="57.37" ry="18"/>
<ellipse fill="none" stroke="black" cx="97" cy="-494.11" rx="61.38" ry="22"/>
<ellipse fill="none" stroke="black" cx="97" cy="-494.11" rx="65.39" ry="26"/>
<text text-anchor="middle" x="97" y="-490.41" font-family="Times,serif" font-size="14.00">_messages_a</text>
</a>
</g>
</g>
<!-- VLSM_Core_Plans__messages_a&#45;&gt;VLSM_Core_Plans_input_a -->
<g id="edge38" class="edge">
<title>VLSM_Core_Plans__messages_a&#45;&gt;VLSM_Core_Plans_input_a</title>
<path fill="none" stroke="black" d="M109.11,-468.38C116.22,-453.87 125.19,-435.56 132.38,-420.87"/>
<polygon fill="black" stroke="black" points="135.56,-422.34 136.82,-411.82 129.27,-419.26 135.56,-422.34"/>
</g>
<!-- VLSM_Core_Plans__transition_item_to_plan_item -->
<g id="node21" class="node">
<title>VLSM_Core_Plans__transition_item_to_plan_item</title>
<g id="a_node21"><a xlink:href="VLSM.Core.Plans.html#_transition_item_to_plan_item" xlink:title="_transition_item_to_plan_item" target="_top">
<ellipse fill="#f070d1" stroke="black" cx="483" cy="-221.11" rx="120.48" ry="18"/>
<text text-anchor="middle" x="483" y="-217.41" font-family="Times,serif" font-size="14.00">_transition_item_to_plan_item</text>
</a>
</g>
</g>
<!-- VLSM_Core_Plans__trace_to_plan&#45;&gt;VLSM_Core_Plans__transition_item_to_plan_item -->
<g id="edge39" class="edge">
<title>VLSM_Core_Plans__trace_to_plan&#45;&gt;VLSM_Core_Plans__transition_item_to_plan_item</title>
<path fill="none" stroke="black" d="M497.09,-284.75C494.74,-274.3 491.7,-260.78 489.04,-248.97"/>
<polygon fill="black" stroke="black" points="492.45,-248.15 486.84,-239.16 485.62,-249.69 492.45,-248.15"/>
</g>
<!-- VLSM_Core_Plans__transition_item_to_plan_item&#45;&gt;VLSM_Core_Plans_Build_plan_item -->
<g id="edge40" class="edge">
<title>VLSM_Core_Plans__transition_item_to_plan_item&#45;&gt;VLSM_Core_Plans_Build_plan_item</title>
<path fill="none" stroke="black" d="M438.23,-204.4C399.65,-190.87 344.05,-171.36 304.23,-157.39"/>
<polygon fill="black" stroke="black" points="305.31,-154.06 294.72,-154.05 302.99,-160.66 305.31,-154.06"/>
</g>
<!-- VLSM_Core_Plans__transition_item_to_plan_item&#45;&gt;VLSM_Core_Plans_plan_item -->
<g id="edge41" class="edge">
<title>VLSM_Core_Plans__transition_item_to_plan_item&#45;&gt;VLSM_Core_Plans_plan_item</title>
<path fill="none" stroke="black" d="M483,-203.08C483,-175.08 483,-119.08 483,-85.46"/>
<polygon fill="black" stroke="black" points="486.5,-85.4 483,-75.4 479.5,-85.4 486.5,-85.4"/>
</g>
<!-- VLSM_Core_Plans__apply_plan_cons -->
<g id="node22" class="node">
<title>VLSM_Core_Plans__apply_plan_cons</title>
<g id="a_node22"><a xlink:href="VLSM.Core.Plans.html#_apply_plan_cons" xlink:title="_apply_plan_cons" target="_top">
<ellipse fill="#7fffd4" stroke="black" cx="714" cy="-394.11" rx="74.96" ry="18"/>
<ellipse fill="none" stroke="black" cx="714" cy="-394.11" rx="78.98" ry="22"/>
<ellipse fill="none" stroke="black" cx="714" cy="-394.11" rx="82.99" ry="26"/>
<text text-anchor="middle" x="714" y="-390.41" font-family="Times,serif" font-size="14.00">_apply_plan_cons</text>
</a>
</g>
</g>
<!-- VLSM_Core_Plans__apply_plan_cons&#45;&gt;VLSM_Core_Plans__apply_plan_app -->
<g id="edge42" class="edge">
<title>VLSM_Core_Plans__apply_plan_cons&#45;&gt;VLSM_Core_Plans__apply_plan_app</title>
<path fill="none" stroke="black" d="M719.68,-367.85C722.24,-356.44 725.28,-342.94 727.89,-331.31"/>
<polygon fill="black" stroke="black" points="731.37,-331.79 730.15,-321.26 724.54,-330.25 731.37,-331.79"/>
</g>
<!-- VLSM_Core_Plans__apply_plan_app&#45;&gt;VLSM_Core_Plans__apply_plan -->
<g id="edge43" class="edge">
<title>VLSM_Core_Plans__apply_plan_app&#45;&gt;VLSM_Core_Plans__apply_plan</title>
<path fill="none" stroke="black" d="M768.18,-287.25C799.01,-273.85 844.43,-254.1 877.16,-239.87"/>
<polygon fill="black" stroke="black" points="878.69,-243.02 886.46,-235.82 875.9,-236.6 878.69,-243.02"/>
</g>
<!-- VLSM_Core_Plans__apply_plan_folder_additive -->
<g id="node26" class="node">
<title>VLSM_Core_Plans__apply_plan_folder_additive</title>
<g id="a_node26"><a xlink:href="VLSM.Core.Plans.html#_apply_plan_folder_additive" xlink:title="_apply_plan_folder_additive" target="_top">
<ellipse fill="#7fffd4" stroke="black" cx="734" cy="-221.11" rx="112.38" ry="18"/>
<text text-anchor="middle" x="734" y="-217.41" font-family="Times,serif" font-size="14.00">_apply_plan_folder_additive</text>
</a>
</g>
</g>
<!-- VLSM_Core_Plans__apply_plan_app&#45;&gt;VLSM_Core_Plans__apply_plan_folder_additive -->
<g id="edge44" class="edge">
<title>VLSM_Core_Plans__apply_plan_app&#45;&gt;VLSM_Core_Plans__apply_plan_folder_additive</title>
<path fill="none" stroke="black" d="M734,-284.75C734,-274.41 734,-261.05 734,-249.33"/>
<polygon fill="black" stroke="black" points="737.5,-249.16 734,-239.16 730.5,-249.16 737.5,-249.16"/>
</g>
<!-- VLSM_Core_Plans__apply_plan_last&#45;&gt;VLSM_Core_Plans__apply_plan -->
<g id="edge45" class="edge">
<title>VLSM_Core_Plans__apply_plan_last&#45;&gt;VLSM_Core_Plans__apply_plan</title>
<path fill="none" stroke="black" d="M899.09,-285.15C902.24,-274.65 906.35,-260.93 909.94,-248.98"/>
<polygon fill="black" stroke="black" points="913.4,-249.64 912.92,-239.05 906.69,-247.63 913.4,-249.64"/>
</g>
<!-- VLSM_Core_Plans__apply_plan_folder -->
<g id="node27" class="node">
<title>VLSM_Core_Plans__apply_plan_folder</title>
<g id="a_node27"><a xlink:href="VLSM.Core.Plans.html#_apply_plan_folder" xlink:title="_apply_plan_folder" target="_top">
<ellipse fill="#f070d1" stroke="black" cx="734" cy="-139.11" rx="79.09" ry="18"/>
<text text-anchor="middle" x="734" y="-135.41" font-family="Times,serif" font-size="14.00">_apply_plan_folder</text>
</a>
</g>
</g>
<!-- VLSM_Core_Plans__apply_plan&#45;&gt;VLSM_Core_Plans__apply_plan_folder -->
<g id="edge46" class="edge">
<title>VLSM_Core_Plans__apply_plan&#45;&gt;VLSM_Core_Plans__apply_plan_folder</title>
<path fill="none" stroke="black" d="M886.37,-206.36C856.63,-193.43 811.82,-173.95 778.49,-159.45"/>
<polygon fill="black" stroke="black" points="779.54,-156.1 768.98,-155.32 776.75,-162.52 779.54,-156.1"/>
</g>
<!-- VLSM_Core_Plans__apply_plan_folder_additive&#45;&gt;VLSM_Core_Plans__apply_plan_folder -->
<g id="edge47" class="edge">
<title>VLSM_Core_Plans__apply_plan_folder_additive&#45;&gt;VLSM_Core_Plans__apply_plan_folder</title>
<path fill="none" stroke="black" d="M734,-202.75C734,-192.41 734,-179.05 734,-167.33"/>
<polygon fill="black" stroke="black" points="737.5,-167.16 734,-157.16 730.5,-167.16 737.5,-167.16"/>
</g>
<!-- VLSM_Core_Plans__apply_plan_folder&#45;&gt;VLSM_Core_Plans_plan_item -->
<g id="edge48" class="edge">
<title>VLSM_Core_Plans__apply_plan_folder&#45;&gt;VLSM_Core_Plans_plan_item</title>
<path fill="none" stroke="black" d="M689.99,-124.09C644.28,-109.52 573.15,-86.85 527.32,-72.24"/>
<polygon fill="black" stroke="black" points="528.25,-68.86 517.66,-69.16 526.12,-75.53 528.25,-68.86"/>
</g>
<!-- VLSM_Core_Plans_input_a&#45;&gt;VLSM_Core_Plans_plan_item -->
<g id="edge49" class="edge">
<title>VLSM_Core_Plans_input_a&#45;&gt;VLSM_Core_Plans_plan_item</title>
<path fill="none" stroke="black" d="M140.9,-376.05C130.62,-328.67 109.11,-194.23 176,-121.11 209.17,-84.85 348.39,-68.4 427.47,-61.85"/>
<polygon fill="black" stroke="black" points="428.06,-65.31 437.75,-61.03 427.5,-58.34 428.06,-65.31"/>
</g>
<!-- VLSM_Core_Plans_label_a&#45;&gt;VLSM_Core_Plans_plan_item -->
<g id="edge50" class="edge">
<title>VLSM_Core_Plans_label_a&#45;&gt;VLSM_Core_Plans_plan_item</title>
<path fill="none" stroke="black" d="M341.26,-376.04C336.53,-341.75 329.52,-262.69 354,-203.11 375.28,-151.33 423.27,-105.68 454.35,-80.02"/>
<polygon fill="black" stroke="black" points="456.67,-82.64 462.24,-73.63 452.26,-77.2 456.67,-82.64"/>
</g>
</g>
</svg>
