<?xml version="1.0" encoding="UTF-8" standalone="no"?>
<!DOCTYPE svg PUBLIC "-//W3C//DTD SVG 1.1//EN"
 "http://www.w3.org/Graphics/SVG/1.1/DTD/svg11.dtd">
<!-- Generated by graphviz version 2.43.0 (0)
 -->
<!-- Title: rvdpdgraph Pages: 1 -->
<svg width="1642pt" height="825pt"
 viewBox="0.00 0.00 1642.00 825.00" xmlns="http://www.w3.org/2000/svg" xmlns:xlink="http://www.w3.org/1999/xlink">
<g id="graph0" class="graph" transform="scale(1 1) rotate(0) translate(4 821)">
<title>rvdpdgraph</title>
<polygon fill="white" stroke="transparent" points="-4,4 -4,-821 1638,-821 1638,4 -4,4"/>
<g id="clust1" class="cluster">
<title>cluster_VLSM</title>
<polygon fill="#ffffc3" stroke="black" points="8,-15.09 8,-801.91 1626,-801.91 1626,-15.09 8,-15.09"/>
<text text-anchor="middle" x="35.5" y="-786.71" font-family="Times,serif" font-size="14.00">VLSM</text>
</g>
<g id="clust2" class="cluster">
<title>cluster_VLSM_Lib</title>
<polygon fill="#ffffa3" stroke="black" points="16,-30.19 16,-743.41 1618,-743.41 1618,-30.19 16,-30.19"/>
<text text-anchor="middle" x="33.5" y="-728.21" font-family="Times,serif" font-size="14.00">Lib</text>
</g>
<g id="clust3" class="cluster">
<title>cluster_VLSM_Lib_SortedLists</title>
<polygon fill="#ffff83" stroke="black" points="24,-45.28 24,-684.92 1610,-684.92 1610,-45.28 24,-45.28"/>
<text text-anchor="middle" x="63" y="-669.72" font-family="Times,serif" font-size="14.00">SortedLists</text>
</g>
<!-- VLSM_Lib_SortedLists_lsorted_pair_wise_unordered -->
<g id="node1" class="node">
<title>VLSM_Lib_SortedLists_lsorted_pair_wise_unordered</title>
<g id="a_node1"><a xlink:href="VLSM.Lib.SortedLists.html#lsorted_pair_wise_unordered" xlink:title="lsorted_pair_wise_unordered" target="_top">
<ellipse fill="#7fffd4" stroke="black" cx="1481" cy="-577.09" rx="113.17" ry="18"/>
<ellipse fill="none" stroke="black" cx="1481" cy="-577.09" rx="117.18" ry="22"/>
<ellipse fill="none" stroke="black" cx="1481" cy="-577.09" rx="121.18" ry="26"/>
<text text-anchor="middle" x="1481" y="-573.39" font-family="Times,serif" font-size="14.00">lsorted_pair_wise_unordered</text>
</a>
</g>
</g>
<!-- VLSM_Lib_SortedLists_lsorted_pairwise_ordered -->
<g id="node2" class="node">
<title>VLSM_Lib_SortedLists_lsorted_pairwise_ordered</title>
<g id="a_node2"><a xlink:href="VLSM.Lib.SortedLists.html#lsorted_pairwise_ordered" xlink:title="lsorted_pairwise_ordered" target="_top">
<ellipse fill="#7fffd4" stroke="black" cx="1502" cy="-411.09" rx="100.18" ry="18"/>
<text text-anchor="middle" x="1502" y="-407.39" font-family="Times,serif" font-size="14.00">lsorted_pairwise_ordered</text>
</a>
</g>
</g>
<!-- VLSM_Lib_SortedLists_lsorted_pair_wise_unordered&#45;&gt;VLSM_Lib_SortedLists_lsorted_pairwise_ordered -->
<g id="edge1" class="edge">
<title>VLSM_Lib_SortedLists_lsorted_pair_wise_unordered&#45;&gt;VLSM_Lib_SortedLists_lsorted_pairwise_ordered</title>
<path fill="none" stroke="black" d="M1484.24,-550.83C1488.1,-520.61 1494.56,-470.22 1498.53,-439.21"/>
<polygon fill="black" stroke="black" points="1502.02,-439.47 1499.82,-429.11 1495.08,-438.58 1502.02,-439.47"/>
</g>
<!-- VLSM_Lib_SortedLists_lsorted_app -->
<g id="node3" class="node">
<title>VLSM_Lib_SortedLists_lsorted_app</title>
<g id="a_node3"><a xlink:href="VLSM.Lib.SortedLists.html#lsorted_app" xlink:title="lsorted_app" target="_top">
<ellipse fill="#7fffd4" stroke="black" cx="1550" cy="-245.09" rx="51.99" ry="18"/>
<text text-anchor="middle" x="1550" y="-241.39" font-family="Times,serif" font-size="14.00">lsorted_app</text>
</a>
</g>
</g>
<!-- VLSM_Lib_SortedLists_lsorted_pairwise_ordered&#45;&gt;VLSM_Lib_SortedLists_lsorted_app -->
<g id="edge2" class="edge">
<title>VLSM_Lib_SortedLists_lsorted_pairwise_ordered&#45;&gt;VLSM_Lib_SortedLists_lsorted_app</title>
<path fill="none" stroke="black" d="M1507.05,-392.85C1515.42,-364.23 1532.26,-306.72 1542.18,-272.81"/>
<polygon fill="black" stroke="black" points="1545.57,-273.69 1545.02,-263.1 1538.85,-271.72 1545.57,-273.69"/>
</g>
<!-- VLSM_Lib_SortedLists_set_equality_predicate -->
<g id="node4" class="node">
<title>VLSM_Lib_SortedLists_set_equality_predicate</title>
<g id="a_node4"><a xlink:href="VLSM.Lib.SortedLists.html#set_equality_predicate" xlink:title="set_equality_predicate" target="_top">
<ellipse fill="#7fffd4" stroke="black" cx="1286" cy="-411.09" rx="89.87" ry="18"/>
<ellipse fill="none" stroke="black" cx="1286" cy="-411.09" rx="93.88" ry="22"/>
<ellipse fill="none" stroke="black" cx="1286" cy="-411.09" rx="97.88" ry="26"/>
<text text-anchor="middle" x="1286" y="-407.39" font-family="Times,serif" font-size="14.00">set_equality_predicate</text>
</a>
</g>
</g>
<!-- VLSM_Lib_SortedLists_set_eq_first_equal -->
<g id="node5" class="node">
<title>VLSM_Lib_SortedLists_set_eq_first_equal</title>
<g id="a_node5"><a xlink:href="VLSM.Lib.SortedLists.html#set_eq_first_equal" xlink:title="set_eq_first_equal" target="_top">
<ellipse fill="#7fffd4" stroke="black" cx="1405" cy="-245.09" rx="75.29" ry="18"/>
<text text-anchor="middle" x="1405" y="-241.39" font-family="Times,serif" font-size="14.00">set_eq_first_equal</text>
</a>
</g>
</g>
<!-- VLSM_Lib_SortedLists_set_equality_predicate&#45;&gt;VLSM_Lib_SortedLists_set_eq_first_equal -->
<g id="edge3" class="edge">
<title>VLSM_Lib_SortedLists_set_equality_predicate&#45;&gt;VLSM_Lib_SortedLists_set_eq_first_equal</title>
<path fill="none" stroke="black" d="M1304.07,-385.19C1326.42,-354.39 1364.24,-302.26 1386.7,-271.32"/>
<polygon fill="black" stroke="black" points="1389.55,-273.34 1392.59,-263.19 1383.89,-269.23 1389.55,-273.34"/>
</g>
<!-- VLSM_Lib_SortedLists_LocallySorted_elem_of_lt -->
<g id="node7" class="node">
<title>VLSM_Lib_SortedLists_LocallySorted_elem_of_lt</title>
<g id="a_node7"><a xlink:href="VLSM.Lib.SortedLists.html#LocallySorted_elem_of_lt" xlink:title="LocallySorted_elem_of_lt" target="_top">
<ellipse fill="#7fffd4" stroke="black" cx="1396" cy="-94.09" rx="103.18" ry="18"/>
<text text-anchor="middle" x="1396" y="-90.39" font-family="Times,serif" font-size="14.00">LocallySorted_elem_of_lt</text>
</a>
</g>
</g>
<!-- VLSM_Lib_SortedLists_set_eq_first_equal&#45;&gt;VLSM_Lib_SortedLists_LocallySorted_elem_of_lt -->
<g id="edge4" class="edge">
<title>VLSM_Lib_SortedLists_set_eq_first_equal&#45;&gt;VLSM_Lib_SortedLists_LocallySorted_elem_of_lt</title>
<path fill="none" stroke="black" d="M1403.97,-227C1402.42,-201.43 1399.49,-152.96 1397.65,-122.43"/>
<polygon fill="black" stroke="black" points="1401.14,-122.22 1397.05,-112.45 1394.16,-122.64 1401.14,-122.22"/>
</g>
<!-- VLSM_Lib_SortedLists_add_in_sorted_list_existing -->
<g id="node6" class="node">
<title>VLSM_Lib_SortedLists_add_in_sorted_list_existing</title>
<g id="a_node6"><a xlink:href="VLSM.Lib.SortedLists.html#add_in_sorted_list_existing" xlink:title="add_in_sorted_list_existing" target="_top">
<ellipse fill="#7fffd4" stroke="black" cx="1196" cy="-245.09" rx="107.79" ry="18"/>
<ellipse fill="none" stroke="black" cx="1196" cy="-245.09" rx="111.78" ry="22"/>
<ellipse fill="none" stroke="black" cx="1196" cy="-245.09" rx="115.78" ry="26"/>
<text text-anchor="middle" x="1196" y="-241.39" font-family="Times,serif" font-size="14.00">add_in_sorted_list_existing</text>
</a>
</g>
</g>
<!-- VLSM_Lib_SortedLists_add_in_sorted_list_existing&#45;&gt;VLSM_Lib_SortedLists_LocallySorted_elem_of_lt -->
<g id="edge5" class="edge">
<title>VLSM_Lib_SortedLists_add_in_sorted_list_existing&#45;&gt;VLSM_Lib_SortedLists_LocallySorted_elem_of_lt</title>
<path fill="none" stroke="black" d="M1228.58,-219.82C1266.39,-191.65 1328.28,-145.55 1365.28,-117.98"/>
<polygon fill="black" stroke="black" points="1367.75,-120.51 1373.67,-111.73 1363.56,-114.9 1367.75,-120.51"/>
</g>
<!-- VLSM_Lib_SortedLists_LocallySorted_tl -->
<g id="node9" class="node">
<title>VLSM_Lib_SortedLists_LocallySorted_tl</title>
<g id="a_node9"><a xlink:href="VLSM.Lib.SortedLists.html#LocallySorted_tl" xlink:title="LocallySorted_tl" target="_top">
<ellipse fill="#7fffd4" stroke="black" cx="1196" cy="-94.09" rx="69.59" ry="18"/>
<text text-anchor="middle" x="1196" y="-90.39" font-family="Times,serif" font-size="14.00">LocallySorted_tl</text>
</a>
</g>
</g>
<!-- VLSM_Lib_SortedLists_add_in_sorted_list_existing&#45;&gt;VLSM_Lib_SortedLists_LocallySorted_tl -->
<g id="edge6" class="edge">
<title>VLSM_Lib_SortedLists_add_in_sorted_list_existing&#45;&gt;VLSM_Lib_SortedLists_LocallySorted_tl</title>
<path fill="none" stroke="black" d="M1196,-218.82C1196,-191.99 1196,-149.75 1196,-122.23"/>
<polygon fill="black" stroke="black" points="1199.5,-122.13 1196,-112.13 1192.5,-122.13 1199.5,-122.13"/>
</g>
<!-- VLSM_Lib_SortedLists_add_in_sorted_list_fn -->
<g id="node18" class="node">
<title>VLSM_Lib_SortedLists_add_in_sorted_list_fn</title>
<g id="a_node18"><a xlink:href="VLSM.Lib.SortedLists.html#add_in_sorted_list_fn" xlink:title="add_in_sorted_list_fn" target="_top">
<ellipse fill="#f070d1" stroke="black" cx="739" cy="-94.09" rx="87.18" ry="18"/>
<text text-anchor="middle" x="739" y="-90.39" font-family="Times,serif" font-size="14.00">add_in_sorted_list_fn</text>
</a>
</g>
</g>
<!-- VLSM_Lib_SortedLists_add_in_sorted_list_existing&#45;&gt;VLSM_Lib_SortedLists_add_in_sorted_list_fn -->
<g id="edge7" class="edge">
<title>VLSM_Lib_SortedLists_add_in_sorted_list_existing&#45;&gt;VLSM_Lib_SortedLists_add_in_sorted_list_fn</title>
<path fill="none" stroke="black" d="M1131.97,-223.22C1041.59,-193.75 878.17,-140.47 793.36,-112.82"/>
<polygon fill="black" stroke="black" points="794.26,-109.43 783.67,-109.66 792.09,-116.09 794.26,-109.43"/>
</g>
<!-- VLSM_Lib_SortedLists_add_in_sorted_list_sorted -->
<g id="node8" class="node">
<title>VLSM_Lib_SortedLists_add_in_sorted_list_sorted</title>
<g id="a_node8"><a xlink:href="VLSM.Lib.SortedLists.html#add_in_sorted_list_sorted" xlink:title="add_in_sorted_list_sorted" target="_top">
<ellipse fill="#7fffd4" stroke="black" cx="953" cy="-245.09" rx="101.29" ry="18"/>
<ellipse fill="none" stroke="black" cx="953" cy="-245.09" rx="105.29" ry="22"/>
<ellipse fill="none" stroke="black" cx="953" cy="-245.09" rx="109.28" ry="26"/>
<text text-anchor="middle" x="953" y="-241.39" font-family="Times,serif" font-size="14.00">add_in_sorted_list_sorted</text>
</a>
</g>
</g>
<!-- VLSM_Lib_SortedLists_add_in_sorted_list_sorted&#45;&gt;VLSM_Lib_SortedLists_add_in_sorted_list_fn -->
<g id="edge8" class="edge">
<title>VLSM_Lib_SortedLists_add_in_sorted_list_sorted&#45;&gt;VLSM_Lib_SortedLists_add_in_sorted_list_fn</title>
<path fill="none" stroke="black" d="M918.62,-220.16C877.98,-191.86 810.87,-145.13 771.2,-117.52"/>
<polygon fill="black" stroke="black" points="772.9,-114.44 762.7,-111.59 768.9,-120.18 772.9,-114.44"/>
</g>
<!-- VLSM_Lib_SortedLists_LocallySorted_filter -->
<g id="node10" class="node">
<title>VLSM_Lib_SortedLists_LocallySorted_filter</title>
<g id="a_node10"><a xlink:href="VLSM.Lib.SortedLists.html#LocallySorted_filter" xlink:title="LocallySorted_filter" target="_top">
<ellipse fill="#7fffd4" stroke="black" cx="974" cy="-577.09" rx="81.8" ry="18"/>
<ellipse fill="none" stroke="black" cx="974" cy="-577.09" rx="85.79" ry="22"/>
<ellipse fill="none" stroke="black" cx="974" cy="-577.09" rx="89.79" ry="26"/>
<text text-anchor="middle" x="974" y="-573.39" font-family="Times,serif" font-size="14.00">LocallySorted_filter</text>
</a>
</g>
</g>
<!-- VLSM_Lib_SortedLists_LocallySorted_ForAll2 -->
<g id="node11" class="node">
<title>VLSM_Lib_SortedLists_LocallySorted_ForAll2</title>
<g id="a_node11"><a xlink:href="VLSM.Lib.SortedLists.html#LocallySorted_ForAll2" xlink:title="LocallySorted_ForAll2" target="_top">
<ellipse fill="#7fffd4" stroke="black" cx="974" cy="-411.09" rx="92.88" ry="18"/>
<text text-anchor="middle" x="974" y="-407.39" font-family="Times,serif" font-size="14.00">LocallySorted_ForAll2</text>
</a>
</g>
</g>
<!-- VLSM_Lib_SortedLists_LocallySorted_filter&#45;&gt;VLSM_Lib_SortedLists_LocallySorted_ForAll2 -->
<g id="edge9" class="edge">
<title>VLSM_Lib_SortedLists_LocallySorted_filter&#45;&gt;VLSM_Lib_SortedLists_LocallySorted_ForAll2</title>
<path fill="none" stroke="black" d="M974,-550.83C974,-520.61 974,-470.22 974,-439.21"/>
<polygon fill="black" stroke="black" points="977.5,-439.11 974,-429.11 970.5,-439.11 977.5,-439.11"/>
</g>
<!-- VLSM_Lib_SortedLists_add_in_sorted_list_tail -->
<g id="node12" class="node">
<title>VLSM_Lib_SortedLists_add_in_sorted_list_tail</title>
<g id="a_node12"><a xlink:href="VLSM.Lib.SortedLists.html#add_in_sorted_list_tail" xlink:title="add_in_sorted_list_tail" target="_top">
<ellipse fill="#7fffd4" stroke="black" cx="715" cy="-577.09" rx="90.98" ry="18"/>
<ellipse fill="none" stroke="black" cx="715" cy="-577.09" rx="94.98" ry="22"/>
<ellipse fill="none" stroke="black" cx="715" cy="-577.09" rx="98.98" ry="26"/>
<text text-anchor="middle" x="715" y="-573.39" font-family="Times,serif" font-size="14.00">add_in_sorted_list_tail</text>
</a>
</g>
</g>
<!-- VLSM_Lib_SortedLists_add_in_sorted_list_iff -->
<g id="node14" class="node">
<title>VLSM_Lib_SortedLists_add_in_sorted_list_iff</title>
<g id="a_node14"><a xlink:href="VLSM.Lib.SortedLists.html#add_in_sorted_list_iff" xlink:title="add_in_sorted_list_iff" target="_top">
<ellipse fill="#7fffd4" stroke="black" cx="583" cy="-411.09" rx="88.28" ry="18"/>
<text text-anchor="middle" x="583" y="-407.39" font-family="Times,serif" font-size="14.00">add_in_sorted_list_iff</text>
</a>
</g>
</g>
<!-- VLSM_Lib_SortedLists_add_in_sorted_list_tail&#45;&gt;VLSM_Lib_SortedLists_add_in_sorted_list_iff -->
<g id="edge10" class="edge">
<title>VLSM_Lib_SortedLists_add_in_sorted_list_tail&#45;&gt;VLSM_Lib_SortedLists_add_in_sorted_list_iff</title>
<path fill="none" stroke="black" d="M695.24,-551.54C670.52,-520.83 628.41,-468.52 603.4,-437.44"/>
<polygon fill="black" stroke="black" points="605.82,-434.87 596.83,-429.27 600.37,-439.26 605.82,-434.87"/>
</g>
<!-- VLSM_Lib_SortedLists_add_in_sorted_list_head -->
<g id="node13" class="node">
<title>VLSM_Lib_SortedLists_add_in_sorted_list_head</title>
<g id="a_node13"><a xlink:href="VLSM.Lib.SortedLists.html#add_in_sorted_list_head" xlink:title="add_in_sorted_list_head" target="_top">
<ellipse fill="#7fffd4" stroke="black" cx="493" cy="-577.09" rx="96.7" ry="18"/>
<ellipse fill="none" stroke="black" cx="493" cy="-577.09" rx="100.69" ry="22"/>
<ellipse fill="none" stroke="black" cx="493" cy="-577.09" rx="104.68" ry="26"/>
<text text-anchor="middle" x="493" y="-573.39" font-family="Times,serif" font-size="14.00">add_in_sorted_list_head</text>
</a>
</g>
</g>
<!-- VLSM_Lib_SortedLists_add_in_sorted_list_head&#45;&gt;VLSM_Lib_SortedLists_add_in_sorted_list_iff -->
<g id="edge11" class="edge">
<title>VLSM_Lib_SortedLists_add_in_sorted_list_head&#45;&gt;VLSM_Lib_SortedLists_add_in_sorted_list_iff</title>
<path fill="none" stroke="black" d="M506.67,-551.19C523.43,-520.65 551.69,-469.15 568.72,-438.12"/>
<polygon fill="black" stroke="black" points="571.88,-439.64 573.62,-429.19 565.74,-436.27 571.88,-439.64"/>
</g>
<!-- VLSM_Lib_SortedLists_add_in_sorted_list_in_rev -->
<g id="node15" class="node">
<title>VLSM_Lib_SortedLists_add_in_sorted_list_in_rev</title>
<g id="a_node15"><a xlink:href="VLSM.Lib.SortedLists.html#add_in_sorted_list_in_rev" xlink:title="add_in_sorted_list_in_rev" target="_top">
<ellipse fill="#7fffd4" stroke="black" cx="531" cy="-245.09" rx="102.88" ry="18"/>
<text text-anchor="middle" x="531" y="-241.39" font-family="Times,serif" font-size="14.00">add_in_sorted_list_in_rev</text>
</a>
</g>
</g>
<!-- VLSM_Lib_SortedLists_add_in_sorted_list_iff&#45;&gt;VLSM_Lib_SortedLists_add_in_sorted_list_in_rev -->
<g id="edge12" class="edge">
<title>VLSM_Lib_SortedLists_add_in_sorted_list_iff&#45;&gt;VLSM_Lib_SortedLists_add_in_sorted_list_in_rev</title>
<path fill="none" stroke="black" d="M577.53,-392.85C568.46,-364.23 550.22,-306.72 539.47,-272.81"/>
<polygon fill="black" stroke="black" points="542.75,-271.58 536.39,-263.1 536.08,-273.69 542.75,-271.58"/>
</g>
<!-- VLSM_Lib_SortedLists_add_in_sorted_list_in -->
<g id="node16" class="node">
<title>VLSM_Lib_SortedLists_add_in_sorted_list_in</title>
<g id="a_node16"><a xlink:href="VLSM.Lib.SortedLists.html#add_in_sorted_list_in" xlink:title="add_in_sorted_list_in" target="_top">
<ellipse fill="#7fffd4" stroke="black" cx="739" cy="-245.09" rx="87.18" ry="18"/>
<text text-anchor="middle" x="739" y="-241.39" font-family="Times,serif" font-size="14.00">add_in_sorted_list_in</text>
</a>
</g>
</g>
<!-- VLSM_Lib_SortedLists_add_in_sorted_list_iff&#45;&gt;VLSM_Lib_SortedLists_add_in_sorted_list_in -->
<g id="edge13" class="edge">
<title>VLSM_Lib_SortedLists_add_in_sorted_list_iff&#45;&gt;VLSM_Lib_SortedLists_add_in_sorted_list_in</title>
<path fill="none" stroke="black" d="M599.11,-393.16C626.78,-364.07 683.47,-304.47 715.54,-270.76"/>
<polygon fill="black" stroke="black" points="718.39,-272.84 722.75,-263.18 713.32,-268.01 718.39,-272.84"/>
</g>
<!-- VLSM_Lib_SortedLists_add_in_sorted_list_in_rev&#45;&gt;VLSM_Lib_SortedLists_add_in_sorted_list_fn -->
<g id="edge14" class="edge">
<title>VLSM_Lib_SortedLists_add_in_sorted_list_in_rev&#45;&gt;VLSM_Lib_SortedLists_add_in_sorted_list_fn</title>
<path fill="none" stroke="black" d="M554.46,-227.29C592.03,-200.38 665.74,-147.58 707.74,-117.49"/>
<polygon fill="black" stroke="black" points="709.86,-120.28 715.95,-111.61 705.78,-114.59 709.86,-120.28"/>
</g>
<!-- VLSM_Lib_SortedLists_add_in_sorted_list_in&#45;&gt;VLSM_Lib_SortedLists_add_in_sorted_list_fn -->
<g id="edge15" class="edge">
<title>VLSM_Lib_SortedLists_add_in_sorted_list_in&#45;&gt;VLSM_Lib_SortedLists_add_in_sorted_list_fn</title>
<path fill="none" stroke="black" d="M739,-227C739,-201.54 739,-153.38 739,-122.83"/>
<polygon fill="black" stroke="black" points="742.5,-122.45 739,-112.45 735.5,-122.45 742.5,-122.45"/>
</g>
<!-- VLSM_Lib_SortedLists_add_in_sorted_list_no_empty -->
<g id="node17" class="node">
<title>VLSM_Lib_SortedLists_add_in_sorted_list_no_empty</title>
<g id="a_node17"><a xlink:href="VLSM.Lib.SortedLists.html#add_in_sorted_list_no_empty" xlink:title="add_in_sorted_list_no_empty" target="_top">
<ellipse fill="#7fffd4" stroke="black" cx="287" cy="-245.09" rx="115.87" ry="18"/>
<ellipse fill="none" stroke="black" cx="287" cy="-245.09" rx="119.87" ry="22"/>
<ellipse fill="none" stroke="black" cx="287" cy="-245.09" rx="123.88" ry="26"/>
<text text-anchor="middle" x="287" y="-241.39" font-family="Times,serif" font-size="14.00">add_in_sorted_list_no_empty</text>
</a>
</g>
</g>
<!-- VLSM_Lib_SortedLists_add_in_sorted_list_no_empty&#45;&gt;VLSM_Lib_SortedLists_add_in_sorted_list_fn -->
<g id="edge16" class="edge">
<title>VLSM_Lib_SortedLists_add_in_sorted_list_no_empty&#45;&gt;VLSM_Lib_SortedLists_add_in_sorted_list_fn</title>
<path fill="none" stroke="black" d="M351.76,-222.75C441.46,-193.18 601.86,-140.3 685.28,-112.8"/>
<polygon fill="black" stroke="black" points="686.42,-116.11 694.82,-109.66 684.22,-109.47 686.42,-116.11"/>
</g>
<!-- VLSM_Lib_SortedLists_list_compare_eq_dec -->
<g id="node19" class="node">
<title>VLSM_Lib_SortedLists_list_compare_eq_dec</title>
<g id="a_node19"><a xlink:href="VLSM.Lib.SortedLists.html#list_compare_eq_dec" xlink:title="list_compare_eq_dec" target="_top">
<ellipse fill="#f070d1" stroke="black" cx="133" cy="-577.09" rx="85.6" ry="18"/>
<ellipse fill="none" stroke="black" cx="133" cy="-577.09" rx="89.59" ry="22"/>
<ellipse fill="none" stroke="black" cx="133" cy="-577.09" rx="93.59" ry="26"/>
<text text-anchor="middle" x="133" y="-573.39" font-family="Times,serif" font-size="14.00">list_compare_eq_dec</text>
</a>
</g>
</g>
<!-- VLSM_Lib_SortedLists_list_compare_strict_order -->
<g id="node20" class="node">
<title>VLSM_Lib_SortedLists_list_compare_strict_order</title>
<g id="a_node20"><a xlink:href="VLSM.Lib.SortedLists.html#list_compare_strict_order" xlink:title="list_compare_strict_order" target="_top">
<ellipse fill="#7fffd4" stroke="black" cx="133" cy="-411.09" rx="101.28" ry="18"/>
<text text-anchor="middle" x="133" y="-407.39" font-family="Times,serif" font-size="14.00">list_compare_strict_order</text>
</a>
</g>
</g>
<!-- VLSM_Lib_SortedLists_list_compare_eq_dec&#45;&gt;VLSM_Lib_SortedLists_list_compare_strict_order -->
<g id="edge17" class="edge">
<title>VLSM_Lib_SortedLists_list_compare_eq_dec&#45;&gt;VLSM_Lib_SortedLists_list_compare_strict_order</title>
<path fill="none" stroke="black" d="M133,-550.83C133,-520.61 133,-470.22 133,-439.21"/>
<polygon fill="black" stroke="black" points="136.5,-439.11 133,-429.11 129.5,-439.11 136.5,-439.11"/>
</g>
<!-- VLSM_Lib_SortedLists_list_compare -->
<g id="node21" class="node">
<title>VLSM_Lib_SortedLists_list_compare</title>
<g id="a_node21"><a xlink:href="VLSM.Lib.SortedLists.html#list_compare" xlink:title="list_compare" target="_top">
<ellipse fill="#f070d1" stroke="black" cx="89" cy="-245.09" rx="56.59" ry="18"/>
<text text-anchor="middle" x="89" y="-241.39" font-family="Times,serif" font-size="14.00">list_compare</text>
</a>
</g>
</g>
<!-- VLSM_Lib_SortedLists_list_compare_strict_order&#45;&gt;VLSM_Lib_SortedLists_list_compare -->
<g id="edge18" class="edge">
<title>VLSM_Lib_SortedLists_list_compare_strict_order&#45;&gt;VLSM_Lib_SortedLists_list_compare</title>
<path fill="none" stroke="black" d="M128.37,-392.85C120.7,-364.23 105.27,-306.72 96.17,-272.81"/>
<polygon fill="black" stroke="black" points="99.54,-271.86 93.56,-263.1 92.77,-273.67 99.54,-271.86"/>
</g>
</g>
</svg>
