<?xml version="1.0" encoding="UTF-8" standalone="no"?>
<!DOCTYPE svg PUBLIC "-//W3C//DTD SVG 1.1//EN"
 "http://www.w3.org/Graphics/SVG/1.1/DTD/svg11.dtd">
<!-- Generated by graphviz version 2.43.0 (0)
 -->
<!-- Title: rvdpdgraph Pages: 1 -->
<svg width="161pt" height="193pt"
 viewBox="0.00 0.00 161.00 193.00" xmlns="http://www.w3.org/2000/svg" xmlns:xlink="http://www.w3.org/1999/xlink">
<g id="graph0" class="graph" transform="scale(1 1) rotate(0) translate(4 189)">
<title>rvdpdgraph</title>
<polygon fill="white" stroke="transparent" points="-4,4 -4,-189 157,-189 157,4 -4,4"/>
<g id="clust1" class="cluster">
<title>cluster_VLSM</title>
<polygon fill="#ffffc3" stroke="black" points="8,-8 8,-177 145,-177 145,-8 8,-8"/>
<text text-anchor="middle" x="35.5" y="-161.8" font-family="Times,serif" font-size="14.00">VLSM</text>
</g>
<g id="clust2" class="cluster">
<title>cluster_VLSM_Lib</title>
<polygon fill="#ffffa3" stroke="black" points="16,-16 16,-146 137,-146 137,-16 16,-16"/>
<text text-anchor="middle" x="33.5" y="-130.8" font-family="Times,serif" font-size="14.00">Lib</text>
</g>
<g id="clust3" class="cluster">
<title>cluster_VLSM_Lib_EquationsExtras</title>
<polygon fill="#ffff83" stroke="black" points="24,-24 24,-115 129,-115 129,-24 24,-24"/>
<text text-anchor="middle" x="76.5" y="-99.8" font-family="Times,serif" font-size="14.00">EquationsExtras</text>
</g>
<!-- VLSM_Lib_EquationsExtras_inspect -->
<g id="node1" class="node">
<title>VLSM_Lib_EquationsExtras_inspect</title>
<g id="a_node1"><a xlink:href="VLSM.Lib.EquationsExtras.html#inspect" xlink:title="inspect" target="_top">
<ellipse fill="#f070d1" stroke="black" cx="76" cy="-58" rx="35.95" ry="18"/>
<ellipse fill="none" stroke="black" cx="76" cy="-58" rx="39.97" ry="22"/>
<ellipse fill="none" stroke="black" cx="76" cy="-58" rx="44" ry="26"/>
<text text-anchor="middle" x="76" y="-54.3" font-family="Times,serif" font-size="14.00">inspect</text>
</a>
</g>
</g>
</g>
</svg>
