<?xml version="1.0" encoding="UTF-8" standalone="no"?>
<!DOCTYPE svg PUBLIC "-//W3C//DTD SVG 1.1//EN"
 "http://www.w3.org/Graphics/SVG/1.1/DTD/svg11.dtd">
<!-- Generated by graphviz version 2.43.0 (0)
 -->
<!-- Title: rvdpdgraph Pages: 1 -->
<svg width="164pt" height="232pt"
 viewBox="0.00 0.00 164.00 232.00" xmlns="http://www.w3.org/2000/svg" xmlns:xlink="http://www.w3.org/1999/xlink">
<g id="graph0" class="graph" transform="scale(1 1) rotate(0) translate(4 228)">
<title>rvdpdgraph</title>
<polygon fill="white" stroke="transparent" points="-4,4 -4,-228 160,-228 160,4 -4,4"/>
<g id="clust1" class="cluster">
<title>cluster_VLSM</title>
<polygon fill="#ffffc3" stroke="black" points="8,-8 8,-216 148,-216 148,-8 8,-8"/>
<text text-anchor="middle" x="35.5" y="-200.8" font-family="Times,serif" font-size="14.00">VLSM</text>
</g>
<g id="clust2" class="cluster">
<title>cluster_VLSM_Core</title>
<polygon fill="#ffffa3" stroke="black" points="16,-16 16,-185 140,-185 140,-16 16,-16"/>
<text text-anchor="middle" x="37.5" y="-169.8" font-family="Times,serif" font-size="14.00">Core</text>
</g>
<g id="clust3" class="cluster">
<title>cluster_VLSM_Core_ELMO</title>
<polygon fill="#ffff83" stroke="black" points="24,-24 24,-154 132,-154 132,-24 24,-24"/>
<text text-anchor="middle" x="52" y="-138.8" font-family="Times,serif" font-size="14.00">ELMO</text>
</g>
<g id="clust4" class="cluster">
<title>cluster_VLSM_Core_ELMO_AllELMO</title>
<polygon fill="#ffff63" stroke="black" points="32,-32 32,-123 124,-123 124,-32 32,-32"/>
<text text-anchor="middle" x="68.5" y="-107.8" font-family="Times,serif" font-size="14.00">AllELMO</text>
</g>
<!-- VLSM_Core_ELMO_AllELMO_iYC2 -->
<g id="node1" class="node">
<title>VLSM_Core_ELMO_AllELMO_iYC2</title>
<g id="a_node1"><a xlink:href="VLSM.Core.ELMO.AllELMO.html#iYC2" xlink:title="iYC2" target="_top">
<ellipse fill="#f070d1" stroke="black" cx="78" cy="-66" rx="29.82" ry="18"/>
<ellipse fill="none" stroke="black" cx="78" cy="-66" rx="33.81" ry="22"/>
<ellipse fill="none" stroke="black" cx="78" cy="-66" rx="37.79" ry="26"/>
<text text-anchor="middle" x="78" y="-62.3" font-family="Times,serif" font-size="14.00">iYC2</text>
</a>
</g>
</g>
</g>
</svg>
