<?xml version="1.0" encoding="UTF-8" standalone="no"?>
<!DOCTYPE svg PUBLIC "-//W3C//DTD SVG 1.1//EN"
 "http://www.w3.org/Graphics/SVG/1.1/DTD/svg11.dtd">
<!-- Generated by graphviz version 2.43.0 (0)
 -->
<!-- Title: rvdpdgraph Pages: 1 -->
<svg width="1306pt" height="657pt"
 viewBox="0.00 0.00 1306.00 657.00" xmlns="http://www.w3.org/2000/svg" xmlns:xlink="http://www.w3.org/1999/xlink">
<g id="graph0" class="graph" transform="scale(1 1) rotate(0) translate(4 653)">
<title>rvdpdgraph</title>
<polygon fill="white" stroke="transparent" points="-4,4 -4,-653 1302,-653 1302,4 -4,4"/>
<g id="clust1" class="cluster">
<title>cluster_VLSM</title>
<polygon fill="#ffffc3" stroke="black" points="17.81,-8 17.81,-641 1280.19,-641 1280.19,-8 17.81,-8"/>
<text text-anchor="middle" x="45.31" y="-625.8" font-family="Times,serif" font-size="14.00">VLSM</text>
</g>
<g id="clust2" class="cluster">
<title>cluster_VLSM_Lib</title>
<polygon fill="#ffffa3" stroke="black" points="35.62,-16 35.62,-610 1262.38,-610 1262.38,-16 35.62,-16"/>
<text text-anchor="middle" x="53.12" y="-594.8" font-family="Times,serif" font-size="14.00">Lib</text>
</g>
<g id="clust3" class="cluster">
<title>cluster_VLSM_Lib_Measurable</title>
<polygon fill="#ffff83" stroke="black" points="53.43,-24 53.43,-579 1244.57,-579 1244.57,-24 53.43,-24"/>
<text text-anchor="middle" x="93.43" y="-563.8" font-family="Times,serif" font-size="14.00">Measurable</text>
</g>
<!-- VLSM_Lib_Measurable_sum_weights_app -->
<g id="node1" class="node">
<title>VLSM_Lib_Measurable_sum_weights_app</title>
<g id="a_node1"><a xlink:href="VLSM.Lib.Measurable.html#sum_weights_app" xlink:title="sum_weights_app" target="_top">
<ellipse fill="#7fffd4" stroke="black" cx="1041.85" cy="-362" rx="74.96" ry="18"/>
<ellipse fill="none" stroke="black" cx="1041.85" cy="-362" rx="78.98" ry="22"/>
<ellipse fill="none" stroke="black" cx="1041.85" cy="-362" rx="82.99" ry="26"/>
<text text-anchor="middle" x="1041.85" y="-358.3" font-family="Times,serif" font-size="14.00">sum_weights_app</text>
</a>
</g>
</g>
<!-- VLSM_Lib_Measurable_sum_weights -->
<g id="node7" class="node">
<title>VLSM_Lib_Measurable_sum_weights</title>
<g id="a_node7"><a xlink:href="VLSM.Lib.Measurable.html#sum_weights" xlink:title="sum_weights" target="_top">
<ellipse fill="#f070d1" stroke="black" cx="712.85" cy="-282" rx="57.69" ry="18"/>
<text text-anchor="middle" x="712.85" y="-278.3" font-family="Times,serif" font-size="14.00">sum_weights</text>
</a>
</g>
</g>
<!-- VLSM_Lib_Measurable_sum_weights_app&#45;&gt;VLSM_Lib_Measurable_sum_weights -->
<g id="edge1" class="edge">
<title>VLSM_Lib_Measurable_sum_weights_app&#45;&gt;VLSM_Lib_Measurable_sum_weights</title>
<path fill="none" stroke="black" d="M977.24,-345.68C915.98,-331.16 824.98,-309.58 767.31,-295.91"/>
<polygon fill="black" stroke="black" points="767.83,-292.44 757.29,-293.54 766.22,-299.25 767.83,-292.44"/>
</g>
<!-- VLSM_Lib_Measurable_set_eq_nodup_sum_weight_eq -->
<g id="node2" class="node">
<title>VLSM_Lib_Measurable_set_eq_nodup_sum_weight_eq</title>
<g id="a_node2"><a xlink:href="VLSM.Lib.Measurable.html#set_eq_nodup_sum_weight_eq" xlink:title="set_eq_nodup_sum_weight_eq" target="_top">
<ellipse fill="#7fffd4" stroke="black" cx="487.85" cy="-522" rx="120.46" ry="18"/>
<ellipse fill="none" stroke="black" cx="487.85" cy="-522" rx="124.47" ry="22"/>
<ellipse fill="none" stroke="black" cx="487.85" cy="-522" rx="128.48" ry="26"/>
<text text-anchor="middle" x="487.85" y="-518.3" font-family="Times,serif" font-size="14.00">set_eq_nodup_sum_weight_eq</text>
</a>
</g>
</g>
<!-- VLSM_Lib_Measurable_sum_weights_subseteq -->
<g id="node3" class="node">
<title>VLSM_Lib_Measurable_sum_weights_subseteq</title>
<g id="a_node3"><a xlink:href="VLSM.Lib.Measurable.html#sum_weights_subseteq" xlink:title="sum_weights_subseteq" target="_top">
<ellipse fill="#7fffd4" stroke="black" cx="487.85" cy="-442" rx="92.08" ry="18"/>
<text text-anchor="middle" x="487.85" y="-438.3" font-family="Times,serif" font-size="14.00">sum_weights_subseteq</text>
</a>
</g>
</g>
<!-- VLSM_Lib_Measurable_set_eq_nodup_sum_weight_eq&#45;&gt;VLSM_Lib_Measurable_sum_weights_subseteq -->
<g id="edge2" class="edge">
<title>VLSM_Lib_Measurable_set_eq_nodup_sum_weight_eq&#45;&gt;VLSM_Lib_Measurable_sum_weights_subseteq</title>
<path fill="none" stroke="black" d="M487.85,-495.89C487.85,-487.84 487.85,-478.88 487.85,-470.66"/>
<polygon fill="black" stroke="black" points="491.35,-470.41 487.85,-460.41 484.35,-470.41 491.35,-470.41"/>
</g>
<!-- VLSM_Lib_Measurable_sum_weights_in -->
<g id="node4" class="node">
<title>VLSM_Lib_Measurable_sum_weights_in</title>
<g id="a_node4"><a xlink:href="VLSM.Lib.Measurable.html#sum_weights_in" xlink:title="sum_weights_in" target="_top">
<ellipse fill="#7fffd4" stroke="black" cx="224.85" cy="-362" rx="68.79" ry="18"/>
<text text-anchor="middle" x="224.85" y="-358.3" font-family="Times,serif" font-size="14.00">sum_weights_in</text>
</a>
</g>
</g>
<!-- VLSM_Lib_Measurable_sum_weights_subseteq&#45;&gt;VLSM_Lib_Measurable_sum_weights_in -->
<g id="edge3" class="edge">
<title>VLSM_Lib_Measurable_sum_weights_subseteq&#45;&gt;VLSM_Lib_Measurable_sum_weights_in</title>
<path fill="none" stroke="black" d="M439.3,-426.6C393.72,-413.08 325.65,-392.89 278.47,-378.9"/>
<polygon fill="black" stroke="black" points="279.32,-375.51 268.74,-376.02 277.33,-382.22 279.32,-375.51"/>
</g>
<!-- VLSM_Lib_Measurable_sum_weights_positive -->
<g id="node6" class="node">
<title>VLSM_Lib_Measurable_sum_weights_positive</title>
<g id="a_node6"><a xlink:href="VLSM.Lib.Measurable.html#sum_weights_positive" xlink:title="sum_weights_positive" target="_top">
<ellipse fill="#7fffd4" stroke="black" cx="618.85" cy="-362" rx="89.88" ry="18"/>
<text text-anchor="middle" x="618.85" y="-358.3" font-family="Times,serif" font-size="14.00">sum_weights_positive</text>
</a>
</g>
</g>
<!-- VLSM_Lib_Measurable_sum_weights_subseteq&#45;&gt;VLSM_Lib_Measurable_sum_weights_positive -->
<g id="edge4" class="edge">
<title>VLSM_Lib_Measurable_sum_weights_subseteq&#45;&gt;VLSM_Lib_Measurable_sum_weights_positive</title>
<path fill="none" stroke="black" d="M515.31,-424.65C534.87,-413 561.37,-397.23 582.65,-384.55"/>
<polygon fill="black" stroke="black" points="584.62,-387.45 591.42,-379.33 581.04,-381.44 584.62,-387.45"/>
</g>
<!-- VLSM_Lib_Measurable_sum_weights_in&#45;&gt;VLSM_Lib_Measurable_sum_weights -->
<g id="edge5" class="edge">
<title>VLSM_Lib_Measurable_sum_weights_in&#45;&gt;VLSM_Lib_Measurable_sum_weights</title>
<path fill="none" stroke="black" d="M282.26,-351.82C375.25,-336.96 557.9,-307.77 652.64,-292.62"/>
<polygon fill="black" stroke="black" points="653.32,-296.06 662.64,-291.03 652.21,-289.15 653.32,-296.06"/>
</g>
<!-- VLSM_Lib_Measurable_weight_proj1_sig -->
<g id="node5" class="node">
<title>VLSM_Lib_Measurable_weight_proj1_sig</title>
<g id="a_node5"><a xlink:href="VLSM.Lib.Measurable.html#weight_proj1_sig" xlink:title="weight_proj1_sig" target="_top">
<ellipse fill="#f070d1" stroke="black" cx="663.85" cy="-130" rx="72.27" ry="18"/>
<ellipse fill="none" stroke="black" cx="663.85" cy="-130" rx="76.28" ry="22"/>
<ellipse fill="none" stroke="black" cx="663.85" cy="-130" rx="80.29" ry="26"/>
<text text-anchor="middle" x="663.85" y="-126.3" font-family="Times,serif" font-size="14.00">weight_proj1_sig</text>
</a>
</g>
</g>
<!-- VLSM_Lib_Measurable_pos_R -->
<g id="node11" class="node">
<title>VLSM_Lib_Measurable_pos_R</title>
<g id="a_node11"><a xlink:href="VLSM.Lib.Measurable.html#pos_R" xlink:title="pos_R" target="_top">
<ellipse fill="#f070d1" stroke="black" cx="663.85" cy="-50" rx="33.29" ry="18"/>
<text text-anchor="middle" x="663.85" y="-46.3" font-family="Times,serif" font-size="14.00">pos_R</text>
</a>
</g>
</g>
<!-- VLSM_Lib_Measurable_weight_proj1_sig&#45;&gt;VLSM_Lib_Measurable_pos_R -->
<g id="edge6" class="edge">
<title>VLSM_Lib_Measurable_weight_proj1_sig&#45;&gt;VLSM_Lib_Measurable_pos_R</title>
<path fill="none" stroke="black" d="M663.85,-103.89C663.85,-95.84 663.85,-86.88 663.85,-78.66"/>
<polygon fill="black" stroke="black" points="667.35,-78.41 663.85,-68.41 660.35,-78.41 667.35,-78.41"/>
</g>
<!-- VLSM_Lib_Measurable_sum_weights_positive&#45;&gt;VLSM_Lib_Measurable_sum_weights -->
<g id="edge7" class="edge">
<title>VLSM_Lib_Measurable_sum_weights_positive&#45;&gt;VLSM_Lib_Measurable_sum_weights</title>
<path fill="none" stroke="black" d="M639.25,-344.08C652.82,-332.81 670.82,-317.88 685.61,-305.6"/>
<polygon fill="black" stroke="black" points="688,-308.17 693.46,-299.09 683.53,-302.78 688,-308.17"/>
</g>
<!-- VLSM_Lib_Measurable_weight -->
<g id="node8" class="node">
<title>VLSM_Lib_Measurable_weight</title>
<g id="a_node8"><a xlink:href="VLSM.Lib.Measurable.html#weight" xlink:title="weight" target="_top">
<ellipse fill="#f070d1" stroke="black" cx="901.85" cy="-210" rx="34.39" ry="18"/>
<text text-anchor="middle" x="901.85" y="-206.3" font-family="Times,serif" font-size="14.00">weight</text>
</a>
</g>
</g>
<!-- VLSM_Lib_Measurable_sum_weights&#45;&gt;VLSM_Lib_Measurable_weight -->
<g id="edge8" class="edge">
<title>VLSM_Lib_Measurable_sum_weights&#45;&gt;VLSM_Lib_Measurable_weight</title>
<path fill="none" stroke="black" d="M748.84,-267.67C782.18,-255.32 831.54,-237.04 865.11,-224.61"/>
<polygon fill="black" stroke="black" points="866.4,-227.86 874.56,-221.11 863.97,-221.3 866.4,-227.86"/>
</g>
<!-- VLSM_Lib_Measurable_Measurable -->
<g id="node10" class="node">
<title>VLSM_Lib_Measurable_Measurable</title>
<g id="a_node10"><a xlink:href="VLSM.Lib.Measurable.html#Measurable" xlink:title="Measurable" target="_top">
<ellipse fill="#e2cdfa" stroke="black" cx="997.85" cy="-130" rx="51.99" ry="18"/>
<text text-anchor="middle" x="997.85" y="-126.3" font-family="Times,serif" font-size="14.00">Measurable</text>
</a>
</g>
</g>
<!-- VLSM_Lib_Measurable_weight&#45;&gt;VLSM_Lib_Measurable_Measurable -->
<g id="edge9" class="edge">
<title>VLSM_Lib_Measurable_weight&#45;&gt;VLSM_Lib_Measurable_Measurable</title>
<path fill="none" stroke="black" d="M919.91,-194.33C934.06,-182.83 953.99,-166.63 970.16,-153.5"/>
<polygon fill="black" stroke="black" points="972.67,-155.97 978.22,-146.95 968.25,-150.54 972.67,-155.97"/>
</g>
<!-- VLSM_Lib_Measurable_Build_Measurable -->
<g id="node9" class="node">
<title>VLSM_Lib_Measurable_Build_Measurable</title>
<g id="a_node9"><a xlink:href="VLSM.Lib.Measurable.html#Build_Measurable" xlink:title="Build_Measurable" target="_top">
<ellipse fill="#7faaff" stroke="black" cx="257.85" cy="-130" rx="76.08" ry="18"/>
<ellipse fill="none" stroke="black" cx="257.85" cy="-130" rx="80.08" ry="22"/>
<ellipse fill="none" stroke="black" cx="257.85" cy="-130" rx="84.09" ry="26"/>
<text text-anchor="middle" x="257.85" y="-126.3" font-family="Times,serif" font-size="14.00">Build_Measurable</text>
</a>
</g>
</g>
<!-- VLSM_Lib_Measurable_Build_Measurable&#45;&gt;VLSM_Lib_Measurable_pos_R -->
<g id="edge10" class="edge">
<title>VLSM_Lib_Measurable_Build_Measurable&#45;&gt;VLSM_Lib_Measurable_pos_R</title>
<path fill="none" stroke="black" d="M328.11,-115.5C413.16,-99.16 553.58,-72.18 622.75,-58.9"/>
<polygon fill="black" stroke="black" points="623.66,-62.29 632.82,-56.96 622.34,-55.41 623.66,-62.29"/>
</g>
<!-- VLSM_Lib_Measurable_Measurable&#45;&gt;VLSM_Lib_Measurable_pos_R -->
<g id="edge11" class="edge">
<title>VLSM_Lib_Measurable_Measurable&#45;&gt;VLSM_Lib_Measurable_pos_R</title>
<path fill="none" stroke="black" d="M955.89,-119.2C890.99,-104.05 767.16,-75.13 703.62,-60.29"/>
<polygon fill="black" stroke="black" points="704.13,-56.81 693.59,-57.95 702.54,-63.63 704.13,-56.81"/>
</g>
</g>
</svg>
