<?xml version="1.0" encoding="UTF-8" standalone="no"?>
<!DOCTYPE svg PUBLIC "-//W3C//DTD SVG 1.1//EN"
 "http://www.w3.org/Graphics/SVG/1.1/DTD/svg11.dtd">
<!-- Generated by graphviz version 2.43.0 (0)
 -->
<!-- Title: rvdpdgraph Pages: 1 -->
<svg width="1972pt" height="990pt"
 viewBox="0.00 0.00 1972.00 990.00" xmlns="http://www.w3.org/2000/svg" xmlns:xlink="http://www.w3.org/1999/xlink">
<g id="graph0" class="graph" transform="scale(1 1) rotate(0) translate(4 986)">
<title>rvdpdgraph</title>
<polygon fill="white" stroke="transparent" points="-4,4 -4,-986 1968,-986 1968,4 -4,4"/>
<g id="clust1" class="cluster">
<title>cluster_VLSM</title>
<polygon fill="#ffffc3" stroke="black" points="8,-18.14 8,-963.86 1956,-963.86 1956,-18.14 8,-18.14"/>
<text text-anchor="middle" x="35.5" y="-948.66" font-family="Times,serif" font-size="14.00">VLSM</text>
</g>
<g id="clust2" class="cluster">
<title>cluster_VLSM_Lib</title>
<polygon fill="#ffffa3" stroke="black" points="16,-36.29 16,-893.55 1948,-893.55 1948,-36.29 16,-36.29"/>
<text text-anchor="middle" x="33.5" y="-878.35" font-family="Times,serif" font-size="14.00">Lib</text>
</g>
<g id="clust3" class="cluster">
<title>cluster_VLSM_Lib_StdppListFinSet</title>
<polygon fill="#ffff83" stroke="black" points="24,-54.43 24,-823.25 1940,-823.25 1940,-54.43 24,-54.43"/>
<text text-anchor="middle" x="76" y="-808.05" font-family="Times,serif" font-size="14.00">StdppListFinSet</text>
</g>
<!-- VLSM_Lib_StdppListFinSet_set_prod -->
<g id="node1" class="node">
<title>VLSM_Lib_StdppListFinSet_set_prod</title>
<g id="a_node1"><a xlink:href="VLSM.Lib.StdppListFinSet.html#set_prod" xlink:title="set_prod" target="_top">
<ellipse fill="#f070d1" stroke="black" cx="1871" cy="-694.14" rx="40.9" ry="18"/>
<ellipse fill="none" stroke="black" cx="1871" cy="-694.14" rx="44.9" ry="22"/>
<ellipse fill="none" stroke="black" cx="1871" cy="-694.14" rx="48.89" ry="26"/>
<text text-anchor="middle" x="1871" y="-690.44" font-family="Times,serif" font-size="14.00">set_prod</text>
</a>
</g>
</g>
<!-- VLSM_Lib_StdppListFinSet_set_diff_iff -->
<g id="node2" class="node">
<title>VLSM_Lib_StdppListFinSet_set_diff_iff</title>
<g id="a_node2"><a xlink:href="VLSM.Lib.StdppListFinSet.html#set_diff_iff" xlink:title="set_diff_iff" target="_top">
<ellipse fill="#7fffd4" stroke="black" cx="1735" cy="-694.14" rx="50.08" ry="18"/>
<ellipse fill="none" stroke="black" cx="1735" cy="-694.14" rx="54.09" ry="22"/>
<ellipse fill="none" stroke="black" cx="1735" cy="-694.14" rx="58.09" ry="26"/>
<text text-anchor="middle" x="1735" y="-690.44" font-family="Times,serif" font-size="14.00">set_diff_iff</text>
</a>
</g>
</g>
<!-- VLSM_Lib_StdppListFinSet_set_diff_elim2 -->
<g id="node3" class="node">
<title>VLSM_Lib_StdppListFinSet_set_diff_elim2</title>
<g id="a_node3"><a xlink:href="VLSM.Lib.StdppListFinSet.html#set_diff_elim2" xlink:title="set_diff_elim2" target="_top">
<ellipse fill="#7fffd4" stroke="black" cx="1592" cy="-494.14" rx="62.29" ry="18"/>
<text text-anchor="middle" x="1592" y="-490.44" font-family="Times,serif" font-size="14.00">set_diff_elim2</text>
</a>
</g>
</g>
<!-- VLSM_Lib_StdppListFinSet_set_diff_iff&#45;&gt;VLSM_Lib_StdppListFinSet_set_diff_elim2 -->
<g id="edge1" class="edge">
<title>VLSM_Lib_StdppListFinSet_set_diff_iff&#45;&gt;VLSM_Lib_StdppListFinSet_set_diff_elim2</title>
<path fill="none" stroke="black" d="M1717.75,-669.26C1690.59,-631.65 1638.08,-558.94 1610.28,-520.46"/>
<polygon fill="black" stroke="black" points="1612.79,-517.96 1604.1,-511.9 1607.12,-522.06 1612.79,-517.96"/>
</g>
<!-- VLSM_Lib_StdppListFinSet_set_diff_elim1 -->
<g id="node4" class="node">
<title>VLSM_Lib_StdppListFinSet_set_diff_elim1</title>
<g id="a_node4"><a xlink:href="VLSM.Lib.StdppListFinSet.html#set_diff_elim1" xlink:title="set_diff_elim1" target="_top">
<ellipse fill="#7fffd4" stroke="black" cx="1735" cy="-494.14" rx="62.29" ry="18"/>
<text text-anchor="middle" x="1735" y="-490.44" font-family="Times,serif" font-size="14.00">set_diff_elim1</text>
</a>
</g>
</g>
<!-- VLSM_Lib_StdppListFinSet_set_diff_iff&#45;&gt;VLSM_Lib_StdppListFinSet_set_diff_elim1 -->
<g id="edge2" class="edge">
<title>VLSM_Lib_StdppListFinSet_set_diff_iff&#45;&gt;VLSM_Lib_StdppListFinSet_set_diff_elim1</title>
<path fill="none" stroke="black" d="M1735,-668.07C1735,-630.84 1735,-561.23 1735,-522.65"/>
<polygon fill="black" stroke="black" points="1738.5,-522.2 1735,-512.2 1731.5,-522.2 1738.5,-522.2"/>
</g>
<!-- VLSM_Lib_StdppListFinSet_set_diff_intro -->
<g id="node5" class="node">
<title>VLSM_Lib_StdppListFinSet_set_diff_intro</title>
<g id="a_node5"><a xlink:href="VLSM.Lib.StdppListFinSet.html#set_diff_intro" xlink:title="set_diff_intro" target="_top">
<ellipse fill="#7fffd4" stroke="black" cx="1874" cy="-494.14" rx="58.49" ry="18"/>
<text text-anchor="middle" x="1874" y="-490.44" font-family="Times,serif" font-size="14.00">set_diff_intro</text>
</a>
</g>
</g>
<!-- VLSM_Lib_StdppListFinSet_set_diff_iff&#45;&gt;VLSM_Lib_StdppListFinSet_set_diff_intro -->
<g id="edge3" class="edge">
<title>VLSM_Lib_StdppListFinSet_set_diff_iff&#45;&gt;VLSM_Lib_StdppListFinSet_set_diff_intro</title>
<path fill="none" stroke="black" d="M1752.04,-668.86C1778.55,-631.1 1829.41,-558.66 1856.31,-520.34"/>
<polygon fill="black" stroke="black" points="1859.41,-522.02 1862.29,-511.82 1853.68,-518 1859.41,-522.02"/>
</g>
<!-- VLSM_Lib_StdppListFinSet_set_diff -->
<g id="node19" class="node">
<title>VLSM_Lib_StdppListFinSet_set_diff</title>
<g id="a_node19"><a xlink:href="VLSM.Lib.StdppListFinSet.html#set_diff" xlink:title="set_diff" target="_top">
<ellipse fill="#f070d1" stroke="black" cx="1663" cy="-295.14" rx="37.89" ry="18"/>
<text text-anchor="middle" x="1663" y="-291.44" font-family="Times,serif" font-size="14.00">set_diff</text>
</a>
</g>
</g>
<!-- VLSM_Lib_StdppListFinSet_set_diff_elim2&#45;&gt;VLSM_Lib_StdppListFinSet_set_diff -->
<g id="edge4" class="edge">
<title>VLSM_Lib_StdppListFinSet_set_diff_elim2&#45;&gt;VLSM_Lib_StdppListFinSet_set_diff</title>
<path fill="none" stroke="black" d="M1598.18,-476.01C1610.59,-441.57 1638.62,-363.78 1653.43,-322.71"/>
<polygon fill="black" stroke="black" points="1656.79,-323.7 1656.89,-313.1 1650.2,-321.32 1656.79,-323.7"/>
</g>
<!-- VLSM_Lib_StdppListFinSet_set_diff_elim1&#45;&gt;VLSM_Lib_StdppListFinSet_set_diff -->
<g id="edge5" class="edge">
<title>VLSM_Lib_StdppListFinSet_set_diff_elim1&#45;&gt;VLSM_Lib_StdppListFinSet_set_diff</title>
<path fill="none" stroke="black" d="M1728.74,-476.01C1716.15,-441.57 1687.72,-363.78 1672.71,-322.71"/>
<polygon fill="black" stroke="black" points="1675.92,-321.29 1669.2,-313.1 1669.34,-323.69 1675.92,-321.29"/>
</g>
<!-- VLSM_Lib_StdppListFinSet_set_diff_intro&#45;&gt;VLSM_Lib_StdppListFinSet_set_diff -->
<g id="edge6" class="edge">
<title>VLSM_Lib_StdppListFinSet_set_diff_intro&#45;&gt;VLSM_Lib_StdppListFinSet_set_diff</title>
<path fill="none" stroke="black" d="M1856.37,-476.69C1818.61,-441.43 1729.86,-358.56 1687,-318.55"/>
<polygon fill="black" stroke="black" points="1689.25,-315.86 1679.55,-311.6 1684.47,-320.98 1689.25,-315.86"/>
</g>
<!-- VLSM_Lib_StdppListFinSet_set_union_iff -->
<g id="node6" class="node">
<title>VLSM_Lib_StdppListFinSet_set_union_iff</title>
<g id="a_node6"><a xlink:href="VLSM.Lib.StdppListFinSet.html#set_union_iff" xlink:title="set_union_iff" target="_top">
<ellipse fill="#7fffd4" stroke="black" cx="1371" cy="-694.14" rx="57.71" ry="18"/>
<ellipse fill="none" stroke="black" cx="1371" cy="-694.14" rx="61.7" ry="22"/>
<ellipse fill="none" stroke="black" cx="1371" cy="-694.14" rx="65.69" ry="26"/>
<text text-anchor="middle" x="1371" y="-690.44" font-family="Times,serif" font-size="14.00">set_union_iff</text>
</a>
</g>
</g>
<!-- VLSM_Lib_StdppListFinSet_set_union_elim -->
<g id="node7" class="node">
<title>VLSM_Lib_StdppListFinSet_set_union_elim</title>
<g id="a_node7"><a xlink:href="VLSM.Lib.StdppListFinSet.html#set_union_elim" xlink:title="set_union_elim" target="_top">
<ellipse fill="#7fffd4" stroke="black" cx="1297" cy="-494.14" rx="65.79" ry="18"/>
<text text-anchor="middle" x="1297" y="-490.44" font-family="Times,serif" font-size="14.00">set_union_elim</text>
</a>
</g>
</g>
<!-- VLSM_Lib_StdppListFinSet_set_union_iff&#45;&gt;VLSM_Lib_StdppListFinSet_set_union_elim -->
<g id="edge7" class="edge">
<title>VLSM_Lib_StdppListFinSet_set_union_iff&#45;&gt;VLSM_Lib_StdppListFinSet_set_union_elim</title>
<path fill="none" stroke="black" d="M1361.63,-668.07C1347.6,-630.53 1321.25,-560.04 1306.91,-521.67"/>
<polygon fill="black" stroke="black" points="1310.15,-520.34 1303.37,-512.2 1303.6,-522.79 1310.15,-520.34"/>
</g>
<!-- VLSM_Lib_StdppListFinSet_set_union_intro -->
<g id="node8" class="node">
<title>VLSM_Lib_StdppListFinSet_set_union_intro</title>
<g id="a_node8"><a xlink:href="VLSM.Lib.StdppListFinSet.html#set_union_intro" xlink:title="set_union_intro" target="_top">
<ellipse fill="#7fffd4" stroke="black" cx="1446" cy="-494.14" rx="65.79" ry="18"/>
<text text-anchor="middle" x="1446" y="-490.44" font-family="Times,serif" font-size="14.00">set_union_intro</text>
</a>
</g>
</g>
<!-- VLSM_Lib_StdppListFinSet_set_union_iff&#45;&gt;VLSM_Lib_StdppListFinSet_set_union_intro -->
<g id="edge8" class="edge">
<title>VLSM_Lib_StdppListFinSet_set_union_iff&#45;&gt;VLSM_Lib_StdppListFinSet_set_union_intro</title>
<path fill="none" stroke="black" d="M1380.5,-668.07C1394.72,-630.53 1421.42,-560.04 1435.95,-521.67"/>
<polygon fill="black" stroke="black" points="1439.27,-522.79 1439.54,-512.2 1432.72,-520.31 1439.27,-522.79"/>
</g>
<!-- VLSM_Lib_StdppListFinSet_set_union -->
<g id="node20" class="node">
<title>VLSM_Lib_StdppListFinSet_set_union</title>
<g id="a_node20"><a xlink:href="VLSM.Lib.StdppListFinSet.html#set_union" xlink:title="set_union" target="_top">
<ellipse fill="#f070d1" stroke="black" cx="1297" cy="-295.14" rx="44.69" ry="18"/>
<text text-anchor="middle" x="1297" y="-291.44" font-family="Times,serif" font-size="14.00">set_union</text>
</a>
</g>
</g>
<!-- VLSM_Lib_StdppListFinSet_set_union_elim&#45;&gt;VLSM_Lib_StdppListFinSet_set_union -->
<g id="edge9" class="edge">
<title>VLSM_Lib_StdppListFinSet_set_union_elim&#45;&gt;VLSM_Lib_StdppListFinSet_set_union</title>
<path fill="none" stroke="black" d="M1297,-476.01C1297,-441.8 1297,-364.83 1297,-323.54"/>
<polygon fill="black" stroke="black" points="1300.5,-323.38 1297,-313.38 1293.5,-323.38 1300.5,-323.38"/>
</g>
<!-- VLSM_Lib_StdppListFinSet_set_union_intro&#45;&gt;VLSM_Lib_StdppListFinSet_set_union -->
<g id="edge10" class="edge">
<title>VLSM_Lib_StdppListFinSet_set_union_intro&#45;&gt;VLSM_Lib_StdppListFinSet_set_union</title>
<path fill="none" stroke="black" d="M1433.3,-476.35C1406.95,-441.51 1346.26,-361.27 1315.54,-320.65"/>
<polygon fill="black" stroke="black" points="1318.29,-318.48 1309.46,-312.62 1312.7,-322.71 1318.29,-318.48"/>
</g>
<!-- VLSM_Lib_StdppListFinSet_set_remove_iff -->
<g id="node9" class="node">
<title>VLSM_Lib_StdppListFinSet_set_remove_iff</title>
<g id="a_node9"><a xlink:href="VLSM.Lib.StdppListFinSet.html#set_remove_iff" xlink:title="set_remove_iff" target="_top">
<ellipse fill="#7fffd4" stroke="black" cx="1014" cy="-694.14" rx="64.21" ry="18"/>
<ellipse fill="none" stroke="black" cx="1014" cy="-694.14" rx="68.2" ry="22"/>
<ellipse fill="none" stroke="black" cx="1014" cy="-694.14" rx="72.19" ry="26"/>
<text text-anchor="middle" x="1014" y="-690.44" font-family="Times,serif" font-size="14.00">set_remove_iff</text>
</a>
</g>
</g>
<!-- VLSM_Lib_StdppListFinSet_set_remove_3 -->
<g id="node10" class="node">
<title>VLSM_Lib_StdppListFinSet_set_remove_3</title>
<g id="a_node10"><a xlink:href="VLSM.Lib.StdppListFinSet.html#set_remove_3" xlink:title="set_remove_3" target="_top">
<ellipse fill="#7fffd4" stroke="black" cx="875" cy="-494.14" rx="60.39" ry="18"/>
<text text-anchor="middle" x="875" y="-490.44" font-family="Times,serif" font-size="14.00">set_remove_3</text>
</a>
</g>
</g>
<!-- VLSM_Lib_StdppListFinSet_set_remove_iff&#45;&gt;VLSM_Lib_StdppListFinSet_set_remove_3 -->
<g id="edge11" class="edge">
<title>VLSM_Lib_StdppListFinSet_set_remove_iff&#45;&gt;VLSM_Lib_StdppListFinSet_set_remove_3</title>
<path fill="none" stroke="black" d="M996.96,-668.86C970.45,-631.1 919.59,-558.66 892.69,-520.34"/>
<polygon fill="black" stroke="black" points="895.32,-518 886.71,-511.82 889.59,-522.02 895.32,-518"/>
</g>
<!-- VLSM_Lib_StdppListFinSet_set_remove_2 -->
<g id="node11" class="node">
<title>VLSM_Lib_StdppListFinSet_set_remove_2</title>
<g id="a_node11"><a xlink:href="VLSM.Lib.StdppListFinSet.html#set_remove_2" xlink:title="set_remove_2" target="_top">
<ellipse fill="#7fffd4" stroke="black" cx="1014" cy="-494.14" rx="60.39" ry="18"/>
<text text-anchor="middle" x="1014" y="-490.44" font-family="Times,serif" font-size="14.00">set_remove_2</text>
</a>
</g>
</g>
<!-- VLSM_Lib_StdppListFinSet_set_remove_iff&#45;&gt;VLSM_Lib_StdppListFinSet_set_remove_2 -->
<g id="edge12" class="edge">
<title>VLSM_Lib_StdppListFinSet_set_remove_iff&#45;&gt;VLSM_Lib_StdppListFinSet_set_remove_2</title>
<path fill="none" stroke="black" d="M1014,-668.07C1014,-630.84 1014,-561.23 1014,-522.65"/>
<polygon fill="black" stroke="black" points="1017.5,-522.2 1014,-512.2 1010.5,-522.2 1017.5,-522.2"/>
</g>
<!-- VLSM_Lib_StdppListFinSet_set_remove_1 -->
<g id="node12" class="node">
<title>VLSM_Lib_StdppListFinSet_set_remove_1</title>
<g id="a_node12"><a xlink:href="VLSM.Lib.StdppListFinSet.html#set_remove_1" xlink:title="set_remove_1" target="_top">
<ellipse fill="#7fffd4" stroke="black" cx="1153" cy="-494.14" rx="60.39" ry="18"/>
<text text-anchor="middle" x="1153" y="-490.44" font-family="Times,serif" font-size="14.00">set_remove_1</text>
</a>
</g>
</g>
<!-- VLSM_Lib_StdppListFinSet_set_remove_iff&#45;&gt;VLSM_Lib_StdppListFinSet_set_remove_1 -->
<g id="edge13" class="edge">
<title>VLSM_Lib_StdppListFinSet_set_remove_iff&#45;&gt;VLSM_Lib_StdppListFinSet_set_remove_1</title>
<path fill="none" stroke="black" d="M1031.04,-668.86C1057.55,-631.1 1108.41,-558.66 1135.31,-520.34"/>
<polygon fill="black" stroke="black" points="1138.41,-522.02 1141.29,-511.82 1132.68,-518 1138.41,-522.02"/>
</g>
<!-- VLSM_Lib_StdppListFinSet_set_remove -->
<g id="node21" class="node">
<title>VLSM_Lib_StdppListFinSet_set_remove</title>
<g id="a_node21"><a xlink:href="VLSM.Lib.StdppListFinSet.html#set_remove" xlink:title="set_remove" target="_top">
<ellipse fill="#f070d1" stroke="black" cx="1014" cy="-295.14" rx="51.99" ry="18"/>
<text text-anchor="middle" x="1014" y="-291.44" font-family="Times,serif" font-size="14.00">set_remove</text>
</a>
</g>
</g>
<!-- VLSM_Lib_StdppListFinSet_set_remove_3&#45;&gt;VLSM_Lib_StdppListFinSet_set_remove -->
<g id="edge14" class="edge">
<title>VLSM_Lib_StdppListFinSet_set_remove_3&#45;&gt;VLSM_Lib_StdppListFinSet_set_remove</title>
<path fill="none" stroke="black" d="M886.85,-476.35C911.32,-441.67 967.53,-362.01 996.31,-321.22"/>
<polygon fill="black" stroke="black" points="999.27,-323.09 1002.18,-312.9 993.55,-319.05 999.27,-323.09"/>
</g>
<!-- VLSM_Lib_StdppListFinSet_set_remove_2&#45;&gt;VLSM_Lib_StdppListFinSet_set_remove -->
<g id="edge15" class="edge">
<title>VLSM_Lib_StdppListFinSet_set_remove_2&#45;&gt;VLSM_Lib_StdppListFinSet_set_remove</title>
<path fill="none" stroke="black" d="M1014,-476.01C1014,-441.8 1014,-364.83 1014,-323.54"/>
<polygon fill="black" stroke="black" points="1017.5,-323.38 1014,-313.38 1010.5,-323.38 1017.5,-323.38"/>
</g>
<!-- VLSM_Lib_StdppListFinSet_set_remove_1&#45;&gt;VLSM_Lib_StdppListFinSet_set_remove -->
<g id="edge16" class="edge">
<title>VLSM_Lib_StdppListFinSet_set_remove_1&#45;&gt;VLSM_Lib_StdppListFinSet_set_remove</title>
<path fill="none" stroke="black" d="M1141.15,-476.35C1116.68,-441.67 1060.47,-362.01 1031.69,-321.22"/>
<polygon fill="black" stroke="black" points="1034.45,-319.05 1025.82,-312.9 1028.73,-323.09 1034.45,-319.05"/>
</g>
<!-- VLSM_Lib_StdppListFinSet_set_add_iff -->
<g id="node13" class="node">
<title>VLSM_Lib_StdppListFinSet_set_add_iff</title>
<g id="a_node13"><a xlink:href="VLSM.Lib.StdppListFinSet.html#set_add_iff" xlink:title="set_add_iff" target="_top">
<ellipse fill="#7fffd4" stroke="black" cx="671" cy="-694.14" rx="50.08" ry="18"/>
<ellipse fill="none" stroke="black" cx="671" cy="-694.14" rx="54.09" ry="22"/>
<ellipse fill="none" stroke="black" cx="671" cy="-694.14" rx="58.09" ry="26"/>
<text text-anchor="middle" x="671" y="-690.44" font-family="Times,serif" font-size="14.00">set_add_iff</text>
</a>
</g>
</g>
<!-- VLSM_Lib_StdppListFinSet_set_add_elim -->
<g id="node15" class="node">
<title>VLSM_Lib_StdppListFinSet_set_add_elim</title>
<g id="a_node15"><a xlink:href="VLSM.Lib.StdppListFinSet.html#set_add_elim" xlink:title="set_add_elim" target="_top">
<ellipse fill="#7fffd4" stroke="black" cx="604" cy="-494.14" rx="57.69" ry="18"/>
<text text-anchor="middle" x="604" y="-490.44" font-family="Times,serif" font-size="14.00">set_add_elim</text>
</a>
</g>
</g>
<!-- VLSM_Lib_StdppListFinSet_set_add_iff&#45;&gt;VLSM_Lib_StdppListFinSet_set_add_elim -->
<g id="edge17" class="edge">
<title>VLSM_Lib_StdppListFinSet_set_add_iff&#45;&gt;VLSM_Lib_StdppListFinSet_set_add_elim</title>
<path fill="none" stroke="black" d="M662.51,-668.07C649.87,-630.69 626.16,-560.63 613.14,-522.16"/>
<polygon fill="black" stroke="black" points="616.29,-520.55 609.77,-512.2 609.66,-522.79 616.29,-520.55"/>
</g>
<!-- VLSM_Lib_StdppListFinSet_set_add_intro -->
<g id="node16" class="node">
<title>VLSM_Lib_StdppListFinSet_set_add_intro</title>
<g id="a_node16"><a xlink:href="VLSM.Lib.StdppListFinSet.html#set_add_intro" xlink:title="set_add_intro" target="_top">
<ellipse fill="#7fffd4" stroke="black" cx="738" cy="-494.14" rx="58.49" ry="18"/>
<text text-anchor="middle" x="738" y="-490.44" font-family="Times,serif" font-size="14.00">set_add_intro</text>
</a>
</g>
</g>
<!-- VLSM_Lib_StdppListFinSet_set_add_iff&#45;&gt;VLSM_Lib_StdppListFinSet_set_add_intro -->
<g id="edge18" class="edge">
<title>VLSM_Lib_StdppListFinSet_set_add_iff&#45;&gt;VLSM_Lib_StdppListFinSet_set_add_intro</title>
<path fill="none" stroke="black" d="M679.49,-668.07C692.13,-630.69 715.84,-560.63 728.86,-522.16"/>
<polygon fill="black" stroke="black" points="732.34,-522.79 732.23,-512.2 725.71,-520.55 732.34,-522.79"/>
</g>
<!-- VLSM_Lib_StdppListFinSet_set_add_not_empty -->
<g id="node14" class="node">
<title>VLSM_Lib_StdppListFinSet_set_add_not_empty</title>
<g id="a_node14"><a xlink:href="VLSM.Lib.StdppListFinSet.html#set_add_not_empty" xlink:title="set_add_not_empty" target="_top">
<ellipse fill="#7fffd4" stroke="black" cx="440" cy="-494.14" rx="79.89" ry="18"/>
<ellipse fill="none" stroke="black" cx="440" cy="-494.14" rx="83.89" ry="22"/>
<ellipse fill="none" stroke="black" cx="440" cy="-494.14" rx="87.89" ry="26"/>
<text text-anchor="middle" x="440" y="-490.44" font-family="Times,serif" font-size="14.00">set_add_not_empty</text>
</a>
</g>
</g>
<!-- VLSM_Lib_StdppListFinSet_set_add -->
<g id="node22" class="node">
<title>VLSM_Lib_StdppListFinSet_set_add</title>
<g id="a_node22"><a xlink:href="VLSM.Lib.StdppListFinSet.html#set_add" xlink:title="set_add" target="_top">
<ellipse fill="#f070d1" stroke="black" cx="604" cy="-295.14" rx="37.89" ry="18"/>
<text text-anchor="middle" x="604" y="-291.44" font-family="Times,serif" font-size="14.00">set_add</text>
</a>
</g>
</g>
<!-- VLSM_Lib_StdppListFinSet_set_add_not_empty&#45;&gt;VLSM_Lib_StdppListFinSet_set_add -->
<g id="edge19" class="edge">
<title>VLSM_Lib_StdppListFinSet_set_add_not_empty&#45;&gt;VLSM_Lib_StdppListFinSet_set_add</title>
<path fill="none" stroke="black" d="M460.44,-468.59C492.13,-430.52 552.73,-357.73 584.1,-320.05"/>
<polygon fill="black" stroke="black" points="586.98,-322.06 590.69,-312.14 581.6,-317.58 586.98,-322.06"/>
</g>
<!-- VLSM_Lib_StdppListFinSet_set_add_elim&#45;&gt;VLSM_Lib_StdppListFinSet_set_add -->
<g id="edge20" class="edge">
<title>VLSM_Lib_StdppListFinSet_set_add_elim&#45;&gt;VLSM_Lib_StdppListFinSet_set_add</title>
<path fill="none" stroke="black" d="M604,-476.01C604,-441.8 604,-364.83 604,-323.54"/>
<polygon fill="black" stroke="black" points="607.5,-323.38 604,-313.38 600.5,-323.38 607.5,-323.38"/>
</g>
<!-- VLSM_Lib_StdppListFinSet_set_add_intro&#45;&gt;VLSM_Lib_StdppListFinSet_set_add -->
<g id="edge21" class="edge">
<title>VLSM_Lib_StdppListFinSet_set_add_intro&#45;&gt;VLSM_Lib_StdppListFinSet_set_add</title>
<path fill="none" stroke="black" d="M726.58,-476.35C702.93,-441.59 648.53,-361.61 620.85,-320.91"/>
<polygon fill="black" stroke="black" points="623.73,-318.92 615.21,-312.62 617.94,-322.86 623.73,-318.92"/>
</g>
<!-- VLSM_Lib_StdppListFinSet_set_add_intro2 -->
<g id="node17" class="node">
<title>VLSM_Lib_StdppListFinSet_set_add_intro2</title>
<g id="a_node17"><a xlink:href="VLSM.Lib.StdppListFinSet.html#set_add_intro2" xlink:title="set_add_intro2" target="_top">
<ellipse fill="#7fffd4" stroke="black" cx="263" cy="-494.14" rx="63.08" ry="18"/>
<ellipse fill="none" stroke="black" cx="263" cy="-494.14" rx="67.09" ry="22"/>
<ellipse fill="none" stroke="black" cx="263" cy="-494.14" rx="71.09" ry="26"/>
<text text-anchor="middle" x="263" y="-490.44" font-family="Times,serif" font-size="14.00">set_add_intro2</text>
</a>
</g>
</g>
<!-- VLSM_Lib_StdppListFinSet_set_add_intro2&#45;&gt;VLSM_Lib_StdppListFinSet_set_add -->
<g id="edge22" class="edge">
<title>VLSM_Lib_StdppListFinSet_set_add_intro2&#45;&gt;VLSM_Lib_StdppListFinSet_set_add</title>
<path fill="none" stroke="black" d="M299.82,-471.87C367.12,-432.99 508.88,-351.09 572.24,-314.49"/>
<polygon fill="black" stroke="black" points="574.09,-317.46 581,-309.43 570.59,-311.4 574.09,-317.46"/>
</g>
<!-- VLSM_Lib_StdppListFinSet_set_add_intro1 -->
<g id="node18" class="node">
<title>VLSM_Lib_StdppListFinSet_set_add_intro1</title>
<g id="a_node18"><a xlink:href="VLSM.Lib.StdppListFinSet.html#set_add_intro1" xlink:title="set_add_intro1" target="_top">
<ellipse fill="#7fffd4" stroke="black" cx="103" cy="-494.14" rx="63.08" ry="18"/>
<ellipse fill="none" stroke="black" cx="103" cy="-494.14" rx="67.09" ry="22"/>
<ellipse fill="none" stroke="black" cx="103" cy="-494.14" rx="71.09" ry="26"/>
<text text-anchor="middle" x="103" y="-490.44" font-family="Times,serif" font-size="14.00">set_add_intro1</text>
</a>
</g>
</g>
<!-- VLSM_Lib_StdppListFinSet_set_add_intro1&#45;&gt;VLSM_Lib_StdppListFinSet_set_add -->
<g id="edge23" class="edge">
<title>VLSM_Lib_StdppListFinSet_set_add_intro1&#45;&gt;VLSM_Lib_StdppListFinSet_set_add</title>
<path fill="none" stroke="black" d="M154.24,-476.11C239.25,-447.33 414.21,-385.86 557,-321.14 561.72,-319 566.63,-316.6 571.41,-314.16"/>
<polygon fill="black" stroke="black" points="573.15,-317.2 580.38,-309.46 569.9,-311 573.15,-317.2"/>
</g>
<!-- VLSM_Lib_StdppListFinSet_set -->
<g id="node24" class="node">
<title>VLSM_Lib_StdppListFinSet_set</title>
<g id="a_node24"><a xlink:href="VLSM.Lib.StdppListFinSet.html#set" xlink:title="set" target="_top">
<ellipse fill="#f070d1" stroke="black" cx="1014" cy="-113.14" rx="27" ry="18"/>
<text text-anchor="middle" x="1014" y="-109.44" font-family="Times,serif" font-size="14.00">set</text>
</a>
</g>
</g>
<!-- VLSM_Lib_StdppListFinSet_set_diff&#45;&gt;VLSM_Lib_StdppListFinSet_set -->
<g id="edge24" class="edge">
<title>VLSM_Lib_StdppListFinSet_set_diff&#45;&gt;VLSM_Lib_StdppListFinSet_set</title>
<path fill="none" stroke="black" d="M1631.26,-285.34C1521.93,-255.02 1161.52,-155.06 1048.33,-123.66"/>
<polygon fill="black" stroke="black" points="1049.04,-120.23 1038.47,-120.93 1047.17,-126.97 1049.04,-120.23"/>
</g>
<!-- VLSM_Lib_StdppListFinSet_set_union&#45;&gt;VLSM_Lib_StdppListFinSet_set -->
<g id="edge25" class="edge">
<title>VLSM_Lib_StdppListFinSet_set_union&#45;&gt;VLSM_Lib_StdppListFinSet_set</title>
<path fill="none" stroke="black" d="M1273.84,-279.41C1222.07,-246.49 1097.16,-167.04 1041.53,-131.65"/>
<polygon fill="black" stroke="black" points="1043.22,-128.58 1032.91,-126.17 1039.47,-134.49 1043.22,-128.58"/>
</g>
<!-- VLSM_Lib_StdppListFinSet_set_remove&#45;&gt;VLSM_Lib_StdppListFinSet_set -->
<g id="edge26" class="edge">
<title>VLSM_Lib_StdppListFinSet_set_remove&#45;&gt;VLSM_Lib_StdppListFinSet_set</title>
<path fill="none" stroke="black" d="M1014,-276.88C1014,-245.57 1014,-179.16 1014,-141.58"/>
<polygon fill="black" stroke="black" points="1017.5,-141.35 1014,-131.35 1010.5,-141.35 1017.5,-141.35"/>
</g>
<!-- VLSM_Lib_StdppListFinSet_set_add&#45;&gt;VLSM_Lib_StdppListFinSet_set -->
<g id="edge27" class="edge">
<title>VLSM_Lib_StdppListFinSet_set_add&#45;&gt;VLSM_Lib_StdppListFinSet_set</title>
<path fill="none" stroke="black" d="M630.9,-282.33C703.85,-250.31 905.16,-161.93 982.85,-127.82"/>
<polygon fill="black" stroke="black" points="984.37,-130.97 992.12,-123.75 981.56,-124.56 984.37,-130.97"/>
</g>
<!-- VLSM_Lib_StdppListFinSet_empty_set -->
<g id="node23" class="node">
<title>VLSM_Lib_StdppListFinSet_empty_set</title>
<g id="a_node23"><a xlink:href="VLSM.Lib.StdppListFinSet.html#empty_set" xlink:title="empty_set" target="_top">
<ellipse fill="#f070d1" stroke="black" cx="493" cy="-295.14" rx="47.4" ry="18"/>
<ellipse fill="none" stroke="black" cx="493" cy="-295.14" rx="51.4" ry="22"/>
<ellipse fill="none" stroke="black" cx="493" cy="-295.14" rx="55.39" ry="26"/>
<text text-anchor="middle" x="493" y="-291.44" font-family="Times,serif" font-size="14.00">empty_set</text>
</a>
</g>
</g>
<!-- VLSM_Lib_StdppListFinSet_empty_set&#45;&gt;VLSM_Lib_StdppListFinSet_set -->
<g id="edge28" class="edge">
<title>VLSM_Lib_StdppListFinSet_empty_set&#45;&gt;VLSM_Lib_StdppListFinSet_set</title>
<path fill="none" stroke="black" d="M534.21,-277.73C541.77,-274.81 549.6,-271.84 557,-269.14 714.11,-211.85 904.06,-149.66 980.12,-125.05"/>
<polygon fill="black" stroke="black" points="981.64,-128.24 990.08,-121.83 979.49,-121.58 981.64,-128.24"/>
</g>
</g>
</svg>
